<svg width="48" height="48" viewBox="0 0 48 48" fill="none" xmlns="http://www.w3.org/2000/svg">
<rect width="48" height="48" rx="24" fill="#F5F5F5"/>
<path d="M32.52 27.2097L30.72 25.3996V20.9396C30.7439 19.2835 30.1678 17.6746 29.0981 16.41C28.0283 15.1454 26.5372 14.3106 24.9 14.0597C23.9498 13.9345 22.9838 14.0135 22.0666 14.2912C21.1493 14.569 20.3018 15.0392 19.5807 15.6704C18.8595 16.3017 18.2813 17.0794 17.8846 17.9518C17.4878 18.8243 17.2817 19.7713 17.28 20.7296V25.3996L15.48 27.2097C15.2539 27.4395 15.1005 27.7309 15.0392 28.0475C14.9778 28.364 15.011 28.6916 15.1348 28.9893C15.2586 29.287 15.4674 29.5416 15.7351 29.7213C16.0028 29.901 16.3175 29.9978 16.64 29.9997H20V30.3397C20.0467 31.3549 20.4939 32.3101 21.2437 32.9962C21.9935 33.6822 22.9846 34.0431 24 33.9997C25.0153 34.0431 26.0065 33.6822 26.7562 32.9962C27.506 32.3101 27.9532 31.3549 28 30.3397V29.9997H31.36C31.6824 29.9978 31.9971 29.901 32.2648 29.7213C32.5325 29.5416 32.7413 29.287 32.8651 28.9893C32.9889 28.6916 33.0221 28.364 32.9608 28.0475C32.8994 27.7309 32.746 27.4395 32.52 27.2097ZM26 30.3397C25.9445 30.8207 25.7056 31.2617 25.333 31.5709C24.9605 31.8802 24.4829 32.0337 24 31.9997C23.517 32.0337 23.0395 31.8802 22.6669 31.5709C22.2943 31.2617 22.0554 30.8207 22 30.3397V29.9997H26V30.3397ZM17.51 27.9997L18.69 26.8196C18.8771 26.6336 19.0256 26.4123 19.1269 26.1686C19.2281 25.9249 19.2802 25.6636 19.28 25.3996V20.7296C19.2805 20.0551 19.4253 19.3884 19.7047 18.7744C19.9842 18.1603 20.3917 17.6132 20.9 17.1697C21.4014 16.7153 21.9955 16.3754 22.6413 16.1734C23.2871 15.9714 23.969 15.9121 24.64 15.9997C25.7964 16.1874 26.8461 16.7867 27.5958 17.687C28.3455 18.5874 28.7447 19.7283 28.72 20.8996V25.3996C28.7184 25.6629 28.7689 25.9238 28.8684 26.1675C28.9679 26.4111 29.1146 26.6328 29.3 26.8196L30.49 27.9997H17.51Z" fill="#1D1D1B"/>
</svg>
