<svg width="6" height="10" viewBox="0 0 6 10" fill="none" xmlns="http://www.w3.org/2000/svg">
<path d="M1.25 9.16681C1.14033 9.16745 1.03161 9.14642 0.930078 9.10495C0.828547 9.06348 0.7362 9.00238 0.658333 8.92514C0.580226 8.84767 0.518231 8.75551 0.475924 8.65396C0.433617 8.55241 0.411835 8.44349 0.411835 8.33348C0.411835 8.22347 0.433617 8.11455 0.475924 8.013C0.518231 7.91145 0.580226 7.81928 0.658333 7.74181L3.41667 5.00014L0.766667 2.24181C0.611458 2.08568 0.52434 1.87447 0.52434 1.65431C0.52434 1.43416 0.611458 1.22295 0.766667 1.06681C0.844136 0.988704 0.936303 0.926709 1.03785 0.884401C1.1394 0.842094 1.24832 0.820312 1.35833 0.820312C1.46834 0.820312 1.57726 0.842094 1.67881 0.884401C1.78036 0.926709 1.87253 0.988704 1.95 1.06681L5.16667 4.40014C5.31936 4.55592 5.40488 4.76535 5.40488 4.98348C5.40488 5.2016 5.31936 5.41104 5.16667 5.56681L1.83333 8.90014C1.75854 8.98092 1.66847 9.04608 1.56835 9.09185C1.46823 9.13762 1.36003 9.1631 1.25 9.16681Z" fill="#757575"/>
</svg>
