<svg width="24" height="24" viewBox="0 0 24 24" fill="none" xmlns="http://www.w3.org/2000/svg">
<g clip-path="url(#clip0_2527_10230)">
<rect width="24" height="24" rx="12" fill="#F5F5F5"/>
<path d="M21.2777 21.5292C21.2777 24.5198 17.0902 26.9442 11.9246 26.9442C6.75905 26.9442 2.57153 24.5198 2.57153 21.5292C2.57153 18.5386 6.75905 16.1143 11.9246 16.1143C17.0902 16.1143 21.2777 18.5386 21.2777 21.5292Z" fill="#9E9E9E"/>
<path d="M16.2858 10.2857C16.2858 12.6526 14.367 14.5714 12.0001 14.5714C9.63317 14.5714 7.71439 12.6526 7.71439 10.2857C7.71439 7.91878 9.63317 6 12.0001 6C14.367 6 16.2858 7.91878 16.2858 10.2857Z" fill="#9E9E9E"/>
</g>
<defs>
<clipPath id="clip0_2527_10230">
<rect width="24" height="24" rx="12" fill="white"/>
</clipPath>
</defs>
</svg>
