<svg width="24" height="24" viewBox="0 0 24 24" fill="none" xmlns="http://www.w3.org/2000/svg">
<path fill-rule="evenodd" clip-rule="evenodd" d="M11.4759 2.14834C11.7973 1.95055 12.2027 1.95055 12.5241 2.14834L22.2741 8.14834C22.6551 8.38282 22.834 8.84186 22.7122 9.27234C22.5904 9.70283 22.1974 10 21.75 10H19.75V14.75H21C21.5523 14.75 22 15.1977 22 15.75C22 16.3023 21.5523 16.75 21 16.75H3C2.44771 16.75 2 16.3023 2 15.75C2 15.1977 2.44771 14.75 3 14.75H4.25V10H2.25C1.8026 10 1.40965 9.70283 1.2878 9.27234C1.16595 8.84186 1.34487 8.38282 1.7259 8.14834L11.4759 2.14834ZM6.25 10V14.75H8.75V10H6.25ZM10.75 10V14.75H13.25V10H10.75ZM5.78304 8L12 4.17418L18.217 8H5.78304ZM15.25 10V14.75H17.75V10H15.25ZM0.5 19.5C0.5 18.9477 0.947715 18.5 1.5 18.5H22.5C23.0523 18.5 23.5 18.9477 23.5 19.5C23.5 20.0523 23.0523 20.5 22.5 20.5H1.5C0.947715 20.5 0.5 20.0523 0.5 19.5Z" fill="#1D1D1B"/>
</svg>
