<svg width="48" height="48" viewBox="0 0 48 48" fill="none" xmlns="http://www.w3.org/2000/svg">
<rect width="48" height="48" rx="24" fill="#F5F5F5"/>
<path d="M24 14C21.3477 14 18.8041 15.0538 16.9291 16.9291C15.0538 18.8044 14 21.348 14 24C14 26.652 15.0538 29.1959 16.9291 31.0709C18.8044 32.9462 21.348 34 24 34C26.652 34 29.1959 32.9462 31.0709 31.0709C32.9462 29.1956 34 26.652 34 24C34 21.348 32.9462 18.8041 31.0709 16.9291C29.1956 15.0538 26.652 14 24 14ZM24 15.9356C26.8139 15.9361 29.424 17.4032 30.8872 19.8066H17.1128C18.5759 17.4031 21.1861 15.9361 24 15.9356ZM16.258 26.2583H18.8387H18.8385C19.2662 26.2583 19.6767 26.4282 19.9791 26.7309C20.2815 27.0333 20.4514 27.4435 20.4514 27.8712V31.2391C18.4186 30.2384 16.8975 28.432 16.258 26.2583ZM27.5484 31.2391V27.8712C27.5484 27.4435 27.7183 27.0333 28.0207 26.7308C28.3232 26.4282 28.7336 26.2583 29.1614 26.2583H31.7421H31.7419C31.1023 28.432 29.5812 30.2384 27.5484 31.2391ZM32.0645 24.3231H29.1613C28.2201 24.3231 27.3175 24.6969 26.6522 25.3622C25.9865 26.0278 25.6128 26.9304 25.6128 27.8714V31.9037C24.5484 32.1202 23.4513 32.1202 22.387 31.9037V27.8714C22.387 26.9304 22.0132 26.0278 21.3476 25.3622C20.6822 24.6968 19.7797 24.3231 18.8384 24.3231H15.9353V24.0004C15.9348 23.2362 16.0435 22.4759 16.258 21.7424H31.742C31.9564 22.4759 32.0651 23.2363 32.0647 24.0004V24.3231H32.0645Z" fill="#1D1D1B"/>
</svg>
