<svg width="20" height="18" viewBox="0 0 20 18" fill="none" xmlns="http://www.w3.org/2000/svg">
<path d="M17 4H14V2.5C14 1.83696 13.7366 1.20107 13.2678 0.732233C12.7989 0.263392 12.163 0 11.5 0H8.5C7.83696 0 7.20107 0.263392 6.73223 0.732233C6.26339 1.20107 6 1.83696 6 2.5V4H3C2.20435 4 1.44129 4.31607 0.87868 4.87868C0.316071 5.44129 0 6.20435 0 7V15C0 15.7956 0.316071 16.5587 0.87868 17.1213C1.44129 17.6839 2.20435 18 3 18H17C17.7956 18 18.5587 17.6839 19.1213 17.1213C19.6839 16.5587 20 15.7956 20 15V7C20 6.20435 19.6839 5.44129 19.1213 4.87868C18.5587 4.31607 17.7956 4 17 4ZM8 2.5C8 2.36739 8.05268 2.24021 8.14645 2.14645C8.24021 2.05268 8.36739 2 8.5 2H11.5C11.6326 2 11.7598 2.05268 11.8536 2.14645C11.9473 2.24021 12 2.36739 12 2.5V4H8V2.5ZM18 15C18 15.2652 17.8946 15.5196 17.7071 15.7071C17.5196 15.8946 17.2652 16 17 16H3C2.73478 16 2.48043 15.8946 2.29289 15.7071C2.10536 15.5196 2 15.2652 2 15V7C2 6.73478 2.10536 6.48043 2.29289 6.29289C2.48043 6.10536 2.73478 6 3 6H17C17.2652 6 17.5196 6.10536 17.7071 6.29289C17.8946 6.48043 18 6.73478 18 7V15Z" fill="#1D1D1B"/>
<path d="M10 7.5C9.30777 7.5 8.63108 7.70527 8.0555 8.08986C7.47993 8.47444 7.03133 9.02107 6.76642 9.66061C6.50151 10.3001 6.4322 11.0039 6.56725 11.6828C6.7023 12.3618 7.03564 12.9854 7.52513 13.4749C8.01461 13.9644 8.63825 14.2977 9.31718 14.4327C9.99612 14.5678 10.6999 14.4985 11.3394 14.2336C11.9789 13.9687 12.5256 13.5201 12.9101 12.9445C13.2947 12.3689 13.5 11.6922 13.5 11C13.5 10.0717 13.1313 9.1815 12.4749 8.52513C11.8185 7.86875 10.9283 7.5 10 7.5ZM10 12.5C9.70333 12.5 9.41332 12.412 9.16665 12.2472C8.91997 12.0824 8.72771 11.8481 8.61418 11.574C8.50065 11.2999 8.47094 10.9983 8.52882 10.7074C8.5867 10.4164 8.72956 10.1491 8.93934 9.93934C9.14912 9.72956 9.41639 9.5867 9.70736 9.52882C9.99834 9.47094 10.2999 9.50065 10.574 9.61418C10.8481 9.72771 11.0824 9.91997 11.2472 10.1666C11.412 10.4133 11.5 10.7033 11.5 11C11.5 11.3978 11.342 11.7794 11.0607 12.0607C10.7794 12.342 10.3978 12.5 10 12.5Z" fill="#1D1D1B"/>
</svg>
