<svg width="52" height="40" viewBox="0 0 52 40" fill="none" xmlns="http://www.w3.org/2000/svg">
<path d="M38.6352 12.4066C38.6352 12.5294 38.6352 12.6523 38.6598 12.726C38.6598 12.7505 38.6843 12.7751 38.7089 12.7997C38.7335 12.8243 38.7335 12.8242 38.758 12.8488C38.8563 12.9225 39.0037 13.0208 39.2002 13.0454C39.274 13.0454 39.3477 13.0699 39.4214 13.0454C39.4214 13.0454 39.4459 13.0454 39.4705 13.0454C39.5442 13.0454 39.6425 13.0208 39.7162 12.9717C39.7407 12.9717 39.7407 12.9471 39.7653 12.9471C39.7899 12.9471 39.8144 12.9225 39.8144 12.9225C40.183 12.7014 40.6006 12.2838 40.7726 11.9152C40.7971 11.8661 40.8217 11.817 40.8463 11.7433C40.8708 11.6696 40.8708 11.5959 40.8954 11.5467C40.8954 11.5222 40.8954 11.5222 40.8954 11.4976C40.8954 11.4485 40.8954 11.3748 40.8954 11.3256C40.8954 11.2765 40.8954 11.2519 40.8954 11.2028C40.8954 11.1782 40.8954 11.1536 40.8954 11.1291C40.8954 11.0554 40.8708 10.9817 40.8463 10.908C40.7971 10.7606 40.748 10.6132 40.6497 10.5395C40.576 10.4658 40.4778 10.4412 40.3795 10.4658C40.1338 10.4903 39.7899 10.7114 39.2248 11.1045C38.9791 11.2765 38.758 11.5467 38.6843 11.817V11.8415C38.6843 11.8907 38.6598 11.9152 38.6598 11.9644C38.6598 12.0135 38.6598 12.0872 38.6598 12.1609C38.6352 12.2101 38.6352 12.3083 38.6352 12.4066Z" fill="#9C7B1E"/>
<path d="M39.1019 12.1855V12.2592C39.1019 12.2592 39.1019 12.2592 39.1019 12.2838C39.1019 12.4557 39.1265 12.6277 39.2002 12.7505C39.2493 12.8488 39.323 12.9471 39.3967 12.9716C39.495 13.0208 39.6178 13.0208 39.7652 12.9471C39.7898 12.9471 39.8144 12.9225 39.8389 12.9225C40.2566 12.7014 40.6251 12.3083 40.7971 11.9152C40.8216 11.8661 40.8462 11.817 40.8708 11.7433C40.8953 11.6696 40.8953 11.6204 40.9199 11.5467V11.5222C40.9199 11.4976 40.9199 11.4976 40.9199 11.473C40.9199 11.4239 40.9199 11.3502 40.9199 11.301C40.9199 11.2519 40.9199 11.2273 40.9199 11.1782C40.9199 11.1536 40.9199 11.1291 40.9199 11.1045C40.9199 11.0062 40.8953 10.9325 40.8708 10.8834C40.8462 10.7851 40.7725 10.736 40.7234 10.7114C40.6988 10.7114 40.6497 10.7114 40.6005 10.7114C40.404 10.736 40.06 10.8834 39.8144 11.0799C39.5441 11.3502 39.1265 11.645 39.1019 12.1855Z" fill="#C29823"/>
<path d="M37.4314 38.7431L40.6743 37.5393L50.8699 31.6431C50.8699 31.6431 52 30.1445 52 29.8497C52 29.5057 51.7543 29.1126 51.2384 28.8178L17.6544 9.4585C16.7454 8.91801 15.3451 8.86888 14.5589 9.33566L0.530767 17.443C-0.255398 17.9098 -0.157127 18.6959 0.751876 19.2364L34.3359 38.6203C35.2694 39.1608 36.6452 39.2099 37.4314 38.7431Z" fill="#FFEAB0"/>
<path d="M20.9956 7.1001L6.10758 15.7479C5.51796 16.0919 5.14944 16.8289 5.14944 17.8607L20.0129 9.21292C20.0374 8.18107 20.406 7.44404 20.9956 7.1001Z" fill="#262626"/>
<path d="M7.75367 17.345C7.85194 17.1485 7.95021 16.9519 8.04848 16.7554C7.92564 17.001 7.87651 17.3204 7.87651 17.6889C7.90107 19.0893 8.88378 20.7845 10.1122 21.4478L9.54711 21.4232C8.4907 20.8336 7.63083 19.3841 7.60626 18.1557C7.60626 17.8363 7.6554 17.5661 7.75367 17.345Z" fill="url(#paint0_linear_2589_1379)"/>
<path d="M9.52256 21.0544C8.63813 20.5631 7.92567 19.3592 7.9011 18.3274C7.9011 17.8115 8.07307 17.4184 8.36788 17.271L8.24504 17.3447C7.95023 17.5167 7.77826 17.8852 7.77826 18.4011C7.80283 19.4329 8.51529 20.6368 9.39972 21.1281C9.81737 21.3738 10.2105 21.3738 10.4807 21.2264L10.6035 21.1527C10.3333 21.3247 9.96478 21.3001 9.52256 21.0544Z" fill="url(#paint1_linear_2589_1379)"/>
<path d="M6.99202 16.6817L7.40967 16.436C6.94288 16.7063 6.67264 17.2713 6.69721 18.0821C6.72178 19.6544 7.82732 21.5215 9.17854 22.2831L8.76089 22.5288C7.40967 21.7918 6.30413 19.9001 6.27956 18.3277C6.25499 17.517 6.52523 16.952 6.99202 16.6817Z" fill="#141414"/>
<path d="M11.66 20.6374C11.66 20.5391 11.66 20.3671 11.6108 20.1706C11.5863 19.9249 11.5126 19.7284 11.5126 19.6792C11.4634 19.5318 11.4143 19.3598 11.3652 19.2124C11.2915 18.9422 11.1932 18.7456 11.1932 18.7456C11.1686 18.6719 11.1195 18.5982 11.0704 18.5245C11.0212 18.4508 10.9967 18.3771 10.9475 18.3034C10.8984 18.2297 10.8492 18.156 10.8247 18.0823C10.7755 18.0086 10.6281 17.7875 10.5299 17.6647C10.4807 17.6155 10.407 17.5173 10.3579 17.4681C10.2596 17.3699 10.1368 17.2225 10.0139 17.1242C9.96481 17.075 9.89111 17.0013 9.81741 16.9522C9.76827 16.9031 9.69457 16.8539 9.64543 16.8048C9.64543 16.8048 9.44889 16.6574 9.25235 16.5591C9.17865 16.51 9.08038 16.4609 9.00667 16.4363C8.95754 16.4117 8.88383 16.3872 8.8347 16.3626C8.78556 16.338 8.71186 16.3134 8.66273 16.3134C8.58902 16.2889 8.46618 16.2643 8.39248 16.2643C8.34335 16.2643 8.29421 16.2397 8.24508 16.2397C8.17137 16.2397 8.09767 16.2397 8.02397 16.2397C7.9257 16.2397 7.77829 16.2643 7.72916 16.2889C7.68002 16.3134 7.63088 16.3134 7.58175 16.338C7.50805 16.3626 7.43434 16.4117 7.38521 16.4363C6.91842 16.7065 6.64818 17.2716 6.67275 18.0823C6.69731 19.6546 7.80286 21.5218 9.15408 22.2834C9.81741 22.6519 10.407 22.6765 10.8247 22.4308C10.8738 22.4062 10.9475 22.3571 10.9967 22.308C11.0212 22.2834 11.0704 22.2588 11.0949 22.2343C11.1441 22.2097 11.2178 22.1114 11.2669 22.0623C11.2915 22.0377 11.316 21.9886 11.3406 21.964C11.3897 21.9149 11.4143 21.8166 11.4634 21.7675C11.5126 21.6938 11.5371 21.5955 11.5617 21.4972C11.5863 21.4481 11.6354 21.3007 11.66 21.0796C11.66 21.0059 11.6845 20.9076 11.6845 20.8339C11.66 20.7602 11.66 20.6865 11.66 20.6374ZM9.42432 21.1287C8.53989 20.6374 7.82743 19.4335 7.80286 18.4017C7.77829 17.3699 8.49075 16.9522 9.35062 17.419C10.2351 17.9103 10.9475 19.1142 10.9721 20.146C10.9967 21.1778 10.2842 21.6201 9.42432 21.1287Z" fill="url(#paint2_linear_2589_1379)"/>
<path d="M8.44148 21.6936C7.55704 21.2022 6.84458 19.9984 6.82001 18.9666C6.82001 18.4506 6.99199 18.0576 7.2868 17.9102L7.16396 17.9839C6.86915 18.1558 6.69717 18.5243 6.69717 19.0403C6.72174 20.0721 7.4342 21.2759 8.31864 21.7673C8.73629 22.013 9.12937 22.013 9.39962 21.8655L9.52245 21.7918C9.25221 21.9393 8.8837 21.9147 8.44148 21.6936Z" fill="url(#paint3_linear_2589_1379)"/>
<path d="M10.2595 20.5142C10.2595 20.4897 10.2595 20.4651 10.2349 20.416C10.284 20.6125 10.284 20.8091 10.3086 20.981C10.3332 22.2585 9.44873 22.799 8.36775 22.1848C7.28678 21.5707 6.37777 20.0475 6.35321 18.7945C6.32864 17.517 7.21307 16.9765 8.29405 17.5907C8.49059 17.689 8.66257 17.8364 8.83454 17.9838C8.80997 17.9592 8.7854 17.9346 8.76084 17.9346C8.5643 17.7627 8.39232 17.6398 8.17121 17.517C7.01653 16.8782 6.08296 17.4433 6.10753 18.7945C6.1321 20.1457 7.09024 21.7672 8.24492 22.406C9.39959 23.0447 10.3332 22.4797 10.3086 21.1284C10.3086 20.9073 10.3086 20.7108 10.2595 20.5142Z" fill="url(#paint4_linear_2589_1379)"/>
<path d="M8.36786 22.2095C7.28688 21.5953 6.37788 20.0721 6.35331 18.8191C6.32875 17.5416 7.21318 17.0011 8.29416 17.6153C9.37513 18.2295 10.2841 19.7527 10.3087 21.0057C10.3087 22.2586 9.44884 22.7991 8.36786 22.2095ZM8.36786 21.9884C9.35057 22.5289 10.1613 22.0375 10.1367 20.8828C10.1122 19.7281 9.30143 18.3278 8.31873 17.7873C7.33602 17.2468 6.52529 17.7382 6.54985 18.8928C6.54985 20.0475 7.36059 21.4479 8.36786 21.9884Z" fill="url(#paint5_linear_2589_1379)"/>
<path d="M10.3333 20.5635C10.3088 20.5635 10.2842 20.539 10.2842 20.539C10.3088 20.539 10.3088 20.5635 10.3333 20.5635C10.1368 19.5563 9.5226 18.4998 8.761 17.8119C8.761 17.8611 8.761 17.8857 8.761 17.9102C8.761 17.8857 8.73643 17.8611 8.761 17.8119C8.56446 17.64 8.34335 17.4926 8.14681 17.3697C6.91843 16.6818 5.93572 17.296 5.96029 18.7455C5.98486 20.195 6.99213 21.9147 8.24508 22.6026C9.47346 23.2905 10.4562 22.6763 10.4316 21.2269C10.407 21.0057 10.3825 20.7846 10.3333 20.5635ZM8.26965 22.4061C7.11497 21.7673 6.15683 20.1459 6.13226 18.7947C6.1077 17.4434 7.04127 16.8538 8.19595 17.5171C8.39249 17.64 8.58903 17.7628 8.78557 17.9348C8.8347 17.9839 8.90841 18.0576 8.95754 18.1068C9.10495 18.2542 9.15408 18.3279 9.25236 18.4261C9.32606 18.5244 9.42433 18.6472 9.49803 18.7455C9.57173 18.8684 9.67001 19.0158 9.74371 19.1386C9.84198 19.3351 9.98938 19.6054 10.0385 19.7528C10.0631 19.8019 10.0877 19.9002 10.1122 19.9493C10.1368 20.023 10.1614 20.0967 10.1859 20.1459C10.2105 20.2687 10.2596 20.4161 10.2842 20.5144C10.3333 20.7109 10.3579 20.932 10.3579 21.1286C10.3333 22.4552 9.42433 23.0449 8.26965 22.4061Z" fill="url(#paint6_linear_2589_1379)"/>
<path d="M13.3305 20.1212C13.3059 18.3277 12.053 16.2149 10.5052 15.355C9.7682 14.9374 9.0803 14.9128 8.61352 15.2076C8.0976 15.5024 7.06575 16.0921 6.5744 16.3869C7.06575 16.0921 7.72908 16.1412 8.46611 16.5343C9.98931 17.3696 11.2423 19.507 11.2668 21.2758C11.2668 21.7426 11.1931 22.1111 11.0703 22.4305C10.7755 22.406 10.4561 22.2831 10.1121 22.0866L8.56438 22.971C9.30141 23.3887 9.96474 23.4132 10.4561 23.143C10.972 22.8482 12.0039 22.2585 12.5198 21.9637C13.0357 21.6935 13.3551 21.0547 13.3305 20.1212Z" fill="url(#paint7_linear_2589_1379)"/>
<path d="M8.22046 22.7989C6.89381 22.0619 5.78826 20.1948 5.7637 18.6224C5.73913 17.0501 6.79554 16.3868 8.14676 17.1238C9.47341 17.8608 10.579 19.728 10.6035 21.3003C10.6281 22.8726 9.54711 23.536 8.22046 22.7989ZM8.22046 22.283C9.30144 22.8726 10.1859 22.3322 10.1613 21.0792C10.1367 19.8017 9.2523 18.2785 8.14676 17.6889C7.04121 17.0992 6.18134 17.6397 6.20591 18.8927C6.23048 20.1456 7.11492 21.6688 8.22046 22.283Z" fill="url(#paint8_linear_2589_1379)"/>
<path d="M8.31871 23.0202C8.24501 22.9957 8.17131 22.9465 8.12217 22.8974C8.04847 22.8483 7.9502 22.7746 7.8765 22.7254C7.75366 22.6272 7.60625 22.5043 7.48341 22.406C7.28687 22.2095 7.13947 22.0621 7.09033 21.9884C6.91836 21.7919 6.79552 21.6444 6.74638 21.5462C6.72182 21.5216 6.57441 21.3251 6.427 21.0794C6.32873 20.9074 6.23046 20.7354 6.15676 20.588C5.93565 20.0967 5.81281 19.7282 5.76368 19.5562C5.73911 19.4825 5.68998 19.2614 5.66541 19.0403C5.61627 18.77 5.61627 18.5735 5.61627 18.5244C5.61627 18.3524 5.61627 18.205 5.64084 18.033C5.64084 17.9593 5.66541 17.861 5.68998 17.7628C5.68998 17.7136 5.71454 17.6399 5.73911 17.5908C5.76368 17.5171 5.78825 17.4188 5.81281 17.3451C5.83738 17.296 5.86195 17.2468 5.88652 17.1977C5.91108 17.124 5.98479 17.0257 6.03392 16.952C6.08306 16.8783 6.15676 16.8046 6.2059 16.7309C6.23046 16.7063 6.2796 16.6572 6.30417 16.6326C6.32873 16.6081 6.37787 16.5589 6.40244 16.5589C6.45157 16.5098 6.52528 16.4607 6.59898 16.4361C7.09033 16.1413 7.75366 16.1904 8.49069 16.5835C10.0139 17.4188 11.2668 19.5562 11.2914 21.3251C11.316 22.2341 10.9966 22.8974 10.4561 23.1922C10.4315 23.2168 10.3824 23.2413 10.3333 23.2413C10.2841 23.2659 10.235 23.2905 10.1859 23.315C10.1122 23.3396 10.0139 23.3642 9.91561 23.3888C9.84191 23.4133 9.76821 23.4133 9.6945 23.4133C9.6208 23.4133 9.52253 23.4133 9.44883 23.4133C9.39969 23.4133 9.32599 23.4133 9.27685 23.3888C9.17858 23.3642 9.05574 23.3642 8.95747 23.315C8.83463 23.2905 8.68723 23.2168 8.58896 23.1922C8.51526 23.1431 8.41698 23.0694 8.31871 23.0202C8.24501 22.9957 8.22044 22.8974 8.22044 22.7991C9.5471 23.5362 10.6281 22.8728 10.6035 21.3005C10.5789 19.7282 9.47339 17.861 8.14674 17.124C6.82009 16.387 5.73911 17.0503 5.76368 18.6226C5.78825 20.195 6.89379 22.0621 8.22044 22.7991C8.22044 22.922 8.26958 22.9957 8.31871 23.0202Z" fill="url(#paint9_linear_2589_1379)"/>
<path d="M9.91548 21.6933C9.94004 21.6196 9.96461 21.5459 9.98918 21.4722C10.0137 21.3739 10.0629 21.2757 10.0874 21.1774C9.98918 21.1528 9.89091 21.1037 9.76807 21.03C8.85907 20.5141 8.09747 19.2365 8.0729 18.1801C8.0729 18.0327 8.0729 17.8853 8.12204 17.7625C7.9992 17.7625 7.90093 17.7134 7.77809 17.6888C7.70439 17.6642 7.65525 17.6642 7.58155 17.6396L7.50785 17.6888C7.45871 17.7134 7.40958 17.7625 7.36044 17.8116L7.18847 17.9099C6.89365 18.0819 6.69711 18.4749 6.69711 18.9909C6.72168 20.0473 7.45871 21.3002 8.36771 21.8161C8.80993 22.0618 9.22758 22.0864 9.52239 21.9144C9.57153 21.8899 9.62066 21.8653 9.64523 21.8161C9.71893 21.7916 9.8172 21.767 9.89091 21.7179C9.86634 21.7179 9.89091 21.7179 9.91548 21.6933Z" fill="url(#paint10_linear_2589_1379)"/>
<path d="M10.0139 21.1528C9.91561 21.1283 9.84191 21.0791 9.74364 21.03C8.83463 20.5141 8.07304 19.2365 8.04847 18.1801C8.04847 18.0327 8.04847 17.8853 8.0976 17.7625C7.99933 17.7625 7.90106 17.7134 7.80279 17.6888C7.72909 17.6642 7.67995 17.6642 7.60625 17.6396C7.31144 17.8116 7.13947 18.2047 7.13947 18.7206C7.16403 19.777 7.90106 21.03 8.81007 21.5459C9.25228 21.7916 9.66993 21.8162 9.96475 21.6442C9.98931 21.6442 9.98931 21.6196 10.0139 21.6196C10.0139 21.4476 10.0139 21.3002 10.0139 21.1528Z" fill="url(#paint11_linear_2589_1379)"/>
<path d="M8.02378 19.1874C7.87638 19.2119 7.65527 19.1382 7.45873 19.04C7.33589 18.9663 7.23762 18.8926 7.16391 18.8188L7.04108 18.8925C7.11478 18.9663 7.23762 19.04 7.33589 19.1137C7.60613 19.2856 7.92551 19.3593 8.02378 19.1874Z" fill="url(#paint12_linear_2589_1379)"/>
<path d="M8.81 18.8928C8.53975 18.7454 8.29408 18.1803 8.22037 17.7627C8.17124 17.7873 8.1221 17.7873 8.07297 17.8118C8.14667 18.2295 8.39235 18.8191 8.68716 18.9911C8.81 19.0648 8.93283 19.0402 9.03111 18.9419C8.9574 18.9419 8.8837 18.9419 8.81 18.8928Z" fill="url(#paint13_linear_2589_1379)"/>
<path d="M9.10492 21.7673L9.22775 21.6936C9.05578 21.325 8.93294 20.7109 9.08035 20.4897C9.05578 20.4897 9.05578 20.4897 9.03121 20.4897C8.78554 20.588 8.90838 21.3496 9.10492 21.7673Z" fill="url(#paint14_linear_2589_1379)"/>
<path d="M7.43427 19.8507L7.45884 19.8262C7.38514 19.8507 7.336 19.8753 7.28687 19.9244C7.28687 19.949 7.43427 19.8507 7.43427 19.8507Z" fill="url(#paint15_linear_2589_1379)"/>
<path d="M10.0876 20.5145C9.79279 20.3425 9.47341 20.0231 9.39971 19.7283C9.35057 19.5072 9.42427 19.3352 9.57168 19.2124C9.35057 19.3107 9.1786 19.5072 9.2523 19.802C9.326 20.1214 9.69452 20.4408 9.98933 20.6128C10.0139 20.6373 10.0385 20.6373 10.063 20.6619C10.0876 20.6128 10.0876 20.5636 10.0876 20.5145Z" fill="url(#paint16_linear_2589_1379)"/>
<path d="M10.0629 20.637C10.0383 20.637 10.0383 20.6124 10.0138 20.6124C9.69438 20.4404 9.35044 20.1211 9.27673 19.8017C9.20303 19.5069 9.39957 19.2858 9.62068 19.2121C9.57154 19.1138 9.52241 19.0155 9.44871 18.9172C9.375 18.819 9.27673 18.7207 9.20303 18.647C9.10476 18.9172 8.90822 19.1138 8.66254 18.9664C8.31859 18.7698 8.04835 17.9837 8.02378 17.5906C7.77811 17.566 7.557 17.6397 7.38502 17.7871C7.7044 18.0819 8.17119 18.8435 8.07292 19.1629C7.99922 19.384 7.65527 19.3349 7.33589 19.1629C7.21305 19.0892 7.11478 19.0155 7.04108 18.9418C7.06564 19.2858 7.16391 19.6297 7.31132 19.9737C7.45873 19.8262 7.82724 19.7525 8.09749 19.9245C8.17119 19.9737 8.26946 20.0474 8.31859 20.1211C8.58884 20.5141 8.49057 21.1529 8.29403 21.374C8.3923 21.4723 8.51514 21.546 8.61341 21.6197C8.61341 21.6197 8.61341 21.6197 8.63797 21.6197C8.63797 21.6197 8.63797 21.6197 8.66254 21.6197H8.68711H8.71168C8.71168 21.6197 8.71168 21.6197 8.73624 21.6197C8.73624 21.6197 8.73624 21.6197 8.76081 21.6197C8.88365 21.6688 8.98192 21.718 9.08019 21.7425C8.88365 21.3249 8.76081 20.5387 9.03106 20.465C9.10476 20.4404 9.17846 20.465 9.25217 20.5141C9.52241 20.6615 9.89092 21.1038 10.0383 21.4477C10.112 21.202 10.0875 20.9318 10.0629 20.637Z" fill="url(#paint17_linear_2589_1379)"/>
<path d="M8.66252 19.3349C8.49055 19.2367 8.34314 19.3349 8.34314 19.5315C8.34314 19.728 8.49055 19.9737 8.66252 20.072C8.83449 20.1702 8.9819 20.072 8.9819 19.8754C8.9819 19.6789 8.83449 19.4332 8.66252 19.3349Z" fill="url(#paint18_linear_2589_1379)"/>
<path d="M8.71183 19.4088C8.58899 19.3351 8.49072 19.4088 8.49072 19.5562C8.49072 19.7036 8.58899 19.8756 8.71183 19.9493C8.83467 20.023 8.93294 19.9493 8.93294 19.8019C8.95751 19.6545 8.83467 19.4825 8.71183 19.4088Z" fill="url(#paint19_linear_2589_1379)"/>
<path d="M8.41686 17.738C7.92551 17.4677 7.48329 17.4431 7.16391 17.6397L7.04108 17.7134C7.36046 17.5169 7.80267 17.5414 8.29403 17.8117C9.3013 18.3767 10.112 19.7525 10.1366 20.9318C10.1366 21.5214 9.94006 21.939 9.59611 22.1356L9.71895 22.0619C10.0629 21.8653 10.2594 21.4477 10.2594 20.8581C10.2349 19.6788 9.39957 18.303 8.41686 17.738Z" fill="url(#paint20_linear_2589_1379)"/>
<path d="M10.1367 20.9072C10.1612 22.0618 9.35051 22.5532 8.34324 21.9881C7.33597 21.4231 6.52523 20.0473 6.50067 18.868C6.4761 17.7134 7.28683 17.222 8.2941 17.7871C9.30138 18.3521 10.1121 19.7525 10.1367 20.9072ZM9.9647 20.8089C9.94014 19.7525 9.20311 18.4995 8.2941 17.9836C7.3851 17.4677 6.64807 17.9099 6.67264 18.9663C6.69721 20.0227 7.43424 21.2757 8.34324 21.7916C9.25224 22.3075 9.98927 21.8653 9.9647 20.8089Z" fill="#E3E3E4"/>
<path d="M4.55983 9.90076L19.4233 1.25295L16.1558 0L14.8537 0.196541L13.3796 0.810732L10.7017 2.13739L5.51797 5.13464L4.04391 6.24018L2.86467 7.14919L1.85739 8.32843L4.55983 9.90076Z" fill="#DEAE28"/>
<path d="M8.90817 8.15624L22.4449 0.27002L18.0473 1.22816L15.2466 2.3337L13.92 2.82506L9.27668 5.5275L8.24484 6.38737L6.08289 8.40191L4.55969 9.90054L8.90817 8.15624Z" fill="#BF9622"/>
<path d="M16.4751 11.8168L30.0119 3.95517C23.5997 0.245456 22.4942 0.270024 22.4451 0.270024L20.0374 1.12989L18.7354 1.54754L12.5934 5.13442L10.2349 6.85415L8.93286 8.15624C8.982 8.15624 10.063 8.13167 16.4751 11.8168Z" fill="#F2C135"/>
<path d="M28.2431 28.5233C27.6534 28.8673 27.2849 29.6043 27.2849 30.6361V31.4223L42.1483 22.7745V21.9883C42.1483 20.9565 42.5169 20.2194 43.1065 19.8755L28.2431 28.5233Z" fill="#262626"/>
<path d="M26.99 23.5606L41.8534 14.9127C39.6178 11.6698 36.5714 8.45145 36.3503 8.1812C36.1292 7.91096 36.424 7.66528 30.0118 3.95557L16.475 11.8172C22.8872 15.5269 22.5924 15.7726 22.8135 16.0429C23.0592 16.3131 24.7543 20.3176 26.99 23.5606Z" fill="#F2C135"/>
<path d="M29.8398 30.0711C29.9381 29.8745 30.0363 29.678 30.1346 29.4814C30.0118 29.7271 29.9626 30.0465 29.9626 30.415C29.9872 31.8154 30.9699 33.5105 32.1983 34.1739L31.6332 34.1493C30.5768 33.5597 29.717 32.1102 29.6924 30.8818C29.6924 30.5624 29.7415 30.2922 29.8398 30.0711Z" fill="url(#paint21_linear_2589_1379)"/>
<path d="M31.6087 33.7805C30.7242 33.2891 30.0118 32.0853 29.9872 31.0535C29.9872 30.5376 30.1592 30.1445 30.454 29.9971L30.3311 30.0708C30.0363 30.2427 29.8643 30.6113 29.8643 31.1272C29.8889 32.159 30.6014 33.3628 31.4858 33.8542C31.9035 34.0999 32.2965 34.0999 32.5668 33.9525L32.6896 33.8788C32.4194 34.0507 32.0263 34.0262 31.6087 33.7805Z" fill="url(#paint22_linear_2589_1379)"/>
<path d="M29.0781 29.4078L29.4958 29.1621C29.029 29.4324 28.7588 29.9974 28.7833 30.8081C28.8079 32.3805 29.9134 34.2476 31.2647 35.0092L30.847 35.2549C29.4958 34.5179 28.3902 32.6262 28.3657 31.0538C28.3411 30.2431 28.6114 29.678 29.0781 29.4078Z" fill="#141414"/>
<path d="M33.746 33.3629C33.746 33.2647 33.746 33.0927 33.6969 32.8962C33.6723 32.6505 33.5986 32.4539 33.5986 32.4048C33.5495 32.2574 33.5003 32.0854 33.4512 31.938C33.3529 31.6678 33.2547 31.4712 33.2547 31.4712C33.2301 31.3975 33.181 31.3238 33.1318 31.2501C33.0827 31.1764 33.0581 31.1027 33.009 31.029C32.9598 30.9553 32.9107 30.8816 32.8861 30.8079C32.837 30.7342 32.6896 30.5131 32.5913 30.3903C32.5422 30.3411 32.4685 30.2428 32.4194 30.1937C32.3211 30.0954 32.1982 29.948 32.0754 29.8498C32.0263 29.8006 31.9526 29.7269 31.8789 29.6778C31.8297 29.6287 31.756 29.5795 31.7069 29.5304C31.7069 29.5304 31.5104 29.383 31.3138 29.2847C31.2401 29.2356 31.1418 29.1864 31.0681 29.1619C31.019 29.1373 30.9453 29.1127 30.8962 29.0882C30.847 29.0636 30.7733 29.039 30.7242 29.039C30.6505 29.0145 30.5276 28.9899 30.4539 28.9899C30.4048 28.9899 30.3557 28.9653 30.3065 28.9653C30.2328 28.9653 30.1591 28.9653 30.0854 28.9653C29.9872 28.9653 29.8398 28.9899 29.7906 29.0145C29.7415 29.039 29.6923 29.039 29.6432 29.0636C29.5695 29.0882 29.4958 29.1373 29.4467 29.1619C28.9799 29.4321 28.7096 29.9972 28.7342 30.8079C28.7588 32.3802 29.8643 34.2474 31.2155 35.009C31.8789 35.3775 32.4685 35.4021 32.8861 35.1564C32.9353 35.1318 33.009 35.0827 33.0581 35.0335C33.0827 35.009 33.1318 34.9844 33.1564 34.9598C33.2055 34.9353 33.2792 34.837 33.3284 34.7879C33.3529 34.7633 33.3775 34.7142 33.4021 34.6896C33.4512 34.6405 33.4758 34.5422 33.5249 34.4931C33.574 34.4194 33.5986 34.3211 33.6232 34.2228C33.6477 34.1737 33.6969 34.0263 33.7214 33.8052C33.7214 33.7315 33.746 33.6332 33.746 33.5595C33.746 33.4858 33.746 33.4121 33.746 33.3629ZM31.4858 33.8543C30.6013 33.3629 29.8889 32.1591 29.8643 31.1273C29.8398 30.0954 30.5522 29.6778 31.4121 30.1446C32.2965 30.6359 33.009 31.8397 33.0335 32.8716C33.0581 33.9034 32.3702 34.3456 31.4858 33.8543Z" fill="url(#paint23_linear_2589_1379)"/>
<path d="M30.5276 34.4197C29.6431 33.9283 28.9307 32.7245 28.9061 31.6926C28.9061 31.1767 29.0781 30.7836 29.3729 30.6362L29.25 30.7099C28.9552 30.8819 28.7833 31.2504 28.7833 31.7663C28.8078 32.7982 29.5203 34.002 30.4047 34.4934C30.8224 34.739 31.2155 34.739 31.4857 34.5916L31.6085 34.5179C31.3383 34.6653 30.9698 34.6408 30.5276 34.4197Z" fill="url(#paint24_linear_2589_1379)"/>
<path d="M32.3457 33.2403C32.3457 33.2157 32.3457 33.1912 32.3212 33.142C32.3703 33.3386 32.3703 33.5351 32.3949 33.7071C32.4194 34.9846 31.535 35.5251 30.454 34.9109C29.373 34.2967 28.464 32.7735 28.4395 31.5206C28.4149 30.2431 29.2993 29.7026 30.3803 30.3168C30.5769 30.415 30.7488 30.5624 30.9208 30.7098C30.8962 30.6853 30.8717 30.6607 30.8471 30.6607C30.6506 30.4887 30.4786 30.3659 30.2575 30.2431C29.1028 29.6043 28.1692 30.1694 28.1938 31.5206C28.2184 32.8718 29.1765 34.4933 30.3312 35.132C31.4859 35.7708 32.4194 35.2057 32.3949 33.8545C32.3949 33.6334 32.3703 33.4369 32.3457 33.2403Z" fill="url(#paint25_linear_2589_1379)"/>
<path d="M30.4294 34.9106C29.3484 34.2965 28.4394 32.7733 28.4148 31.5203C28.3902 30.2428 29.2747 29.7023 30.3557 30.3165C31.4366 30.9307 32.3456 32.4539 32.3702 33.7068C32.3948 34.9843 31.5349 35.5248 30.4294 34.9106ZM30.4294 34.7141C31.4121 35.2546 32.2228 34.7632 32.1982 33.6086C32.1737 32.4539 31.3629 31.0535 30.3802 30.513C29.3975 29.9725 28.5868 30.4639 28.6113 31.6186C28.6359 32.7733 29.4466 34.1736 30.4294 34.7141Z" fill="url(#paint26_linear_2589_1379)"/>
<path d="M32.4195 33.2896C32.2229 32.2823 31.6087 31.2259 30.8471 30.538C30.8471 30.5872 30.8471 30.6117 30.8471 30.6363C30.8471 30.6117 30.8226 30.5872 30.8471 30.538C30.6506 30.3661 30.4295 30.2186 30.2329 30.0958C29.0045 29.4079 28.0218 30.0221 28.0464 31.4716C28.071 32.9211 29.0783 34.6408 30.3312 35.3287C31.5596 36.0166 32.5423 35.4024 32.5177 33.9529C32.4932 33.7318 32.4686 33.5107 32.4195 33.2896ZM30.3312 35.1076C29.1765 34.4689 28.2184 32.8474 28.1938 31.4962C28.1693 30.1449 29.1028 29.5553 30.2575 30.2186C30.454 30.3415 30.6506 30.4643 30.8471 30.6363C30.8963 30.6854 30.97 30.7591 31.0191 30.8083C31.1665 30.9557 31.2156 31.0294 31.3139 31.1276C31.3876 31.2259 31.4859 31.3488 31.5596 31.447C31.6333 31.5699 31.7316 31.7173 31.8053 31.8401C31.9035 32.0367 32.0509 32.3069 32.1001 32.4543C32.1246 32.5034 32.1492 32.6017 32.1738 32.6508C32.1983 32.7245 32.2229 32.7982 32.2475 32.8474C32.272 32.9702 32.3212 33.1176 32.3457 33.2159C32.3949 33.4124 32.4195 33.6335 32.4195 33.8301C32.4195 35.1813 31.5105 35.7709 30.3312 35.1076Z" fill="url(#paint27_linear_2589_1379)"/>
<path d="M35.4166 32.8472C35.392 30.5133 34.6058 29.1867 32.5913 28.0811C31.8543 27.6635 31.1664 27.6389 30.6996 27.9337C30.1837 28.2285 29.1518 28.8181 28.6605 29.113C29.1518 28.8181 29.8151 28.8673 30.5522 29.2604C32.0754 30.0957 33.3283 32.233 33.3529 34.0019C33.3529 34.4687 33.2792 34.8372 33.1563 35.1566C32.8615 35.132 32.5422 35.0092 32.1982 34.8126L30.6504 35.6971C31.3875 36.1147 32.0508 36.1393 32.5422 35.8691C33.0581 35.5742 34.0899 34.9846 34.6058 34.6898C35.1218 34.4196 35.4166 33.7808 35.4166 32.8472Z" fill="url(#paint28_linear_2589_1379)"/>
<path d="M30.3066 35.525C28.9799 34.788 27.8744 32.9208 27.8498 31.3485C27.8252 29.7762 28.8816 29.1129 30.2328 29.8499C31.5595 30.5869 32.665 32.4541 32.6896 34.0264C32.6896 35.5987 31.6332 36.262 30.3066 35.525ZM30.282 35.0091C31.363 35.5987 32.2474 35.0582 32.2228 33.8053C32.1983 32.5278 31.3138 31.0046 30.2083 30.4149C29.1273 29.8253 28.2429 30.3658 28.2674 31.6188C28.3166 32.8717 29.201 34.3949 30.282 35.0091Z" fill="url(#paint29_linear_2589_1379)"/>
<path d="M30.4048 35.7463C30.3311 35.7217 30.2574 35.6726 30.2083 35.6235C30.1346 35.5743 30.0363 35.5006 29.9626 35.4515C29.8398 35.3532 29.6924 35.2304 29.5695 35.1321C29.373 34.9356 29.2256 34.7882 29.1765 34.7145C29.0045 34.5179 28.8816 34.3705 28.8325 34.2722C28.8079 34.2477 28.6605 34.0511 28.5131 33.8055C28.4149 33.6335 28.3166 33.4615 28.2429 33.3141C28.0218 32.8228 27.8989 32.4542 27.8498 32.2823C27.8252 32.2086 27.7761 31.9875 27.7515 31.7664C27.7024 31.4961 27.7024 31.2996 27.7024 31.2504C27.7024 31.0785 27.7024 30.931 27.727 30.7591C27.727 30.6854 27.7515 30.5871 27.7761 30.4888C27.7761 30.4397 27.8007 30.366 27.8252 30.3169C27.8498 30.2432 27.8744 30.1449 27.8989 30.0712C27.9235 30.022 27.9481 29.9729 27.9726 29.9238C27.9972 29.8501 28.0709 29.7518 28.12 29.6781C28.1692 29.6044 28.2429 29.5307 28.292 29.457C28.3166 29.4324 28.3657 29.3833 28.3903 29.3587C28.4149 29.3342 28.464 29.285 28.4886 29.285C28.5377 29.2359 28.6114 29.1867 28.6851 29.1622C29.1765 28.8674 29.8398 28.9165 30.5768 29.3096C32.1 30.1449 33.353 32.2823 33.3775 34.0511C33.4021 34.9601 33.0827 35.6235 32.5422 35.9183C32.5177 35.9428 32.4685 35.9674 32.4194 35.9674C32.3702 35.992 32.3211 36.0166 32.272 36.0411C32.1983 36.0657 32.1 36.0903 32.0017 36.1148C31.928 36.1394 31.8543 36.1394 31.7806 36.1394C31.7069 36.1394 31.6086 36.1394 31.5349 36.1394C31.4858 36.1394 31.4121 36.1394 31.363 36.1148C31.2647 36.0903 31.1419 36.0903 31.0436 36.0411C30.9208 36.0166 30.7733 35.9428 30.6751 35.9183C30.6014 35.8691 30.5031 35.7954 30.4048 35.7463C30.3311 35.7217 30.3066 35.6235 30.3066 35.5252C31.6332 36.2622 32.7142 35.5989 32.6896 34.0266C32.6651 32.4542 31.5595 30.5871 30.2329 29.8501C28.9062 29.113 27.8252 29.7764 27.8498 31.3487C27.8744 32.921 28.9799 34.7882 30.3066 35.5252C30.3066 35.648 30.3311 35.7217 30.4048 35.7463Z" fill="url(#paint30_linear_2589_1379)"/>
<path d="M31.9773 34.4194C32.0018 34.3457 32.0264 34.272 32.051 34.1983C32.0755 34.1 32.1247 34.0017 32.1492 33.9035C32.051 33.8789 31.9527 33.8298 31.8299 33.7561C30.9209 33.2401 30.1593 31.9626 30.1347 30.9062C30.1347 30.7588 30.1347 30.6114 30.1838 30.4886C30.061 30.4886 29.9627 30.4394 29.8399 30.4149C29.7662 30.3903 29.717 30.3903 29.6433 30.3657L29.5696 30.4149C29.5205 30.4394 29.4714 30.4886 29.4222 30.5377L29.2503 30.636C28.9555 30.8079 28.7589 31.201 28.7589 31.7169C28.7835 32.7734 29.5205 34.0263 30.4295 34.5422C30.8717 34.7879 31.2894 34.8125 31.5842 34.6405C31.6333 34.6159 31.6825 34.5914 31.707 34.5422C31.7807 34.5177 31.879 34.4931 31.9527 34.444L31.9773 34.4194Z" fill="url(#paint31_linear_2589_1379)"/>
<path d="M32.1001 33.8545C32.0018 33.8299 31.9281 33.7808 31.8299 33.7316C30.9208 33.2157 30.1592 31.9382 30.1347 30.8818C30.1347 30.7344 30.1347 30.587 30.1838 30.4641C30.0855 30.4641 29.9873 30.415 29.889 30.3904C29.8153 30.3659 29.7662 30.3659 29.6925 30.3413C29.3977 30.5133 29.2257 30.9064 29.2257 31.4223C29.2502 32.4787 29.9873 33.7316 30.8963 34.2476C31.3385 34.4932 31.7561 34.5178 32.051 34.3458C32.0755 34.3458 32.0755 34.3213 32.1001 34.3213C32.1001 34.1739 32.1001 34.0265 32.1001 33.8545Z" fill="url(#paint32_linear_2589_1379)"/>
<path d="M30.11 31.9134C29.9626 31.938 29.7415 31.8643 29.5449 31.766C29.4221 31.6923 29.3238 31.6186 29.2501 31.5449L29.1273 31.6186C29.201 31.6923 29.3238 31.766 29.4221 31.8397C29.6923 32.0117 29.9872 32.0854 30.11 31.9134Z" fill="url(#paint33_linear_2589_1379)"/>
<path d="M30.8716 31.6189C30.6014 31.4715 30.3557 30.9064 30.282 30.4888C30.2329 30.5133 30.1837 30.5133 30.1346 30.5379C30.2083 30.9556 30.454 31.5452 30.7488 31.7172C30.8716 31.7909 30.9945 31.7663 31.0927 31.668C31.0436 31.668 30.9453 31.6434 30.8716 31.6189Z" fill="url(#paint34_linear_2589_1379)"/>
<path d="M31.1911 34.4929L31.314 34.4191C31.142 34.0506 31.0192 33.4364 31.1666 33.2153C31.142 33.2153 31.142 33.2153 31.1174 33.2153C30.8717 33.3136 30.97 34.0752 31.1911 34.4929Z" fill="url(#paint35_linear_2589_1379)"/>
<path d="M29.4959 32.5768L29.5204 32.5522C29.4467 32.5768 29.3976 32.6014 29.3484 32.6505C29.373 32.6505 29.4959 32.5768 29.4959 32.5768Z" fill="url(#paint36_linear_2589_1379)"/>
<path d="M32.1738 33.2401C31.879 33.0681 31.5596 32.7487 31.4859 32.4539C31.4368 32.2328 31.5105 32.0608 31.6579 31.938C31.4368 32.0363 31.2648 32.2328 31.3385 32.5276C31.4122 32.847 31.7807 33.1664 32.0755 33.3383C32.1001 33.3629 32.1247 33.3629 32.1492 33.3875C32.1738 33.3383 32.1738 33.2892 32.1738 33.2401Z" fill="url(#paint37_linear_2589_1379)"/>
<path d="M32.1491 33.3631C32.1245 33.3631 32.1245 33.3385 32.1 33.3385C31.7806 33.1665 31.4366 32.8471 31.3629 32.5278C31.2892 32.2329 31.4858 32.0118 31.7069 31.9381C31.6578 31.8399 31.6086 31.7416 31.5349 31.6433C31.4612 31.545 31.3629 31.4468 31.2892 31.3731C31.191 31.6433 30.9944 31.8399 30.7488 31.6925C30.4048 31.4959 30.1346 30.7097 30.11 30.3167C29.8643 30.2921 29.6432 30.3658 29.4712 30.5132C29.7906 30.808 30.2574 31.5696 30.1591 31.889C30.0854 32.1101 29.7415 32.061 29.4221 31.889C29.2993 31.8153 29.201 31.7416 29.1273 31.6679C29.1519 32.0118 29.2501 32.3558 29.3975 32.6997C29.5449 32.5523 29.9135 32.4786 30.1837 32.6506C30.2574 32.6997 30.3557 32.7734 30.4048 32.8471C30.6751 33.2402 30.5768 33.879 30.3802 34.1001C30.4785 34.1984 30.6013 34.2721 30.6996 34.3458C30.6996 34.3458 30.6996 34.3458 30.7242 34.3458C30.7242 34.3458 30.7242 34.3458 30.7488 34.3458H30.7733H30.7979C30.7979 34.3458 30.7979 34.3458 30.8225 34.3458C30.8225 34.3458 30.8225 34.3458 30.847 34.3458C30.9699 34.3949 31.0681 34.444 31.1664 34.4686C30.9699 34.0509 30.847 33.2648 31.1173 33.1911C31.191 33.1665 31.2647 33.1911 31.3384 33.2402C31.6086 33.3876 31.9771 33.8298 32.1245 34.1738C32.1737 33.9281 32.1737 33.6579 32.1491 33.3631Z" fill="url(#paint38_linear_2589_1379)"/>
<path d="M30.7489 32.061C30.577 31.9627 30.4296 32.061 30.4296 32.2576C30.4296 32.4541 30.577 32.6998 30.7489 32.798C30.9209 32.8963 31.0683 32.798 31.0683 32.6015C31.0683 32.405 30.9209 32.1593 30.7489 32.061Z" fill="url(#paint39_linear_2589_1379)"/>
<path d="M30.798 32.1344C30.6752 32.0607 30.5769 32.1344 30.5769 32.2818C30.5769 32.4292 30.6752 32.6012 30.798 32.6749C30.9209 32.7486 31.0192 32.6749 31.0192 32.5275C31.0192 32.3801 30.9209 32.2081 30.798 32.1344Z" fill="url(#paint40_linear_2589_1379)"/>
<path d="M30.4787 30.464C29.9873 30.1938 29.5451 30.1692 29.2257 30.3658L29.1029 30.4395C29.4223 30.2429 29.8645 30.2675 30.3559 30.5377C31.3631 31.1028 32.1739 32.4786 32.1984 33.6578C32.1984 34.2475 32.0019 34.6651 31.6579 34.8616L31.7808 34.7879C32.1247 34.5914 32.3213 34.1737 32.3213 33.5841C32.3213 32.4049 31.486 31.0291 30.4787 30.464Z" fill="url(#paint41_linear_2589_1379)"/>
<path d="M32.2229 33.6332C32.2475 34.7879 31.4368 35.2793 30.4295 34.7142C29.4222 34.1492 28.6115 32.7734 28.5869 31.5941C28.5623 30.4394 29.3731 29.9481 30.3803 30.5131C31.3876 31.0782 32.1984 32.4786 32.2229 33.6332ZM32.0509 33.535C32.0264 32.4786 31.2893 31.2256 30.3803 30.7097C29.4713 30.1938 28.7343 30.636 28.7589 31.6924C28.7834 32.7488 29.5205 34.0018 30.4295 34.5177C31.3385 35.0336 32.0509 34.5914 32.0509 33.535Z" fill="#E3E3E4"/>
<path d="M36.9153 36.5075L39.8388 35.6476L42.9835 34.3701L48.2655 31.2992L49.9853 29.5303L50.6977 28.4739L51.533 26.9507L37.6523 35.1563L36.9153 36.5075Z" fill="#A6821E"/>
<path d="M51.484 24.9609L50.1082 26.8281L49.4449 27.5405L46.3985 29.8253L42.0255 31.7662L39.9372 32.4049L37.505 32.8963L37.6524 35.1565L40.0601 34.7389L42.1483 34.1001L46.0791 32.4786L50.3048 29.3585L51.1647 28.2776L51.5332 26.9509L51.484 24.9609Z" fill="#C29823"/>
<path d="M51.4103 24.8623L50.01 26.5575L49.2975 27.2699L46.2266 29.6039L41.8781 31.4956L39.5933 32.2326L37.5787 32.6748L37.505 32.8959L39.9372 32.4046L42.0255 31.7658L46.3985 29.825L49.4449 27.5402L50.1082 26.8277L51.484 24.9606L51.4103 24.8623Z" fill="#F2C135"/>
<path d="M50.6487 21.767L50.5996 21.6196L36.8171 29.6533L36.8662 29.8007L37.5787 32.6751L39.9126 32.1592L42.1729 31.4221L46.2265 29.6041L49.2975 27.2702L50.0099 26.5577L51.4103 24.8626L50.6487 21.767Z" fill="#C29823"/>
<path d="M37.505 32.896L37.6033 32.6995L36.8908 29.8005L36.8662 29.6531C36.768 29.5794 33.7953 27.7614 33.7953 27.7614C32.1001 26.5084 29.8153 25.3292 27.0392 23.5603C24.7053 19.8752 23.1084 16.3374 22.8873 16.0426C22.6661 15.7724 22.961 15.5267 16.5488 11.817C10.1366 8.10727 9.0311 8.13184 8.98196 8.13184L4.55978 9.90071L1.85734 8.32838L1.68537 8.6969L1.26772 11.5467L0.8255 11.645V14.3229L1.26772 15.1582L4.1667 17.1482L4.46151 17.3447L4.53522 17.3938L4.9283 17.6641L4.95287 17.6887L5.17397 17.8361C5.17397 17.6395 5.19854 17.443 5.22311 17.271C5.22311 17.2464 5.22311 17.2219 5.24768 17.1973C5.24768 17.1482 5.27225 17.1236 5.27225 17.0745C5.27225 17.0499 5.29681 17.0253 5.29681 17.0008C5.32138 16.9025 5.34595 16.8042 5.37052 16.7305C5.37052 16.706 5.39508 16.6814 5.39508 16.6568C5.41965 16.6322 5.41965 16.5831 5.44422 16.5585C5.46879 16.4848 5.49335 16.4357 5.54249 16.3866C5.56706 16.3374 5.61619 16.2637 5.64076 16.2146C5.64076 16.19 5.66533 16.19 5.66533 16.1655C5.6899 16.1409 5.71446 16.0918 5.7636 16.0672C5.78817 16.0426 5.81273 16.0181 5.8373 15.9935C6.00927 15.8215 6.23038 15.6987 6.45149 15.625C6.47606 15.625 6.50063 15.6004 6.54976 15.6004C6.5989 15.5758 6.64803 15.5758 6.72174 15.5758C7.23766 15.4776 7.85185 15.625 8.51518 15.9935C8.63801 16.0672 8.76085 16.1409 8.88369 16.2392C8.93283 16.2637 8.98196 16.3129 9.00653 16.3374C9.1048 16.4111 9.22764 16.5094 9.32591 16.6077C9.37504 16.6568 9.42418 16.706 9.47331 16.7551C9.52245 16.8042 9.57158 16.8534 9.62072 16.9025C9.66986 16.9516 9.71899 17.0008 9.76813 17.0499C9.79269 17.0745 9.81726 17.099 9.84183 17.1236C9.89096 17.1727 9.91553 17.1973 9.9401 17.2464C9.96467 17.271 9.98923 17.2956 10.0138 17.3201C10.0629 17.3938 10.1366 17.4675 10.1858 17.5413C10.2349 17.615 10.3086 17.6887 10.3577 17.7624C10.4069 17.8361 10.456 17.9098 10.5052 17.9835C10.5789 18.0817 10.628 18.18 10.6771 18.2537C10.7017 18.3028 10.7263 18.352 10.7508 18.3766C10.8491 18.5485 10.9474 18.7205 11.0211 18.8925C11.0702 18.9662 11.0948 19.0399 11.1439 19.1136C11.1685 19.1627 11.193 19.2364 11.2176 19.2856C11.3159 19.5067 11.3896 19.7278 11.4633 19.9489C11.4879 19.998 11.4879 20.0717 11.5124 20.1209C11.5616 20.2928 11.6107 20.4648 11.6353 20.6368C11.6598 20.7105 11.6598 20.7842 11.6598 20.8333C11.709 21.1036 11.7335 21.3738 11.7335 21.644V22.4302L11.9792 22.5776L12.3969 22.8233L26.5724 31.0043L27.0392 31.2746L27.2849 31.422V30.6358C27.2849 30.1445 27.3586 29.7268 27.506 29.3829C27.5305 29.3337 27.5551 29.2846 27.5797 29.2355C27.6534 29.1126 27.7025 29.0143 27.8008 28.8915C27.8253 28.8669 27.8253 28.8669 27.8499 28.8424C27.8745 28.8178 27.8745 28.7932 27.8991 28.7932L27.9236 28.7687C27.9728 28.7195 28.0219 28.695 28.071 28.6458C28.6852 28.179 29.5942 28.1545 30.6015 28.7441C30.7735 28.8424 30.9454 28.9652 31.0928 29.088C31.2403 29.1863 31.3631 29.3092 31.4859 29.4074C31.5105 29.432 31.5351 29.4566 31.5596 29.4811C31.6088 29.5303 31.6579 29.5794 31.707 29.6285C31.879 29.8005 32.051 29.9971 32.223 30.1936C32.2721 30.2427 32.3212 30.2919 32.3458 30.3656C32.3949 30.4147 32.4195 30.4638 32.4686 30.5375L32.4932 30.5621C32.5423 30.6112 32.5669 30.6604 32.616 30.7341C32.6406 30.7586 32.6652 30.8078 32.6652 30.8323C32.7143 30.9306 32.788 31.0289 32.8372 31.1026C32.8863 31.1763 32.9109 31.2254 32.96 31.2991C33.0091 31.3974 33.0583 31.4957 33.1074 31.5939C33.132 31.6677 33.1811 31.7168 33.2057 31.7905C33.2302 31.8642 33.2794 31.9133 33.3039 31.987C33.3285 32.0607 33.3531 32.1099 33.3776 32.1836C33.4022 32.2573 33.4268 32.3064 33.4513 32.3801C33.5005 32.503 33.525 32.6012 33.5742 32.7241C33.5987 32.7732 33.5987 32.8223 33.6233 32.8715C33.6233 32.896 33.6233 32.9206 33.6479 32.9206C33.6725 32.9697 33.6725 33.0189 33.697 33.068C33.7216 33.1908 33.7462 33.3137 33.7707 33.412C33.7707 33.4611 33.7953 33.5348 33.7953 33.5839C33.8444 33.8542 33.869 34.149 33.869 34.4192V35.5739L34.1147 35.7213H34.1392L34.5815 35.8933L36.9399 36.4829L37.677 35.1563L37.505 32.896ZM8.68715 12.6032L8.80999 11.8416L10.7754 9.26195C10.8737 9.31109 12.618 10.1464 14.7554 11.3748C18.6616 13.6596 21.2412 15.1828 21.7817 15.6741C22.789 16.6077 24.7053 21.4229 25.7371 23.0198L8.68715 12.6032Z" fill="#C29823"/>
<path d="M0.8255 11.6449V14.3228L1.26772 15.1581L4.1667 17.1481L4.46151 17.3446L4.53522 17.3937L4.9283 17.664L4.95287 17.6885L5.17397 17.8359C5.17397 17.6394 5.19854 17.4429 5.22311 17.2709C5.22311 17.2463 5.22311 17.2218 5.24768 17.1972C5.24768 17.1481 5.27225 17.1235 5.27225 17.0743C5.27225 17.0498 5.29681 17.0252 5.29681 17.0006C5.32138 16.9024 5.34595 16.8041 5.37052 16.7304C5.37052 16.7058 5.39508 16.6813 5.39508 16.6567C5.41965 16.6321 5.41965 16.583 5.44422 16.5584C5.46879 16.4847 5.49335 16.4356 5.54249 16.3865C5.56706 16.3373 5.61619 16.2636 5.64076 16.2145C5.64076 16.1899 5.66533 16.1899 5.66533 16.1653C5.6899 16.1408 5.71446 16.0916 5.7636 16.0671C5.78817 16.0425 5.81273 16.0179 5.8373 15.9934C6.00927 15.8214 6.23038 15.6986 6.45149 15.6249C6.47606 15.6249 6.50063 15.6003 6.54976 15.6003C6.5989 15.5757 6.64803 15.5757 6.72174 15.5757C7.23766 15.4774 7.85185 15.6249 8.51518 15.9934C8.63801 16.0671 8.76085 16.1408 8.88369 16.239C8.93283 16.2636 8.98196 16.3127 9.00653 16.3373C9.1048 16.411 9.22764 16.5093 9.32591 16.6076C9.37504 16.6567 9.42418 16.7058 9.47331 16.755C9.52245 16.8041 9.57158 16.8532 9.62072 16.9024C9.66986 16.9515 9.71899 17.0006 9.76813 17.0498C9.79269 17.0743 9.81726 17.0989 9.84183 17.1235C9.89096 17.1726 9.91553 17.1972 9.9401 17.2463C9.96467 17.2709 9.98923 17.2955 10.0138 17.32C10.0629 17.3937 10.1366 17.4674 10.1858 17.5411C10.2349 17.6148 10.3086 17.6885 10.3577 17.7622C10.4069 17.8359 10.456 17.9096 10.5052 17.9834C10.5789 18.0816 10.628 18.1799 10.6771 18.2536C10.7017 18.3027 10.7263 18.3519 10.7508 18.3764C10.8491 18.5484 10.9474 18.7204 11.0211 18.8924C11.0702 18.9661 11.0948 19.0398 11.1439 19.1135C11.1685 19.1626 11.193 19.2363 11.2176 19.2854C11.3159 19.5065 11.3896 19.7277 11.4633 19.9488C11.4879 19.9979 11.4879 20.0716 11.5124 20.1207C11.5616 20.2927 11.6107 20.4647 11.6353 20.6367C11.6598 20.7104 11.6598 20.7841 11.6598 20.8332C11.709 21.1034 11.7335 21.3737 11.7335 21.6439V22.4301L11.9792 22.5775L12.3969 22.8232L26.5724 31.0042L27.0392 31.2745L27.2849 31.4219V30.6357C27.2849 30.1443 27.3586 29.7267 27.506 29.3827C27.5305 29.3336 27.5551 29.2845 27.5797 29.2353C27.6534 29.1125 27.7025 29.0142 27.8008 28.8914C27.8253 28.8668 27.8253 28.8668 27.8499 28.8423C27.8745 28.8177 27.8745 28.7931 27.8991 28.7931L27.9236 28.7686C27.9728 28.7194 28.0219 28.6948 28.071 28.6457C28.6852 28.1789 29.5942 28.1544 30.6015 28.744C30.7735 28.8423 30.9454 28.9651 31.0928 29.0879C31.2403 29.1862 31.3631 29.309 31.4859 29.4073C31.5105 29.4319 31.5351 29.4564 31.5596 29.481C31.6088 29.5301 31.6579 29.5793 31.707 29.6284C31.879 29.8004 32.051 29.9969 32.223 30.1935C32.2721 30.2426 32.3212 30.2917 32.3458 30.3654C32.3949 30.4146 32.4195 30.4637 32.4686 30.5374L32.4932 30.562C32.5423 30.6111 32.5669 30.6603 32.616 30.734C32.6406 30.7585 32.6652 30.8077 32.6652 30.8322C32.7143 30.9305 32.788 31.0288 32.8372 31.1025C32.8863 31.1762 32.9109 31.2253 32.96 31.299C33.0091 31.3973 33.0583 31.4956 33.1074 31.5938C33.132 31.6675 33.1811 31.7167 33.2057 31.7904C33.2302 31.8641 33.2794 31.9132 33.3039 31.9869C33.3285 32.0606 33.3531 32.1098 33.3776 32.1835C33.4022 32.2572 33.4268 32.3063 33.4513 32.38C33.5005 32.5028 33.525 32.6011 33.5742 32.7239C33.5987 32.7731 33.5987 32.8222 33.6233 32.8713C33.6233 32.8959 33.6233 32.9205 33.6479 32.9205C33.6725 32.9696 33.6725 33.0188 33.697 33.0679C33.7216 33.1907 33.7462 33.3136 33.7707 33.4118C33.7707 33.461 33.7953 33.5347 33.7953 33.5838C33.8444 33.8541 33.869 34.1489 33.869 34.4191V35.5738L34.1147 35.7212H34.1392L34.5815 35.8932L36.9399 36.4828L37.677 35.1561L37.5296 32.8713L37.6278 32.6748L36.9154 29.7758L26.6215 24.027L1.68537 8.69678L1.26772 11.5466L0.8255 11.6449Z" fill="#B08A20"/>
<path d="M27.2848 31.3971V30.611C27.2848 29.3334 27.8253 28.5473 28.6606 28.3262L10.0874 17.3936C11.0701 18.6219 11.7335 20.2188 11.7335 21.6438V22.4299L27.2848 31.3971Z" fill="#9C7B1E"/>
<path d="M32.5423 30.6357C33.353 31.7904 33.8689 33.1908 33.8444 34.4192V35.5738L34.1146 35.7212L36.9153 36.4828L37.6523 35.1562L37.5049 32.8714L33.2547 31.0288L32.5423 30.6357Z" fill="#B08A20"/>
<path d="M1.26772 15.1582L4.1667 17.1482L4.53522 17.3939L4.95287 17.6887L5.17398 17.8361C5.17398 16.4111 5.88644 15.5758 6.89371 15.5267L1.75907 12.4803L0.8255 11.645V14.3229L1.26772 15.1582Z" fill="#9C7B1E"/>
<path d="M36.817 29.653L38.6841 29.1863L40.5267 28.4247L45.2928 26.4347L48.7323 23.6585L49.4693 22.9952L50.5994 21.6685C50.5994 21.6685 49.7887 20.4402 48.0444 19.1626C46.3984 17.9834 44.2119 16.4356 41.8534 14.937L26.9899 23.5848C29.373 25.108 31.9772 26.6312 33.746 27.7859C34.4339 28.179 36.7187 29.5548 36.817 29.653Z" fill="#DEAE28"/>
<path d="M25.737 23.0199C24.7052 21.423 22.7889 16.5832 21.7816 15.6742C21.2411 15.1829 18.6615 13.6597 14.7553 11.3994C12.5933 10.1465 10.8736 9.31119 10.7753 9.28662L8.31856 11.4977L7.87634 12.1119L25.737 23.0199Z" fill="#0C100F"/>
<path d="M24.1647 20.5879L23.9436 21.6197L8.71167 12.2594L9.05562 11.5716L10.9965 9.65527C10.9965 9.65527 14.4851 11.4733 17.4086 13.2176C20.3322 14.9619 21.4377 15.6498 21.7325 15.9446C22.0273 16.2394 24.1647 20.5879 24.1647 20.5879Z" fill="#1E2329"/>
<path d="M36.3504 8.18115L34.9255 9.38497L32.4196 11.031L28.7835 13.1438L25.1967 15.0355L22.8136 16.0428L26.9901 23.5605L41.8535 14.9127L36.3504 8.18115Z" fill="#F2C135"/>
<path d="M27.2357 23.1672L35.0974 27.4665L38.8071 28.2772L45.121 25.7468L49.2975 22.1845L48.413 19.8751L41.3867 14.937L27.2357 23.1672Z" fill="#F2C135"/>
<path d="M36.2766 8.40234L35.1711 9.38505L32.8371 10.9574L28.98 13.193L25.4669 15.011L23.2803 15.9937L27.2112 23.1429L29.7908 22.6762L33.697 21.0055L39.5687 17.5906L41.0182 16.1657L41.4604 14.7654C39.5687 11.8664 36.2766 8.40234 36.2766 8.40234Z" fill="#0C100F"/>
<path d="M34.5569 34.4192V35.9178L34.1147 35.7458H34.0902L33.8445 35.5984V34.4438C33.8445 34.1735 33.8199 33.9033 33.7708 33.6085C33.7708 33.5593 33.7462 33.4856 33.7462 33.4365C33.7216 33.3136 33.6971 33.1908 33.6725 33.0925C33.6479 33.0434 33.6479 32.9943 33.6234 32.9451C33.6234 32.9206 33.6234 32.896 33.5988 32.896C33.5742 32.8469 33.5742 32.7977 33.5497 32.7486C33.5251 32.6258 33.476 32.5275 33.4268 32.4046C33.4023 32.3309 33.3777 32.2572 33.3531 32.2081C33.3286 32.1344 33.304 32.0607 33.2794 32.0116C33.2549 31.9379 33.2303 31.8887 33.1811 31.815C33.1566 31.7413 33.1074 31.6922 33.0829 31.6185C33.0337 31.5202 32.9846 31.4219 32.9355 31.3237C32.9109 31.25 32.8618 31.2008 32.8126 31.1271C32.7635 31.0289 32.6898 30.9306 32.6407 30.8569C32.6161 30.8323 32.5915 30.7832 32.5915 30.7586C32.5424 30.7095 32.5178 30.6358 32.4687 30.5866L32.4441 30.5621C32.395 30.5129 32.3704 30.4638 32.3213 30.3901C32.2721 30.341 32.2476 30.2918 32.1984 30.2181C32.0265 30.0216 31.8545 29.825 31.6825 29.6531C31.6334 29.6039 31.5842 29.5548 31.5351 29.5057C31.5105 29.4811 31.486 29.4565 31.4614 29.432C31.3386 29.3091 31.1912 29.2108 31.0683 29.1126C30.8964 28.9897 30.749 28.8669 30.577 28.7686C29.5697 28.179 28.6607 28.179 28.0465 28.6704C27.9974 28.7195 27.9482 28.7441 27.8991 28.7932L27.8745 28.8178C27.85 28.8423 27.85 28.8669 27.8254 28.8669C27.8008 28.8915 27.8008 28.8915 27.7763 28.916C27.7026 29.0143 27.6289 29.1371 27.5552 29.26C27.5306 29.3091 27.506 29.3583 27.4815 29.4074C27.334 29.7513 27.2603 30.169 27.2603 30.6603V31.4465L27.0147 31.2991L26.5479 31.0289V29.8005C26.5479 27.27 28.3413 25.8451 30.5524 27.1226C32.7881 28.4001 34.5569 31.8887 34.5569 34.4192Z" fill="#C29823"/>
<path d="M34.0901 34.4191V35.7212L33.8445 35.5738V34.4191C33.8445 34.1488 33.8199 33.8786 33.7708 33.5838C33.7708 33.5346 33.7462 33.4609 33.7462 33.4118C33.7216 33.289 33.6971 33.1661 33.6725 33.0679C33.6479 33.0187 33.6479 32.9696 33.6233 32.9205C33.6233 32.8959 33.6233 32.8713 33.5988 32.8713C33.5742 32.8222 33.5742 32.773 33.5496 32.7239C33.5251 32.6011 33.4759 32.5028 33.4268 32.38C33.4022 32.3063 33.3777 32.2326 33.3531 32.1834C33.3285 32.1097 33.304 32.036 33.2794 31.9869C33.2548 31.9132 33.2303 31.864 33.1811 31.7903C33.1566 31.7166 33.1074 31.6675 33.0829 31.5938C33.0337 31.4955 32.9846 31.3973 32.9355 31.299C32.9109 31.2253 32.8618 31.1762 32.8126 31.1024C32.7635 31.0042 32.6898 30.9059 32.6406 30.8322C32.6161 30.8076 32.5915 30.7585 32.5915 30.7339C32.5424 30.6848 32.5178 30.6111 32.4687 30.562L32.4441 30.5374C32.395 30.4883 32.3704 30.4391 32.3213 30.3654C32.2721 30.3163 32.2476 30.2672 32.1984 30.1934C32.0265 29.9969 31.8545 29.8004 31.6825 29.6284C31.6334 29.5793 31.5842 29.5301 31.5351 29.481C31.5105 29.4564 31.486 29.4318 31.4614 29.4073C31.3386 29.2844 31.1911 29.1862 31.0683 29.0879C30.8963 28.9651 30.7489 28.8422 30.577 28.744C29.5697 28.1543 28.6607 28.1543 28.0465 28.6457C27.9974 28.6948 27.9482 28.7194 27.8991 28.7685L27.8745 28.7931C27.8499 28.8177 27.8499 28.8422 27.8254 28.8422C27.8008 28.8668 27.8008 28.8668 27.7762 28.8914C27.7025 28.9896 27.6288 29.1125 27.5551 29.2353C27.5306 29.2844 27.506 29.3336 27.4814 29.3827C27.334 29.7267 27.2603 30.1443 27.2603 30.6357V31.4218L27.0146 31.2744V30.3654C27.0146 28.1298 28.6115 27.2208 30.5524 28.3509C32.5178 29.4564 34.1147 32.1834 34.0901 34.4191Z" fill="#705814"/>
<path d="M12.3969 21.9145V22.7989L11.9793 22.5533L11.7336 22.4059V21.6197C11.7336 21.3494 11.709 21.0792 11.6599 20.809C11.6599 20.7353 11.6353 20.6616 11.6353 20.6124C11.6108 20.4404 11.5616 20.2685 11.5125 20.0965C11.4879 20.0474 11.4879 19.9737 11.4634 19.9245C11.3897 19.7034 11.316 19.4823 11.2177 19.2612C11.1931 19.2121 11.1685 19.1384 11.144 19.0892C11.1194 19.0155 11.0703 18.9418 11.0211 18.8681C10.9229 18.6961 10.8492 18.5242 10.7509 18.3522C10.7263 18.3031 10.7018 18.2539 10.6772 18.2294C10.6281 18.1311 10.5544 18.0328 10.5052 17.9591C10.4561 17.8854 10.407 17.8117 10.3578 17.738C10.3087 17.6643 10.235 17.5906 10.1858 17.5169C10.1367 17.4432 10.063 17.3695 10.0139 17.2958C9.9893 17.2712 9.96473 17.2467 9.94017 17.2221C9.9156 17.173 9.86646 17.1484 9.8419 17.0992C9.81733 17.0747 9.79276 17.0501 9.76819 17.0255C9.71906 16.9764 9.66992 16.9273 9.62079 16.8781C9.57165 16.829 9.52252 16.7799 9.47338 16.7307C9.42424 16.6816 9.37511 16.6325 9.32597 16.5833C9.2277 16.4851 9.10487 16.4114 9.0066 16.3131C8.95746 16.2885 8.90832 16.2394 8.88376 16.2148C8.76092 16.1165 8.63808 16.0428 8.51524 15.9691C7.85192 15.6006 7.23772 15.4532 6.7218 15.5515C6.67267 15.5515 6.59897 15.5761 6.54983 15.5761C6.52526 15.5761 6.50069 15.6006 6.45156 15.6006C6.20588 15.6743 6.00934 15.7972 5.83737 15.9691C5.8128 15.9937 5.78823 16.0183 5.76366 16.0428C5.7391 16.0674 5.71453 16.1165 5.66539 16.1411C5.64083 16.1657 5.64083 16.1657 5.64083 16.1902C5.59169 16.2394 5.56712 16.2885 5.54256 16.3622C5.51799 16.4114 5.46885 16.4851 5.44429 16.5342C5.41972 16.5588 5.41972 16.6079 5.39515 16.6325C5.39515 16.657 5.37058 16.6816 5.37058 16.7062C5.34601 16.8044 5.32145 16.8781 5.29688 16.9764C5.29688 17.001 5.27231 17.0255 5.27231 17.0501C5.27231 17.0747 5.24774 17.1238 5.24774 17.1729C5.24774 17.1975 5.24774 17.2221 5.22318 17.2467C5.19861 17.4186 5.17404 17.6152 5.17404 17.8117L4.95293 17.6643H4.9038L4.51071 17.3941L4.43701 17.3449C4.46158 14.6425 6.23045 13.0702 8.41697 14.3231C10.6035 15.6006 12.3724 19.1875 12.3969 21.9145Z" fill="#C29823"/>
<path d="M11.9792 21.6443V22.5533L11.7336 22.4059V21.6198C11.7336 21.3495 11.709 21.0793 11.6599 20.809C11.6599 20.7353 11.6353 20.6616 11.6353 20.6125C11.6107 20.4405 11.5616 20.2685 11.5124 20.0966C11.4879 20.0474 11.4879 19.9737 11.4633 19.9246C11.3896 19.7035 11.3159 19.4824 11.2176 19.2613C11.1931 19.2121 11.1685 19.1384 11.1439 19.0893C11.1194 19.0156 11.0702 18.9419 11.0211 18.8682C10.9228 18.6962 10.8491 18.5242 10.7508 18.3523C10.7263 18.3031 10.7017 18.254 10.6771 18.2294C10.628 18.1312 10.5543 18.0329 10.5052 17.9592C10.456 17.8855 10.4069 17.8118 10.3578 17.7381C10.3086 17.6644 10.2349 17.5907 10.1858 17.517C10.1367 17.4433 10.063 17.3696 10.0138 17.2959C9.98925 17.2713 9.96468 17.2467 9.94012 17.2222C9.91555 17.173 9.86641 17.1485 9.84185 17.0993C9.81728 17.0748 9.79271 17.0502 9.76814 17.0256C9.71901 16.9765 9.66987 16.9273 9.62074 16.8782C9.5716 16.8291 9.52247 16.7799 9.47333 16.7308C9.4242 16.6817 9.37506 16.6325 9.32593 16.5834C9.22765 16.4851 9.10482 16.4114 9.00655 16.3132C8.95741 16.2886 8.90828 16.2395 8.88371 16.2149C8.76087 16.1166 8.63803 16.0429 8.51519 15.9692C7.85187 15.6007 7.23767 15.4533 6.72175 15.5516C6.67262 15.5516 6.59892 15.5761 6.54978 15.5761C6.52521 15.5761 6.50064 15.6007 6.45151 15.6007C6.20583 15.6744 6.00929 15.7972 5.83732 15.9692C5.81275 15.9938 5.78818 16.0183 5.76362 16.0429C5.73905 16.0675 5.71448 16.1166 5.66534 16.1412C5.64078 16.1657 5.64078 16.1657 5.64078 16.1903C5.59164 16.2395 5.56707 16.2886 5.54251 16.3623C5.51794 16.4114 5.4688 16.4851 5.44424 16.5343C5.41967 16.5588 5.41967 16.608 5.3951 16.6325C5.3951 16.6571 5.37053 16.6817 5.37053 16.7062C5.34597 16.8045 5.3214 16.8782 5.29683 16.9765C5.29683 17.001 5.27226 17.0256 5.27226 17.0502C5.27226 17.0748 5.24769 17.1239 5.24769 17.173C5.24769 17.1976 5.24769 17.2222 5.22313 17.2467C5.19856 17.4187 5.17399 17.6152 5.17399 17.8118L4.95288 17.6644H4.90375V17.5661C4.90375 15.3304 6.50065 14.4214 8.44149 15.5516C10.4069 16.6817 11.9792 19.4087 11.9792 21.6443Z" fill="#705814"/>
<path d="M37.5788 32.675L37.0875 32.6504L33.9674 31.3975L33.6971 31.5449L36.7927 32.7978L37.5051 32.8961L37.7999 32.7733L37.5788 32.675Z" fill="#F2C135"/>
<path d="M48.8554 23.978L45.4159 26.8279L40.6498 28.7442L41.7062 31.0535L46.1284 29.2601L49.0274 26.8033L48.8554 23.978Z" fill="#171717"/>
<path d="M24.3367 22.1848C24.3367 22.1848 24.607 22.1356 24.7052 22.0619C24.8035 21.9637 24.7298 21.6443 24.5578 21.546C24.3859 21.4232 23.8699 21.6934 23.7717 21.6443C23.698 21.5951 23.1575 21.8163 23.1575 21.8163L23.3294 22.1848H24.3367Z" fill="#9C7B1E"/>
<path d="M23.305 20.8581C23.7964 20.7352 24.2877 20.9072 24.3369 21.4477C24.4106 22.111 24.1158 22.2093 23.9438 22.3075C23.7718 22.3813 23.1085 22.6761 22.2732 22.6761C21.4379 22.6761 21.3396 22.2338 21.3396 21.939C21.3396 21.8899 21.3396 21.8899 21.3396 21.8653C21.3642 21.4477 21.5116 21.3248 21.8064 21.2266C22.4206 21.03 23.305 20.8581 23.305 20.8581Z" fill="#9C7B1E"/>
<path d="M24.1403 21.1284C23.8701 21.0547 23.2804 21.153 22.74 21.2758C22.1749 21.3987 21.7572 21.3987 21.7081 21.9391C21.659 22.4796 21.8309 22.627 22.0766 22.6516C22.3223 22.6762 22.7645 22.6762 23.4278 22.4796C24.0912 22.2831 24.1894 22.1848 24.2877 21.9883C24.386 21.8163 24.4106 21.2021 24.1403 21.1284Z" fill="#C29823"/>
<path d="M49.2976 28.8672L46.546 31.0537L42.0992 33.0437L42.1484 33.707L46.2266 31.9381L48.8553 29.8745L49.2976 28.8672Z" fill="#171717"/>
<path d="M34.8518 28.2773L34.9746 28.695L36.3504 29.5303L36.6207 30.1936L37.0875 32.6504L37.5788 32.675L39.9127 32.159L38.7089 29.1863L37.2349 29.0635L34.8518 28.2773Z" fill="#AACCF7"/>
<path d="M39.9127 32.159L39.6425 32.0608L39.2248 32.159L37.9228 31.3974H37.3823L36.8172 29.5794L34.8518 28.2773L37.2349 29.0635L38.7089 29.1863L39.9127 32.159Z" fill="#9AB9E0"/>
<path d="M37.9228 31.3976L37.0384 31.5941L36.7436 30.1201L36.547 29.6287L37.5052 29.5796L37.9228 31.3976Z" fill="#D9E7F7"/>
<path d="M40.2322 33.9526L38.0211 34.5668L37.0384 34.4686L37.0875 35.4758H38.2668L39.9865 34.9108L40.2322 33.9526Z" fill="#171717"/>
<path d="M51.4104 24.8624L50.01 26.5821L49.4695 22.9707L50.1574 21.644L49.4204 20.3911L49.3713 20.2437C49.3713 20.2437 50.182 20.9315 50.5997 21.644C50.8208 22.4793 51.4104 24.8624 51.4104 24.8624Z" fill="#AACCF7"/>
<path d="M50.2802 21.7915L49.8134 22.7496L50.2065 24.6905L50.747 23.7815L50.2802 21.7915Z" fill="#D9E7F7"/>
<path d="M11.9792 21.644L27.0392 30.341V31.2746L11.9792 22.5776V21.644Z" fill="#705814"/>
<path d="M17.7035 13.1193L17.335 17.8855L16.2786 17.2467L17.1384 12.7754L17.7035 13.1193Z" fill="#0C100F"/>
<path d="M10.6526 9.92516L9.71906 12.947L9.9893 13.0944L10.9229 9.55664L10.6526 9.92516Z" fill="#0C100F"/>
<path d="M40.6497 28.7443L40.5514 28.4004L45.2929 26.4104L48.7324 23.6343L48.8553 23.9782L45.4158 26.8281L40.6497 28.7443Z" fill="#D6D6D6"/>
<path d="M40.2321 28.0314L40.5514 28.3999L45.293 26.4099L48.7325 23.6338L48.4131 23.2407L44.9736 26.1151L40.2321 28.0314Z" fill="#F7F7F7"/>
<path d="M36.2276 8.84424L35.4169 9.60584L33.1075 11.2273L29.1767 13.4875L25.7372 15.281L23.649 16.1654L27.4078 22.8724L29.3487 22.209L33.083 20.563L39.2003 17.0007L40.5515 15.7232L41.0675 14.7896C41.0675 14.765 37.1366 9.16362 36.2276 8.84424Z" fill="#1E2329"/>
<path d="M39.1511 13.4385L37.9965 13.6596L33.6971 16.1655L33.304 18.0326L27.0393 21.3493L26.769 21.7915L27.3832 22.8725L29.3241 22.2091L33.0584 20.5631L39.1757 17.0008L40.5269 15.7233L41.0429 14.7897C41.0429 14.7897 40.8217 14.4949 40.5024 14.0281L39.1511 13.4385Z" fill="#272E36"/>
<path d="M31.5843 12.8737L30.9209 13.2668C30.5524 13.4879 30.1839 13.709 29.8399 13.9792C29.7171 14.0529 29.668 14.2495 29.6925 14.3969L29.7662 14.7899C29.7908 14.9374 29.9137 15.0111 30.0365 14.9619C30.405 14.7899 30.7981 14.618 31.1666 14.3969L31.8299 14.0038C32.1984 13.7827 32.567 13.5616 32.9109 13.2913C33.0337 13.2176 33.0829 13.0211 33.0583 12.8737L32.9846 12.4806C32.96 12.3332 32.8372 12.2595 32.7144 12.3086C32.3458 12.4806 31.9528 12.6526 31.5843 12.8737Z" fill="#313942"/>
<path d="M31.7316 13.3648C31.7316 13.1683 31.6824 12.6523 31.6824 12.6523L31.0191 12.6769C31.0191 12.6769 31.0928 13.4139 31.0928 13.4385C31.1419 13.5613 31.2893 13.6842 31.363 13.6842C31.535 13.6596 31.7561 13.5613 31.7316 13.3648Z" fill="#313942"/>
<path d="M31.6333 12.5054C31.7315 12.6528 31.6824 12.8247 31.535 12.923C31.3876 13.0213 31.1911 12.9721 31.0682 12.8247C30.9699 12.6773 31.0191 12.5054 31.1665 12.4071C31.3385 12.3088 31.535 12.3579 31.6333 12.5054Z" fill="#3A434F"/>
<path d="M18.1704 19.4334C18.2932 19.7036 18.1704 19.9002 18.0967 19.9739C18.0229 20.0476 16.9665 19.4088 16.8437 19.3105C16.7454 19.2123 16.7946 18.9175 16.8191 18.8683C16.8683 18.7701 18.1704 19.4334 18.1704 19.4334Z" fill="#705814"/>
<path d="M17.2615 18.8437L17.9985 19.2614C18.0968 19.3105 18.1705 19.4579 18.1705 19.5562V19.6053C18.1705 19.7036 18.0968 19.7527 17.9985 19.7036L16.9912 19.1139C16.8684 19.0402 16.8192 18.8683 16.8929 18.8191C16.9912 18.7454 17.1386 18.7454 17.2615 18.8437Z" fill="#C29823"/>
<path d="M18.0722 19.7526C18.0476 19.7526 18.023 19.7526 17.9739 19.7281L16.9666 19.1384C16.8683 19.0893 16.8192 18.9665 16.8192 18.8928C16.8192 18.8436 16.8438 18.7945 16.8683 18.7945C16.9666 18.7208 17.114 18.7454 17.2614 18.8191L17.9985 19.2367C18.0967 19.2859 18.195 19.4333 18.195 19.5561V19.6052C18.195 19.6789 18.1704 19.7035 18.1213 19.7281C18.1213 19.7281 18.0967 19.7526 18.0722 19.7526ZM17.0403 18.7945C16.9912 18.7945 16.9421 18.7945 16.9175 18.8191C16.8929 18.8436 16.8929 18.8682 16.8929 18.8682C16.8929 18.9419 16.9421 19.0156 17.0158 19.0647L18.023 19.6544C18.0722 19.6789 18.0967 19.6789 18.1213 19.6544C18.1459 19.6298 18.1459 19.6052 18.1459 19.5561V19.507C18.1459 19.4087 18.0722 19.2859 17.9985 19.2367L17.2614 18.8191C17.1877 18.8191 17.114 18.7945 17.0403 18.7945Z" fill="#705814"/>
<path d="M11.3897 15.4041C11.5125 15.6743 11.3897 15.8709 11.316 15.9446C11.2422 16.0183 10.1858 15.3795 10.063 15.2813C9.96473 15.183 10.0139 14.8882 10.0384 14.839C10.0876 14.7408 11.3897 15.4041 11.3897 15.4041Z" fill="#705814"/>
<path d="M10.4807 14.8144L11.2177 15.2321C11.316 15.2812 11.3897 15.4286 11.3897 15.5269V15.576C11.3897 15.6743 11.316 15.7234 11.2177 15.6743L10.2104 15.0847C10.0876 15.0109 10.0384 14.839 10.1121 14.7898C10.2104 14.7161 10.3578 14.7161 10.4807 14.8144Z" fill="#C29823"/>
<path d="M11.2913 15.7233C11.2667 15.7233 11.2421 15.7233 11.193 15.6988L10.1857 15.1092C10.0875 15.06 10.0383 14.9372 10.0383 14.8635C10.0383 14.8143 10.0629 14.7652 10.0875 14.7652C10.1857 14.6915 10.3331 14.7161 10.4805 14.7898L11.2176 15.2074C11.3158 15.2566 11.4141 15.404 11.4141 15.5268V15.5759C11.4141 15.6496 11.3896 15.6742 11.3404 15.6988C11.3404 15.7233 11.3158 15.7233 11.2913 15.7233ZM10.2594 14.7652C10.2103 14.7652 10.1612 14.7652 10.1366 14.7898C10.112 14.8143 10.112 14.8389 10.112 14.8389C10.112 14.9126 10.1612 14.9863 10.2349 15.0354L11.2421 15.6251C11.2913 15.6496 11.3158 15.6496 11.3404 15.6251C11.365 15.6005 11.365 15.5759 11.365 15.5268V15.4777C11.365 15.3794 11.2913 15.2566 11.2176 15.2074L10.4805 14.7898C10.4068 14.7898 10.3331 14.7652 10.2594 14.7652Z" fill="#705814"/>
<path d="M50.0346 28.4248L49.838 29.1372L50.6242 28.4493L51.0664 27.6877L51.1647 27.0244L50.6487 27.8597L50.0346 28.4248Z" fill="#171717"/>
<path d="M38.6353 29.5059L39.6425 32.0609L39.2249 32.1592L38.3405 29.6778L38.6353 29.5059Z" fill="#D08800"/>
<path d="M49.6169 23.192L50.0591 26.2875L50.3047 25.9435L49.7643 22.9463L49.6169 23.192Z" fill="#D08800"/>
<path d="M1.85738 8.32866L1.68541 8.69718L1.26776 11.547L1.73455 11.7927L2.07849 8.94285L2.20133 8.50063L3.08577 7.39509L2.86466 7.14941L1.85738 8.32866Z" fill="#E01500"/>
<path d="M16.7946 0.319379L14.9275 0.466785L14.3133 0.687894L13.9202 0.565056L14.8538 0.196541L16.1559 0L16.7946 0.319379Z" fill="#E01500"/>
<path d="M5.81287 9.01616L8.44161 6.53483L9.62085 5.60126L13.5762 3.2919L15.4188 2.4566L18.6617 1.08081L21.7818 0.41748L18.3915 1.49846L12.4216 4.98706L9.98937 6.75594L8.81012 7.93518L5.81287 9.01616Z" fill="#1E2329"/>
<path d="M50.2066 21.4968L50.7225 23.7815L51.3858 24.8625L50.5997 21.6196C50.5997 21.6196 50.2803 20.9563 49.3713 20.2192C49.4204 20.3666 49.4204 20.3666 49.4204 20.3666L50.2066 21.4968Z" fill="#D1E6FF"/>
<path d="M29.1767 13.4634L25.7372 15.2568L23.649 16.1413L27.4078 22.8482L29.3487 22.1849L33.083 20.5389L34.0165 19.9984C31.6826 16.0184 31.0439 15.5025 29.1767 13.4634Z" fill="#0B0E0F"/>
<defs>
<linearGradient id="paint0_linear_2589_1379" x1="8.17535" y1="20.6454" x2="9.83079" y2="17.7781" gradientUnits="userSpaceOnUse">
<stop stop-color="#2A2A2A"/>
<stop offset="0.0204856" stop-color="#292929"/>
<stop offset="0.2279" stop-color="#202020"/>
<stop offset="0.5837" stop-color="#1E1E1E"/>
<stop offset="0.6379" stop-color="#1D1D1D"/>
<stop offset="1" stop-color="#1A1A1A"/>
</linearGradient>
<linearGradient id="paint1_linear_2589_1379" x1="10.0091" y1="21.5108" x2="7.76752" y2="17.6283" gradientUnits="userSpaceOnUse">
<stop offset="0.2256" stop-color="#383838"/>
<stop offset="0.7279" stop-color="#292929"/>
<stop offset="1" stop-color="#262626"/>
</linearGradient>
<linearGradient id="paint2_linear_2589_1379" x1="7.90504" y1="21.5642" x2="10.4064" y2="17.2314" gradientUnits="userSpaceOnUse">
<stop stop-color="#121212"/>
<stop offset="0.4302" stop-color="#0D0D0D"/>
</linearGradient>
<linearGradient id="paint3_linear_2589_1379" x1="8.92863" y1="22.1308" x2="6.6873" y2="18.2483" gradientUnits="userSpaceOnUse">
<stop offset="0.2256" stop-color="#383838"/>
<stop offset="0.7279" stop-color="#292929"/>
<stop offset="1" stop-color="#262626"/>
</linearGradient>
<linearGradient id="paint4_linear_2589_1379" x1="7.17526" y1="21.7683" x2="9.2784" y2="18.1258" gradientUnits="userSpaceOnUse">
<stop stop-color="#2A2A2A"/>
<stop offset="0.0204856" stop-color="#292929"/>
<stop offset="0.2279" stop-color="#202020"/>
<stop offset="0.5837" stop-color="#1E1E1E"/>
<stop offset="0.6379" stop-color="#1D1D1D"/>
<stop offset="1" stop-color="#1A1A1A"/>
</linearGradient>
<linearGradient id="paint5_linear_2589_1379" x1="7.33541" y1="21.6063" x2="9.31738" y2="18.1739" gradientUnits="userSpaceOnUse">
<stop offset="0.1791" stop-color="#1A1A1A"/>
<stop offset="0.6464" stop-color="#1E1E1E"/>
<stop offset="0.6558" stop-color="#1E1E1E"/>
</linearGradient>
<linearGradient id="paint6_linear_2589_1379" x1="7.05596" y1="21.9179" x2="9.29847" y2="18.0336" gradientUnits="userSpaceOnUse">
<stop offset="0.3442" stop-color="#1F1F1F"/>
<stop offset="0.4015" stop-color="#1E1E1E"/>
<stop offset="0.8209" stop-color="#1A1A1A"/>
</linearGradient>
<linearGradient id="paint7_linear_2589_1379" x1="11.8005" y1="22.4069" x2="7.8884" y2="15.6308" gradientUnits="userSpaceOnUse">
<stop stop-color="#181818"/>
<stop offset="0.2721" stop-color="#262626"/>
<stop offset="0.7744" stop-color="#2E2E2E"/>
</linearGradient>
<linearGradient id="paint8_linear_2589_1379" x1="6.96282" y1="22.0788" x2="9.3915" y2="17.8722" gradientUnits="userSpaceOnUse">
<stop stop-color="#161616"/>
<stop offset="0.3047" stop-color="#1A1A1A"/>
<stop offset="0.7902" stop-color="#1E1E1E"/>
<stop offset="0.8" stop-color="#1E1E1E"/>
</linearGradient>
<linearGradient id="paint9_linear_2589_1379" x1="7.04341" y1="22.2886" x2="9.88166" y2="17.3723" gradientUnits="userSpaceOnUse">
<stop stop-color="#141414"/>
<stop offset="0.4442" stop-color="#1E1E1E"/>
<stop offset="0.783" stop-color="#202020"/>
<stop offset="0.9805" stop-color="#292929"/>
<stop offset="1" stop-color="#2A2A2A"/>
</linearGradient>
<linearGradient id="paint10_linear_2589_1379" x1="9.29635" y1="22.0481" x2="6.95018" y2="17.9843" gradientUnits="userSpaceOnUse">
<stop stop-color="#D7D7D9"/>
<stop offset="0.1894" stop-color="#E2E2E2"/>
<stop offset="0.2119" stop-color="#DCDCDD"/>
<stop offset="0.2853" stop-color="#CECED2"/>
<stop offset="0.3752" stop-color="#C5C5CC"/>
<stop offset="0.527" stop-color="#C3C3CA"/>
<stop offset="0.873" stop-color="#B3B4BE"/>
<stop offset="0.8821" stop-color="#A5A7B3"/>
</linearGradient>
<linearGradient id="paint11_linear_2589_1379" x1="9.53304" y1="21.9098" x2="7.18688" y2="17.8459" gradientUnits="userSpaceOnUse">
<stop stop-color="#B3B3B5"/>
<stop offset="0.1894" stop-color="#BEBEBE"/>
<stop offset="0.2086" stop-color="#B9B9BA"/>
<stop offset="0.2828" stop-color="#ABABAF"/>
<stop offset="0.3736" stop-color="#A2A2A8"/>
<stop offset="0.527" stop-color="#A0A0A6"/>
<stop offset="0.873" stop-color="#91929A"/>
<stop offset="0.8821" stop-color="#84858F"/>
</linearGradient>
<linearGradient id="paint12_linear_2589_1379" x1="7.72826" y1="19.3925" x2="7.34414" y2="18.7274" gradientUnits="userSpaceOnUse">
<stop offset="0.1179" stop-color="#A5A7B3"/>
<stop offset="0.127" stop-color="#B3B4BE"/>
<stop offset="0.473" stop-color="#C3C3CA"/>
<stop offset="0.5695" stop-color="#E3E3E3"/>
<stop offset="0.583" stop-color="#E6E7E8"/>
<stop offset="0.626" stop-color="#ECEFF3"/>
<stop offset="0.6726" stop-color="#EEF2F7"/>
<stop offset="0.7428" stop-color="#EDF0F5"/>
<stop offset="0.7844" stop-color="#E8EAEC"/>
<stop offset="0.8106" stop-color="#E2E2E2"/>
<stop offset="1" stop-color="#D7D7D9"/>
</linearGradient>
<linearGradient id="paint13_linear_2589_1379" x1="8.84201" y1="19.0301" x2="7.92576" y2="17.4432" gradientUnits="userSpaceOnUse">
<stop stop-color="#B3B3B5"/>
<stop offset="0.1894" stop-color="#BEBEBE"/>
<stop offset="0.2086" stop-color="#B9B9BA"/>
<stop offset="0.2828" stop-color="#ABABAF"/>
<stop offset="0.3736" stop-color="#A2A2A8"/>
<stop offset="0.527" stop-color="#A0A0A6"/>
<stop offset="0.873" stop-color="#91929A"/>
<stop offset="0.8821" stop-color="#84858F"/>
</linearGradient>
<linearGradient id="paint14_linear_2589_1379" x1="9.37786" y1="21.6192" x2="8.81069" y2="20.6368" gradientUnits="userSpaceOnUse">
<stop stop-color="#B3B3B5"/>
<stop offset="0.1894" stop-color="#BEBEBE"/>
<stop offset="0.2086" stop-color="#B9B9BA"/>
<stop offset="0.2828" stop-color="#ABABAF"/>
<stop offset="0.3736" stop-color="#A2A2A8"/>
<stop offset="0.527" stop-color="#A0A0A6"/>
<stop offset="0.873" stop-color="#91929A"/>
<stop offset="0.8821" stop-color="#84858F"/>
</linearGradient>
<linearGradient id="paint15_linear_2589_1379" x1="7.37329" y1="19.8898" x2="7.36514" y2="19.8755" gradientUnits="userSpaceOnUse">
<stop stop-color="#B3B3B5"/>
<stop offset="0.1894" stop-color="#BEBEBE"/>
<stop offset="0.2086" stop-color="#B9B9BA"/>
<stop offset="0.2828" stop-color="#ABABAF"/>
<stop offset="0.3736" stop-color="#A2A2A8"/>
<stop offset="0.527" stop-color="#A0A0A6"/>
<stop offset="0.873" stop-color="#91929A"/>
<stop offset="0.8821" stop-color="#84858F"/>
</linearGradient>
<linearGradient id="paint16_linear_2589_1379" x1="10.4416" y1="21.2901" x2="9.32937" y2="19.3638" gradientUnits="userSpaceOnUse">
<stop stop-color="#B3B3B5"/>
<stop offset="0.1894" stop-color="#BEBEBE"/>
<stop offset="0.2086" stop-color="#B9B9BA"/>
<stop offset="0.2828" stop-color="#ABABAF"/>
<stop offset="0.3736" stop-color="#A2A2A8"/>
<stop offset="0.527" stop-color="#A0A0A6"/>
<stop offset="0.873" stop-color="#91929A"/>
<stop offset="0.8821" stop-color="#84858F"/>
</linearGradient>
<linearGradient id="paint17_linear_2589_1379" x1="7.6618" y1="20.6959" x2="9.68144" y2="18.6765" gradientUnits="userSpaceOnUse">
<stop offset="0.066937" stop-color="#EEF2F7"/>
<stop offset="0.0804537" stop-color="#EEF2F7"/>
<stop offset="0.1643" stop-color="#EEF2F7"/>
<stop offset="0.6903" stop-color="#C3C3CA"/>
<stop offset="0.8788" stop-color="#B3B4BE"/>
<stop offset="0.9632" stop-color="#A5A7B3"/>
</linearGradient>
<linearGradient id="paint18_linear_2589_1379" x1="8.51708" y1="19.9719" x2="8.83378" y2="19.4233" gradientUnits="userSpaceOnUse">
<stop stop-color="#B3B3B5"/>
<stop offset="0.1894" stop-color="#BEBEBE"/>
<stop offset="0.2086" stop-color="#B9B9BA"/>
<stop offset="0.2828" stop-color="#ABABAF"/>
<stop offset="0.3736" stop-color="#A2A2A8"/>
<stop offset="0.527" stop-color="#A0A0A6"/>
<stop offset="0.873" stop-color="#91929A"/>
<stop offset="0.8821" stop-color="#84858F"/>
</linearGradient>
<linearGradient id="paint19_linear_2589_1379" x1="8.6125" y1="19.864" x2="8.83732" y2="19.4746" gradientUnits="userSpaceOnUse">
<stop offset="0.0367955" stop-color="#A5A7B3"/>
<stop offset="0.1212" stop-color="#B3B4BE"/>
<stop offset="0.3097" stop-color="#C3C3CA"/>
<stop offset="0.8357" stop-color="#EEF2F7"/>
<stop offset="0.9195" stop-color="#EEF2F7"/>
<stop offset="0.9331" stop-color="#EEF2F7"/>
</linearGradient>
<linearGradient id="paint20_linear_2589_1379" x1="10.2918" y1="21.7135" x2="7.73882" y2="17.2914" gradientUnits="userSpaceOnUse">
<stop offset="0.1179" stop-color="#A5A7B3"/>
<stop offset="0.127" stop-color="#B3B4BE"/>
<stop offset="0.473" stop-color="#C3C3CA"/>
<stop offset="0.5695" stop-color="#E3E3E3"/>
<stop offset="0.583" stop-color="#E6E7E8"/>
<stop offset="0.626" stop-color="#ECEFF3"/>
<stop offset="0.6726" stop-color="#EEF2F7"/>
<stop offset="0.7428" stop-color="#EDF0F5"/>
<stop offset="0.7844" stop-color="#E8EAEC"/>
<stop offset="0.8106" stop-color="#E2E2E2"/>
<stop offset="1" stop-color="#D7D7D9"/>
</linearGradient>
<linearGradient id="paint21_linear_2589_1379" x1="30.2549" y1="33.3689" x2="31.9103" y2="30.5016" gradientUnits="userSpaceOnUse">
<stop stop-color="#2A2A2A"/>
<stop offset="0.0204856" stop-color="#292929"/>
<stop offset="0.2279" stop-color="#202020"/>
<stop offset="0.5837" stop-color="#1E1E1E"/>
<stop offset="0.6379" stop-color="#1D1D1D"/>
<stop offset="1" stop-color="#1A1A1A"/>
</linearGradient>
<linearGradient id="paint22_linear_2589_1379" x1="32.0886" y1="34.2343" x2="29.847" y2="30.3518" gradientUnits="userSpaceOnUse">
<stop offset="0.2256" stop-color="#383838"/>
<stop offset="0.7279" stop-color="#292929"/>
<stop offset="1" stop-color="#262626"/>
</linearGradient>
<linearGradient id="paint23_linear_2589_1379" x1="29.9844" y1="34.2873" x2="32.4858" y2="29.9544" gradientUnits="userSpaceOnUse">
<stop stop-color="#121212"/>
<stop offset="0.4302" stop-color="#0D0D0D"/>
</linearGradient>
<linearGradient id="paint24_linear_2589_1379" x1="31.0083" y1="34.8543" x2="28.7668" y2="30.9719" gradientUnits="userSpaceOnUse">
<stop offset="0.2256" stop-color="#383838"/>
<stop offset="0.7279" stop-color="#292929"/>
<stop offset="1" stop-color="#262626"/>
</linearGradient>
<linearGradient id="paint25_linear_2589_1379" x1="29.2549" y1="34.4918" x2="31.358" y2="30.8494" gradientUnits="userSpaceOnUse">
<stop stop-color="#2A2A2A"/>
<stop offset="0.0204856" stop-color="#292929"/>
<stop offset="0.2279" stop-color="#202020"/>
<stop offset="0.5837" stop-color="#1E1E1E"/>
<stop offset="0.6379" stop-color="#1D1D1D"/>
<stop offset="1" stop-color="#1A1A1A"/>
</linearGradient>
<linearGradient id="paint26_linear_2589_1379" x1="29.4151" y1="34.3295" x2="31.3968" y2="30.8971" gradientUnits="userSpaceOnUse">
<stop offset="0.1791" stop-color="#1A1A1A"/>
<stop offset="0.6464" stop-color="#1E1E1E"/>
<stop offset="0.6558" stop-color="#1E1E1E"/>
</linearGradient>
<linearGradient id="paint27_linear_2589_1379" x1="29.1355" y1="34.6414" x2="31.378" y2="30.7572" gradientUnits="userSpaceOnUse">
<stop offset="0.3442" stop-color="#1F1F1F"/>
<stop offset="0.4015" stop-color="#1E1E1E"/>
<stop offset="0.8209" stop-color="#1A1A1A"/>
</linearGradient>
<linearGradient id="paint28_linear_2589_1379" x1="33.969" y1="35.079" x2="30.0568" y2="28.303" gradientUnits="userSpaceOnUse">
<stop stop-color="#181818"/>
<stop offset="0.2721" stop-color="#262626"/>
<stop offset="0.7744" stop-color="#2E2E2E"/>
</linearGradient>
<linearGradient id="paint29_linear_2589_1379" x1="29.0423" y1="34.8023" x2="31.471" y2="30.5958" gradientUnits="userSpaceOnUse">
<stop stop-color="#161616"/>
<stop offset="0.3047" stop-color="#1A1A1A"/>
<stop offset="0.7902" stop-color="#1E1E1E"/>
<stop offset="0.8" stop-color="#1E1E1E"/>
</linearGradient>
<linearGradient id="paint30_linear_2589_1379" x1="29.1229" y1="35.0121" x2="31.9611" y2="30.0958" gradientUnits="userSpaceOnUse">
<stop stop-color="#141414"/>
<stop offset="0.4442" stop-color="#1E1E1E"/>
<stop offset="0.783" stop-color="#202020"/>
<stop offset="0.9805" stop-color="#292929"/>
<stop offset="1" stop-color="#2A2A2A"/>
</linearGradient>
<linearGradient id="paint31_linear_2589_1379" x1="31.3763" y1="34.7716" x2="29.0299" y2="30.7078" gradientUnits="userSpaceOnUse">
<stop stop-color="#D7D7D9"/>
<stop offset="0.1894" stop-color="#E2E2E2"/>
<stop offset="0.2119" stop-color="#DCDCDD"/>
<stop offset="0.2853" stop-color="#CECED2"/>
<stop offset="0.3752" stop-color="#C5C5CC"/>
<stop offset="0.527" stop-color="#C3C3CA"/>
<stop offset="0.873" stop-color="#B3B4BE"/>
<stop offset="0.8821" stop-color="#A5A7B3"/>
</linearGradient>
<linearGradient id="paint32_linear_2589_1379" x1="31.6129" y1="34.6335" x2="29.2665" y2="30.5697" gradientUnits="userSpaceOnUse">
<stop stop-color="#B3B3B5"/>
<stop offset="0.1894" stop-color="#BEBEBE"/>
<stop offset="0.2086" stop-color="#B9B9BA"/>
<stop offset="0.2828" stop-color="#ABABAF"/>
<stop offset="0.3736" stop-color="#A2A2A8"/>
<stop offset="0.527" stop-color="#A0A0A6"/>
<stop offset="0.873" stop-color="#91929A"/>
<stop offset="0.8821" stop-color="#84858F"/>
</linearGradient>
<linearGradient id="paint33_linear_2589_1379" x1="29.8079" y1="32.116" x2="29.4237" y2="31.4509" gradientUnits="userSpaceOnUse">
<stop offset="0.1179" stop-color="#A5A7B3"/>
<stop offset="0.127" stop-color="#B3B4BE"/>
<stop offset="0.473" stop-color="#C3C3CA"/>
<stop offset="0.5695" stop-color="#E3E3E3"/>
<stop offset="0.583" stop-color="#E6E7E8"/>
<stop offset="0.626" stop-color="#ECEFF3"/>
<stop offset="0.6726" stop-color="#EEF2F7"/>
<stop offset="0.7428" stop-color="#EDF0F5"/>
<stop offset="0.7844" stop-color="#E8EAEC"/>
<stop offset="0.8106" stop-color="#E2E2E2"/>
<stop offset="1" stop-color="#D7D7D9"/>
</linearGradient>
<linearGradient id="paint34_linear_2589_1379" x1="30.9216" y1="31.7537" x2="30.0053" y2="30.1667" gradientUnits="userSpaceOnUse">
<stop stop-color="#B3B3B5"/>
<stop offset="0.1894" stop-color="#BEBEBE"/>
<stop offset="0.2086" stop-color="#B9B9BA"/>
<stop offset="0.2828" stop-color="#ABABAF"/>
<stop offset="0.3736" stop-color="#A2A2A8"/>
<stop offset="0.527" stop-color="#A0A0A6"/>
<stop offset="0.873" stop-color="#91929A"/>
<stop offset="0.8821" stop-color="#84858F"/>
</linearGradient>
<linearGradient id="paint35_linear_2589_1379" x1="31.4574" y1="34.3422" x2="30.8903" y2="33.3599" gradientUnits="userSpaceOnUse">
<stop stop-color="#B3B3B5"/>
<stop offset="0.1894" stop-color="#BEBEBE"/>
<stop offset="0.2086" stop-color="#B9B9BA"/>
<stop offset="0.2828" stop-color="#ABABAF"/>
<stop offset="0.3736" stop-color="#A2A2A8"/>
<stop offset="0.527" stop-color="#A0A0A6"/>
<stop offset="0.873" stop-color="#91929A"/>
<stop offset="0.8821" stop-color="#84858F"/>
</linearGradient>
<linearGradient id="paint36_linear_2589_1379" x1="29.4528" y1="32.6133" x2="29.4447" y2="32.599" gradientUnits="userSpaceOnUse">
<stop stop-color="#B3B3B5"/>
<stop offset="0.1894" stop-color="#BEBEBE"/>
<stop offset="0.2086" stop-color="#B9B9BA"/>
<stop offset="0.2828" stop-color="#ABABAF"/>
<stop offset="0.3736" stop-color="#A2A2A8"/>
<stop offset="0.527" stop-color="#A0A0A6"/>
<stop offset="0.873" stop-color="#91929A"/>
<stop offset="0.8821" stop-color="#84858F"/>
</linearGradient>
<linearGradient id="paint37_linear_2589_1379" x1="32.5212" y1="34.0131" x2="31.4092" y2="32.0869" gradientUnits="userSpaceOnUse">
<stop stop-color="#B3B3B5"/>
<stop offset="0.1894" stop-color="#BEBEBE"/>
<stop offset="0.2086" stop-color="#B9B9BA"/>
<stop offset="0.2828" stop-color="#ABABAF"/>
<stop offset="0.3736" stop-color="#A2A2A8"/>
<stop offset="0.527" stop-color="#A0A0A6"/>
<stop offset="0.873" stop-color="#91929A"/>
<stop offset="0.8821" stop-color="#84858F"/>
</linearGradient>
<linearGradient id="paint38_linear_2589_1379" x1="29.7416" y1="33.4194" x2="31.761" y2="31.4" gradientUnits="userSpaceOnUse">
<stop offset="0.066937" stop-color="#EEF2F7"/>
<stop offset="0.0804537" stop-color="#EEF2F7"/>
<stop offset="0.1643" stop-color="#EEF2F7"/>
<stop offset="0.6903" stop-color="#C3C3CA"/>
<stop offset="0.8788" stop-color="#B3B4BE"/>
<stop offset="0.9632" stop-color="#A5A7B3"/>
</linearGradient>
<linearGradient id="paint39_linear_2589_1379" x1="30.5969" y1="32.6955" x2="30.9138" y2="32.1468" gradientUnits="userSpaceOnUse">
<stop stop-color="#B3B3B5"/>
<stop offset="0.1894" stop-color="#BEBEBE"/>
<stop offset="0.2086" stop-color="#B9B9BA"/>
<stop offset="0.2828" stop-color="#ABABAF"/>
<stop offset="0.3736" stop-color="#A2A2A8"/>
<stop offset="0.527" stop-color="#A0A0A6"/>
<stop offset="0.873" stop-color="#91929A"/>
<stop offset="0.8821" stop-color="#84858F"/>
</linearGradient>
<linearGradient id="paint40_linear_2589_1379" x1="30.6921" y1="32.587" x2="30.9169" y2="32.1976" gradientUnits="userSpaceOnUse">
<stop offset="0.0367955" stop-color="#A5A7B3"/>
<stop offset="0.1212" stop-color="#B3B4BE"/>
<stop offset="0.3097" stop-color="#C3C3CA"/>
<stop offset="0.8357" stop-color="#EEF2F7"/>
<stop offset="0.9195" stop-color="#EEF2F7"/>
<stop offset="0.9331" stop-color="#EEF2F7"/>
</linearGradient>
<linearGradient id="paint41_linear_2589_1379" x1="32.3716" y1="34.4371" x2="29.8186" y2="30.015" gradientUnits="userSpaceOnUse">
<stop offset="0.1179" stop-color="#A5A7B3"/>
<stop offset="0.127" stop-color="#B3B4BE"/>
<stop offset="0.473" stop-color="#C3C3CA"/>
<stop offset="0.5695" stop-color="#E3E3E3"/>
<stop offset="0.583" stop-color="#E6E7E8"/>
<stop offset="0.626" stop-color="#ECEFF3"/>
<stop offset="0.6726" stop-color="#EEF2F7"/>
<stop offset="0.7428" stop-color="#EDF0F5"/>
<stop offset="0.7844" stop-color="#E8EAEC"/>
<stop offset="0.8106" stop-color="#E2E2E2"/>
<stop offset="1" stop-color="#D7D7D9"/>
</linearGradient>
</defs>
</svg>
