<svg width="20" height="16" viewBox="0 0 20 16" fill="none" xmlns="http://www.w3.org/2000/svg">
<path d="M19 0H1C0.734784 0 0.48043 0.105357 0.292893 0.292893C0.105357 0.48043 0 0.734784 0 1V15C0 15.2652 0.105357 15.5196 0.292893 15.7071C0.48043 15.8946 0.734784 16 1 16H19C19.2652 16 19.5196 15.8946 19.7071 15.7071C19.8946 15.5196 20 15.2652 20 15V1C20 0.734784 19.8946 0.48043 19.7071 0.292893C19.5196 0.105357 19.2652 0 19 0ZM18 11C17.2044 11 16.4413 11.3161 15.8787 11.8787C15.3161 12.4413 15 13.2044 15 14H5C5 13.2044 4.68393 12.4413 4.12132 11.8787C3.55871 11.3161 2.79565 11 2 11V5C2.79565 5 3.55871 4.68393 4.12132 4.12132C4.68393 3.55871 5 2.79565 5 2H15C15 2.79565 15.3161 3.55871 15.8787 4.12132C16.4413 4.68393 17.2044 5 18 5V11Z" fill="#2EA951"/>
<path d="M10 4C7.794 4 6 5.794 6 8C6 10.206 7.794 12 10 12C12.206 12 14 10.206 14 8C14 5.794 12.206 4 10 4ZM10 10C8.897 10 8 9.103 8 8C8 6.897 8.897 6 10 6C11.103 6 12 6.897 12 8C12 9.103 11.103 10 10 10Z" fill="#2EA951"/>
</svg>
