<svg width="104" height="72" viewBox="0 0 104 72" fill="none" xmlns="http://www.w3.org/2000/svg">
<rect width="104" height="72" rx="8" fill="#F4B607"/>
<rect x="82" y="8" width="14" height="14" rx="7" fill="#1D1D1B"/>
<rect x="8" y="34" width="88" height="8" rx="2" fill="#F4A707"/>
<rect x="8" y="46" width="31" height="8" rx="2" fill="#F4A707"/>
<path d="M45.452 48.028H45.428L44.132 48.916C44.044 48.972 44 48.948 44 48.844V47.356C44 47.292 44.028 47.236 44.084 47.188L45.452 46.204C45.508 46.156 45.58 46.132 45.668 46.132H47.012C47.092 46.132 47.132 46.172 47.132 46.252V54.172C47.132 54.252 47.092 54.292 47.012 54.292H45.572C45.492 54.292 45.452 54.252 45.452 54.172V48.028Z" fill="#1D1D1B"/>
<path d="M52.12 48.028H52.096L50.8 48.916C50.712 48.972 50.668 48.948 50.668 48.844V47.356C50.668 47.292 50.696 47.236 50.752 47.188L52.12 46.204C52.176 46.156 52.248 46.132 52.336 46.132H53.68C53.76 46.132 53.8 46.172 53.8 46.252V54.172C53.8 54.252 53.76 54.292 53.68 54.292H52.24C52.16 54.292 52.12 54.252 52.12 54.172V48.028Z" fill="#1D1D1B"/>
<path d="M59.0279 46.12C59.0519 46.04 59.1039 46 59.1839 46H60.4919C60.5719 46 60.5999 46.04 60.5759 46.12L57.9599 54.304C57.9359 54.384 57.8839 54.424 57.8039 54.424H56.5079C56.4279 54.424 56.3999 54.384 56.4239 54.304L59.0279 46.12Z" fill="#1D1D1B"/>
<path d="M61.8905 53.056C61.8905 52.992 61.9105 52.936 61.9505 52.888L64.8185 49.48C64.9785 49.296 65.0985 49.116 65.1785 48.94C65.2585 48.756 65.2985 48.56 65.2985 48.352C65.2985 48.08 65.2185 47.856 65.0585 47.68C64.9065 47.504 64.6905 47.416 64.4105 47.416C63.8425 47.416 63.5225 47.736 63.4505 48.376C63.4505 48.456 63.4065 48.488 63.3185 48.472L61.9985 48.256C61.9185 48.24 61.8865 48.192 61.9025 48.112C61.9265 47.832 61.9985 47.564 62.1185 47.308C62.2385 47.052 62.4065 46.828 62.6225 46.636C62.8465 46.444 63.1105 46.292 63.4145 46.18C63.7265 46.06 64.0785 46 64.4705 46C64.8625 46 65.2105 46.06 65.5145 46.18C65.8265 46.3 66.0905 46.464 66.3065 46.672C66.5225 46.88 66.6865 47.128 66.7985 47.416C66.9185 47.696 66.9785 48 66.9785 48.328C66.9785 48.72 66.9025 49.076 66.7505 49.396C66.6065 49.708 66.4065 50.012 66.1505 50.308L64.0025 52.84V52.864H66.8585C66.9385 52.864 66.9785 52.904 66.9785 52.984V54.172C66.9785 54.252 66.9385 54.292 66.8585 54.292H62.0105C61.9305 54.292 61.8905 54.252 61.8905 54.172V53.056Z" fill="#1D1D1B"/>
<path d="M68.6305 52.624C68.6145 52.552 68.6465 52.508 68.7265 52.492L70.0225 52.24C70.0945 52.232 70.1425 52.264 70.1665 52.336C70.2385 52.528 70.3505 52.688 70.5025 52.816C70.6545 52.944 70.8585 53.008 71.1145 53.008C71.3225 53.008 71.4985 52.96 71.6425 52.864C71.7945 52.768 71.9025 52.624 71.9665 52.432C72.0065 52.336 72.0305 52.228 72.0385 52.108C72.0545 51.98 72.0625 51.824 72.0625 51.64C72.0625 51.44 72.0545 51.28 72.0385 51.16C72.0305 51.04 72.0065 50.932 71.9665 50.836C71.9025 50.628 71.7945 50.484 71.6425 50.404C71.4905 50.316 71.3145 50.272 71.1145 50.272C70.8905 50.272 70.7105 50.32 70.5745 50.416C70.4465 50.512 70.3505 50.62 70.2865 50.74C70.2545 50.82 70.2025 50.86 70.1305 50.86H68.8465C68.7665 50.86 68.7265 50.82 68.7265 50.74V46.252C68.7265 46.172 68.7665 46.132 68.8465 46.132H73.4065C73.4865 46.132 73.5265 46.172 73.5265 46.252V47.44C73.5265 47.52 73.4865 47.56 73.4065 47.56H70.2745C70.2265 47.56 70.2025 47.584 70.2025 47.632V49.24H70.2385C70.3425 49.152 70.4945 49.068 70.6945 48.988C70.9025 48.9 71.1585 48.856 71.4625 48.856C71.9905 48.856 72.4345 48.972 72.7945 49.204C73.1545 49.436 73.4105 49.78 73.5625 50.236C73.6185 50.404 73.6585 50.592 73.6825 50.8C73.7145 51.008 73.7305 51.284 73.7305 51.628C73.7305 51.884 73.7145 52.12 73.6825 52.336C73.6505 52.544 73.6065 52.732 73.5505 52.9C73.3905 53.404 73.0945 53.784 72.6625 54.04C72.2305 54.296 71.7225 54.424 71.1385 54.424C70.7865 54.424 70.4665 54.38 70.1785 54.292C69.8905 54.204 69.6345 54.084 69.4105 53.932C69.1945 53.772 69.0185 53.58 68.8825 53.356C68.7465 53.132 68.6625 52.888 68.6305 52.624Z" fill="#1D1D1B"/>
<rect x="36" y="38" width="45" height="23" rx="4" stroke="#D03E3E" stroke-width="2"/>
<path fill-rule="evenodd" clip-rule="evenodd" d="M8 11C8 9.34315 9.34315 8 11 8H16V15L8 15V11ZM8 16V20C8 21.6569 9.34315 23 11 23H16V16L8 16ZM17 16V23H22C23.6569 23 25 21.6569 25 20V16L17 16ZM25 15V11C25 9.34315 23.6569 8 22 8H17V15L25 15Z" fill="#D9A206"/>
</svg>
