<svg width="48" height="48" viewBox="0 0 48 48" fill="none" xmlns="http://www.w3.org/2000/svg">
<rect width="48" height="48" rx="24" fill="#F5F5F5"/>
<path d="M24 14C22.0222 14 20.0888 14.5865 18.4443 15.6853C16.7998 16.7841 15.5181 18.3459 14.7612 20.1732C14.0043 22.0004 13.8063 24.0111 14.1922 25.9509C14.578 27.8907 15.5304 29.6725 16.9289 31.0711C18.3275 32.4696 20.1093 33.422 22.0491 33.8079C23.9889 34.1937 25.9996 33.9957 27.8268 33.2388C29.6541 32.4819 31.2159 31.2002 32.3147 29.5557C33.4135 27.9112 34 25.9778 34 24C34 22.6868 33.7413 21.3864 33.2388 20.1732C32.7363 18.9599 31.9997 17.8575 31.0711 16.9289C30.1425 16.0003 29.0401 15.2638 27.8268 14.7612C26.6136 14.2587 25.3132 14 24 14ZM24 32C22.4178 32 20.871 31.5308 19.5554 30.6518C18.2398 29.7727 17.2145 28.5233 16.609 27.0615C16.0035 25.5997 15.845 23.9911 16.1537 22.4393C16.4624 20.8874 17.2243 19.462 18.3432 18.3431C19.462 17.2243 20.8874 16.4624 22.4393 16.1537C23.9911 15.845 25.5997 16.0035 27.0615 16.609C28.5233 17.2145 29.7727 18.2398 30.6518 19.5554C31.5308 20.871 32 22.4177 32 24C32 26.1217 31.1572 28.1566 29.6569 29.6569C28.1566 31.1571 26.1217 32 24 32Z" fill="#1D1D1B"/>
<path d="M24 18C23.0717 18 22.1815 18.3687 21.5251 19.0251C20.8688 19.6815 20.5 20.5717 20.5 21.5C20.5 21.7652 20.6054 22.0196 20.7929 22.2071C20.9804 22.3946 21.2348 22.5 21.5 22.5C21.7652 22.5 22.0196 22.3946 22.2071 22.2071C22.3946 22.0196 22.5 21.7652 22.5 21.5C22.5 21.2033 22.588 20.9133 22.7528 20.6666C22.9176 20.42 23.1519 20.2277 23.426 20.1142C23.7001 20.0006 24.0017 19.9709 24.2926 20.0288C24.5836 20.0867 24.8509 20.2296 25.0607 20.4393C25.2704 20.6491 25.4133 20.9164 25.4712 21.2074C25.5291 21.4983 25.4994 21.7999 25.3858 22.074C25.2723 22.3481 25.08 22.5824 24.8334 22.7472C24.5867 22.912 24.2967 23 24 23C23.7348 23 23.4804 23.1054 23.2929 23.2929C23.1054 23.4804 23 23.7348 23 24V26C23 26.2652 23.1054 26.5196 23.2929 26.7071C23.4804 26.8946 23.7348 27 24 27C24.2652 27 24.5196 26.8946 24.7071 26.7071C24.8946 26.5196 25 26.2652 25 26V24.84C25.8081 24.604 26.5037 24.0839 26.9585 23.3754C27.4133 22.667 27.5967 21.8181 27.475 20.9851C27.3532 20.1521 26.9344 19.3912 26.2958 18.8426C25.6572 18.294 24.8418 17.9948 24 18Z" fill="#1D1D1B"/>
<path d="M24 30C24.5523 30 25 29.5523 25 29C25 28.4477 24.5523 28 24 28C23.4477 28 23 28.4477 23 29C23 29.5523 23.4477 30 24 30Z" fill="#1D1D1B"/>
</svg>
