<svg width="26" height="27" viewBox="0 0 26 27" fill="none" xmlns="http://www.w3.org/2000/svg">
<g id="navigation-arrow-icon" filter="url(#filter0_d_2999_6699)">
<path id="Vector" d="M20.9917 20.994C20.7951 20.9963 20.6028 20.9368 20.4417 20.824L13.5417 16.264C13.3785 16.1565 13.1872 16.0992 12.9917 16.0992C12.7962 16.0992 12.605 16.1565 12.4417 16.264L5.54173 20.824C5.35812 20.9424 5.1408 20.9973 4.923 20.9805C4.70521 20.9637 4.49891 20.876 4.33564 20.7309C4.17237 20.5858 4.06111 20.3912 4.01887 20.1768C3.97663 19.9625 4.00574 19.7403 4.10173 19.544L12.1017 3.54404C12.1857 3.38024 12.3131 3.24277 12.4702 3.14678C12.6272 3.05079 12.8077 3 12.9917 3C13.1758 3 13.3563 3.05079 13.5133 3.14678C13.6703 3.24277 13.7978 3.38024 13.8817 3.54404L21.8817 19.544C21.9814 19.7414 22.0129 19.9661 21.9713 20.1833C21.9297 20.4004 21.8173 20.5976 21.6517 20.744C21.4694 20.9048 21.2348 20.9937 20.9917 20.994Z" fill="#276EF1"/>
</g>
<defs>
<filter id="filter0_d_2999_6699" x="-3" y="-2" width="32" height="32" filterUnits="userSpaceOnUse" color-interpolation-filters="sRGB">
<feFlood flood-opacity="0" result="BackgroundImageFix"/>
<feColorMatrix in="SourceAlpha" type="matrix" values="0 0 0 0 0 0 0 0 0 0 0 0 0 0 0 0 0 0 127 0" result="hardAlpha"/>
<feOffset dy="2"/>
<feGaussianBlur stdDeviation="2"/>
<feColorMatrix type="matrix" values="0 0 0 0 0.262745 0 0 0 0 0.298039 0 0 0 0 0.482353 0 0 0 0.2 0"/>
<feBlend mode="normal" in2="BackgroundImageFix" result="effect1_dropShadow_2999_6699"/>
<feBlend mode="normal" in="SourceGraphic" in2="effect1_dropShadow_2999_6699" result="shape"/>
</filter>
</defs>
</svg>
