<svg width="185" height="184" viewBox="0 0 185 184" fill="none" xmlns="http://www.w3.org/2000/svg">
<g clip-path="url(#clip0_3483_16135)">
<path d="M174.836 160.838C178.188 167.366 187.265 187.624 195.368 228.86C196.035 232.281 196.675 235.612 197.29 238.846L197.351 238.772C208.456 280.611 216.164 309.902 220.475 326.644C224.903 343.839 218.762 343.57 222.12 358.036C224.056 366.377 230.542 373.083 230.486 381.768C230.478 383.139 230.511 385.882 230.586 389.997C230.72 397.344 225.35 403.637 218.072 404.66L188.678 408.791C180.726 409.908 173.374 404.368 172.256 396.417C172.246 396.343 172.236 396.27 172.227 396.197C171.434 389.854 171.033 386.083 171.023 384.884C171.001 382.4 170.97 380.139 170.922 378.079C169.229 371.147 167.464 363.934 166.044 358.119C164.127 355.158 161.873 351.066 160.096 344.445C158.927 340.089 156.269 323.135 152.124 293.582C152.044 293.186 151.893 291.964 151.669 289.917L145.866 268.557C145.624 271.052 145.377 273.576 145.127 276.122C145.639 311.52 145.626 331.405 145.087 335.778C143.392 349.541 138.321 353.33 138.172 357.655C138.027 361.892 138.671 368.065 139.895 377.345C140.052 378.533 140.179 382.323 140.276 388.715C140.278 388.789 140.278 388.863 140.278 388.937C140.278 395.372 136.097 400.831 130.303 402.745C126.658 406.063 120.789 403.539 105.378 403.644C105.378 403.644 103.006 403.665 99.8749 403.476L96.0551 403.476C93.794 403.476 91.6422 402.957 89.7206 402.025C87.8988 401.515 86.3918 400.844 85.5519 399.962C84.8504 399.205 84.4083 398.345 84.4083 398.345C84.1993 397.877 84.0489 397.415 83.941 396.979C82.7223 395.146 81.9054 393.013 81.6229 390.697C81.1246 386.612 80.7757 383.892 80.576 382.534C79.312 373.942 84.8017 366.398 85.5581 357.869C86.87 343.077 80.8264 344.197 82.8183 326.554C84.7397 309.535 88.3753 289.889 93.725 267.618C96.8195 232.541 100.892 193.128 105.378 179.884C105.452 179.648 108.251 170.26 112.296 163.633C112.42 163.766 112.548 163.894 112.681 164.016C113.187 164.492 113.691 164.836 114.194 165.091C115.2 165.691 116.034 165.897 116.034 165.897C116.034 165.897 116.075 165.896 116.118 165.939C116.118 165.939 143.129 172.694 169.93 165L170.012 164.954C170.012 164.954 170.838 164.72 171.823 164.086C172.275 163.813 172.808 163.407 173.298 162.958C173.912 162.358 174.419 161.635 174.836 160.838Z" fill="#F4B607"/>
<path opacity="0.176986" d="M118.075 166.37L132.178 218.371L145.852 268.697C145.615 271.147 145.373 273.623 145.127 276.122C145.639 311.52 145.626 331.405 145.087 335.778C143.392 349.541 138.321 353.33 138.172 357.655C138.027 361.892 138.671 368.065 139.895 377.345C140.052 378.533 140.179 382.323 140.276 388.715C140.278 388.789 140.278 388.863 140.278 388.937C140.278 395.372 136.097 400.831 130.303 402.745C126.658 406.063 120.789 403.539 105.378 403.644C105.378 403.644 103.006 403.665 99.8749 403.476L96.0551 403.476C93.7939 403.476 91.6422 402.957 89.7206 402.025C87.8988 401.515 86.3918 400.844 85.5519 399.962C84.8504 399.205 84.4083 398.345 84.4083 398.345C84.1993 397.877 84.0489 397.415 83.941 396.979C82.7223 395.146 81.9054 393.013 81.6229 390.697C81.1246 386.612 80.7757 383.892 80.576 382.534C79.312 373.942 84.8017 366.398 85.5581 357.869C86.87 343.077 80.8264 344.197 82.8183 326.554C84.7397 309.535 88.3753 289.889 93.725 267.618C96.8195 232.541 100.892 193.128 105.378 179.884C105.452 179.648 108.251 170.26 112.296 163.633C112.42 163.766 112.548 163.894 112.681 164.016C113.187 164.492 113.691 164.836 114.194 165.091C115.2 165.691 116.034 165.897 116.034 165.897C116.034 165.897 116.075 165.896 116.118 165.939C116.118 165.939 116.807 166.112 118.075 166.37Z" fill="#444444"/>
<path d="M175.304 105.53C175.355 106.037 175.404 106.56 175.453 107.099L175.455 107.232L175.576 109.389C176.285 133.392 176.64 144.181 176.838 148.408C176.838 148.408 176.804 148.849 176.857 149.509C176.974 151.446 177.155 159.419 173.482 163.008C172.992 163.457 172.459 163.863 172.008 164.135C171.023 164.77 170.197 165.004 170.197 165.004L170.114 165.05C143.313 172.744 116.302 165.989 116.302 165.989C116.302 165.989 115.215 165.748 114.208 165.148C113.705 164.893 113.172 164.523 112.666 164.047C108.912 160.587 109.013 152.632 109.062 150.693C109.051 150.076 109.043 149.591 109.043 149.591C109.09 145.56 109.073 135.769 108.964 114.527C98.4408 113.551 94.1808 110.516 96.1834 105.421C100.733 93.8493 103.746 82.7455 121.781 81.4625C126.206 79.2561 131.038 78.5174 134.402 78.2925C136.35 78.1703 137.803 78.189 138.385 78.2229C138.634 78.2186 138.966 78.2568 139.59 78.29C140.213 78.3232 140.919 78.355 141.708 78.3853C142.495 78.3274 143.2 78.2711 143.822 78.2162C144.443 78.1612 144.733 78.1121 145.023 78.1071C145.645 78.0521 147.055 77.9835 149.006 78.0375C149.472 78.0524 149.965 78.0757 150.482 78.1103C150.743 78.0504 151.008 77.9915 151.276 77.9335C169.813 73.9329 175.674 84.0615 183.2 94.2468C186.212 98.3236 183.58 102.085 175.304 105.53Z" fill="#F46B07"/>
<path opacity="0.176986" d="M121.502 81.4609C118.926 82.759 116.494 84.5579 114.575 87.0463C113.723 88.1628 112.632 89.8563 111.803 92.2944C111.684 92.6489 111.565 92.9595 111.447 93.314C111.169 94.068 110.575 95.6647 110.065 97.3921C109.518 99.3405 109.085 103.05 108.802 108.21L108.804 108.342L108.759 110.502C108.766 111.863 108.773 113.181 108.779 114.457C98.5164 113.446 94.3749 110.422 96.3548 105.385C100.866 93.9105 103.866 82.896 121.502 81.4609Z" fill="#444444"/>
<path d="M172.261 213.31C171.893 213.595 171.676 213.722 171.676 213.722C165.892 212.751 174.162 191.33 176.627 185.267L155.867 111.004C168.754 108.279 177.255 105.309 181.37 102.094C192.563 147.13 198.611 176.015 199.514 188.749C199.583 189.153 199.625 189.586 199.64 190.048C199.881 197.458 197.419 208.799 192.253 224.071C192.212 224.161 178.776 230.758 169.323 225.18L172.261 213.31ZM115.725 39.4501C115.744 39.4255 115.763 39.4006 115.781 39.3754C119.647 35.0416 126.766 35.1696 129.972 35.8609C130.362 35.9462 131.746 36.2688 133.747 36.6121C134.833 36.8149 135.71 36.907 136.231 37.0061C142.732 37.9552 145.4 37.4382 148.502 39.5363C149.083 39.9075 150.403 40.8435 151.468 42.5061C154.474 47.2078 153.052 52.7288 152.658 54.3708C151.344 59.2831 148.13 62.0463 147.12 63.2249C146.369 64.1161 145.325 65.1109 144.311 66.0096L145.293 80.2293C145.304 80.5375 145.182 80.8504 144.923 80.9917C143.803 81.7362 142.201 82.5856 140.191 83.0967C136.566 84.0609 133.418 83.5536 131.638 83.0867C131.283 83.011 131.006 82.668 130.994 82.3157L130.462 72.9909C130.076 73.0917 129.665 73.1962 129.226 73.3054C125.354 74.3161 125.587 74.2076 125.315 74.2676C122.481 74.6786 120.124 74.3423 119.695 74.2086C118.132 73.9113 116.605 72.4218 115.35 70.0306C113.647 66.8392 112.339 62.0058 111.96 56.3397C111.868 55.5326 111.907 54.7393 111.946 53.946L112.595 46.0844C112.735 44.3271 113.314 42.6159 114.356 41.1306C114.78 40.4663 115.191 39.9335 115.679 39.4976C115.695 39.4817 115.71 39.4659 115.725 39.4501ZM96.2208 109.738C97.6219 112.268 101.87 113.862 108.964 114.52C109.041 129.38 109.072 138.637 109.068 144.237C98.4875 157.268 91.4081 155.235 91.4081 155.235C86.4775 155.448 82.7071 153.206 81.2843 152.345C68.8723 144.86 45.31 103.201 41.2462 95.9031C35.8815 95.1683 30.8732 93.7587 26.2213 91.6743C18.8021 88.35 15.8125 85.1961 17.2524 82.2125L55.2739 84.6673L55.3781 84.595L88.3525 119.299C91.8083 115.627 94.1559 112.628 96.2208 109.738Z" fill="#F2A98A"/>
<path opacity="0.2" d="M96.363 109.736C97.7641 112.266 102.012 113.86 109.106 114.518C109.183 129.379 109.214 138.635 109.21 144.236C98.6297 157.267 91.5503 155.234 91.5503 155.234C86.6197 155.447 82.8493 153.205 81.4265 152.344C69.0145 144.858 45.4522 103.199 41.3884 95.9018C36.0237 95.167 31.0154 93.7574 26.3635 91.673C18.9443 88.3487 15.9547 85.1947 17.3946 82.2111L55.4161 84.666L55.5203 84.5937L88.4947 119.297C91.9505 115.626 94.2981 112.627 96.363 109.736Z" fill="#8C2A00"/>
<path d="M129.748 73.1431L136.239 71.0719L130.929 79.1856L129.748 73.1431Z" fill="#482D1F"/>
<path d="M145.573 55.3448C145.62 54.2772 145.4 53.1814 144.826 52.173C143.631 50.0539 141.117 48.6821 138.94 49.1621C137.716 49.4321 136.83 50.2694 136.733 50.3478C135.394 51.7132 134.965 53.263 134.965 53.263L134.75 54.2917C118.96 48.2679 115.898 40.6653 115.075 40.1859C115.326 39.9022 115.573 39.6623 115.728 39.4571C119.638 35.1279 126.889 35.2697 130.138 35.9656C130.572 36.0555 131.955 36.3781 134.001 36.726C135.131 36.9334 136.007 37.0255 136.528 37.1246C143.161 38.0875 145.873 37.5751 149.019 39.6778C149.6 40.049 150.963 40.9897 152.029 42.6522C155.353 47.6975 153.838 53.2531 153.262 54.5216C152.859 55.4095 152.224 55.9631 152.224 55.9631C149.891 55.6132 147.715 55.4583 145.573 55.3448ZM110.826 51.7516C110.39 51.6405 110.288 51.0617 110.612 50.7698C111.027 50.4386 111.749 50.1235 112.629 50.1696C114.433 50.2641 116.307 51.5535 114.255 51.9755C113.051 52.2212 111.652 51.9714 110.826 51.7516ZM119.873 52.5346C119.438 52.4235 119.336 51.8446 119.704 51.5551C120.118 51.2239 120.841 50.9088 121.765 50.9572C123.568 51.0517 125.44 52.3851 123.391 52.763C122.096 53.0482 120.7 52.7544 119.873 52.5346Z" fill="#482D1F"/>
<path d="M114.096 55.0115C114.013 55.7572 113.816 56.9822 113.353 57.3991C112.571 58.0199 111.718 55.7693 112.362 54.4353C112.612 53.8749 112.924 53.803 113.274 53.8654C113.797 53.9811 114.124 54.4835 114.096 55.0115ZM121.976 55.3363C121.981 56.0865 121.917 57.3185 121.449 57.8234C120.75 58.5368 119.629 56.3603 120.142 54.9754C120.348 54.4127 120.663 54.2968 121.015 54.3153C121.543 54.3429 121.96 54.806 121.976 55.3363Z" fill="#482D1F"/>
<path d="M117.896 64.166C118.209 64.0942 118.968 63.9134 119.125 63.4363C119.13 63.3483 119.181 63.2186 119.141 63.1283C118.982 62.8111 118.444 62.9595 117.65 62.9619C116.238 62.9762 115.101 62.7842 115.101 62.7842C115.101 62.7842 115.362 63.6803 115.569 63.9558C115.974 64.6389 117.405 64.2727 117.896 64.166Z" fill="#482D1F"/>
<path d="M115.367 55.1646L115.375 55.1037L115.369 55.1339L115.367 55.1646ZM114.468 59.7769C114.359 60.2687 114.718 60.7761 115.215 60.886C115.325 60.902 115.325 60.902 115.396 60.9112C116.135 61.0071 116.598 61.0527 117.395 61.0945C117.638 61.1072 117.845 60.9205 117.858 60.6776C117.871 60.4346 117.684 60.2273 117.441 60.2145C116.669 60.1741 116.228 60.1306 115.509 60.0373L115.367 60.0189C115.366 60.0169 115.329 59.9642 115.331 59.9559L116.24 55.2715L116.247 55.2107L116.383 52.6148C116.396 52.3718 116.209 52.1645 115.966 52.1518C115.723 52.139 115.516 52.3257 115.503 52.5687L115.369 55.1339L114.468 59.7769Z" fill="#482D1F"/>
<path d="M145.544 54.6656C145.61 55.9706 145.232 57.344 144.531 58.4068C143.673 59.7488 142.595 60.4165 141.245 60.8756C141.014 60.9539 140.891 61.2041 140.969 61.4345C141.048 61.6649 141.298 61.7882 141.528 61.7099C142.122 61.508 142.598 61.3029 143.161 60.9545C143.99 60.4411 144.71 59.7633 145.27 58.8865C146.07 57.6732 146.499 56.1143 146.424 54.6213C146.412 54.3783 146.205 54.1912 145.962 54.2034C145.719 54.2157 145.532 54.4226 145.544 54.6656Z" fill="#482D1F"/>
<g clip-path="url(#clip1_3483_16135)">
<path d="M38.2223 75.6912C58.3249 75.6912 74.6213 59.5202 74.6213 39.5722C74.6213 19.6242 58.3249 3.45312 38.2223 3.45312C18.1196 3.45312 1.82324 19.6242 1.82324 39.5722C1.82324 59.5202 18.1196 75.6912 38.2223 75.6912Z" fill="#207538"/>
<path d="M34.4457 50.298C34.2037 50.2972 33.9644 50.2467 33.7428 50.1495C33.5212 50.0524 33.3219 49.9107 33.1574 49.7332L24.5804 40.6092C24.2598 40.2675 24.0881 39.8125 24.1029 39.3442C24.1178 38.8759 24.3182 38.4326 24.6598 38.112C25.0015 37.7914 25.4566 37.6197 25.9249 37.6346C26.3932 37.6494 26.8364 37.8498 27.157 38.1914L34.428 45.9389L49.27 29.7027C49.4206 29.5152 49.608 29.3604 49.8206 29.2479C50.0332 29.1354 50.2666 29.0675 50.5064 29.0485C50.7462 29.0295 50.9873 29.0597 51.215 29.1372C51.4427 29.2148 51.6522 29.3381 51.8305 29.4995C52.0088 29.661 52.1523 29.8572 52.252 30.0761C52.3517 30.295 52.4057 30.532 52.4105 30.7725C52.4153 31.013 52.3709 31.2519 52.28 31.4746C52.1891 31.6973 52.0536 31.8991 51.8819 32.0676L35.7516 49.7156C35.5886 49.8962 35.39 50.0412 35.1683 50.1414C34.9466 50.2417 34.7066 50.295 34.4633 50.298H34.4457Z" fill="white"/>
</g>
</g>
<defs>
<clipPath id="clip0_3483_16135">
<rect width="184" height="184" fill="white" transform="translate(0.5)"/>
</clipPath>
<clipPath id="clip1_3483_16135">
<rect width="72.798" height="72.798" fill="white" transform="translate(1.82324 3.30859)"/>
</clipPath>
</defs>
</svg>
