<svg width="48" height="48" viewBox="0 0 48 48" fill="none" xmlns="http://www.w3.org/2000/svg">
<rect width="48" height="48" rx="24" fill="#F5F5F5"/>
<path d="M24 23C24.7911 23 25.5645 22.7654 26.2223 22.3259C26.8801 21.8864 27.3928 21.2616 27.6955 20.5307C27.9983 19.7998 28.0775 18.9956 27.9231 18.2196C27.7688 17.4437 27.3878 16.731 26.8284 16.1716C26.269 15.6122 25.5563 15.2312 24.7804 15.0769C24.0044 14.9225 23.2002 15.0017 22.4693 15.3045C21.7384 15.6072 21.1136 16.1199 20.6741 16.7777C20.2346 17.4355 20 18.2089 20 19C20 20.0609 20.4214 21.0783 21.1716 21.8284C21.9217 22.5786 22.9391 23 24 23ZM24 17C24.3956 17 24.7822 17.1173 25.1111 17.3371C25.44 17.5568 25.6964 17.8692 25.8478 18.2346C25.9991 18.6001 26.0387 19.0022 25.9616 19.3902C25.8844 19.7781 25.6939 20.1345 25.4142 20.4142C25.1345 20.6939 24.7781 20.8844 24.3902 20.9616C24.0022 21.0387 23.6001 20.9991 23.2346 20.8478C22.8692 20.6964 22.5568 20.44 22.3371 20.1111C22.1173 19.7822 22 19.3956 22 19C22 18.4696 22.2107 17.9609 22.5858 17.5858C22.9609 17.2107 23.4696 17 24 17Z" fill="#1D1D1B"/>
<path d="M24 25C22.1435 25 20.363 25.7375 19.0503 27.0503C17.7375 28.363 17 30.1435 17 32C17 32.2652 17.1054 32.5196 17.2929 32.7071C17.4804 32.8946 17.7348 33 18 33C18.2652 33 18.5196 32.8946 18.7071 32.7071C18.8946 32.5196 19 32.2652 19 32C19 30.6739 19.5268 29.4022 20.4645 28.4645C21.4021 27.5268 22.6739 27 24 27C25.3261 27 26.5979 27.5268 27.5355 28.4645C28.4732 29.4022 29 30.6739 29 32C29 32.2652 29.1054 32.5196 29.2929 32.7071C29.4804 32.8946 29.7348 33 30 33C30.2652 33 30.5196 32.8946 30.7071 32.7071C30.8946 32.5196 31 32.2652 31 32C31 30.1435 30.2625 28.363 28.9497 27.0503C27.637 25.7375 25.8565 25 24 25Z" fill="#1D1D1B"/>
</svg>
