<svg width="73" height="72" viewBox="0 0 73 72" fill="none" xmlns="http://www.w3.org/2000/svg">
<rect x="0.5" width="72" height="72" rx="36" fill="#D03E3E"/>
<path d="M38.85 36L46.0167 28.85C46.3305 28.5361 46.5068 28.1105 46.5068 27.6667C46.5068 27.2228 46.3305 26.7972 46.0167 26.4833C45.7028 26.1695 45.2772 25.9932 44.8333 25.9932C44.3895 25.9932 43.9638 26.1695 43.65 26.4833L36.5 33.65L29.35 26.4833C29.0362 26.1695 28.6105 25.9932 28.1667 25.9932C27.7228 25.9932 27.2972 26.1695 26.9833 26.4833C26.6695 26.7972 26.4932 27.2228 26.4932 27.6667C26.4932 28.1105 26.6695 28.5361 26.9833 28.85L34.15 36L26.9833 43.15C26.8271 43.3049 26.7031 43.4893 26.6185 43.6924C26.5339 43.8955 26.4903 44.1133 26.4903 44.3333C26.4903 44.5533 26.5339 44.7712 26.6185 44.9743C26.7031 45.1774 26.8271 45.3617 26.9833 45.5166C27.1383 45.6729 27.3226 45.7969 27.5257 45.8815C27.7288 45.9661 27.9467 46.0096 28.1667 46.0096C28.3867 46.0096 28.6045 45.9661 28.8076 45.8815C29.0107 45.7969 29.1951 45.6729 29.35 45.5166L36.5 38.35L43.65 45.5166C43.8049 45.6729 43.9893 45.7969 44.1924 45.8815C44.3955 45.9661 44.6133 46.0096 44.8333 46.0096C45.0534 46.0096 45.2712 45.9661 45.4743 45.8815C45.6774 45.7969 45.8617 45.6729 46.0167 45.5166C46.1729 45.3617 46.2969 45.1774 46.3815 44.9743C46.4661 44.7712 46.5097 44.5533 46.5097 44.3333C46.5097 44.1133 46.4661 43.8955 46.3815 43.6924C46.2969 43.4893 46.1729 43.3049 46.0167 43.15L38.85 36Z" fill="white"/>
</svg>
