<svg width="48" height="48" viewBox="0 0 48 48" fill="none" xmlns="http://www.w3.org/2000/svg">
<rect width="48" height="48" rx="24" fill="#F5F5F5"/>
<path d="M24.94 34H23.05C22.6044 34 22.1771 33.823 21.8621 33.5079C21.547 33.1929 21.37 32.7656 21.37 32.32V31.23C21.3646 31.1658 21.341 31.1044 21.3021 31.0531C21.2631 31.0017 21.2104 30.9625 21.15 30.94C21.0888 30.9008 21.0177 30.88 20.945 30.88C20.8723 30.88 20.8012 30.9008 20.74 30.94L20 31.74C19.8448 31.8963 19.6602 32.0204 19.4568 32.105C19.2534 32.1897 19.0353 32.2333 18.815 32.2333C18.5947 32.2333 18.3766 32.1897 18.1732 32.105C17.9698 32.0204 17.7852 31.8963 17.63 31.74L16.26 30.4C16.1014 30.2451 15.9755 30.06 15.8896 29.8556C15.8037 29.6512 15.7597 29.4317 15.76 29.21C15.7606 28.7565 15.9403 28.3217 16.26 28L17 27.26C17.0357 27.2049 17.0547 27.1407 17.0547 27.075C17.0547 27.0093 17.0357 26.9451 17 26.89C16.94 26.74 16.84 26.63 16.7 26.63H15.68C15.2335 26.6274 14.8062 26.4481 14.4914 26.1315C14.1767 25.8148 14 25.3865 14 24.94V23.05C14 22.6044 14.177 22.1771 14.4921 21.8621C14.8071 21.547 15.2344 21.37 15.68 21.37H16.77C16.8342 21.3646 16.8956 21.341 16.9469 21.3021C16.9983 21.2631 17.0375 21.2104 17.06 21.15C17.0992 21.0888 17.12 21.0177 17.12 20.945C17.12 20.8723 17.0992 20.8012 17.06 20.74L16.26 20C16.1037 19.8448 15.9796 19.6602 15.895 19.4568C15.8103 19.2534 15.7667 19.0353 15.7667 18.815C15.7667 18.5947 15.8103 18.3766 15.895 18.1732C15.9796 17.9698 16.1037 17.7852 16.26 17.63L17.6 16.26C17.7534 16.1022 17.9368 15.9766 18.1395 15.8908C18.3421 15.8049 18.5599 15.7604 18.78 15.76C19.0062 15.759 19.2305 15.8027 19.4398 15.8885C19.6492 15.9743 19.8395 16.1005 20 16.26L20.74 17C20.7951 17.0357 20.8593 17.0547 20.925 17.0547C20.9907 17.0547 21.0549 17.0357 21.11 17C21.26 16.94 21.37 16.84 21.37 16.7V15.68C21.3726 15.2335 21.5519 14.8062 21.8685 14.4914C22.1852 14.1767 22.6135 14 23.06 14H25C25.4456 14 25.8729 14.177 26.1879 14.4921C26.503 14.8071 26.68 15.2344 26.68 15.68V16.77C26.6854 16.8342 26.709 16.8956 26.7479 16.9469C26.7869 16.9983 26.8396 17.0375 26.9 17.06C26.9612 17.0992 27.0323 17.12 27.105 17.12C27.1777 17.12 27.2488 17.0992 27.31 17.06L28 16.26C28.1552 16.1037 28.3398 15.9796 28.5432 15.895C28.7466 15.8103 28.9647 15.7667 29.185 15.7667C29.4053 15.7667 29.6234 15.8103 29.8268 15.895C30.0302 15.9796 30.2148 16.1037 30.37 16.26L31.74 17.6C31.8981 17.7553 32.0238 17.9404 32.1096 18.1447C32.1955 18.349 32.2398 18.5684 32.24 18.79C32.2448 19.0153 32.2029 19.2391 32.1168 19.4474C32.0308 19.6557 31.9025 19.8438 31.74 20L31 20.74C30.9643 20.7951 30.9453 20.8593 30.9453 20.925C30.9453 20.9907 30.9643 21.0549 31 21.11C31.06 21.26 31.16 21.37 31.3 21.37H32.39C32.8242 21.3906 33.2338 21.5777 33.5336 21.8924C33.8335 22.2071 34.0005 22.6253 34 23.06V25C34 25.4456 33.823 25.8729 33.5079 26.1879C33.1929 26.503 32.7656 26.68 32.32 26.68H31.23C31.1658 26.6854 31.1044 26.709 31.0531 26.7479C31.0017 26.7869 30.9625 26.8396 30.94 26.9C30.9043 26.9551 30.8853 27.0193 30.8853 27.085C30.8853 27.1507 30.9043 27.2149 30.94 27.27L31.71 28.04C31.8663 28.1952 31.9904 28.3798 32.075 28.5832C32.1597 28.7866 32.2033 29.0047 32.2033 29.225C32.2033 29.4453 32.1597 29.6634 32.075 29.8668C31.9904 30.0702 31.8663 30.2548 31.71 30.41L30.4 31.74C30.2466 31.8978 30.0632 32.0234 29.8605 32.1092C29.6579 32.1951 29.4401 32.2396 29.22 32.24C28.7735 32.2341 28.3467 32.0548 28.03 31.74L27.26 31C27.2049 30.9643 27.1407 30.9453 27.075 30.9453C27.0093 30.9453 26.9451 30.9643 26.89 31C26.74 31.06 26.63 31.16 26.63 31.3V32.39C26.6094 32.8242 26.4223 33.2338 26.1076 33.5336C25.7929 33.8335 25.3747 34.0005 24.94 34ZM23.37 32H24.63V31.23C24.6343 30.7689 24.7753 30.3193 25.0352 29.9384C25.2951 29.5574 25.6622 29.2622 26.09 29.09C26.5196 28.9022 26.9953 28.8467 27.4566 28.9304C27.9179 29.0141 28.3438 29.2333 28.68 29.56L29.22 30.1L30.1 29.22L29.56 28.67C29.2353 28.3389 29.0164 27.9188 28.9309 27.463C28.8454 27.0072 28.8973 26.5362 29.08 26.11C29.2537 25.6841 29.5497 25.3191 29.9305 25.061C30.3113 24.803 30.76 24.6634 31.22 24.66H32V23.37H31.23C30.7689 23.3657 30.3193 23.2247 29.9384 22.9648C29.5574 22.7049 29.2622 22.3378 29.09 21.91C28.9022 21.4804 28.8467 21.0047 28.9304 20.5434C29.0141 20.0821 29.2333 19.6562 29.56 19.32L30.1 18.78L29.22 17.9L28.67 18.44C28.3337 18.7472 27.9167 18.9518 27.468 19.03C27.0193 19.1081 26.5576 19.0563 26.1373 18.8809C25.717 18.7054 25.3556 18.4135 25.0957 18.0395C24.8357 17.6655 24.688 17.2251 24.67 16.77V16H23.37V16.77C23.3657 17.2311 23.2247 17.6807 22.9648 18.0616C22.7049 18.4426 22.3378 18.7378 21.91 18.91C21.4804 19.0978 21.0047 19.1533 20.5434 19.0696C20.0821 18.9859 19.6562 18.7667 19.32 18.44L18.78 17.9L17.9 18.78L18.44 19.33C18.7472 19.6663 18.9518 20.0833 19.03 20.532C19.1081 20.9807 19.0563 21.4424 18.8809 21.8627C18.7054 22.283 18.4135 22.6444 18.0395 22.9043C17.6655 23.1643 17.2251 23.312 16.77 23.33H16V24.59H16.77C17.2311 24.5943 17.6807 24.7353 18.0616 24.9952C18.4426 25.2551 18.7378 25.6222 18.91 26.05C19.0978 26.4796 19.1533 26.9553 19.0696 27.4166C18.9859 27.8779 18.7667 28.3038 18.44 28.64L17.9 29.18L18.78 30.06L19.33 29.52C19.6663 29.2128 20.0833 29.0082 20.532 28.93C20.9807 28.8519 21.4424 28.9037 21.8627 29.0791C22.283 29.2546 22.6444 29.5465 22.9043 29.9205C23.1643 30.2945 23.312 30.7349 23.33 31.19L23.37 32Z" fill="#1D1D1B"/>
<path d="M24 27.5C23.3078 27.5 22.6311 27.2947 22.0555 26.9101C21.4799 26.5256 21.0313 25.9789 20.7664 25.3394C20.5015 24.6999 20.4322 23.9961 20.5673 23.3172C20.7023 22.6383 21.0356 22.0146 21.5251 21.5251C22.0146 21.0356 22.6383 20.7023 23.3172 20.5673C23.9961 20.4322 24.6999 20.5015 25.3394 20.7664C25.9789 21.0313 26.5256 21.4799 26.9101 22.0555C27.2947 22.6311 27.5 23.3078 27.5 24C27.5 24.9283 27.1313 25.8185 26.4749 26.4749C25.8185 27.1313 24.9283 27.5 24 27.5ZM24 22.5C23.7033 22.5 23.4133 22.588 23.1666 22.7528C22.92 22.9176 22.7277 23.1519 22.6142 23.426C22.5006 23.7001 22.4709 24.0017 22.5288 24.2926C22.5867 24.5836 22.7296 24.8509 22.9393 25.0607C23.1491 25.2704 23.4164 25.4133 23.7074 25.4712C23.9983 25.5291 24.2999 25.4994 24.574 25.3858C24.8481 25.2723 25.0824 25.08 25.2472 24.8334C25.412 24.5867 25.5 24.2967 25.5 24C25.5 23.6022 25.342 23.2206 25.0607 22.9393C24.7794 22.658 24.3978 22.5 24 22.5Z" fill="#1D1D1B"/>
</svg>
