<svg width="184" height="184" viewBox="0 0 184 184" fill="none" xmlns="http://www.w3.org/2000/svg">
<g clip-path="url(#clip0_2488_34511)">
<path d="M174.336 160.838C177.688 167.366 186.765 187.624 194.868 228.86C195.535 232.281 196.175 235.612 196.79 238.846L196.851 238.772C207.956 280.611 215.664 309.902 219.975 326.644C224.403 343.839 218.262 343.57 221.62 358.036C223.556 366.377 230.042 373.083 229.986 381.768C229.978 383.139 230.011 385.882 230.086 389.997C230.22 397.344 224.85 403.637 217.572 404.66L188.178 408.791C180.226 409.908 172.874 404.368 171.756 396.417C171.746 396.343 171.736 396.27 171.727 396.197C170.934 389.854 170.533 386.083 170.523 384.884C170.501 382.4 170.47 380.139 170.422 378.079C168.729 371.147 166.964 363.934 165.544 358.119C163.627 355.158 161.373 351.066 159.596 344.445C158.427 340.089 155.769 323.135 151.624 293.582C151.544 293.186 151.393 291.964 151.169 289.917L145.366 268.557C145.124 271.052 144.877 273.576 144.627 276.122C145.139 311.52 145.126 331.405 144.587 335.778C142.892 349.541 137.821 353.33 137.672 357.655C137.527 361.892 138.171 368.065 139.395 377.345C139.552 378.533 139.679 382.323 139.776 388.715C139.778 388.789 139.778 388.863 139.778 388.937C139.778 395.372 135.597 400.831 129.803 402.745C126.158 406.063 120.289 403.539 104.878 403.644C104.878 403.644 102.506 403.665 99.3749 403.476L95.5551 403.476C93.294 403.476 91.1422 402.957 89.2206 402.025C87.3988 401.515 85.8918 400.844 85.0519 399.962C84.3504 399.205 83.9083 398.345 83.9083 398.345C83.6993 397.877 83.5489 397.415 83.441 396.979C82.2223 395.146 81.4054 393.013 81.1229 390.697C80.6246 386.612 80.2757 383.892 80.076 382.534C78.812 373.942 84.3017 366.398 85.0581 357.869C86.37 343.077 80.3264 344.197 82.3183 326.554C84.2397 309.535 87.8753 289.889 93.225 267.618C96.3195 232.541 100.392 193.128 104.878 179.884C104.952 179.648 107.751 170.26 111.796 163.633C111.92 163.766 112.048 163.894 112.181 164.016C112.687 164.492 113.191 164.836 113.694 165.091C114.7 165.691 115.534 165.897 115.534 165.897C115.534 165.897 115.575 165.896 115.618 165.939C115.618 165.939 142.629 172.694 169.43 165L169.512 164.954C169.512 164.954 170.338 164.72 171.323 164.086C171.775 163.813 172.308 163.407 172.798 162.958C173.412 162.358 173.919 161.635 174.336 160.838Z" fill="#F4B607"/>
<path opacity="0.176986" d="M117.575 166.37L131.678 218.371L145.352 268.697C145.115 271.147 144.873 273.623 144.627 276.122C145.139 311.52 145.126 331.405 144.587 335.778C142.892 349.541 137.821 353.33 137.672 357.655C137.527 361.892 138.171 368.065 139.395 377.345C139.552 378.533 139.679 382.323 139.776 388.715C139.778 388.789 139.778 388.863 139.778 388.937C139.778 395.372 135.597 400.831 129.803 402.745C126.158 406.063 120.289 403.539 104.878 403.644C104.878 403.644 102.506 403.665 99.3749 403.476L95.5551 403.476C93.2939 403.476 91.1422 402.957 89.2206 402.025C87.3988 401.515 85.8918 400.844 85.0519 399.962C84.3504 399.205 83.9083 398.345 83.9083 398.345C83.6993 397.877 83.5489 397.415 83.441 396.979C82.2223 395.146 81.4054 393.013 81.1229 390.697C80.6246 386.612 80.2757 383.892 80.076 382.534C78.812 373.942 84.3017 366.398 85.0581 357.869C86.37 343.077 80.3264 344.197 82.3183 326.554C84.2397 309.535 87.8753 289.889 93.225 267.618C96.3195 232.541 100.392 193.128 104.878 179.884C104.952 179.648 107.751 170.26 111.796 163.633C111.92 163.766 112.048 163.894 112.181 164.016C112.687 164.492 113.191 164.836 113.694 165.091C114.7 165.691 115.534 165.897 115.534 165.897C115.534 165.897 115.575 165.896 115.618 165.939C115.618 165.939 116.307 166.112 117.575 166.37Z" fill="#444444"/>
<path d="M174.804 105.528C174.855 106.035 174.904 106.558 174.953 107.097L174.955 107.23L175.076 109.387C175.785 133.39 176.14 144.179 176.338 148.406C176.338 148.406 176.304 148.847 176.357 149.507C176.474 151.444 176.655 159.417 172.982 163.006C172.492 163.455 171.959 163.861 171.508 164.133C170.523 164.768 169.697 165.002 169.697 165.002L169.614 165.048C142.813 172.742 115.802 165.987 115.802 165.987C115.802 165.987 114.715 165.746 113.708 165.146C113.205 164.891 112.672 164.521 112.166 164.045C108.412 160.585 108.513 152.63 108.562 150.691C108.551 150.074 108.543 149.589 108.543 149.589C108.59 145.558 108.573 135.767 108.464 114.525C97.9408 113.549 93.6808 110.514 95.6834 105.419C100.233 93.8474 103.246 82.7435 121.281 81.4605C125.706 79.2542 130.538 78.5155 133.902 78.2905C135.85 78.1684 137.303 78.1871 137.885 78.221C138.134 78.2166 138.466 78.2549 139.09 78.2881C139.713 78.3213 140.419 78.353 141.208 78.3833C141.995 78.3255 142.7 78.2691 143.322 78.2142C143.943 78.1593 144.233 78.1102 144.523 78.1051C145.145 78.0502 146.555 77.9815 148.506 78.0356C148.972 78.0504 149.465 78.0738 149.982 78.1083C150.243 78.0484 150.508 77.9895 150.776 77.9315C169.313 73.9309 175.174 84.0595 182.7 94.2448C185.712 98.3216 183.08 102.083 174.804 105.528Z" fill="#F46B07"/>
<path opacity="0.176986" d="M121.002 81.459C118.426 82.7571 115.994 84.556 114.075 87.0444C113.223 88.1608 112.132 89.8544 111.303 92.2924C111.184 92.647 111.065 92.9575 110.947 93.3121C110.669 94.066 110.075 95.6628 109.565 97.3902C109.018 99.3386 108.585 103.048 108.302 108.208L108.304 108.34L108.259 110.5C108.266 111.861 108.273 113.179 108.279 114.455C98.0164 113.444 93.8749 110.42 95.8548 105.384C100.366 93.9086 103.366 82.8941 121.002 81.459Z" fill="#444444"/>
<path d="M171.761 213.309C171.393 213.594 171.176 213.721 171.176 213.721C165.392 212.75 173.662 191.329 176.127 185.266L155.367 111.003C168.254 108.278 176.755 105.308 180.87 102.093C192.063 147.129 198.111 176.014 199.014 188.748C199.083 189.152 199.125 189.585 199.14 190.047C199.381 197.457 196.919 208.798 191.753 224.07C191.712 224.16 178.276 230.757 168.823 225.179L171.761 213.309ZM115.225 39.4491C115.244 39.4246 115.263 39.3997 115.281 39.3744C119.147 35.0406 126.266 35.1686 129.472 35.86C129.862 35.9452 131.246 36.2679 133.247 36.6112C134.333 36.8139 135.21 36.906 135.731 37.0051C142.232 37.9542 144.9 37.4372 148.002 39.5353C148.583 39.9065 149.903 40.8426 150.968 42.5051C153.974 47.2068 152.552 52.7278 152.158 54.3699C150.844 59.2821 147.63 62.0453 146.62 63.2239C145.869 64.1151 144.825 65.1099 143.811 66.0087L144.793 80.2283C144.804 80.5366 144.682 80.8494 144.423 80.9907C143.303 81.7352 141.701 82.5847 139.691 83.0957C136.066 84.0599 132.918 83.5526 131.138 83.0858C130.783 83.01 130.506 82.667 130.494 82.3147L129.962 72.99C129.576 73.0907 129.165 73.1952 128.726 73.3044C124.854 74.3151 125.087 74.2067 124.815 74.2667C121.981 74.6776 119.624 74.3413 119.195 74.2076C117.632 73.9104 116.105 72.4208 114.85 70.0296C113.147 66.8382 111.839 62.0048 111.46 56.3388C111.368 55.5316 111.407 54.7383 111.446 53.945L112.095 46.0834C112.235 44.3261 112.814 42.6149 113.856 41.1296C114.28 40.4653 114.691 39.9326 115.179 39.4966C115.195 39.4807 115.21 39.4649 115.225 39.4491ZM95.7208 109.737C97.1219 112.267 101.37 113.861 108.464 114.519C108.541 129.379 108.572 138.636 108.568 144.236C97.9875 157.267 90.9081 155.234 90.9081 155.234C85.9775 155.447 82.2071 153.205 80.7843 152.344C68.3723 144.859 44.81 103.2 40.7462 95.9021C35.3815 95.1673 30.3732 93.7577 25.7213 91.6733C18.3021 88.349 15.3125 85.1951 16.7524 82.2115L54.7739 84.6664L54.8781 84.5941L87.8525 119.298C91.3083 115.626 93.6559 112.627 95.7208 109.737Z" fill="#F2A98A"/>
<path opacity="0.2" d="M95.863 109.736C97.2641 112.266 101.512 113.86 108.606 114.518C108.683 129.379 108.714 138.635 108.71 144.236C98.1297 157.267 91.0503 155.234 91.0503 155.234C86.1197 155.447 82.3493 153.205 80.9265 152.344C68.5145 144.858 44.9522 103.199 40.8884 95.9018C35.5237 95.167 30.5154 93.7574 25.8635 91.673C18.4443 88.3487 15.4547 85.1947 16.8946 82.2111L54.9161 84.666L55.0203 84.5937L87.9947 119.297C91.4505 115.626 93.7981 112.627 95.863 109.736Z" fill="#8C2A00"/>
<path d="M129.248 73.144L135.739 71.0729L130.429 79.1865L129.248 73.144Z" fill="#482D1F"/>
<path d="M145.073 55.3448C145.12 54.2772 144.9 53.1814 144.326 52.173C143.131 50.0539 140.617 48.6821 138.44 49.1621C137.216 49.4321 136.33 50.2694 136.233 50.3478C134.894 51.7132 134.465 53.263 134.465 53.263L134.25 54.2917C118.46 48.2679 115.398 40.6653 114.575 40.1859C114.826 39.9022 115.073 39.6623 115.228 39.4571C119.138 35.1279 126.389 35.2697 129.638 35.9656C130.072 36.0555 131.455 36.3781 133.501 36.726C134.631 36.9334 135.507 37.0255 136.028 37.1246C142.661 38.0875 145.373 37.5751 148.519 39.6778C149.1 40.049 150.463 40.9897 151.529 42.6522C154.853 47.6975 153.338 53.2531 152.762 54.5216C152.359 55.4095 151.724 55.9631 151.724 55.9631C149.391 55.6132 147.215 55.4583 145.073 55.3448ZM110.326 51.7516C109.89 51.6405 109.788 51.0617 110.112 50.7698C110.527 50.4386 111.249 50.1235 112.129 50.1696C113.933 50.2641 115.807 51.5535 113.755 51.9755C112.551 52.2212 111.152 51.9714 110.326 51.7516ZM119.373 52.5346C118.938 52.4235 118.836 51.8446 119.204 51.5551C119.618 51.2239 120.341 50.9088 121.265 50.9572C123.068 51.0517 124.94 52.3851 122.891 52.763C121.596 53.0482 120.2 52.7544 119.373 52.5346Z" fill="#482D1F"/>
<path d="M113.596 55.0115C113.513 55.7572 113.316 56.9822 112.853 57.3991C112.071 58.0199 111.218 55.7693 111.862 54.4353C112.112 53.8749 112.424 53.803 112.774 53.8654C113.297 53.9811 113.624 54.4835 113.596 55.0115ZM121.476 55.3363C121.481 56.0865 121.417 57.3185 120.949 57.8234C120.25 58.5368 119.129 56.3603 119.642 54.9754C119.848 54.4127 120.163 54.2968 120.515 54.3153C121.043 54.3429 121.46 54.806 121.476 55.3363Z" fill="#482D1F"/>
<path d="M117.396 64.166C117.709 64.0942 118.468 63.9134 118.625 63.4363C118.63 63.3483 118.681 63.2186 118.641 63.1283C118.482 62.8111 117.944 62.9595 117.15 62.9619C115.738 62.9762 114.601 62.7842 114.601 62.7842C114.601 62.7842 114.862 63.6803 115.069 63.9558C115.474 64.6389 116.905 64.2727 117.396 64.166Z" fill="#482D1F"/>
<path d="M114.867 55.1665L114.875 55.1056L114.869 55.1358L114.867 55.1665ZM113.968 59.7788C113.859 60.2707 114.218 60.7781 114.715 60.888C114.825 60.9039 114.825 60.9039 114.896 60.9131C115.635 61.0091 116.098 61.0547 116.895 61.0964C117.138 61.1092 117.345 60.9225 117.358 60.6795C117.371 60.4365 117.184 60.2292 116.941 60.2165C116.169 60.176 115.728 60.1326 115.009 60.0393L114.867 60.0209C114.866 60.0189 114.829 59.9662 114.831 59.9578L115.74 55.2735L115.747 55.2126L115.883 52.6168C115.896 52.3738 115.709 52.1665 115.466 52.1537C115.223 52.141 115.016 52.3276 115.003 52.5706L114.869 55.1358L113.968 59.7788Z" fill="#482D1F"/>
<path d="M145.044 54.6656C145.11 55.9706 144.732 57.344 144.031 58.4068C143.173 59.7488 142.095 60.4165 140.745 60.8756C140.514 60.9539 140.391 61.2041 140.469 61.4345C140.548 61.6649 140.798 61.7882 141.028 61.7099C141.622 61.508 142.098 61.3029 142.661 60.9545C143.49 60.4411 144.21 59.7633 144.77 58.8865C145.57 57.6732 145.999 56.1143 145.924 54.6213C145.912 54.3783 145.705 54.1912 145.462 54.2034C145.219 54.2157 145.032 54.4226 145.044 54.6656Z" fill="#482D1F"/>
<g clip-path="url(#clip1_2488_34511)">
<path d="M37.7223 75.6931C57.8249 75.6931 74.1213 59.5221 74.1213 39.5741C74.1213 19.6261 57.8249 3.45508 37.7223 3.45508C17.6196 3.45508 1.32324 19.6261 1.32324 39.5741C1.32324 59.5221 17.6196 75.6931 37.7223 75.6931Z" fill="#207538"/>
<path d="M33.9457 50.298C33.7037 50.2972 33.4644 50.2467 33.2428 50.1495C33.0212 50.0524 32.8219 49.9107 32.6574 49.7332L24.0804 40.6092C23.7598 40.2675 23.5881 39.8125 23.6029 39.3442C23.6178 38.8759 23.8182 38.4326 24.1598 38.112C24.5015 37.7914 24.9566 37.6197 25.4249 37.6346C25.8932 37.6494 26.3364 37.8498 26.657 38.1914L33.928 45.9389L48.77 29.7027C48.9206 29.5152 49.108 29.3604 49.3206 29.2479C49.5332 29.1354 49.7666 29.0675 50.0064 29.0485C50.2462 29.0295 50.4873 29.0597 50.715 29.1372C50.9427 29.2148 51.1522 29.3381 51.3305 29.4995C51.5088 29.661 51.6523 29.8572 51.752 30.0761C51.8517 30.295 51.9057 30.532 51.9105 30.7725C51.9153 31.013 51.8709 31.2519 51.78 31.4746C51.6891 31.6973 51.5536 31.8991 51.3819 32.0676L35.2516 49.7156C35.0886 49.8962 34.89 50.0412 34.6683 50.1414C34.4466 50.2417 34.2066 50.295 33.9633 50.298H33.9457Z" fill="white"/>
</g>
</g>
<defs>
<clipPath id="clip0_2488_34511">
<rect width="184" height="184" fill="white"/>
</clipPath>
<clipPath id="clip1_2488_34511">
<rect width="72.798" height="72.798" fill="white" transform="translate(1.32324 3.30859)"/>
</clipPath>
</defs>
</svg>
