<svg width="182" height="134" viewBox="0 0 182 134" fill="none" xmlns="http://www.w3.org/2000/svg">
<g opacity="0.5">
<mask id="mask0_2049_3690" style="mask-type:luminance" maskUnits="userSpaceOnUse" x="2" y="106" width="28" height="28">
<path d="M29.8101 106.712H2.63416V133.888H29.8101V106.712Z" fill="white"/>
</mask>
<g mask="url(#mask0_2049_3690)">
<path d="M29.8102 120.332C29.8102 127.849 23.7068 133.952 16.1901 133.952C8.6733 133.952 2.56995 127.849 2.56995 120.332C2.56995 112.816 8.6733 106.712 16.1901 106.712C23.7711 106.712 29.8102 112.816 29.8102 120.332Z" fill="#F7D9C8"/>
</g>
<path d="M27.2402 117.698C27.2402 125.215 21.1369 131.318 13.6201 131.318C6.10335 131.318 0 125.215 0 117.698C0 110.181 6.10335 104.078 13.6201 104.078C21.1369 104.078 27.2402 110.181 27.2402 117.698Z" fill="#F6E2B3"/>
<path d="M13.6201 117.698L1.2207 123.223C3.34081 127.978 8.09501 131.318 13.6201 131.318C21.1369 131.318 27.2403 125.215 27.2403 117.698C27.2403 111.916 23.6425 106.969 18.5028 104.978L13.6201 117.698Z" fill="#E8D098"/>
<mask id="mask1_2049_3690" style="mask-type:luminance" maskUnits="userSpaceOnUse" x="31" y="4" width="23" height="23">
<path d="M53.9665 4.56128H31.866V26.6618H53.9665V4.56128Z" fill="white"/>
</mask>
<g mask="url(#mask1_2049_3690)">
<path d="M53.9665 15.6116C53.9665 21.7149 49.0196 26.6618 42.9162 26.6618C36.8129 26.6618 31.866 21.7149 31.866 15.6116C31.866 9.50821 36.8129 4.56128 42.9162 4.56128C49.0196 4.56128 53.9665 9.50821 53.9665 15.6116Z" fill="#F7D9C8"/>
</g>
<path d="M51.8464 13.4914C51.8464 19.5948 46.8995 24.5417 40.7961 24.5417C34.6928 24.5417 29.7458 19.5948 29.7458 13.4914C29.7458 7.38808 34.6928 2.44116 40.7961 2.44116C46.8995 2.44116 51.8464 7.38808 51.8464 13.4914Z" fill="#F6E2B3"/>
<path d="M40.7961 13.4917L30.7095 17.9889C32.4441 21.8437 36.2989 24.542 40.7961 24.542C46.8994 24.542 51.8463 19.5951 51.8463 13.4917C51.8463 8.80177 48.891 4.7543 44.7793 3.2124L40.7961 13.4917Z" fill="#E8D098"/>
<mask id="mask2_2049_3690" style="mask-type:luminance" maskUnits="userSpaceOnUse" x="45" y="56" width="33" height="32">
<path d="M77.6089 56.0222H45.8073V87.8239H77.6089V56.0222Z" fill="white"/>
</mask>
<g mask="url(#mask2_2049_3690)">
<path d="M77.5447 71.8909C77.5447 80.6926 70.4134 87.7597 61.676 87.7597C52.9385 87.7597 45.8073 80.6284 45.8073 71.8909C45.8073 63.0893 52.9385 56.0222 61.676 56.0222C70.4134 56.0222 77.5447 63.0893 77.5447 71.8909Z" fill="#F7D9C8"/>
</g>
<path d="M74.5252 68.8714C74.5252 77.6731 67.3939 84.7401 58.6564 84.7401C49.919 84.7401 42.7877 77.6088 42.7877 68.8714C42.7877 60.134 49.919 53.0027 58.6564 53.0027C67.3939 53.0027 74.5252 60.0697 74.5252 68.8714Z" fill="#F6E2B3"/>
<path d="M58.6564 68.8713L44.1368 75.2959C46.5782 80.8853 52.1676 84.74 58.6564 84.74C67.4581 84.74 74.5251 77.6087 74.5251 68.8713C74.5251 62.1255 70.2849 56.3434 64.31 54.0305L58.6564 68.8713Z" fill="#E8D098"/>
<mask id="mask3_2049_3690" style="mask-type:luminance" maskUnits="userSpaceOnUse" x="47" y="109" width="25" height="25">
<path d="M71.5698 109.603H47.9916V133.181H71.5698V109.603Z" fill="white"/>
</mask>
<g mask="url(#mask3_2049_3690)">
<path d="M71.5697 121.424C71.5697 127.913 66.3016 133.246 59.7485 133.246C53.2597 133.246 47.9272 127.978 47.9272 121.424C47.9272 114.871 53.1954 109.603 59.7485 109.603C66.3016 109.603 71.5697 114.936 71.5697 121.424Z" fill="#F7D9C8"/>
</g>
<path d="M69.3213 119.176C69.3213 125.665 64.0531 130.997 57.5001 130.997C51.0112 130.997 45.6788 125.729 45.6788 119.176C45.6788 112.623 50.947 107.355 57.5001 107.355C64.0531 107.355 69.3213 112.623 69.3213 119.176Z" fill="#F6E2B3"/>
<path d="M57.5 119.176L46.7067 123.93C48.5698 128.042 52.6815 130.933 57.5 130.933C63.9888 130.933 69.3212 125.665 69.3212 119.112C69.3212 114.101 66.1731 109.796 61.7402 108.062L57.5 119.176Z" fill="#E8D098"/>
<mask id="mask4_2049_3690" style="mask-type:luminance" maskUnits="userSpaceOnUse" x="160" y="8" width="39" height="76">
<path d="M198.327 8.6731H160.358V83.5837H198.327V8.6731Z" fill="white"/>
</mask>
<g mask="url(#mask4_2049_3690)">
<path d="M198.327 8.6731H160.358V83.5837H198.327V8.6731Z" fill="#F7D9C8"/>
</g>
<mask id="mask5_2049_3690" style="mask-type:luminance" maskUnits="userSpaceOnUse" x="90" y="8" width="71" height="102">
<path d="M160.358 8.6731H90.8436V109.411H160.358V8.6731Z" fill="white"/>
</mask>
<g mask="url(#mask5_2049_3690)">
<path d="M160.358 8.6731H90.8436V109.411H160.358V8.6731Z" fill="#F7D9C8"/>
</g>
<mask id="mask6_2049_3690" style="mask-type:luminance" maskUnits="userSpaceOnUse" x="97" y="109" width="34" height="17">
<path d="M130.805 109.41H97.2682V125.408H130.805V109.41Z" fill="white"/>
</mask>
<g mask="url(#mask6_2049_3690)">
<path d="M130.805 109.41H97.2682V125.408H130.805V109.41Z" fill="#F7D9C8"/>
</g>
<path d="M207 0H169.031V74.9106H207V0Z" fill="#F6E2B3"/>
<path d="M169.031 0H90.8436V100.737H169.031V0Z" fill="#F6E2B3"/>
<path d="M139.478 100.737H105.941V116.734H139.478V100.737Z" fill="#F6E2B3"/>
<path d="M123.994 19.5307L90.8436 5.13965V95.5978L123.994 81.2709V19.5307Z" fill="#E8D098"/>
<path d="M169.031 100.738L123.994 81.271L90.8436 95.5978V100.738H169.031Z" fill="#F4D99B"/>
<path d="M139.542 116.735L122.774 113.073L105.941 116.735H139.542Z" fill="#F4D99B"/>
<path d="M122.774 113.072V100.737H105.941V116.734L122.774 113.072Z" fill="#E8D098"/>
<path d="M207 74.9107L169.031 71.4414V74.9107H207Z" fill="#F4D99B"/>
</g>
</svg>
