<svg width="184" height="184" viewBox="0 0 184 184" fill="none" xmlns="http://www.w3.org/2000/svg">
<g clip-path="url(#clip0_2451_33198)">
<path d="M172.059 0H7.06606C3.16358 0 0 3.16308 0 7.06494V130.348C0 134.25 3.16358 137.413 7.06606 137.413H172.059C175.961 137.413 179.125 134.25 179.125 130.348V7.06494C179.125 3.16308 175.961 0 172.059 0Z" fill="#F5F5F5"/>
<path d="M45.2228 52.9867C53.6131 52.9867 60.4148 46.1861 60.4148 37.7971C60.4148 29.4081 53.6131 22.6074 45.2228 22.6074C36.8325 22.6074 30.0308 29.4081 30.0308 37.7971C30.0308 46.1861 36.8325 52.9867 45.2228 52.9867Z" fill="#E0E0E0"/>
<path d="M89.739 52.9867C98.1293 52.9867 104.931 46.1861 104.931 37.7971C104.931 29.4081 98.1293 22.6074 89.739 22.6074C81.3486 22.6074 74.5469 29.4081 74.5469 37.7971C74.5469 46.1861 81.3486 52.9867 89.739 52.9867Z" fill="#E0E0E0"/>
<path d="M134.255 52.9867C142.645 52.9867 149.447 46.1861 149.447 37.7971C149.447 29.4081 142.645 22.6074 134.255 22.6074C125.865 22.6074 119.063 29.4081 119.063 37.7971C119.063 46.1861 125.865 52.9867 134.255 52.9867Z" fill="#E0E0E0"/>
<path d="M45.2228 104.561C53.6131 104.561 60.4148 97.6809 60.4148 89.1944C60.4148 80.7078 53.6131 73.8281 45.2228 73.8281C36.8325 73.8281 30.0308 80.7078 30.0308 89.1944C30.0308 97.6809 36.8325 104.561 45.2228 104.561Z" fill="#E0E0E0"/>
<path d="M89.739 104.561C98.1293 104.561 104.931 97.6809 104.931 89.1944C104.931 80.7078 98.1293 73.8281 89.739 73.8281C81.3486 73.8281 74.5469 80.7078 74.5469 89.1944C74.5469 97.6809 81.3486 104.561 89.739 104.561Z" fill="#E0E0E0"/>
<path d="M134.078 104.561C142.566 104.561 149.447 97.6809 149.447 89.1944C149.447 80.7078 142.566 73.8281 134.078 73.8281C125.591 73.8281 118.71 80.7078 118.71 89.1944C118.71 97.6809 125.591 104.561 134.078 104.561Z" fill="#E0E0E0"/>
<path d="M45.2228 37.7971C43.0764 37.7971 41.3365 36.1365 41.3365 34.088C41.3365 32.0395 43.0764 30.3789 45.2228 30.3789C47.3692 30.3789 49.1091 32.0395 49.1091 34.088C49.1091 36.1365 47.3692 37.7971 45.2228 37.7971ZM45.2228 39.5633C49.1253 39.5633 52.2889 42.5683 52.2889 46.275H38.1567C38.1567 42.5683 41.3203 39.5633 45.2228 39.5633Z" fill="white"/>
<path d="M89.7389 37.7971C87.5926 37.7971 85.8526 36.1365 85.8526 34.088C85.8526 32.0395 87.5926 30.3789 89.7389 30.3789C91.8853 30.3789 93.6252 32.0395 93.6252 34.088C93.6252 36.1365 91.8853 37.7971 89.7389 37.7971ZM89.5623 39.5633C93.3672 39.5633 96.4517 42.5683 96.4517 46.275H82.6729C82.6729 42.5683 85.7573 39.5633 89.5623 39.5633Z" fill="white"/>
<path d="M134.255 37.7971C132.109 37.7971 130.369 36.1365 130.369 34.088C130.369 32.0395 132.109 30.3789 134.255 30.3789C136.401 30.3789 138.141 32.0395 138.141 34.088C138.141 36.1365 136.401 37.7971 134.255 37.7971ZM134.078 39.5633C137.883 39.5633 140.968 42.5683 140.968 46.275H127.189C127.189 42.5683 130.274 39.5633 134.078 39.5633Z" fill="white"/>
<path d="M45.2228 89.0185C43.0764 89.0185 41.3365 87.2788 41.3365 85.1328C41.3365 82.9868 43.0764 81.2471 45.2228 81.2471C47.3691 81.2471 49.1091 82.9868 49.1091 85.1328C49.1091 87.2788 47.3691 89.0185 45.2228 89.0185ZM45.2228 90.4315C49.1253 90.4315 52.2888 93.5946 52.2888 97.4964H38.1567C38.1567 93.5946 41.3203 90.4315 45.2228 90.4315Z" fill="white"/>
<path d="M89.739 89.0185C87.5926 89.0185 85.8526 87.2788 85.8526 85.1328C85.8526 82.9868 87.5926 81.2471 89.739 81.2471C91.8853 81.2471 93.6253 82.9868 93.6253 85.1328C93.6253 87.2788 91.8853 89.0185 89.739 89.0185ZM89.5623 90.4315C93.3672 90.4315 96.4517 93.5946 96.4517 97.4964H82.6729C82.6729 93.5946 85.7574 90.4315 89.5623 90.4315Z" fill="white"/>
<path d="M134.255 89.0185C132.109 89.0185 130.369 87.2788 130.369 85.1328C130.369 82.9868 132.109 81.2471 134.255 81.2471C136.402 81.2471 138.141 82.9868 138.141 85.1328C138.141 87.2788 136.402 89.0185 134.255 89.0185ZM134.078 90.4315C137.883 90.4315 140.968 93.5946 140.968 97.4964H127.189C127.189 93.5946 130.274 90.4315 134.078 90.4315Z" fill="white"/>
<path d="M57.5744 56.873H32.8711C31.3024 56.873 30.0308 58.1445 30.0308 59.713V60.3916C30.0308 61.96 31.3024 63.2315 32.8711 63.2315H57.5744C59.1431 63.2315 60.4148 61.96 60.4148 60.3916V59.713C60.4148 58.1445 59.1431 56.873 57.5744 56.873Z" fill="#E0E0E0"/>
<path d="M102.091 56.873H77.3873C75.8186 56.873 74.5469 58.1445 74.5469 59.713V60.3916C74.5469 61.96 75.8186 63.2315 77.3873 63.2315H102.091C103.659 63.2315 104.931 61.96 104.931 60.3916V59.713C104.931 58.1445 103.659 56.873 102.091 56.873Z" fill="#E0E0E0"/>
<path d="M146.607 56.873H121.55C119.982 56.873 118.71 58.1445 118.71 59.713V60.3916C118.71 61.96 119.982 63.2315 121.55 63.2315H146.607C148.176 63.2315 149.447 61.96 149.447 60.3916V59.713C149.447 58.1445 148.176 56.873 146.607 56.873Z" fill="#E0E0E0"/>
<path d="M57.5744 108.094H32.8711C31.3024 108.094 30.0308 109.365 30.0308 110.934V111.612C30.0308 113.181 31.3024 114.452 32.8711 114.452H57.5744C59.1431 114.452 60.4148 113.181 60.4148 111.612V110.934C60.4148 109.365 59.1431 108.094 57.5744 108.094Z" fill="#E0E0E0"/>
<path d="M102.091 108.094H77.3873C75.8186 108.094 74.5469 109.365 74.5469 110.934V111.612C74.5469 113.181 75.8186 114.452 77.3873 114.452H102.091C103.659 114.452 104.931 113.181 104.931 111.612V110.934C104.931 109.365 103.659 108.094 102.091 108.094Z" fill="#E0E0E0"/>
<path d="M146.607 108.094H121.55C119.981 108.094 118.71 109.365 118.71 110.934V111.612C118.71 113.181 119.981 114.452 121.55 114.452H146.607C148.175 114.452 149.447 113.181 149.447 111.612V110.934C149.447 109.365 148.175 108.094 146.607 108.094Z" fill="#E0E0E0"/>
</g>
<g clip-path="url(#clip1_2451_33198)">
<path d="M121.424 182.372C121.876 182.372 122.242 182.736 122.242 183.186C122.242 183.635 121.876 183.999 121.424 183.999H91.8174C91.3659 183.999 91 183.635 91 183.186C91 182.736 91.3659 182.372 91.8174 182.372H121.424ZM179.185 183.999H160.567C160.131 183.999 159.749 183.686 159.749 183.311V183.061C159.749 182.685 160.113 182.372 160.567 182.372H179.185C179.621 182.372 180.002 182.685 180.002 183.061V183.311C180.002 183.686 179.639 183.999 179.185 183.999Z" fill="#F46B07"/>
<path d="M121.52 182.378C121.488 182.375 121.456 182.373 121.424 182.373H91.946C91.9265 182.274 91.9166 182.149 91.9194 181.987C91.9398 181.861 91.9423 181.717 91.9812 181.573C92.2143 180.709 92.4969 180.135 93.3233 179.625C94.1497 179.115 94.9934 178.659 95.8724 178.259C99.1145 176.742 100.222 176.761 102.354 175.37C103.236 174.788 104.047 174.115 104.805 173.387C105.31 172.901 106.402 172.113 108.08 171.021L121.631 171.021L121.52 182.378ZM179.284 182.378C179.251 182.375 179.218 182.373 179.185 182.373H160.629L162.098 173.149L175.103 171.396L179.284 182.378Z" fill="#1D1D1B"/>
<path d="M140.932 110.972C136.801 124.579 134.221 133.961 129.869 148.166C128.969 150.707 128.636 152.635 128.873 153.948C129.227 155.919 130.973 159.451 131.824 163.303C132.675 167.156 123.948 162.929 116.526 161.51C109.105 160.092 101.46 158.644 101.659 157.537C102.14 154.907 109.678 151.467 110.274 148.166C110.871 144.864 111.322 141.269 111.405 140.677C115.224 118.098 118.807 100.748 120.749 91.3109C121.568 87.2641 123.142 79.6238 128.873 71.8027C129.245 71.308 129.547 70.923 129.725 70.6848C130.252 70.1302 130.842 69.7121 131.444 69.3975C131.431 69.2862 131.418 69.1751 131.404 69.0643C132.857 67.9903 133.842 67.2137 139.72 66.7679C139.866 66.7654 140.029 66.7445 140.174 66.742C145.873 66.444 150.711 68.514 154.361 72.979C156.69 76.43 158.515 80.6747 159.836 85.7131C161.048 90.3379 165.668 111.07 173.695 147.911C174.056 148.975 174.406 149.755 174.745 150.253C175.874 151.909 179.205 154.169 181.556 157.343C183.908 160.518 174.208 160.19 166.848 161.898C159.489 163.607 151.914 165.38 151.643 164.289C151.139 162.231 154.474 157.916 155.482 154.592C152.426 146.318 149.424 137.721 146.513 128.838C144.535 122.785 142.678 116.827 140.932 110.972Z" fill="#F4B607"/>
<path opacity="0.176986" d="M140.877 111.013C136.765 124.559 134.187 133.929 129.848 148.094C128.947 150.636 128.615 152.563 128.851 153.877C129.205 155.847 130.952 159.38 131.803 163.232C132.654 167.084 123.926 162.857 116.505 161.439C109.084 160.02 101.439 158.572 101.638 157.466C102.118 154.836 109.657 151.396 110.253 148.094C110.849 144.793 111.301 141.198 111.384 140.606C115.203 118.026 118.786 100.676 120.728 91.2394C121.547 87.1926 123.121 79.5523 128.851 71.7312C129.224 71.2365 129.526 70.8515 129.704 70.6133C130.219 70.0702 130.796 69.6579 131.385 69.3457C132.06 74.9463 132.815 81.3086 133.913 86.3274C135.025 91.4054 136.505 96.219 138.047 101.274C138.957 104.486 139.899 107.733 140.877 111.013Z" fill="#444444"/>
<path d="M147.9 41.2258C148.9 41.514 149.847 41.9351 150.669 42.4582C154.19 44.7018 156.263 48.978 154.654 53.1883C154.319 54.0655 153.193 55.1275 151.276 56.3743C151.121 56.3916 150.967 56.4069 150.814 56.42L150.211 62.8984C150.193 63.0973 150.175 63.2781 150.175 63.4769C150.157 64.381 149.993 65.7189 149.212 66.6952C148.122 68.0693 146.506 70.0582 139.749 70.1305C132.483 70.2028 130.74 68.214 129.614 66.8037C128.833 65.8455 128.633 64.6883 128.615 63.7481C128.615 63.5493 128.596 63.3685 128.578 63.1696L127.937 56.3703C124.53 55.8023 124.01 53.5553 123.448 51.8164C122.303 48.2739 124.749 44.1085 127.786 42.1164C129.95 40.6975 132.604 40.1017 135.073 40.6097C136.208 40.2765 137.435 40.0893 138.732 40.081H139.767C142.903 40.0623 145.764 40.3367 147.9 41.2258Z" fill="#F46B07"/>
<path opacity="0.176986" d="M127.93 56.3013C124.593 55.7125 124.076 53.4863 123.518 51.7607C122.373 48.2182 124.819 44.0528 127.857 42.0607C130.041 40.6281 132.725 40.0346 135.215 40.5688C131.383 41.6456 128.576 44.3799 127.616 47.5299C127.325 48.4701 127.27 49.4826 127.379 50.4589L127.93 56.3013Z" fill="#444444"/>
<path d="M133.812 37.4376C133.764 37.4495 133.716 37.4615 133.667 37.4736C132.073 37.8702 132.166 37.8404 132.055 37.8689C130.877 38.0407 129.905 37.8824 129.727 37.8337C128.237 37.5307 126.825 34.5506 126.564 30.4907C126.533 30.1623 126.556 29.8376 126.56 29.5117L126.841 26.287C126.892 25.5655 127.141 24.876 127.546 24.288C127.588 24.2184 127.628 24.1668 127.668 24.1152C127.807 23.9436 127.947 23.7721 128.084 23.6367C128.613 23.0935 129.222 22.7191 129.841 22.4721C131.295 21.9933 132.893 22.0502 133.772 22.2383C133.897 22.2651 134.292 22.347 134.849 22.4582C135.365 22.621 135.868 22.7285 136.392 22.7831C136.681 22.8213 136.88 23.089 136.86 23.3776L136.354 27.9822C136.342 28.0926 137.71 27.0513 139.127 27.4241C139.583 27.5443 140.213 28.1829 141.017 29.3399C140.73 30.2121 140.58 30.6607 140.567 30.6855C139.973 31.7674 139.537 32.4476 139.26 32.7261L139.15 35.626L139.336 40.0812H138.732C137.004 40.0924 135.4 40.421 133.973 40.9892L133.812 37.4376ZM173.011 160.807L175.104 171.399L162.133 173.215L160.756 163.248C162.709 162.819 164.818 162.329 166.91 161.843C168.868 161.388 170.993 161.078 173.011 160.807ZM111.383 160.447C113.059 160.781 114.83 161.119 116.588 161.455C118.892 161.895 121.322 162.606 123.552 163.262L121.633 171.217H107.892L111.383 160.447ZM127.269 66.9626C125.19 68.6052 123.081 69.3458 120.942 69.1845C114.777 68.7198 108.432 62.6707 101.909 51.0375L101.91 51.0368L101.91 51.0367L95.4571 38.7507C97.0674 37.4116 98.5547 37.4637 99.9189 38.907C101.176 40.5496 101.9 41.5298 102.09 41.8477C104.944 46.6074 107.242 45.764 110.034 49.262L118.739 56.7231L121.922 53.4544C121.521 51.9452 121.136 50.3456 120.765 48.6557C119.8 48.0067 118.311 46.8257 115.884 44.8019C115.657 44.6121 114.536 44.3597 112.523 44.0448C109.531 44.4351 108.179 43.5957 108.467 41.5267L121.304 40.6897C122.67 40.6007 123.986 41.2137 124.793 42.3145C125.769 43.6457 126.469 44.7593 126.893 45.6554L134.591 57.146L138.595 50.6786C139.766 52.7716 141.507 53.719 143.906 55.0693C145.876 56.1785 148.249 56.5987 151.023 56.3299C145.673 66.8688 140.426 72.2129 135.281 72.3621C132.299 72.4486 129.628 70.6488 127.269 66.9626Z" fill="#ED9474"/>
<path opacity="0.2" d="M127.383 66.9389C125.294 68.5982 123.175 69.3468 121.026 69.1848C114.861 68.72 108.516 62.671 101.993 51.0377L101.994 51.037L101.993 51.0369L95.541 38.7509C97.1513 37.4118 98.6386 37.4639 100.003 38.9072C101.26 40.5498 101.984 41.5301 102.174 41.8479C105.028 46.6076 107.326 45.7642 110.118 49.2622L118.823 56.7233L122.024 53.4356C123.584 59.3066 125.37 63.8077 127.383 66.9389Z" fill="#8C2A00"/>
<path d="M133.882 38.962L136.028 36.8721L133.817 37.4358L133.882 38.962Z" fill="#482D1F"/>
<path d="M142.764 31.3248C142.526 32.185 142.594 32.8433 142.968 33.2998C144.846 35.5886 145.699 35.9231 145.23 36.7608C144.693 37.7176 142.695 37.9696 139.235 37.5167C136.93 35.9647 137.447 33.1655 137.45 32.9215C137.449 32.9194 137.448 32.9173 137.447 32.9153C137.688 32.8776 138.437 32.8204 139.058 32.2664C139.678 31.7296 140.09 30.7976 139.847 29.8383C139.639 28.9176 138.821 28.1175 137.95 28.075C137.46 28.059 137.045 28.2657 136.988 28.298C136.324 28.6687 135.994 29.2257 135.994 29.2257L135.787 29.6161C135.729 29.5124 135.674 29.4156 135.623 29.3267C134.453 27.8316 133.282 26.3545 132.095 24.8581C129.995 24.2226 128.021 24.2665 127.708 24.0634C127.847 23.8919 127.987 23.7204 128.124 23.5849C128.654 23.0418 129.262 22.6673 129.881 22.4203C131.335 21.9416 132.933 21.9984 133.812 22.1865C133.937 22.2134 134.332 22.2952 134.889 22.4065C135.051 22.4358 135.212 22.4652 135.411 22.4971C135.879 22.566 136.239 22.6273 136.455 22.6605C139.197 23.0325 140.287 22.8003 141.611 23.6537C141.855 23.8157 142.41 24.1987 142.855 24.864C144.139 26.8021 143.562 29.0637 143.405 29.7415C143.248 30.3478 143.019 30.8731 142.764 31.3248ZM126.376 28.2643C126.2 28.2064 126.154 27.9823 126.296 27.8721C126.476 27.7483 126.769 27.6019 127.131 27.6281C127.875 27.6825 128.633 28.2124 127.809 28.3666C127.282 28.4844 126.712 28.36 126.376 28.2643ZM129.873 28.6918C129.697 28.6339 129.652 28.4097 129.812 28.3017C129.992 28.178 130.284 28.0316 130.665 28.0599C131.408 28.1144 132.164 28.6622 131.342 28.7985C130.797 28.9141 130.227 28.7897 129.873 28.6918Z" fill="#482D1F"/>
<path d="M96.6368 32.3762C97.1197 32.0619 97.6641 32.0327 97.8539 32.3247L106.816 45.5011C107.005 45.7931 106.793 46.2835 106.312 46.6158C105.829 46.9301 105.285 46.9594 105.095 46.6674L96.1331 33.4909C95.9236 33.1825 96.1539 32.6905 96.6368 32.3762Z" fill="#1D1D1B"/>
<path d="M127.557 29.8116C127.556 30.1211 127.548 30.6302 127.341 30.8235C127.067 31.1179 126.61 30.2241 126.807 29.6652C126.892 29.4206 127.027 29.3643 127.171 29.3819C127.388 29.4083 127.548 29.5919 127.557 29.8116ZM130.78 30.0962C130.796 30.4078 130.77 30.9147 130.563 31.108C130.289 31.4024 129.832 30.5086 130.029 29.9498C130.114 29.7052 130.249 29.6488 130.394 29.6664C130.61 29.6929 130.77 29.8764 130.78 30.0962Z" fill="#482D1F"/>
<path d="M129.431 33.6112C129.562 33.5907 129.881 33.5205 129.96 33.3297C129.964 33.2938 129.989 33.2422 129.975 33.2041C129.917 33.0876 129.676 33.1128 129.347 33.109C128.763 33.0923 128.301 32.9812 128.301 32.9812C128.301 32.9812 128.401 33.3578 128.48 33.4585C128.625 33.7677 129.226 33.6408 129.431 33.6112Z" fill="#482D1F"/>
<path d="M128.028 31.9432L128.024 31.9631C128 32.159 128.112 32.3573 128.304 32.4139C128.34 32.4217 128.36 32.4256 128.38 32.4294C128.569 32.465 128.706 32.4836 129.197 32.5436C129.296 32.5558 129.387 32.4853 129.399 32.3862C129.411 32.2871 129.341 32.1969 129.241 32.1847C128.759 32.1258 128.626 32.1077 128.447 32.0741C128.429 32.0706 128.41 32.067 128.392 32.0632C128.396 32.0638 128.383 32.0411 128.384 32.0143L128.834 30.1333L128.838 30.1074L128.933 29.0442C128.942 28.9447 128.868 28.8569 128.768 28.8481C128.668 28.8393 128.58 28.9128 128.571 29.0123L128.478 30.0623L128.028 31.9432Z" fill="#482D1F"/>
<path d="M138.753 50.7353C138.573 48.1569 139.002 46.2343 140.025 44.959C140.119 44.8419 140.1 44.6713 139.982 44.5778C139.865 44.4844 139.693 44.5035 139.599 44.6206C138.479 46.017 138.021 48.0706 138.21 50.7728C138.22 50.9222 138.35 51.035 138.5 51.0246C138.65 51.0142 138.764 50.8847 138.753 50.7353Z" fill="#482D1F"/>
</g>
<defs>
<clipPath id="clip0_2451_33198">
<rect width="179.125" height="137.413" fill="white"/>
</clipPath>
<clipPath id="clip1_2451_33198">
<rect width="91" height="162" fill="white" transform="translate(91 22)"/>
</clipPath>
</defs>
</svg>
