<svg width="24" height="24" viewBox="0 0 24 24" fill="none" xmlns="http://www.w3.org/2000/svg">
<path fill-rule="evenodd" clip-rule="evenodd" d="M13.1104 8.5C12.0202 8.5 11.1364 9.39543 11.1364 10.5C11.1364 11.6046 12.0202 12.5 13.1104 12.5C14.2006 12.5 15.0844 11.6046 15.0844 10.5C15.0844 9.39543 14.2006 8.5 13.1104 8.5ZM9.16234 10.5C9.16234 8.29086 10.9299 6.5 13.1104 6.5C15.2908 6.5 17.0584 8.29086 17.0584 10.5C17.0584 12.7091 15.2908 14.5 13.1104 14.5C10.9299 14.5 9.16234 12.7091 9.16234 10.5Z" fill="#F4B607"/>
<path fill-rule="evenodd" clip-rule="evenodd" d="M2.5 10.125C2.5 9.57272 2.9419 9.125 3.48701 9.125H5.70779C6.2529 9.125 6.69481 9.57272 6.69481 10.125C6.69481 10.6773 6.2529 11.125 5.70779 11.125H3.48701C2.9419 11.125 2.5 10.6773 2.5 10.125Z" fill="#F4B607"/>
<path fill-rule="evenodd" clip-rule="evenodd" d="M2.5 6.375C2.5 5.82272 2.9419 5.375 3.48701 5.375H5.70779C6.2529 5.375 6.69481 5.82272 6.69481 6.375C6.69481 6.92728 6.2529 7.375 5.70779 7.375H3.48701C2.9419 7.375 2.5 6.92728 2.5 6.375Z" fill="#F4B607"/>
<path fill-rule="evenodd" clip-rule="evenodd" d="M2.5 13.875C2.5 13.3227 2.9419 12.875 3.48701 12.875H5.70779C6.2529 12.875 6.69481 13.3227 6.69481 13.875C6.69481 14.4273 6.2529 14.875 5.70779 14.875H3.48701C2.9419 14.875 2.5 14.4273 2.5 13.875Z" fill="#F4B607"/>
<path fill-rule="evenodd" clip-rule="evenodd" d="M2.5 17.625C2.5 17.0727 2.9419 16.625 3.48701 16.625H5.70779C6.2529 16.625 6.69481 17.0727 6.69481 17.625C6.69481 18.1773 6.2529 18.625 5.70779 18.625H3.48701C2.9419 18.625 2.5 18.1773 2.5 17.625Z" fill="#F4B607"/>
<path fill-rule="evenodd" clip-rule="evenodd" d="M13.1104 14.5C12.4017 14.5 11.7026 14.6672 11.0687 14.9883C10.4348 15.3094 9.88338 15.7755 9.45809 16.3499C9.13097 16.7917 8.5123 16.8812 8.07625 16.5497C7.6402 16.2183 7.5519 15.5915 7.87902 15.1497C8.48818 14.327 9.27802 13.6593 10.186 13.1994C11.0939 12.7395 12.0953 12.5 13.1104 12.5C14.1255 12.5 15.1265 12.7394 16.0345 13.1993C16.9425 13.6591 17.7324 14.3268 18.3416 15.1495C18.6687 15.5913 18.5804 16.2181 18.1444 16.5495C17.7083 16.881 17.0897 16.7915 16.7625 16.3498C16.3372 15.7754 15.7858 15.3093 15.1519 14.9882C14.5179 14.6672 13.8191 14.5 13.1104 14.5Z" fill="#F4B607"/>
<path fill-rule="evenodd" clip-rule="evenodd" d="M19.526 4H6.69481V20H19.526V4ZM19.7727 2C20.7267 2 21.5 2.7835 21.5 3.75V20.25C21.5 21.2165 20.7267 22 19.7727 22H6.44805C5.49411 22 4.72078 21.2165 4.72078 20.25V3.75C4.72078 2.7835 5.49411 2 6.44805 2H19.7727Z" fill="#F4B607"/>
</svg>
