<svg width="24" height="24" viewBox="0 0 24 24" fill="none" xmlns="http://www.w3.org/2000/svg">
<path d="M12 15.5002C11.8684 15.5009 11.7379 15.4757 11.6161 15.426C11.4943 15.3762 11.3834 15.3029 11.29 15.2102L7.29 11.2102C7.19676 11.1169 7.1228 11.0063 7.07234 10.8844C7.02188 10.7626 6.99591 10.632 6.99591 10.5002C6.99591 10.3683 7.02188 10.2378 7.07234 10.1159C7.1228 9.99411 7.19676 9.88342 7.29 9.79018C7.38324 9.69695 7.49393 9.62299 7.61575 9.57253C7.73758 9.52206 7.86814 9.49609 8 9.49609C8.13186 9.49609 8.26243 9.52206 8.38425 9.57253C8.50607 9.62299 8.61676 9.69695 8.71 9.79018L12 13.1002L15.3 9.92019C15.392 9.8179 15.5041 9.73569 15.6293 9.6787C15.7545 9.62171 15.8902 9.59118 16.0277 9.589C16.1653 9.58682 16.3018 9.61304 16.4287 9.66603C16.5557 9.71903 16.6703 9.79764 16.7655 9.89697C16.8607 9.99629 16.9344 10.1142 16.9819 10.2433C17.0295 10.3724 17.0499 10.5099 17.0418 10.6472C17.0338 10.7846 16.9975 10.9188 16.9353 11.0414C16.873 11.1641 16.7861 11.2726 16.68 11.3602L12.68 15.2202C12.4971 15.3965 12.254 15.4966 12 15.5002Z" fill="#1D1D1B"/>
</svg>
