<svg width="24" height="24" viewBox="0 0 24 24" fill="none" xmlns="http://www.w3.org/2000/svg">
<g clip-path="url(#clip0_2948_25892)">
<rect width="24" height="24" rx="12" fill="#1A47B8"/>
<path fill-rule="evenodd" clip-rule="evenodd" d="M-1.22565 0H-4.8V4L25.2062 24L28.8 24V20L-1.22565 0Z" fill="white"/>
<path d="M-3.60785 0L28.8 21.6567V24H27.6358L-4.8 2.32089V0H-3.60785Z" fill="#F93939"/>
<path fill-rule="evenodd" clip-rule="evenodd" d="M25.6 0H28.8V4C28.8 4 8.01568 17.3249 -1.6 24H-4.8V20L25.6 0Z" fill="white"/>
<path d="M28.8 0H27.7148L-4.8 21.6753V24H-3.60785L28.8 2.33842V0Z" fill="#F93939"/>
<path fill-rule="evenodd" clip-rule="evenodd" d="M7.41932 0H16.6086V7.40291H28.8V16.5922H16.6086V24H7.41932V16.5922H-4.8V7.40291H7.41932V0Z" fill="white"/>
<path fill-rule="evenodd" clip-rule="evenodd" d="M9.34736 0H14.6526V9.23077H28.8V14.7692H14.6526V24H9.34736V14.7692H-4.8V9.23077H9.34736V0Z" fill="#F93939"/>
</g>
<defs>
<clipPath id="clip0_2948_25892">
<rect width="24" height="24" rx="12" fill="white"/>
</clipPath>
</defs>
</svg>
