<svg width="22" height="17" viewBox="0 0 22 17" fill="none" xmlns="http://www.w3.org/2000/svg">
<path d="M11.0001 17C10.8685 17.0008 10.738 16.9756 10.6162 16.9258C10.4944 16.876 10.3836 16.8027 10.2901 16.71L2.52012 8.93002C1.54548 7.94519 0.998779 6.61558 0.998779 5.23002C0.998779 3.84445 1.54548 2.51484 2.52012 1.53002C3.50238 0.550528 4.83295 0.000488281 6.22012 0.000488281C7.60729 0.000488281 8.93785 0.550528 9.92012 1.53002L11.0001 2.61002L12.0801 1.53002C13.0624 0.550528 14.3929 0.000488281 15.7801 0.000488281C17.1673 0.000488281 18.4979 0.550528 19.4801 1.53002C20.4548 2.51484 21.0015 3.84445 21.0015 5.23002C21.0015 6.61558 20.4548 7.94519 19.4801 8.93002L11.7101 16.71C11.6167 16.8027 11.5059 16.876 11.384 16.9258C11.2622 16.9756 11.1317 17.0008 11.0001 17ZM6.22012 2.00002C5.79679 1.9981 5.3773 2.0802 4.98592 2.24155C4.59455 2.40291 4.23909 2.64031 3.94012 2.94002C3.33618 3.54714 2.99715 4.36866 2.99715 5.22502C2.99715 6.08137 3.33618 6.9029 3.94012 7.51002L11.0001 14.58L18.0601 7.51002C18.6641 6.9029 19.0031 6.08137 19.0031 5.22502C19.0031 4.36866 18.6641 3.54714 18.0601 2.94002C17.4438 2.35773 16.628 2.03331 15.7801 2.03331C14.9322 2.03331 14.1165 2.35773 13.5001 2.94002L11.7101 4.74002C11.6172 4.83375 11.5066 4.90814 11.3847 4.95891C11.2628 5.00968 11.1321 5.03581 11.0001 5.03581C10.8681 5.03581 10.7374 5.00968 10.6155 4.95891C10.4937 4.90814 10.3831 4.83375 10.2901 4.74002L8.50012 2.94002C8.20115 2.64031 7.84568 2.40291 7.45431 2.24155C7.06294 2.0802 6.64344 1.9981 6.22012 2.00002Z" fill="#757575"/>
</svg>
