<svg width="22" height="17" viewBox="0 0 22 17" fill="none" xmlns="http://www.w3.org/2000/svg">
<path d="M11.0001 17C10.8685 17.0008 10.738 16.9756 10.6162 16.9258C10.4944 16.876 10.3836 16.8027 10.2901 16.71L2.52012 8.93002C1.54548 7.94519 0.998779 6.61558 0.998779 5.23002C0.998779 3.84445 1.54548 2.51484 2.52012 1.53002C3.50238 0.550528 4.83295 0.000488281 6.22012 0.000488281C7.60729 0.000488281 8.93785 0.550528 9.92012 1.53002L11.0001 2.61002L12.0801 1.53002C13.0624 0.550528 14.3929 0.000488281 15.7801 0.000488281C17.1673 0.000488281 18.4979 0.550528 19.4801 1.53002C20.4548 2.51484 21.0015 3.84445 21.0015 5.23002C21.0015 6.61558 20.4548 7.94519 19.4801 8.93002L11.7101 16.71C11.6167 16.8027 11.5059 16.876 11.384 16.9258C11.2622 16.9756 11.1317 17.0008 11.0001 17Z" fill="#F4B607"/>
</svg>
