<svg width="160" height="218" viewBox="0 0 160 218" fill="none" xmlns="http://www.w3.org/2000/svg">
<g clip-path="url(#clip0_2030_3192)">
<path d="M21.2153 52.5486C20.6931 53.0708 20.1056 53.1361 20.1709 52.5486C20.6278 40.1458 21.0195 27.6778 21.4764 15.275C21.4764 14.7528 21.0195 14.5569 20.3667 14.6875C17.4945 15.3403 14.6875 16.0583 11.8806 16.8417C11.3584 16.9722 10.7709 16.45 10.7709 15.9278V0.848611C10.7709 0.326389 11.032 0 11.5542 0H49.6112C50.2639 0 50.7862 0.195833 50.7209 0.5875C50.525 3.39444 50.3292 6.13611 50.1334 8.94306C50.1334 9.33472 49.5459 9.66111 48.8278 9.72639C45.825 10.0528 42.8223 10.5097 39.8848 10.9014C39.232 10.9667 38.775 11.3583 38.775 11.8153C38.1223 21.3458 37.4695 30.8764 36.7514 40.4069C36.7514 40.7986 36.1639 41.4514 35.4459 41.8431C30.4848 44.9111 25.7195 48.4361 21.2153 52.5486Z" fill="black"/>
<path d="M77.093 0C77.7458 0 78.1375 0.261111 78.268 0.522222C82.1847 9.79167 86.6236 18.9306 91.3889 28.9181C91.5847 29.375 91.1278 29.7667 90.018 29.6361C84.7305 29.1139 79.3778 29.0486 74.0903 29.4403C73.5028 29.5056 72.9153 29.375 72.85 29.1792C72.2625 27.2861 71.675 25.3278 71.0875 23.4347C71.0222 23.2389 70.6305 23.1736 70.1083 23.2389C68.4111 23.4347 66.6486 23.6306 64.9514 23.8917C64.5597 23.9569 64.168 24.1528 64.1028 24.4139C63.3847 26.5028 62.6667 28.6569 61.9486 30.8764C61.818 31.2028 61.1653 31.5292 60.643 31.5944C55.3555 32.8347 50.1333 34.5972 45.0417 36.8819C44.193 37.2736 43.8014 37.1431 43.9972 36.5556C48.9583 22.7167 53.9194 11.0319 58.6194 0.522222C58.75 0.326389 59.2069 0 59.7292 0H77.093ZM68.6722 15.1444C68.4764 14.6222 68.3458 14.2306 68.0847 14.2958C67.8236 14.2958 67.6278 14.6222 67.3667 15.275C66.9097 16.5806 66.4528 17.9514 65.9958 19.2569C65.8653 19.4528 66.0611 19.6486 66.518 19.5833C69.5208 19.2569 69.8472 19.2569 69.7167 18.8653C69.3903 17.6903 68.9986 16.3847 68.6722 15.1444Z" fill="black"/>
<path d="M101.703 15.9278C101.768 15.8625 101.899 15.6667 101.899 15.6014C101.899 15.5361 101.768 15.275 101.703 15.1444C97.9166 9.79167 94.1958 5.02639 90.6708 0.456944C90.475 0.261111 90.6708 0 91.193 0H107.447C107.774 0 108.1 0.195833 108.165 0.391667C108.949 1.95833 109.732 3.59028 110.581 5.2875C110.711 5.48333 110.842 5.61389 110.972 5.61389C111.168 5.61389 111.299 5.48333 111.364 5.2875C111.951 3.72083 112.474 2.08889 113.061 0.391667C113.126 0.130556 113.387 0 113.714 0H129.968C130.294 0 130.686 0.195833 130.686 0.522222C130.686 0.652778 130.686 0.783333 130.621 0.979167C127.618 7.83333 124.746 13.7083 121.808 18.8C121.612 18.9958 121.612 19.3222 121.612 19.4528C121.612 19.5833 121.743 19.9097 121.808 20.1056C125.725 27.4819 129.576 35.9681 133.297 45.825C133.493 46.3472 133.362 46.4125 132.84 46.0861C127.618 42.3 122.069 39.1667 116.325 36.6861C116.064 36.5556 115.737 36.2944 115.672 36.0986C114.824 33.8139 113.975 31.5944 113.126 29.4403C112.996 29.2444 112.8 29.0486 112.735 29.0486C112.539 28.9833 112.474 29.0486 112.408 29.1792C111.821 30.8764 111.233 32.5083 110.646 34.1403C110.581 34.2708 110.189 34.2708 109.797 34.1403C103.987 32.1167 98.0472 30.7458 92.0416 30.0278C91.65 29.9625 91.4541 29.8972 91.4541 29.7667C91.4541 29.7014 91.4541 29.6361 91.5194 29.5708C95.1097 25.0014 98.5041 20.6278 101.703 15.9278Z" fill="black"/>
<path d="M137.801 49.8069C137.214 49.35 136.692 48.5014 136.692 47.9792C135.908 32.1819 135.125 16.45 134.342 0.652778C134.342 0.326389 134.668 0 135.125 0H150.335C150.988 0 151.379 0.326389 151.379 0.848611V62.5361C151.379 63.0583 151.053 63.1889 150.531 62.6014C146.614 57.8361 142.306 53.5931 137.801 49.8069Z" fill="black"/>
<path d="M13.3166 1.95837H26.6986C26.6986 1.95837 14.3611 4.04726 13.3166 8.48615C12.2722 12.9903 13.3166 1.95837 13.3166 1.95837Z" fill="white"/>
<path d="M67.6931 1.95837H60.4473L54.8334 12.9903C54.8334 12.9903 56.9875 8.48615 61.2959 5.74449C65.5389 3.13337 67.6931 1.95837 67.6931 1.95837Z" fill="white"/>
<path d="M101.768 1.95837H94.3264L101.05 9.59587C101.05 9.59587 96.0889 4.17782 101.768 1.95837Z" fill="white"/>
<path d="M114.954 1.95837H123.375L114.954 4.04726V1.95837Z" fill="white"/>
<path d="M145.961 1.95837H136.235L136.953 21.2153C136.953 21.2153 136.235 8.68199 140.478 5.35282C144.656 1.95837 145.961 1.95837 145.961 1.95837Z" fill="white"/>
<path d="M44.5195 78.007C42.6917 79.8347 41.1251 81.7278 39.689 83.6861H44.1279C45.564 81.7278 47.1959 79.8347 48.9584 78.007C57.1834 69.7167 66.9751 65.3431 78.3987 64.8861C77.9417 64.8861 77.4848 64.8208 77.0931 64.8208C64.364 64.5597 53.4626 68.9333 44.5195 78.007Z" fill="#191C20"/>
<path d="M109.536 157.972L122.2 148.964L120.307 147.136L109.536 157.972Z" fill="#191C20"/>
<path d="M137.344 55.2903C122.2 40.2764 103.792 32.9 82.1848 33.2264C81.8584 33.2264 81.5973 33.2264 81.2709 33.2264C101.376 33.7487 118.544 41.0598 132.906 55.225C148.05 70.2389 155.557 88.4514 155.361 109.863C155.165 129.903 148.507 147.201 135.256 161.824C148.507 147.201 159.604 129.903 159.8 109.863C159.996 88.5167 152.489 70.3042 137.344 55.2903Z" fill="#191C20"/>
<path d="M45.5639 143.089L74.4167 171.615L50.0681 143.089C48.8931 141.914 47.7834 140.739 46.7389 139.499H42.3C43.2792 140.739 44.3889 141.914 45.5639 143.089Z" fill="#191C20"/>
<path d="M132.84 55.2902C118.544 41.125 101.311 33.7486 81.2056 33.2916C60.0556 33.8138 42.0389 41.5166 27.1556 56.4C12.1417 71.5444 4.56945 89.8875 4.4389 111.364C4.37362 132.906 11.8806 151.183 27.025 166.197L62.275 205.494L69.0639 198.706L58.2278 187.935L74.4167 171.615L45.5639 143.089C44.3889 141.914 43.2792 140.739 42.2347 139.499H19.7139L20.1056 137.344H17.5597L22.4556 111.951C23.0431 108.949 24.0875 106.599 25.5236 104.836C25.9153 104.379 26.307 103.987 26.7639 103.596L27.1556 101.572H24.5445L28.2 83.6208H39.6236C41.0597 81.6625 42.6917 79.7694 44.4542 77.9416C53.3972 68.9333 64.2986 64.4944 77.0278 64.7555C77.4847 64.7555 77.9417 64.8208 78.3333 64.8208C79.3778 64.7555 80.4222 64.7555 81.4667 64.7555C94.1958 64.9513 105.097 69.5861 114.171 78.5291C115.346 79.7041 116.456 80.8791 117.435 82.1194H144.46L143.415 84.3388H146.679L120.699 139.499H118.479C117.435 140.804 116.26 142.11 115.019 143.415L107.186 151.249L109.536 157.972L120.307 147.136L122.2 148.964L124.811 147.136L135.256 161.889C148.507 147.267 155.165 129.968 155.361 109.928C155.557 88.5166 148.05 70.3041 132.84 55.2902Z" fill="#191C20"/>
<path d="M132.84 55.2903C118.544 41.125 101.311 33.7487 81.2056 33.2917C80.0306 33.2917 78.8556 33.2264 77.6153 33.2917C56.0084 33.6181 37.6653 41.3209 22.6514 56.4653C7.63753 71.6098 0.0653038 89.9528 -0.0652518 111.429C-0.13053 132.971 7.37641 151.249 22.5209 166.263L62.2098 205.56L68.9986 198.771L58.1625 188L74.3514 171.681L45.4986 143.154C44.3236 141.979 43.2139 140.804 42.1695 139.564H19.7139L20.1056 137.41H17.5597L22.4556 112.017C23.0431 109.014 24.0875 106.664 25.5236 104.901C25.9153 104.444 26.307 104.053 26.7639 103.661L27.1556 101.638H24.5445L28.2 83.6861H39.6236C41.0597 81.7278 42.6917 79.8348 44.4542 78.007C53.3972 68.9987 64.2986 64.5598 77.0278 64.8209C77.4848 64.8209 77.9417 64.8862 78.3334 64.8862C90.475 65.4084 100.985 69.9778 109.667 78.5945C110.842 79.7695 111.951 80.9445 112.931 82.1848H117.369H144.394L143.35 84.4042H146.614L120.633 139.564H118.414H113.975C112.931 140.869 111.756 142.175 110.515 143.481L102.682 151.314L109.471 158.038L120.242 147.201L122.135 149.029L135.19 161.954C148.442 147.332 155.1 130.033 155.296 109.993C155.557 88.5167 148.05 70.3042 132.84 55.2903Z" fill="white"/>
<path d="M119.001 158.103H116.456L117.761 159.343L119.001 158.103Z" fill="#555A5C"/>
<path d="M119.001 158.103L128.924 167.96L119.001 158.103Z" fill="#555A5C"/>
<path d="M126.378 167.96H128.924L119.001 158.103L117.761 159.343L126.378 167.96Z" fill="#555A5C"/>
<path d="M116.521 177.817H119.067L117.761 176.576L116.521 177.817Z" fill="#303335"/>
<path d="M119.067 177.817L128.924 167.96L119.067 177.817Z" fill="#303335"/>
<path d="M126.378 167.96L117.761 176.576L119.067 177.817L128.924 167.96H126.378Z" fill="#303335"/>
<path d="M107.839 166.719L99.2222 158.168L107.839 166.719Z" fill="#555A5C"/>
<path d="M99.2222 158.168H96.6764L97.9819 159.474L99.2222 158.168Z" fill="#555A5C"/>
<path d="M106.599 168.025L107.839 166.719L99.2222 158.168L97.9819 159.474L106.599 168.025Z" fill="#555A5C"/>
<path d="M99.2875 177.882L107.904 169.265L99.2875 177.882Z" fill="#303335"/>
<path d="M96.7417 177.882H99.2875L98.0473 176.642L96.7417 177.882Z" fill="#303335"/>
<path d="M106.599 168.025L98.0472 176.642L99.2875 177.882L107.904 169.265L106.599 168.025Z" fill="#303335"/>
<path d="M98.0473 179.188L99.2875 177.882H96.7417L98.0473 179.188Z" fill="#555A5C"/>
<path d="M109.21 187.739L99.2875 177.882L109.21 187.739Z" fill="#555A5C"/>
<path d="M106.664 187.739H109.21L99.2875 177.882L98.0472 179.188L106.664 187.739Z" fill="#555A5C"/>
<path d="M96.8723 197.661H96.807H99.3528L98.1126 196.356L96.8723 197.661Z" fill="#303335"/>
<path d="M99.3528 197.661L109.21 187.739L99.3528 197.661Z" fill="#303335"/>
<path d="M106.664 187.739L98.1125 196.356L99.3528 197.661L109.21 187.739H106.664Z" fill="#303335"/>
<path d="M88.1904 186.564L79.5084 178.012L88.1904 186.564Z" fill="#555A5C"/>
<path d="M79.5084 178.012H76.9625L78.2681 179.253L79.5084 178.012Z" fill="#555A5C"/>
<path d="M86.8847 187.804L88.1903 186.564L79.5083 178.012L78.2681 179.253L86.8847 187.804Z" fill="#555A5C"/>
<path d="M79.5736 197.726H79.6389L88.1903 189.11L79.5736 197.726Z" fill="#303335"/>
<path d="M77.093 197.726H79.5736L78.3333 196.421L77.093 197.726Z" fill="#303335"/>
<path d="M86.8848 187.804L78.3334 196.421L79.5737 197.726L88.1903 189.11L86.95 187.804H86.8848Z" fill="#303335"/>
<path d="M78.3333 198.967L79.5736 197.726H77.093L78.3333 198.967Z" fill="#555A5C"/>
<path d="M89.5611 207.518L79.6389 197.726H79.5736L89.5611 207.518Z" fill="#555A5C"/>
<path d="M87.0153 207.518H89.5612L79.5737 197.726L78.3334 198.967L87.0153 207.518Z" fill="#555A5C"/>
<path d="M77.1583 217.44H79.7042L78.3986 216.2L77.1583 217.44Z" fill="#303335"/>
<path d="M79.7041 217.44L89.561 207.518L79.7041 217.44Z" fill="#303335"/>
<path d="M87.0152 207.518L78.3986 216.2L79.7041 217.44L89.5611 207.518H87.0152Z" fill="#303335"/>
<path d="M109.144 168.025L107.904 169.265L116.521 177.817L117.761 176.576L109.144 168.025Z" fill="black"/>
<path d="M117.761 159.343L116.456 158.103L107.839 166.719L109.144 168.025L117.761 159.343Z" fill="black"/>
<path d="M89.3653 168.09L97.982 159.474L96.6764 158.168L86.8195 168.09L96.7417 177.882L98.0472 176.642L89.3653 168.09Z" fill="black"/>
<path d="M69.7819 207.649L78.3333 198.967L77.093 197.726L67.2361 207.649L77.1583 217.44L78.3986 216.2L69.7819 207.649Z" fill="black"/>
<path d="M98.0472 179.188L96.7417 177.947L88.1903 186.564L89.4306 187.804L98.0472 179.188Z" fill="black"/>
<path d="M69.6515 187.869L78.2681 179.253L76.9626 178.012L67.1709 187.869L77.0931 197.726L78.3334 196.421L69.6515 187.869Z" fill="black"/>
<path d="M89.4306 187.804L88.1903 189.11L96.807 197.661L98.1125 196.356L89.4306 187.804Z" fill="black"/>
<path d="M117.761 159.343L109.144 168.025L117.761 176.576L126.378 167.96L117.761 159.343Z" fill="black"/>
<path d="M97.9819 159.474L89.3652 168.09L98.0472 176.642L106.599 168.025L97.9819 159.474Z" fill="black"/>
<path d="M78.3334 198.967L69.782 207.649L78.3986 216.2L87.0153 207.518L78.3334 198.967Z" fill="black"/>
<path d="M78.268 179.253L69.6514 187.869L78.3333 196.421L86.8847 187.804L78.268 179.253Z" fill="black"/>
<path d="M98.0472 179.188L89.4305 187.804L98.1125 196.356L106.664 187.739L98.0472 179.188Z" fill="black"/>
<path d="M117.761 159.343L116.456 158.103L117.761 159.343Z" fill="black"/>
<path d="M117.761 159.343L126.378 167.96L117.761 159.343Z" fill="black"/>
<path d="M117.761 176.576L126.378 167.96L117.761 176.576Z" fill="black"/>
<path d="M97.9819 159.474L96.6764 158.168L97.9819 159.474Z" fill="black"/>
<path d="M109.144 168.025L107.839 166.719L109.144 168.025Z" fill="black"/>
<path d="M106.599 168.025L97.9819 159.474L106.599 168.025Z" fill="black"/>
<path d="M106.599 168.025H109.144L107.839 166.719L106.599 168.025Z" fill="black"/>
<path d="M109.144 168.025L107.904 169.265L109.144 168.025Z" fill="black"/>
<path d="M106.599 168.025L98.0472 176.642L106.599 168.025Z" fill="black"/>
<path d="M107.904 169.265L109.144 168.025H106.599L107.904 169.265Z" fill="black"/>
<path d="M98.0473 179.188L96.7417 177.882V177.947L98.0473 179.188Z" fill="black"/>
<path d="M98.0472 179.188L106.664 187.739L98.0472 179.188Z" fill="black"/>
<path d="M98.1125 196.356L106.664 187.739L98.1125 196.356Z" fill="black"/>
<path d="M89.4306 187.804L88.1903 186.564L89.4306 187.804Z" fill="black"/>
<path d="M78.2681 179.253L76.9625 178.012L78.2681 179.253Z" fill="black"/>
<path d="M86.8848 187.804H86.95H89.4306L88.1903 186.564L86.8848 187.804Z" fill="black"/>
<path d="M86.8847 187.804L78.2681 179.253L86.8847 187.804Z" fill="black"/>
<path d="M89.4306 187.804L88.1903 189.11L89.4306 187.804Z" fill="black"/>
<path d="M88.1902 189.11L89.4305 187.804H86.95L88.1902 189.11Z" fill="black"/>
<path d="M86.8848 187.804L78.3334 196.421L86.8848 187.804Z" fill="black"/>
<path d="M78.3333 198.967L77.093 197.726L78.3333 198.967Z" fill="black"/>
<path d="M78.3334 198.967L87.0153 207.518L78.3334 198.967Z" fill="black"/>
<path d="M78.3986 216.2L87.0152 207.518L78.3986 216.2Z" fill="black"/>
<path fill-rule="evenodd" clip-rule="evenodd" d="M36.9472 119.328L35.8375 124.158H55.6819L52.875 137.475H21.868L26.3069 114.497C26.6986 112.343 27.4819 109.993 28.9833 108.296C30.1583 106.925 31.6597 106.011 33.5528 106.011H47.7833L48.8278 101.768H28.918L31.725 87.7986H57.1833C58.9458 87.7986 59.9903 89.3 60.643 90.7361C61.4264 92.5639 61.6222 94.5222 61.2305 96.5458L58.3583 110.842C57.9014 112.996 57.1833 115.346 55.6819 117.043C54.5069 118.414 53.0055 119.328 51.1778 119.328H36.9472Z" fill="black"/>
<path fill-rule="evenodd" clip-rule="evenodd" d="M34.793 117.174L33.6833 122.004H53.5278L50.6555 135.321H19.7139L24.1528 112.343C24.5444 110.189 25.3278 107.839 26.8291 106.142C28.0041 104.771 29.5055 103.857 31.3333 103.857H45.5639L46.6083 99.6139H26.7639L29.5708 85.6444H55.0291C56.7916 85.6444 57.8361 87.0805 58.4889 88.5819C59.2722 90.4097 59.468 92.368 59.0764 94.3916L56.2041 108.687C55.7472 110.842 55.0291 113.192 53.5278 114.889C52.3528 116.26 50.8514 117.174 48.9583 117.174H34.793Z" fill="black"/>
<path d="M30.2888 86.493H55.0944C56.2041 86.493 57.118 87.2764 57.7708 88.9083C58.4888 90.5403 58.6194 92.3028 58.293 94.2611L55.4208 108.557C54.8985 111.103 54.1152 113.061 52.9402 114.367C51.7652 115.737 50.4597 116.39 49.0235 116.39H34.1402L32.9652 121.547L27.6777 122.853H52.6138L50.1333 134.603H20.693L24.936 112.539C25.4583 109.993 26.2416 108.035 27.4166 106.729C28.5916 105.358 29.8972 104.706 31.3333 104.706H46.2166L47.3263 100.201L52.6791 98.8958H27.743L30.2888 86.493Z" fill="#FFCC29"/>
<path d="M57.575 88.5167C57.6403 88.6473 57.7056 88.7778 57.7708 88.9084C58.4889 90.5403 58.6194 92.3028 58.2931 94.2612L55.4208 108.557C54.8986 111.103 54.1153 113.061 52.9403 114.367C51.7653 115.738 50.4597 116.39 49.0236 116.39H34.1403L32.9653 121.547L27.8083 122.788L30.2889 110.515H50.0028L52.2875 98.8959L52.6792 98.8306H52.3528L53.5278 92.6945L57.575 88.5167ZM27.8736 122.788H32.7694L26.6986 128.663L27.8736 122.788Z" fill="#F2B429"/>
<path d="M52.6138 122.787L50.1333 134.537H20.693L26.6985 128.662H45.4985L52.6138 122.787Z" fill="#F2B429"/>
<path fill-rule="evenodd" clip-rule="evenodd" d="M27.743 98.8305H47.6528L53.593 92.6292H34.9236L27.743 98.8305Z" fill="#F2B429"/>
<path fill-rule="evenodd" clip-rule="evenodd" d="M73.2416 125.464H55.4861L57.9666 112.474L62.8625 87.7986H74.4819L69.7166 111.821H76.1139L78.4639 99.9403H89.9528L82.5111 137.475H70.8916L73.2416 125.464Z" fill="black"/>
<path fill-rule="evenodd" clip-rule="evenodd" d="M71.0875 123.31H53.3319L55.8125 110.319L60.7083 85.6444H72.3277L67.5625 109.667H73.9597L76.3097 97.7861H87.7986L80.3569 135.321H68.7375L71.0875 123.31Z" fill="black"/>
<path d="M79.7041 134.537H69.7166L72.0666 122.526H54.311L56.661 110.45L61.361 86.493H71.3485L66.5833 110.45H79.6388L74.8735 109.144L76.9624 98.5694H86.8194L79.7041 134.537Z" fill="#FFCC29"/>
<path fill-rule="evenodd" clip-rule="evenodd" d="M60.4473 116.456L66.5834 110.45L71.3487 86.493L65.2125 92.3028L60.4473 116.456Z" fill="#F2B429"/>
<path fill-rule="evenodd" clip-rule="evenodd" d="M54.311 122.526H72.0666L78.268 116.521L60.4471 116.456L54.311 122.526Z" fill="#F2B429"/>
<path fill-rule="evenodd" clip-rule="evenodd" d="M80.6833 104.444L86.8195 98.5695L79.7042 134.538H69.7167L75.8528 128.663L80.6833 104.444Z" fill="#F2B429"/>
<path fill-rule="evenodd" clip-rule="evenodd" d="M121.678 100.397H107.056L109.797 86.2972H143.285L119.197 137.475H104.183L121.678 100.397Z" fill="black"/>
<path fill-rule="evenodd" clip-rule="evenodd" d="M119.458 98.1778H104.836L107.578 84.1431H141.131L116.978 135.256H101.964L119.458 98.1778Z" fill="black"/>
<path d="M108.296 84.9264H139.825L116.456 134.472H103.269L120.176 98.6347L125.986 97.3292H105.815L108.296 84.9264Z" fill="white"/>
<path fill-rule="evenodd" clip-rule="evenodd" d="M105.815 97.3292H120.764L130.294 91.1278H113.126L105.815 97.3292Z" fill="#C2C3C3"/>
<path fill-rule="evenodd" clip-rule="evenodd" d="M103.269 134.472H116.456L139.825 84.9264L130.294 91.1278L112.735 128.401L103.269 134.472Z" fill="#C2C3C3"/>
<path d="M101.964 84.1431H99.4833L87.2764 137.475H89.8222L101.964 84.1431Z" fill="black"/>
<path d="M100.528 84.4042L99.4833 84.1431L87.2764 137.475L88.5819 137.214L100.528 84.4042Z" fill="#191C20"/>
<path d="M87.2764 137.475L88.9736 135.451L89.8222 137.475H87.2764Z" fill="#1F2325"/>
<path d="M101.964 84.1431H99.4834L100.136 86.232L101.964 84.1431Z" fill="#1F2325"/>
</g>
<defs>
<clipPath id="clip0_2030_3192">
<rect width="159.8" height="217.44" fill="white"/>
</clipPath>
</defs>
</svg>
