<svg width="160" height="218" viewBox="0 0 160 218" fill="none" xmlns="http://www.w3.org/2000/svg">
<g clip-path="url(#clip0_3105_16694)">
<path d="M21.2154 52.5486C20.6932 53.0708 20.1057 53.1361 20.171 52.5486C20.6279 40.1458 21.0196 27.6778 21.4766 15.275C21.4766 14.7528 21.0196 14.5569 20.3668 14.6875C17.4946 15.3403 14.6877 16.0583 11.8807 16.8417C11.3585 16.9722 10.771 16.45 10.771 15.9278V0.848611C10.771 0.326389 11.0321 0 11.5543 0H49.6113C50.2641 0 50.7863 0.195833 50.721 0.5875C50.5252 3.39444 50.3293 6.13611 50.1335 8.94306C50.1335 9.33472 49.546 9.66111 48.8279 9.72639C45.8252 10.0528 42.8224 10.5097 39.8849 10.9014C39.2321 10.9667 38.7752 11.3583 38.7752 11.8153C38.1224 21.3458 37.4696 30.8764 36.7516 40.4069C36.7516 40.7986 36.1641 41.4514 35.446 41.8431C30.4849 44.9111 25.7196 48.4361 21.2154 52.5486Z" fill="black"/>
<path d="M77.0932 0C77.7459 0 78.1376 0.261111 78.2682 0.522222C82.1848 9.79167 86.6237 18.9306 91.389 28.9181C91.5848 29.375 91.1279 29.7667 90.0182 29.6361C84.7307 29.1139 79.3779 29.0486 74.0904 29.4403C73.5029 29.5056 72.9154 29.375 72.8501 29.1792C72.2626 27.2861 71.6751 25.3278 71.0876 23.4347C71.0223 23.2389 70.6307 23.1736 70.1084 23.2389C68.4112 23.4347 66.6487 23.6306 64.9515 23.8917C64.5598 23.9569 64.1682 24.1528 64.1029 24.4139C63.3848 26.5028 62.6668 28.6569 61.9487 30.8764C61.8182 31.2028 61.1654 31.5292 60.6432 31.5944C55.3557 32.8347 50.1334 34.5972 45.0418 36.8819C44.1932 37.2736 43.8015 37.1431 43.9973 36.5556C48.9584 22.7167 53.9196 11.0319 58.6196 0.522222C58.7501 0.326389 59.2071 0 59.7293 0H77.0932ZM68.6723 15.1444C68.4765 14.6222 68.3459 14.2306 68.0848 14.2958C67.8237 14.2958 67.6279 14.6222 67.3668 15.275C66.9098 16.5806 66.4529 17.9514 65.9959 19.2569C65.8654 19.4528 66.0612 19.6486 66.5182 19.5833C69.5209 19.2569 69.8473 19.2569 69.7168 18.8653C69.3904 17.6903 68.9987 16.3847 68.6723 15.1444Z" fill="black"/>
<path d="M101.703 15.9278C101.768 15.8625 101.898 15.6667 101.898 15.6014C101.898 15.5361 101.768 15.275 101.703 15.1444C97.9165 9.79167 94.1957 5.02639 90.6707 0.456944C90.4748 0.261111 90.6707 0 91.1929 0H107.447C107.773 0 108.1 0.195833 108.165 0.391667C108.948 1.95833 109.732 3.59028 110.58 5.2875C110.711 5.48333 110.842 5.61389 110.972 5.61389C111.168 5.61389 111.298 5.48333 111.364 5.2875C111.951 3.72083 112.473 2.08889 113.061 0.391667C113.126 0.130556 113.387 0 113.714 0H129.968C130.294 0 130.686 0.195833 130.686 0.522222C130.686 0.652778 130.686 0.783333 130.621 0.979167C127.618 7.83333 124.746 13.7083 121.808 18.8C121.612 18.9958 121.612 19.3222 121.612 19.4528C121.612 19.5833 121.743 19.9097 121.808 20.1056C125.725 27.4819 129.576 35.9681 133.297 45.825C133.493 46.3472 133.362 46.4125 132.84 46.0861C127.618 42.3 122.069 39.1667 116.325 36.6861C116.064 36.5556 115.737 36.2944 115.672 36.0986C114.823 33.8139 113.975 31.5944 113.126 29.4403C112.996 29.2444 112.8 29.0486 112.735 29.0486C112.539 28.9833 112.473 29.0486 112.408 29.1792C111.821 30.8764 111.233 32.5083 110.646 34.1403C110.58 34.2708 110.189 34.2708 109.797 34.1403C103.987 32.1167 98.0471 30.7458 92.0415 30.0278C91.6499 29.9625 91.454 29.8972 91.454 29.7667C91.454 29.7014 91.454 29.6361 91.5193 29.5708C95.1096 25.0014 98.504 20.6278 101.703 15.9278Z" fill="black"/>
<path d="M137.802 49.8069C137.214 49.35 136.692 48.5014 136.692 47.9792C135.908 32.1819 135.125 16.45 134.342 0.652778C134.342 0.326389 134.668 0 135.125 0H150.335C150.988 0 151.379 0.326389 151.379 0.848611V62.5361C151.379 63.0583 151.053 63.1889 150.531 62.6014C146.614 57.8361 142.306 53.5931 137.802 49.8069Z" fill="black"/>
<path d="M13.3167 1.95898H26.6987C26.6987 1.95898 14.3612 4.04787 13.3167 8.48676C12.2723 12.9909 13.3167 1.95898 13.3167 1.95898Z" fill="white"/>
<path d="M67.6932 1.95898H60.4474L54.8335 12.9909C54.8335 12.9909 56.9877 8.48676 61.296 5.7451C65.5391 3.13398 67.6932 1.95898 67.6932 1.95898Z" fill="white"/>
<path d="M101.768 1.95898H94.3262L101.05 9.59648C101.05 9.59648 96.0887 4.17843 101.768 1.95898Z" fill="white"/>
<path d="M114.954 1.95898H123.375L114.954 4.04787V1.95898Z" fill="white"/>
<path d="M145.961 1.95898H136.235L136.953 21.2159C136.953 21.2159 136.235 8.6826 140.478 5.35343C144.656 1.95898 145.961 1.95898 145.961 1.95898Z" fill="white"/>
<path d="M44.5195 78.0077C42.6917 79.8355 41.1251 81.7285 39.689 83.6869H44.1279C45.564 81.7285 47.1959 79.8355 48.9584 78.0077C57.1834 69.7174 66.9751 65.3438 78.3987 64.8869C77.9417 64.8869 77.4848 64.8216 77.0931 64.8216C64.364 64.5605 53.4626 68.9341 44.5195 78.0077Z" fill="#191C20"/>
<path d="M109.536 157.973L122.2 148.964L120.307 147.137L109.536 157.973Z" fill="#191C20"/>
<path d="M137.345 55.2911C122.2 40.2772 103.792 32.9008 82.1849 33.2272C81.8585 33.2272 81.5974 33.2272 81.271 33.2272C101.377 33.7494 118.545 41.0605 132.906 55.2258C148.05 70.2397 155.557 88.4522 155.361 109.863C155.165 129.904 148.507 147.202 135.256 161.824C148.507 147.202 159.604 129.904 159.8 109.863C159.996 88.5174 152.489 70.3049 137.345 55.2911Z" fill="#191C20"/>
<path d="M45.5637 143.088L74.4165 171.615L50.0679 143.088C48.8929 141.913 47.7831 140.738 46.7387 139.498H42.2998C43.279 140.738 44.3887 141.913 45.5637 143.088Z" fill="#191C20"/>
<path d="M132.84 55.2896C118.544 41.1243 101.311 33.748 81.2056 33.291C60.0556 33.8132 42.0389 41.516 27.1556 56.3994C12.1417 71.5438 4.56945 89.8869 4.4389 111.363C4.37362 132.905 11.8806 151.183 27.025 166.197L62.275 205.494L69.0639 198.705L58.2278 187.934L74.4167 171.615L45.5639 143.088C44.3889 141.913 43.2792 140.738 42.2347 139.498H19.7139L20.1056 137.344H17.5597L22.4556 111.951C23.0431 108.948 24.0875 106.598 25.5236 104.835C25.9153 104.379 26.307 103.987 26.7639 103.595L27.1556 101.572H24.5445L28.2 83.6202H39.6236C41.0597 81.6619 42.6917 79.7688 44.4542 77.941C53.3972 68.9327 64.2986 64.4938 77.0278 64.7549C77.4847 64.7549 77.9417 64.8202 78.3333 64.8202C79.3778 64.7549 80.4222 64.7549 81.4667 64.7549C94.1958 64.9507 105.097 69.5855 114.171 78.5285C115.346 79.7035 116.456 80.8785 117.435 82.1188H144.46L143.415 84.3382H146.679L120.699 139.498H118.479C117.435 140.804 116.26 142.109 115.019 143.415L107.186 151.248L109.536 157.972L120.307 147.135L122.2 148.963L124.811 147.135L135.256 161.888C148.507 147.266 155.165 129.967 155.361 109.927C155.557 88.516 148.05 70.3035 132.84 55.2896Z" fill="#191C20"/>
<path d="M132.841 55.2893C118.545 41.1241 101.311 33.7477 81.2058 33.2907C80.0308 33.2907 78.8558 33.2255 77.6155 33.2907C56.0086 33.6171 37.6656 41.3199 22.6517 56.4643C7.63777 71.6088 0.0655479 89.9518 -0.0650076 111.428C-0.130285 132.97 7.37666 151.248 22.5211 166.262L62.21 205.559L68.9989 198.77L58.1628 187.999L74.3517 171.68L45.4989 143.153C44.3239 141.978 43.2142 140.803 42.1697 139.563H19.7142L20.1058 137.409H17.56L22.4558 112.016C23.0433 109.013 24.0878 106.663 25.5239 104.9C25.9155 104.444 26.3072 104.052 26.7642 103.66L27.1558 101.637H24.5447L28.2003 83.6852H39.6239C41.06 81.7268 42.6919 79.8338 44.4544 78.006C53.3975 68.9977 64.2989 64.5588 77.0281 64.8199C77.485 64.8199 77.9419 64.8852 78.3336 64.8852C90.4753 65.4074 100.985 69.9768 109.667 78.5935C110.842 79.7685 111.952 80.9435 112.931 82.1838H117.37H144.395L143.35 84.4032H146.614L120.634 139.563H118.414H113.975C112.931 140.869 111.756 142.174 110.516 143.48L102.682 151.313L109.471 158.037L120.242 147.2L122.135 149.028L135.191 161.953C148.442 147.331 155.1 130.032 155.296 109.992C155.557 88.5157 148.05 70.3032 132.841 55.2893Z" fill="white"/>
<path d="M119.001 158.104H116.456L117.761 159.344L119.001 158.104Z" fill="#555A5C"/>
<path d="M119.001 158.104L128.924 167.96L119.001 158.104Z" fill="#555A5C"/>
<path d="M126.378 167.96H128.924L119.002 158.104L117.761 159.344L126.378 167.96Z" fill="#555A5C"/>
<path d="M116.521 177.816H119.067L117.761 176.576L116.521 177.816Z" fill="#303335"/>
<path d="M119.067 177.816L128.924 167.959L119.067 177.816Z" fill="#303335"/>
<path d="M126.378 167.959L117.761 176.576L119.067 177.816L128.924 167.959H126.378Z" fill="#303335"/>
<path d="M107.839 166.719L99.2222 158.168L107.839 166.719Z" fill="#555A5C"/>
<path d="M99.2221 158.168H96.6763L97.9818 159.474L99.2221 158.168Z" fill="#555A5C"/>
<path d="M106.599 168.025L107.839 166.719L99.2222 158.168L97.9819 159.474L106.599 168.025Z" fill="#555A5C"/>
<path d="M99.2876 177.882L107.904 169.266L99.2876 177.882Z" fill="#303335"/>
<path d="M96.7417 177.883H99.2875L98.0473 176.643L96.7417 177.883Z" fill="#303335"/>
<path d="M106.599 168.025L98.0474 176.642L99.2876 177.882L107.904 169.266L106.599 168.025Z" fill="#303335"/>
<path d="M98.0473 179.188L99.2875 177.883H96.7417L98.0473 179.188Z" fill="#555A5C"/>
<path d="M109.21 187.74L99.2876 177.883L109.21 187.74Z" fill="#555A5C"/>
<path d="M106.664 187.74H109.21L99.2876 177.883L98.0474 179.188L106.664 187.74Z" fill="#555A5C"/>
<path d="M96.8724 197.661H96.8071H99.353L98.1127 196.355L96.8724 197.661Z" fill="#303335"/>
<path d="M99.3525 197.66L109.209 187.738L99.3525 197.66Z" fill="#303335"/>
<path d="M106.664 187.738L98.1123 196.355L99.3526 197.66L109.21 187.738H106.664Z" fill="#303335"/>
<path d="M88.1902 186.563L79.5083 178.012L88.1902 186.563Z" fill="#555A5C"/>
<path d="M79.5082 178.012H76.9624L78.268 179.252L79.5082 178.012Z" fill="#555A5C"/>
<path d="M86.8847 187.803L88.1903 186.563L79.5083 178.012L78.2681 179.252L86.8847 187.803Z" fill="#555A5C"/>
<path d="M79.5737 197.726H79.639L88.1904 189.109L79.5737 197.726Z" fill="#303335"/>
<path d="M77.0933 197.725H79.5738L78.3335 196.42L77.0933 197.725Z" fill="#303335"/>
<path d="M86.8849 187.805L78.3335 196.421L79.5738 197.727L88.1904 189.11L86.9502 187.805H86.8849Z" fill="#303335"/>
<path d="M78.3335 198.967L79.5738 197.727H77.0933L78.3335 198.967Z" fill="#555A5C"/>
<path d="M89.5612 207.518L79.639 197.727H79.5737L89.5612 207.518Z" fill="#555A5C"/>
<path d="M87.0154 207.518H89.5613L79.5738 197.727L78.3335 198.967L87.0154 207.518Z" fill="#555A5C"/>
<path d="M77.1582 217.439H79.704L78.3985 216.199L77.1582 217.439Z" fill="#303335"/>
<path d="M79.7041 217.44L89.561 207.518L79.7041 217.44Z" fill="#303335"/>
<path d="M87.0151 207.518L78.3984 216.2L79.704 217.44L89.5609 207.518H87.0151Z" fill="#303335"/>
<path d="M109.145 168.025L107.904 169.266L116.521 177.817L117.761 176.577L109.145 168.025Z" fill="black"/>
<path d="M117.761 159.344L116.456 158.104L107.839 166.72L109.144 168.026L117.761 159.344Z" fill="black"/>
<path d="M89.3652 168.09L97.9818 159.474L96.6763 158.168L86.8193 168.09L96.7416 177.882L98.0471 176.642L89.3652 168.09Z" fill="black"/>
<path d="M69.7822 207.649L78.3336 198.967L77.0933 197.727L67.2363 207.649L77.1585 217.44L78.3988 216.2L69.7822 207.649Z" fill="black"/>
<path d="M98.0474 179.188L96.7418 177.947L88.1904 186.564L89.4307 187.804L98.0474 179.188Z" fill="black"/>
<path d="M69.6515 187.869L78.2681 179.252L76.9626 178.012L67.1709 187.869L77.0931 197.726L78.3334 196.42L69.6515 187.869Z" fill="black"/>
<path d="M89.4307 187.805L88.1904 189.11L96.8071 197.662L98.1126 196.356L89.4307 187.805Z" fill="black"/>
<path d="M117.761 159.344L109.145 168.026L117.761 176.577L126.378 167.96L117.761 159.344Z" fill="black"/>
<path d="M97.9819 159.473L89.3652 168.089L98.0472 176.641L106.599 168.024L97.9819 159.473Z" fill="black"/>
<path d="M78.3331 198.967L69.7817 207.649L78.3984 216.2L87.0151 207.518L78.3331 198.967Z" fill="black"/>
<path d="M78.268 179.252L69.6514 187.869L78.3333 196.42L86.8847 187.803L78.268 179.252Z" fill="black"/>
<path d="M98.0473 179.188L89.4307 187.804L98.1126 196.356L106.664 187.739L98.0473 179.188Z" fill="black"/>
<path d="M117.761 159.344L116.456 158.104L117.761 159.344Z" fill="black"/>
<path d="M117.761 159.344L126.378 167.96L117.761 159.344Z" fill="black"/>
<path d="M117.761 176.576L126.378 167.959L117.761 176.576Z" fill="black"/>
<path d="M97.9818 159.474L96.6763 158.168L97.9818 159.474Z" fill="black"/>
<path d="M109.144 168.024L107.839 166.719L109.144 168.024Z" fill="black"/>
<path d="M106.599 168.024L97.9819 159.473L106.599 168.024Z" fill="black"/>
<path d="M106.599 168.024H109.144L107.839 166.719L106.599 168.024Z" fill="black"/>
<path d="M109.145 168.025L107.904 169.266L109.145 168.025Z" fill="black"/>
<path d="M106.599 168.025L98.0474 176.642L106.599 168.025Z" fill="black"/>
<path d="M107.904 169.266L109.144 168.025H106.599L107.904 169.266Z" fill="black"/>
<path d="M98.0473 179.188L96.7417 177.883V177.948L98.0473 179.188Z" fill="black"/>
<path d="M98.0474 179.188L106.664 187.739L98.0474 179.188Z" fill="black"/>
<path d="M98.1123 196.355L106.664 187.738L98.1123 196.355Z" fill="black"/>
<path d="M89.4307 187.805L88.1904 186.564L89.4307 187.805Z" fill="black"/>
<path d="M78.268 179.252L76.9624 178.012L78.268 179.252Z" fill="black"/>
<path d="M86.8848 187.805H86.95H89.4306L88.1903 186.564L86.8848 187.805Z" fill="black"/>
<path d="M86.8847 187.803L78.2681 179.252L86.8847 187.803Z" fill="black"/>
<path d="M89.4307 187.805L88.1904 189.11L89.4307 187.805Z" fill="black"/>
<path d="M88.1905 189.11L89.4308 187.805H86.9502L88.1905 189.11Z" fill="black"/>
<path d="M86.8849 187.805L78.3335 196.421L86.8849 187.805Z" fill="black"/>
<path d="M78.3335 198.967L77.0933 197.727L78.3335 198.967Z" fill="black"/>
<path d="M78.3335 198.967L87.0154 207.518L78.3335 198.967Z" fill="black"/>
<path d="M78.3984 216.2L87.0151 207.518L78.3984 216.2Z" fill="black"/>
<path fill-rule="evenodd" clip-rule="evenodd" d="M36.9473 119.328L35.8376 124.159H55.6821L52.8751 137.475H21.8682L26.3071 114.497C26.6987 112.343 27.4821 109.993 28.9834 108.296C30.1584 106.925 31.6598 106.011 33.5529 106.011H47.7834L48.8279 101.768H28.9182L31.7251 87.7988H57.1834C58.9459 87.7988 59.9904 89.3002 60.6432 90.7363C61.4265 92.5641 61.6223 94.5224 61.2307 96.546L58.3584 110.842C57.9015 112.996 57.1834 115.346 55.6821 117.043C54.5071 118.414 53.0057 119.328 51.1779 119.328H36.9473Z" fill="black"/>
<path fill-rule="evenodd" clip-rule="evenodd" d="M34.793 117.174L33.6833 122.004H53.5278L50.6555 135.321H19.7139L24.1528 112.343C24.5444 110.189 25.3278 107.839 26.8291 106.142C28.0041 104.771 29.5055 103.857 31.3333 103.857H45.5639L46.6083 99.614H26.7639L29.5708 85.6445H55.0291C56.7916 85.6445 57.8361 87.0806 58.4889 88.582C59.2722 90.4098 59.468 92.3681 59.0764 94.3918L56.2041 108.688C55.7472 110.842 55.0291 113.192 53.5278 114.889C52.3528 116.26 50.8514 117.174 48.9583 117.174H34.793Z" fill="black"/>
<path d="M30.2887 86.4922H55.0943C56.204 86.4922 57.1179 87.2755 57.7706 88.9075C58.4887 90.5394 58.6193 92.3019 58.2929 94.2602L55.4206 108.556C54.8984 111.102 54.1151 113.06 52.9401 114.366C51.7651 115.737 50.4595 116.389 49.0234 116.389H34.1401L32.9651 121.546L27.6776 122.852H52.6137L50.1331 134.602H20.6929L24.9359 112.538C25.4581 109.992 26.2415 108.034 27.4165 106.728C28.5915 105.357 29.897 104.705 31.3331 104.705H46.2165L47.3262 100.201L52.679 98.895H27.7429L30.2887 86.4922Z" fill="#FFCC29"/>
<path d="M57.5751 88.5176C57.6404 88.6481 57.7057 88.7787 57.771 88.9092C58.489 90.5412 58.6196 92.3037 58.2932 94.262L55.421 108.558C54.8987 111.104 54.1154 113.062 52.9404 114.368C51.7654 115.738 50.4598 116.391 49.0237 116.391H34.1404L32.9654 121.548L27.8085 122.788L30.289 110.516H50.0029L52.2876 98.8967L52.6793 98.8315H52.3529L53.5279 92.6954L57.5751 88.5176ZM27.8737 122.788H32.7696L26.6987 128.663L27.8737 122.788Z" fill="#F2B429"/>
<path d="M52.6137 122.787L50.1332 134.537H20.6929L26.6984 128.662H45.4984L52.6137 122.787Z" fill="#F2B429"/>
<path fill-rule="evenodd" clip-rule="evenodd" d="M27.7432 98.8303H47.6529L53.5932 92.6289H34.9237L27.7432 98.8303Z" fill="#F2B429"/>
<path fill-rule="evenodd" clip-rule="evenodd" d="M73.2419 125.464H55.4863L57.9669 112.474L62.8627 87.7988H74.4822L69.7169 111.821H76.1141L78.4641 99.9405H89.953L82.5113 137.475H70.8919L73.2419 125.464Z" fill="black"/>
<path fill-rule="evenodd" clip-rule="evenodd" d="M71.0876 123.31H53.332L55.8126 110.32L60.7084 85.6445H72.3279L67.5626 109.667H73.9598L76.3098 97.7862H87.7987L80.357 135.321H68.7376L71.0876 123.31Z" fill="black"/>
<path d="M79.7041 134.537H69.7166L72.0666 122.526H54.311L56.661 110.449L61.361 86.4922H71.3485L66.5833 110.449H79.6388L74.8735 109.144L76.9624 98.5686H86.8194L79.7041 134.537Z" fill="#FFCC29"/>
<path fill-rule="evenodd" clip-rule="evenodd" d="M60.4473 116.455L66.5834 110.449L71.3487 86.4922L65.2125 92.3019L60.4473 116.455Z" fill="#F2B429"/>
<path fill-rule="evenodd" clip-rule="evenodd" d="M54.311 122.526H72.0666L78.268 116.52L60.4471 116.455L54.311 122.526Z" fill="#F2B429"/>
<path fill-rule="evenodd" clip-rule="evenodd" d="M80.6835 104.445L86.8196 98.5703L79.7043 134.538H69.7168L75.8529 128.663L80.6835 104.445Z" fill="#F2B429"/>
<path fill-rule="evenodd" clip-rule="evenodd" d="M121.678 100.397H107.055L109.797 86.2969H143.284L119.197 137.475H104.183L121.678 100.397Z" fill="black"/>
<path fill-rule="evenodd" clip-rule="evenodd" d="M119.458 98.1773H104.836L107.578 84.1426H141.131L116.978 135.255H101.964L119.458 98.1773Z" fill="black"/>
<path d="M108.296 84.9258H139.825L116.456 134.472H103.27L120.176 98.6341L125.986 97.3286H105.815L108.296 84.9258Z" fill="white"/>
<path fill-rule="evenodd" clip-rule="evenodd" d="M105.815 97.3283H120.764L130.295 91.127H113.127L105.815 97.3283Z" fill="#C2C3C3"/>
<path fill-rule="evenodd" clip-rule="evenodd" d="M103.27 134.472H116.456L139.825 84.9258L130.295 91.1272L112.735 128.401L103.27 134.472Z" fill="#C2C3C3"/>
<path d="M101.964 84.1426H99.4833L87.2764 137.475H89.8222L101.964 84.1426Z" fill="black"/>
<path d="M100.528 84.4037L99.4833 84.1426L87.2764 137.475L88.5819 137.213L100.528 84.4037Z" fill="#191C20"/>
<path d="M87.2764 137.475L88.9736 135.451L89.8222 137.475H87.2764Z" fill="#1F2325"/>
<path d="M101.964 84.1426H99.4834L100.136 86.2315L101.964 84.1426Z" fill="#1F2325"/>
</g>
<defs>
<clipPath id="clip0_3105_16694">
<rect width="159.8" height="217.44" fill="white"/>
</clipPath>
</defs>
</svg>
