<svg width="24" height="24" viewBox="0 0 24 24" fill="none" xmlns="http://www.w3.org/2000/svg">
<g id="navigation-outline-icon">
<path id="Vector" d="M13.6698 21.9984H13.6098C13.3897 21.9851 13.1802 21.8994 13.0138 21.7548C12.8474 21.6101 12.7335 21.4145 12.6898 21.1984L10.9998 12.9984L2.79983 11.3084C2.5833 11.2653 2.38708 11.1519 2.24178 10.9857C2.09648 10.8195 2.01026 10.6099 1.99656 10.3896C1.98286 10.1692 2.04245 9.95056 2.16605 9.76764C2.28964 9.58472 2.47029 9.44785 2.67983 9.37835L18.6798 4.04835C18.8594 3.97419 19.0567 3.95397 19.2476 3.99014C19.4386 4.02631 19.6148 4.11732 19.7548 4.25203C19.8948 4.38675 19.9926 4.55934 20.0361 4.74871C20.0796 4.93808 20.067 5.13603 19.9998 5.31835L14.6698 21.3183C14.6002 21.5253 14.4648 21.7038 14.2843 21.8266C14.1037 21.9494 13.8879 22.0097 13.6698 21.9984ZM6.86983 10.0984L12.0598 11.1584C12.2538 11.1958 12.4324 11.2898 12.573 11.4287C12.7136 11.5675 12.8099 11.7448 12.8498 11.9384L13.8998 17.1284L17.4198 6.57835L6.86983 10.0984Z" fill="#1D1D1B"/>
</g>
</svg>
