<svg width="50" height="50" viewBox="0 0 50 50" fill="none" xmlns="http://www.w3.org/2000/svg">
<path d="M25 0C18.3698 0 12.0104 2.63407 7.32236 7.32236C2.63406 12.011 0 18.3698 0 25C0 31.6302 2.63406 37.9896 7.32236 42.6776C12.011 47.3659 18.3698 50 25 50C31.6302 50 37.9896 47.3659 42.6776 42.6776C47.3659 37.989 50 31.6302 50 25C49.992 18.372 47.3557 12.0172 42.6689 7.33112C37.9821 2.64439 31.6273 0.00798703 25 0ZM25 45.455C19.5751 45.455 14.3724 43.2999 10.5366 39.4639C6.70063 35.6279 4.5456 30.4252 4.5456 25.0006C4.5456 19.5759 6.70063 14.373 10.5366 10.5372C14.3727 6.70122 19.5753 4.54618 25 4.54618C30.4247 4.54618 35.6276 6.70122 39.4633 10.5372C43.2994 14.3733 45.4544 19.5759 45.4544 25.0006C45.4483 30.4236 43.2914 35.6224 39.4569 39.4581C35.6221 43.2925 30.4234 45.4489 25 45.455Z" fill="#1D1D1B"/>
<path d="M35.6978 14.3024C35.2716 13.8763 34.6936 13.637 34.091 13.637C33.4884 13.637 32.9104 13.8763 32.4842 14.3024L14.3021 32.4846C13.8634 32.9081 13.6138 33.4898 13.6084 34.0994C13.6031 34.7089 13.8432 35.2952 14.2739 35.7263C14.705 36.157 15.2913 36.3971 15.9008 36.3918C16.5103 36.3864 17.0924 36.1365 17.5159 35.6978L35.6981 17.5156C36.1243 17.0894 36.3632 16.5118 36.3632 15.9092C36.3632 15.3066 36.1239 14.7286 35.6978 14.3024Z" fill="#1D1D1B"/>
<path d="M21.5909 17.0453C21.5909 19.5557 19.5557 21.5909 17.0453 21.5909C14.5349 21.5909 12.5001 19.5557 12.5001 17.0453C12.5001 14.5349 14.5349 12.5001 17.0453 12.5001C19.5557 12.5001 21.5909 14.5349 21.5909 17.0453Z" fill="#1D1D1B"/>
<path d="M37.4997 32.9551C37.4997 35.4655 35.4649 37.5003 32.9545 37.5003C30.4441 37.5003 28.4089 35.4655 28.4089 32.9551C28.4089 30.4447 30.4441 28.4095 32.9545 28.4095C35.4649 28.4095 37.4997 30.4447 37.4997 32.9551Z" fill="#1D1D1B"/>
</svg>
