<svg width="20" height="20" viewBox="0 0 20 20" fill="none" xmlns="http://www.w3.org/2000/svg">
<rect width="20" height="20" rx="10" fill="#F4B607"/>
<path d="M5.48666 9.09316C5.54263 9.16066 5.61136 9.21646 5.68892 9.25736C5.76649 9.29826 5.85136 9.32346 5.93868 9.33151C6.026 9.33956 6.11405 9.33031 6.19778 9.30428C6.28152 9.27825 6.35929 9.23596 6.42666 9.17982L9.33333 6.75982V14.6665C9.33333 14.8433 9.40356 15.0129 9.52859 15.1379C9.65361 15.2629 9.82318 15.3332 9.99999 15.3332C10.1768 15.3332 10.3464 15.2629 10.4714 15.1379C10.5964 15.0129 10.6667 14.8433 10.6667 14.6665V6.75982L13.5733 9.17982C13.6407 9.23585 13.7185 9.27806 13.8022 9.30402C13.886 9.32999 13.974 9.33922 14.0613 9.33117C14.1486 9.32312 14.2334 9.29796 14.311 9.25712C14.3885 9.21628 14.4573 9.16057 14.5133 9.09316C14.5694 9.02574 14.6116 8.94796 14.6375 8.86423C14.6635 8.78051 14.6727 8.69249 14.6647 8.60521C14.6566 8.51792 14.6315 8.43307 14.5906 8.35551C14.5498 8.27795 14.4941 8.20919 14.4267 8.15315L10.4267 4.81982L10.3267 4.75982L10.24 4.71316C10.0855 4.65356 9.91444 4.65356 9.75999 4.71316L9.67333 4.75982L9.57333 4.81982L5.57333 8.15315C5.50582 8.20912 5.45002 8.27785 5.40912 8.35542C5.36822 8.43298 5.34302 8.51786 5.33497 8.60517C5.32692 8.69249 5.33617 8.78054 5.3622 8.86428C5.38823 8.94801 5.43053 9.02579 5.48666 9.09316Z" fill="white"/>
</svg>
