<svg width="34" height="33" viewBox="0 0 34 33" fill="none" xmlns="http://www.w3.org/2000/svg">
<path d="M26.2667 31.9997C26.0001 32.0008 25.7372 31.9379 25.5 31.8164L17 27.3664L8.5 31.8164C8.22399 31.9615 7.9128 32.0263 7.6018 32.0034C7.29079 31.9804 6.99246 31.8707 6.74072 31.6867C6.48897 31.5026 6.2939 31.2517 6.17769 30.9623C6.06148 30.6729 6.02879 30.3567 6.08333 30.0497L7.75 20.6664L0.883334 13.9997C0.669097 13.7859 0.51712 13.5178 0.443714 13.2242C0.370308 12.9306 0.378243 12.6225 0.466668 12.333C0.563268 12.0368 0.740962 11.7736 0.979585 11.5733C1.21821 11.373 1.50821 11.2435 1.81667 11.1997L11.3167 9.81635L15.5 1.26636C15.6365 0.98457 15.8496 0.746926 16.1149 0.580645C16.3801 0.414364 16.6869 0.326172 17 0.326172C17.3131 0.326172 17.6199 0.414364 17.8851 0.580645C18.1504 0.746926 18.3635 0.98457 18.5 1.26636L22.7333 9.79969L32.2333 11.183C32.5418 11.2269 32.8318 11.3563 33.0704 11.5566C33.309 11.7569 33.4867 12.0201 33.5833 12.3164C33.6718 12.6058 33.6797 12.9139 33.6063 13.2075C33.5329 13.5011 33.3809 13.7692 33.1667 13.983L26.3 20.6497L27.9667 30.033C28.0262 30.3455 27.995 30.6684 27.8769 30.9638C27.7588 31.2591 27.5586 31.5145 27.3 31.6997C26.9982 31.9112 26.6348 32.0167 26.2667 31.9997Z" fill="#D03E3E"/>
</svg>
