<svg width="24" height="24" viewBox="0 0 24 24" fill="none" xmlns="http://www.w3.org/2000/svg">
<rect width="24" height="24" rx="12" fill="#249F58"/>
<path fill-rule="evenodd" clip-rule="evenodd" d="M20.8001 15.9999V14.3999H3.20012L6.40012 15.9999H16.0001C16.0001 16.8831 17.0753 17.5999 18.4001 17.5999C19.7249 17.5999 20.8001 16.8831 20.8001 15.9999ZM9.16812 6.24951C9.14892 6.24951 9.12012 6.25911 9.08332 6.28151C8.99692 6.33911 8.82732 6.51671 8.82092 6.72151C8.81612 6.83831 8.79372 6.83831 8.86892 6.91351C8.92332 6.99031 8.98092 6.98391 9.08972 6.92471C9.15372 6.87671 9.17452 6.84951 9.19692 6.77111C9.22252 6.64311 9.05772 6.83511 9.03692 6.68791C9.00012 6.55351 9.10572 6.49591 9.20492 6.36791C9.20812 6.30391 9.20812 6.25591 9.16812 6.25271V6.24951ZM10.7729 6.25751C10.7409 6.26391 10.7041 6.30551 10.6513 6.39831C10.6145 6.49751 10.4529 6.64791 10.5713 6.95831C10.6641 7.15511 10.7041 7.47351 10.6609 7.83031C10.5937 7.93111 10.5809 7.96631 10.4929 8.06711C10.3713 8.19991 10.2369 8.16631 10.1377 8.11511C10.0417 8.05111 9.96812 8.01911 9.92492 7.81751C9.93292 7.49751 9.95212 6.96631 9.89292 6.85431C9.80652 6.68151 9.66252 6.74231 9.60172 6.79511C9.30892 7.06711 9.16332 7.51991 9.07372 7.88311C8.99372 8.14551 8.90572 8.06871 8.84492 7.96311C8.69612 7.82231 8.68492 6.73111 8.50572 6.91191C8.21772 7.73431 8.67052 8.63511 8.98572 8.54711C9.20972 8.64311 9.35372 8.21111 9.44652 7.73911C9.51052 7.60631 9.55852 7.59031 9.59052 7.65911C9.58252 8.28631 9.63852 8.42711 9.79852 8.61591C10.1569 8.89431 10.4545 8.65111 10.4785 8.62871L10.7585 8.35031C10.8225 8.28631 10.9025 8.27991 10.9905 8.33751C11.0769 8.41751 11.0657 8.55031 11.2465 8.64151C11.4033 8.70551 11.7313 8.65751 11.8065 8.52471C11.9105 8.34871 11.9345 8.28791 11.9825 8.22071C12.0561 8.12471 12.1825 8.16791 12.1825 8.19831C12.1713 8.25431 12.0977 8.31031 12.1473 8.40631C12.2353 8.47031 12.2561 8.42871 12.3073 8.41431C12.4897 8.32791 12.6273 7.93111 12.6273 7.93111C12.6353 7.78391 12.5521 7.79511 12.4993 7.82551C12.4273 7.86871 12.4241 7.88311 12.3553 7.92631C12.2641 7.93911 12.0913 7.99831 12.0065 7.86551C11.9185 7.70551 11.9185 7.48471 11.8513 7.32151C11.8513 7.31191 11.7345 7.07031 11.8417 7.05591C11.8945 7.06551 12.0129 7.09591 12.0305 6.99831C12.0881 6.90231 11.9073 6.63031 11.7841 6.49591C11.6785 6.37911 11.5313 6.36471 11.3889 6.48311C11.2881 6.57591 11.3041 6.67831 11.2833 6.77591C11.2593 6.88791 11.2641 7.02711 11.3793 7.17591C11.4785 7.37111 11.6593 7.62391 11.5985 7.97911C11.5985 7.97911 11.4945 8.14871 11.3105 8.12631C11.2305 8.11031 11.1057 8.07831 11.0385 7.58231C10.9905 7.20951 11.0513 6.68631 10.8945 6.44151C10.8577 6.35031 10.8273 6.26071 10.7761 6.26551L10.7729 6.25751ZM10.2641 6.29911C10.2161 6.30391 10.1633 6.35991 10.1201 6.46711C10.0833 6.55031 10.0369 6.97911 10.0449 6.97911C10.0129 7.10711 10.1777 7.16151 10.2529 6.99831C10.3649 6.69431 10.3649 6.56631 10.3713 6.44151C10.3553 6.34551 10.3121 6.29751 10.2641 6.30071V6.29911ZM12.1409 6.33111C12.0929 6.33751 12.0529 6.36631 12.0385 6.43991C12.0177 6.60951 12.0289 6.70391 12.0577 6.84631C12.0785 6.94231 12.2177 7.09911 12.2849 7.19191C12.6097 7.62871 12.9249 8.06711 13.2257 8.51991C13.2737 8.85911 13.3057 9.18871 13.3297 9.51831C13.3809 10.2383 13.3937 11.1343 13.3505 11.8943C13.4849 11.8991 13.7025 11.6751 13.7777 11.3503C13.8257 10.8959 13.7617 9.97431 13.7553 9.70551L13.7393 9.32471C14.0913 9.90071 14.4305 10.5087 14.7633 11.1743C14.8865 11.1167 14.8593 10.4303 14.7889 10.3343C14.5201 9.75831 14.1489 9.18871 14.0321 8.96951C13.9889 8.88951 13.8433 8.67031 13.6721 8.41591C13.6401 8.05111 13.6049 7.74391 13.5825 7.65111C13.5265 7.26711 13.7393 7.69431 13.7105 7.47191C13.6401 7.08791 13.4289 6.82871 13.1793 6.47671C13.0993 6.36471 13.0993 6.33911 12.9761 6.50551C12.9041 6.67351 12.9041 6.81431 12.9281 6.94551C12.8929 6.89751 12.8529 6.84311 12.7953 6.77271L12.3873 6.42711C12.3313 6.38711 12.2225 6.32631 12.1409 6.33111ZM17.7025 6.39031C17.6785 6.38711 17.6545 6.39831 17.6225 6.44151C17.5665 6.48951 17.5073 6.58071 17.5105 6.69751C17.5217 6.89751 17.5585 7.10391 17.5713 7.30551L17.5873 7.38551C17.5649 7.35991 17.5457 7.33751 17.5345 7.32791C17.1393 6.91191 17.7153 7.25751 17.4577 6.93911C17.2417 6.69911 17.1777 6.62551 16.9937 6.48151C16.8977 6.42391 16.8433 6.30871 16.8129 6.50391C16.8001 6.67511 16.7873 6.87511 16.7969 7.01911C16.7969 7.09911 16.8817 7.25111 16.9537 7.33911C17.2161 7.66391 17.4849 8.00791 17.7537 8.36631C17.8113 9.09751 17.8257 9.76791 17.8817 10.5007C17.8753 10.8143 17.7793 11.2303 17.6897 11.2687C17.6897 11.2687 17.5489 11.3487 17.4561 11.2607C17.3873 11.2335 17.1169 10.8079 17.1169 10.8079C16.9777 10.6799 16.8849 10.7167 16.7873 10.8079C16.5153 11.0703 16.3905 11.5631 16.2065 11.9023C16.1585 11.9775 16.0257 12.0431 15.8769 11.8959C15.4977 11.3775 15.7169 10.6399 15.6721 10.8303C15.3361 11.2111 15.4833 11.8415 15.5601 11.9775C15.6721 12.2015 15.7617 12.3455 15.9761 12.4527C16.1761 12.5967 16.3281 12.5087 16.4145 12.4047C16.6129 12.1999 16.6161 11.6735 16.7089 11.5695C16.7729 11.3775 16.9377 11.4095 17.0177 11.4959C17.0977 11.6079 17.1873 11.6799 17.3009 11.7407C17.4865 11.9039 17.7073 11.9327 17.9249 11.7839C18.0737 11.7007 18.1713 11.5919 18.2577 11.3775C18.3537 11.1279 18.3057 9.81591 18.2849 9.08631L18.7009 9.68791C18.7585 10.3279 18.7857 10.9599 18.7649 11.5647C18.7521 11.6847 19.1857 11.2063 19.1809 10.9791C19.1809 10.7823 19.1841 10.6015 19.1809 10.4351C19.3937 10.7711 19.5969 11.1119 19.7889 11.4591C19.9089 11.3951 19.8689 10.7183 19.7937 10.6271C19.5921 10.2879 19.3329 9.92311 19.1329 9.63831C19.0929 9.28151 19.0401 8.86071 19.0145 8.73111C18.9777 8.52951 18.9393 8.22711 18.8817 7.98871C18.8657 7.89751 18.8177 7.59991 18.8337 7.57271C18.8561 7.50391 18.9457 7.57271 18.9889 7.49591C19.0529 7.42391 18.7617 6.66391 18.6129 6.44951C18.5601 6.35351 18.4625 6.38551 18.3441 6.54551C18.2321 6.64791 18.2737 6.88471 18.3153 7.11031C18.4241 7.68631 18.5233 8.26871 18.6001 8.85431C18.4561 8.63831 18.2801 8.37911 18.1073 8.13111L18.0849 8.01911C18.0849 8.00631 18.0625 7.54711 18.0417 7.43831C18.0369 7.39351 18.0257 7.38071 18.0737 7.38711C18.1217 7.42871 18.1281 7.43031 18.1585 7.44471C18.2097 7.45111 18.2545 7.36791 18.2225 7.28951L17.7585 6.43511C17.7425 6.41431 17.7201 6.39511 17.6945 6.39191L17.7025 6.39031ZM3.35052 6.40631C3.26252 6.40311 3.16972 6.45431 3.20652 6.55831C3.18412 6.61431 3.37292 6.80311 3.40652 6.90711C3.43372 6.98231 3.37452 7.21911 3.43852 7.24311C3.49452 7.26711 3.57292 7.07671 3.60172 6.90231C3.61772 6.80631 3.60652 6.47671 3.38252 6.40951C3.37132 6.40631 3.36012 6.40631 3.34732 6.40471L3.35052 6.40631ZM19.7025 6.40631C19.6817 6.40951 19.6577 6.43831 19.6225 6.51831C19.5345 6.66231 19.5041 6.91831 19.5393 7.14231C19.7473 8.56631 19.9073 9.94551 19.9393 11.2063C19.9201 11.3279 19.9137 11.3919 19.8593 11.5423C19.7345 11.7023 19.5969 11.9007 19.4673 11.9967C19.3393 12.0927 19.0641 12.1855 18.9745 12.2559C18.6865 12.4191 18.6865 12.6079 18.9169 12.6159C19.3137 12.5679 19.7841 12.5359 20.1073 12.0479C20.1937 11.9119 20.2961 11.5407 20.2993 11.3119C20.3313 9.98391 20.2833 8.67991 20.0833 7.71831C20.0705 7.62231 20.0289 7.40951 20.0449 7.38231C20.0689 7.31511 20.1985 7.38711 20.2449 7.31191C20.3137 7.24151 19.9089 6.72471 19.7681 6.50391C19.7393 6.44951 19.7201 6.40311 19.6977 6.40791L19.7025 6.40631ZM15.5377 6.42871C15.5217 6.43191 15.4993 6.45751 15.4545 6.51671C15.3425 6.87831 15.3041 7.17271 15.3473 7.39991C15.6353 8.88791 15.9233 10.2399 15.8785 11.6559C16.0129 11.6559 16.1697 11.3471 16.2369 11.0399C16.2737 10.6159 16.2113 10.3583 16.2017 10.1119C16.1905 9.86231 15.9201 7.84631 15.8657 7.65911C15.7985 7.30391 16.1281 7.61111 16.0929 7.40631C15.9777 7.14391 15.6929 6.76631 15.6065 6.53751C15.5745 6.47671 15.5681 6.42071 15.5425 6.42551L15.5377 6.42871ZM5.40332 6.45751C5.37132 6.46391 5.33452 6.49271 5.32332 6.53751C5.31532 6.56951 5.33612 6.62231 5.30732 6.63831C5.29132 6.65431 5.23052 6.64311 5.23372 6.55831C5.23372 6.52951 5.21292 6.50071 5.20172 6.48311C5.18892 6.47671 5.18092 6.47511 5.15852 6.47511C5.13132 6.47511 5.13132 6.48311 5.11692 6.50711C5.11052 6.52951 5.10092 6.55191 5.10092 6.57751C5.09772 6.60951 5.08492 6.61751 5.06412 6.62231C5.03852 6.62231 5.04332 6.62551 5.02412 6.61111C5.00812 6.59991 4.99532 6.59511 4.99532 6.57271C4.99532 6.54871 4.98892 6.50871 4.98252 6.49591C4.97132 6.47991 4.95372 6.47351 4.93452 6.46871C4.82892 6.46871 4.82252 6.59351 4.82732 6.63831C4.81932 6.64791 4.81612 6.86231 4.96012 6.92311C5.15212 7.01591 5.51692 6.97591 5.50412 6.66391C5.50412 6.63671 5.49612 6.54391 5.49292 6.51991C5.47372 6.47191 5.43692 6.45591 5.40172 6.46071L5.40332 6.45751ZM8.00492 6.46071C7.93772 6.46391 7.87692 6.48311 7.82892 6.50871C7.70092 6.63191 7.66892 6.82871 7.77132 6.95191C7.86732 6.99991 7.96812 7.09591 7.90252 7.15191C7.62412 7.44791 6.89932 7.94551 6.86252 8.03671V8.04631H6.86892V8.04951C6.90572 8.07351 7.36012 8.07351 7.40972 8.04951H7.41292C7.56972 7.99031 8.30892 7.14551 8.30892 7.14551C8.27052 7.11351 8.23532 7.08791 8.19692 7.05431C8.15532 7.01911 8.16012 6.98391 8.19692 6.94871C8.37932 6.84311 8.32172 6.60791 8.22572 6.50071C8.14572 6.46551 8.07212 6.45271 8.00492 6.45751V6.46071ZM14.8049 6.46071C14.7857 6.46551 14.7617 6.49271 14.7249 6.57271C14.6369 6.71671 14.5777 6.96471 14.5857 7.19671C14.7745 8.50871 14.8321 9.65591 14.9569 10.9679C14.9665 11.0959 14.9473 11.2783 14.8641 11.3519C14.5505 11.6783 14.1009 12.0783 13.6113 12.2639C13.5585 12.3231 13.7425 12.5743 13.9793 12.5743C14.3761 12.5263 14.7249 12.3055 15.0513 11.7183C15.1361 11.5823 15.2881 11.2895 15.2913 11.0623C15.3233 9.73111 15.2273 8.69431 15.0257 7.73431C15.0145 7.63831 15.0225 7.52631 15.0385 7.50071C15.0641 7.46871 15.1505 7.50071 15.1985 7.42551C15.2657 7.35511 15.0161 6.78071 14.8753 6.56151C14.8465 6.50551 14.8305 6.46071 14.8049 6.46231V6.46071ZM4.27052 6.50391C4.21612 6.51031 4.16492 6.55191 4.13932 6.61591C4.13132 6.82391 4.12972 7.03191 4.15532 7.22711C4.25132 7.56791 4.27852 7.86711 4.32492 8.21431C4.34092 8.68151 4.05612 8.41591 4.06892 8.18551C4.13292 7.88471 4.11692 7.41271 4.05932 7.29271C4.01132 7.17271 3.96012 7.14391 3.84812 7.16471C3.76012 7.15831 3.53132 7.40471 3.46732 7.82071C3.46732 7.82071 3.41292 8.03191 3.39052 8.22071C3.35852 8.43351 3.21772 8.58551 3.11852 8.19191C3.03372 7.90391 2.98252 7.19991 2.84012 7.36311C2.79852 7.91351 2.75052 8.88311 3.21772 8.98231C3.78412 9.03671 3.47052 8.02551 3.67532 7.84151C3.71532 7.75351 3.78732 7.75191 3.79212 7.86551V8.72471C3.78572 9.00311 3.96812 9.08631 4.11212 9.14391C4.26092 9.13271 4.35852 9.13751 4.41612 9.28151L4.48812 10.7695C4.48812 10.7695 4.83052 10.8655 4.84652 9.93271C4.86252 9.38391 4.73452 8.92471 4.80972 8.81751C4.81292 8.71191 4.94732 8.70551 5.04012 8.75831C5.18892 8.86231 5.25452 8.99031 5.48492 8.93911C5.83692 8.84311 6.04492 8.67351 6.04972 8.40471C6.03372 8.14871 6.00172 7.89271 5.88972 7.63671C5.90572 7.59191 5.82572 7.47191 5.84172 7.42551C5.90252 7.52151 5.99852 7.51511 6.01772 7.42551C5.96012 7.22871 5.86732 7.04151 5.71692 6.96151C5.59372 6.84951 5.41292 6.87351 5.34572 7.10071C5.31372 7.36311 5.44172 7.67351 5.63372 7.92791C5.67212 8.02711 5.72972 8.19191 5.70412 8.34071C5.60332 8.39831 5.50252 8.37271 5.41612 8.28471C5.41612 8.28471 5.13932 8.07671 5.13932 8.02871C5.21452 7.55671 5.15532 7.50071 5.11532 7.37271C5.08652 7.19031 5.00012 7.13271 4.93132 7.00791C4.86092 6.93271 4.76652 6.93271 4.72332 7.00791C4.59852 7.22071 4.65612 7.67991 4.74572 7.88311C4.80972 8.07191 4.90892 8.19031 4.86252 8.19031C4.82412 8.29431 4.74412 8.27031 4.68652 8.14711C4.60652 7.89111 4.58732 7.51351 4.58732 7.34231C4.56332 7.13111 4.53612 6.67831 4.39532 6.56311C4.35852 6.51191 4.31532 6.49431 4.27212 6.49911L4.27052 6.50391ZM6.25772 6.50391C6.23052 6.51031 6.19852 6.52631 6.16172 6.53591C6.04172 6.57271 5.92972 6.67671 5.96492 6.87831C6.10892 7.74231 6.20012 8.40311 6.34252 9.26711C6.36332 9.36951 6.27852 9.50231 6.16972 9.49111C5.98412 9.36311 5.93772 9.10711 5.62092 9.11991C5.39052 9.11991 5.12812 9.37271 5.09612 9.61271C5.05772 9.80471 5.04492 10.0127 5.09612 10.1791C5.25612 10.3711 5.45132 10.3519 5.62092 10.3071C5.76012 10.2511 5.87692 10.1151 5.92492 10.1471C5.95692 10.1999 5.92172 10.6495 5.26892 10.9951C4.86572 11.1775 4.54572 11.2191 4.37292 10.8927C4.26732 10.6879 4.38252 9.90711 4.12012 10.0863C3.34252 12.0895 5.93932 12.3679 6.22892 10.1695C6.24812 10.1055 6.30412 10.0447 6.34572 10.0607C6.36172 10.0687 6.37772 10.0927 6.38412 10.1375C6.32332 12.1279 4.37452 12.2655 4.04492 11.6383C3.96172 11.4911 3.93772 11.1615 3.92972 10.9663C3.91372 10.8463 3.88492 10.7775 3.84972 10.7503C3.76972 10.6911 3.66412 10.8463 3.64172 11.1135C3.60972 11.3295 3.61772 11.3887 3.61772 11.5967C3.72332 13.1695 6.23052 12.4927 6.63852 11.1967C6.84012 10.5247 6.63372 10.0175 6.70252 9.95511L6.70732 9.95191H6.71212L6.72012 9.94871C6.96972 10.2175 7.31852 9.98071 7.39532 9.88951C7.42732 9.84151 7.51052 9.80951 7.56812 9.87351C7.76012 10.0111 8.10252 9.94551 8.17292 9.69751C8.21452 9.45751 8.24972 9.21111 8.25772 8.95351C8.12972 8.99351 8.02732 9.02231 7.98572 9.06551C7.97612 9.07671 7.96972 9.08951 7.96652 9.10231L7.93452 9.31511C7.93452 9.32311 7.93132 9.32791 7.92812 9.33111C7.92332 9.34231 7.91212 9.35031 7.90572 9.35511C7.86092 9.37911 7.78252 9.36631 7.77772 9.30071C7.71852 9.02871 7.47052 8.99351 7.32012 9.41751C7.21932 9.49751 7.03212 9.51351 7.01612 9.39191C7.04012 9.10711 6.92492 9.06871 6.69612 9.20311L6.47532 7.53911C6.57132 7.53431 6.65772 7.60311 6.74732 7.49431C6.65132 7.19991 6.45132 6.60151 6.33772 6.54391H6.33452L6.31852 6.52791C6.31852 6.52471 6.31372 6.52311 6.31052 6.52151L6.30412 6.51191C6.29772 6.51191 6.29132 6.50871 6.28812 6.50711C6.27692 6.50391 6.26732 6.50391 6.25612 6.50391H6.25772ZM14.0049 6.51031C13.9057 6.50711 13.7969 6.56951 13.8385 6.69431C13.8129 6.76311 14.0513 6.99351 14.0897 7.11831C14.1585 7.31031 14.0369 7.49751 14.1089 7.52471C14.1761 7.55351 14.2689 7.32471 14.3009 7.11191C14.3425 6.93911 14.2209 6.58711 14.0449 6.51511L14.0049 6.51191V6.51031ZM7.96812 6.71991C8.01292 6.71671 8.06732 6.75831 8.09612 6.81591C8.12332 6.87991 8.10892 6.93911 8.06412 6.95031C8.01612 6.96151 7.95532 6.92151 7.92652 6.85751C7.89772 6.79351 7.91052 6.73431 7.95852 6.72311H7.96812V6.71991ZM19.1633 7.01111C19.0721 7.00791 18.9713 7.07511 19.0129 7.21111C18.9905 7.28471 19.2049 7.53431 19.2417 7.67191C19.2737 7.76791 19.1937 8.08151 19.2577 8.11031C19.3185 8.14231 19.4017 7.89271 19.4337 7.66231C19.4529 7.53431 19.3601 7.09431 19.2017 7.01591C19.1905 7.01271 19.1777 7.00951 19.1649 7.00951L19.1633 7.01111ZM12.9713 7.16471C12.9825 7.20151 12.9905 7.23831 12.9953 7.27671C13.0145 7.35671 13.0305 7.43671 13.0465 7.51991C12.9761 7.42071 12.9185 7.34071 12.8913 7.31191C12.7313 7.11991 12.8945 7.18711 12.9713 7.16471ZM14.4001 7.86551C14.3649 7.87191 14.3313 7.90231 14.3201 7.95031C14.3105 7.97911 14.3329 8.03031 14.3041 8.04631C14.2881 8.06231 14.2241 8.05271 14.2289 7.96631C14.2289 7.93751 14.2081 7.90711 14.1969 7.89111C14.1841 7.88311 14.1761 7.87991 14.1537 7.87991C14.1265 7.87991 14.1265 7.88791 14.1121 7.91191C14.1057 7.93431 14.0961 7.95671 14.0961 7.98391C14.0961 8.01591 14.0833 8.02551 14.0609 8.03191C14.0353 8.03191 14.0401 8.03191 14.0193 8.02071C14.0065 8.00471 13.9921 8.00151 13.9921 7.97911C13.9921 7.95511 13.9873 7.91831 13.9793 7.90231C13.9681 7.88631 13.9521 7.88151 13.9313 7.87511C13.8273 7.87511 13.8193 7.99671 13.8257 8.04151C13.8193 8.05111 13.8145 8.26871 13.9585 8.32951C14.1537 8.42071 14.5185 8.37751 14.5025 8.06711C14.5025 8.03991 14.4945 7.94711 14.4929 7.92311C14.4721 7.87511 14.4353 7.85911 14.4017 7.86391L14.4001 7.86551ZM7.88812 7.92951C7.86572 7.92951 7.83372 7.93591 7.79692 7.95831C7.62572 8.05111 7.56012 8.32631 7.66892 8.48631C7.76492 8.63031 7.92492 8.57751 7.94572 8.57751C8.11372 8.59991 8.21292 8.26391 8.21292 8.26391C8.21292 8.26391 8.21772 8.16791 8.02092 8.34711C7.93452 8.36311 7.92492 8.33111 7.90252 8.28311C7.88332 8.19831 7.88652 8.10711 7.92652 8.02231C7.94572 7.96951 7.92652 7.93591 7.88812 7.93271V7.92951ZM17.0929 7.97271C16.9969 7.96791 16.8961 8.03031 16.8689 8.15991C16.8689 8.23671 16.9041 8.27831 16.8977 8.34871C16.8897 8.38871 16.8497 8.41271 16.7505 8.36791C16.7665 8.35191 16.6865 8.24311 16.6865 8.24311C16.6113 8.19511 16.5105 8.24311 16.4433 8.28791C16.4065 8.35511 16.3793 8.46871 16.4209 8.58391C16.5297 8.78711 16.9057 9.13271 17.0849 9.13591C17.0881 8.95351 17.1057 8.71031 17.1169 8.55991C17.1201 8.50231 17.1329 8.43991 17.1889 8.42551C17.2433 8.40951 17.3377 8.47991 17.3377 8.42071C17.3281 8.30551 17.3057 8.13271 17.2417 8.05271C17.2065 8.00471 17.1505 7.97591 17.0945 7.97271H17.0929ZM9.47212 8.60791L9.46732 8.61271C9.46732 8.61271 9.46412 8.61271 9.46252 8.61591C9.44332 8.63191 9.42092 8.66391 9.37132 8.69591C9.28652 8.79191 9.27212 8.86071 9.27532 9.05271C9.28172 9.07351 9.43532 9.50551 9.56812 9.80791C9.65772 10.1231 9.73932 10.4847 9.68012 10.8255C9.47212 11.2767 9.05612 11.6815 8.65132 11.9023C8.44332 11.9663 8.26732 11.9439 8.21932 11.8991C8.10092 11.8191 8.09932 11.6751 8.10732 11.6527V11.6479C8.44652 11.4111 8.83532 11.2191 9.13932 10.5807C9.22892 10.3359 9.25772 10.1887 9.16812 9.81271C9.13292 9.66871 9.08812 9.55671 8.99212 9.45431H8.99532C9.05292 9.42711 9.20332 9.53751 9.22732 9.47031C9.19052 9.28791 9.06732 9.04631 8.93132 8.92151C8.80972 8.80951 8.67532 8.79831 8.56652 8.89911C8.44172 8.96951 8.41612 9.21911 8.47532 9.43671C8.54252 9.59991 8.72332 9.62871 8.85132 9.95991C8.85452 9.98231 8.89452 10.2079 8.83052 10.3007C8.77612 10.4639 8.10252 10.9951 8.05452 11.0271L8.04972 11.0303L8.04652 11.0335H8.04332H8.04012V11.0287C8.03692 11.0159 8.04012 10.9807 8.04012 10.9279C8.03532 10.8287 8.07692 10.6031 8.07212 10.5631V10.5599C7.84812 10.7039 7.77292 11.1439 7.73292 11.2751C7.16812 11.6639 6.52812 11.9535 6.15852 12.3471C5.96652 12.6511 7.48332 12.0047 7.65932 11.9263L7.66412 11.9311C7.69932 11.9679 7.70092 12.0959 7.80172 12.2127C7.96172 12.4255 8.29452 12.5567 8.62092 12.4751C9.16812 12.2783 9.48492 11.9055 9.80492 11.4911C9.84972 11.4271 9.92172 11.3727 9.98892 11.4239C10.2081 11.9167 10.8449 12.2687 11.6657 12.3039C11.8577 12.0735 11.7665 11.9599 11.6897 11.9119C11.6657 11.8959 11.2817 11.7455 11.2209 11.5967C11.1841 11.4591 11.2753 11.3359 11.4577 11.2447C11.9857 11.1807 12.5041 11.1087 13.0065 10.9471C13.0113 10.7775 13.1105 10.5263 13.1777 10.4159C13.2257 10.3407 13.2529 10.3327 13.2641 10.3231V10.3199H13.2673V10.3151V10.2991L13.1809 10.2479L11.4961 10.2415C11.4753 10.2335 11.4609 10.2255 11.4513 10.2175L11.4481 10.2127C11.4481 10.2127 11.4449 10.2127 11.4449 10.2095C11.4449 10.2063 11.4417 10.2063 11.4417 10.2063V10.2079V10.2047V10.2015V10.1983L11.4449 10.1935C11.4529 10.1839 11.4737 10.1727 11.4977 10.1615C11.9009 10.1087 12.6145 9.99191 12.6625 9.30551C12.6545 8.94711 12.5089 8.71351 12.0705 8.64951C11.7473 8.67351 11.5169 8.98551 11.5537 9.32791C11.5377 9.41911 11.5857 9.59991 11.4897 9.62071C10.8721 9.67831 10.1969 10.0655 10.1745 10.3439H10.1713H10.1681H10.1649C10.1649 10.3471 10.1601 10.3471 10.1601 10.3471H10.1537H10.1505H10.1441C10.1041 10.3343 10.0529 10.2671 10.0609 10.1759C10.0369 9.69591 9.88012 9.15191 9.63692 8.73591C9.54892 8.64791 9.50892 8.61271 9.48652 8.60791H9.48172H9.47692H9.47372H9.47212ZM11.0849 8.86071C11.0529 8.86711 11.0161 8.89591 11.0049 8.94391C10.9969 8.97591 11.0209 9.02711 10.9921 9.04311C10.9761 9.05911 10.9121 9.04951 10.9153 8.96311C10.9153 8.93591 10.8945 8.90551 10.8833 8.88791C10.8705 8.87991 10.8625 8.87831 10.8417 8.87831C10.8145 8.87831 10.8129 8.88471 10.7985 8.90711C10.7905 8.92951 10.7825 8.95511 10.7825 8.97911C10.7793 9.01111 10.7665 9.02071 10.7457 9.02391C10.7201 9.02391 10.7265 9.02871 10.7057 9.01591C10.6929 9.00311 10.6769 8.99671 10.6769 8.97431C10.6769 8.95031 10.6721 8.91031 10.6657 8.89431C10.6545 8.88311 10.6369 8.87831 10.6177 8.87191C10.5105 8.87191 10.5057 8.99191 10.5105 9.03831C10.5025 9.04631 10.4977 9.26231 10.6417 9.32311C10.8337 9.41591 11.2977 9.36151 11.1857 9.06231C11.1857 9.03511 11.1777 8.94231 11.1761 8.91831C11.1553 8.87031 11.1185 8.85431 11.0833 8.85911L11.0849 8.86071ZM17.5889 9.12791H17.5729C17.5729 9.12791 16.6737 9.76791 16.6529 9.79031C16.5633 9.87031 16.6081 10.1471 16.6529 10.1151C16.7169 10.1391 17.6209 9.52631 17.6033 9.45431C17.6433 9.45751 17.6625 9.13911 17.5873 9.12631L17.5889 9.12791ZM11.9345 9.22391C11.9697 9.21911 12.0177 9.23191 12.0625 9.25591C12.1313 9.29751 12.1745 9.35511 12.1665 9.39991V9.40631C12.1633 9.40631 12.1633 9.40631 12.1633 9.40951V9.41271C12.1633 9.41271 12.1601 9.41271 12.1601 9.41591C12.1601 9.41911 12.1553 9.42231 12.1521 9.42551C12.1201 9.45751 12.0465 9.45111 11.9761 9.40951C11.9089 9.37271 11.8689 9.31351 11.8721 9.27191V9.26711L11.8801 9.25111C11.8801 9.25111 11.8801 9.24791 11.8833 9.24631L11.8913 9.23671C11.9025 9.22871 11.9169 9.22071 11.9345 9.22071V9.22391ZM4.06572 9.38391C3.60172 9.39351 2.91852 9.99511 2.90092 10.3279L4.37292 9.62391C4.29292 9.50231 4.36812 9.39351 4.06572 9.38391ZM5.57452 9.59191C5.61932 9.59511 5.66732 9.61751 5.69292 9.68151C5.71532 9.74071 5.69292 9.80151 5.66572 9.83191V9.83671C5.64332 9.86231 5.57612 9.85271 5.52652 9.85271C5.46732 9.84951 5.43852 9.83991 5.40332 9.79191C5.38412 9.73591 5.43532 9.68311 5.45932 9.64471L5.47052 9.62871C5.48652 9.61271 5.51852 9.59991 5.55052 9.59671L5.57132 9.59351L5.57452 9.59191ZM17.4145 9.77911C17.3297 9.78871 17.2513 9.86711 17.2865 9.99191C17.2641 10.0655 17.3985 10.3231 17.4353 10.4591C17.4673 10.5551 17.3937 10.8319 17.4593 10.8591C17.5201 10.8911 17.6785 10.6991 17.6737 10.4527C17.6897 10.3247 17.6289 9.86071 17.4705 9.78391C17.4513 9.77911 17.4321 9.77751 17.4129 9.77911H17.4145ZM7.36012 10.2335C7.28652 10.2383 7.22092 10.2767 7.25132 10.3807C7.24652 10.4543 7.45932 10.5455 7.47052 10.7167C7.49932 10.7903 7.42252 11.0207 7.48652 11.0399C7.54412 11.0639 7.62412 10.8799 7.65452 10.7135C7.67052 10.6207 7.58092 10.2975 7.43052 10.2383C7.40652 10.2319 7.38252 10.2303 7.35852 10.2319L7.36012 10.2335ZM10.3681 10.6431H10.3873C10.5761 10.6943 10.8513 10.7007 11.0913 10.7231C11.2881 10.7391 11.3841 10.8895 11.2033 10.9551C11.0209 11.0159 10.8465 11.0671 10.8465 11.3263C10.8689 11.4543 10.8625 11.5215 10.8433 11.5503C10.8433 11.5551 10.8385 11.5583 10.8369 11.5599C10.8369 11.5599 10.8369 11.5631 10.8337 11.5631V11.5663H10.8289L10.8177 11.5711H10.8097C10.7665 11.5791 10.7041 11.5391 10.6577 11.5135C10.5457 11.4335 10.2337 11.2415 10.1889 10.8255C10.1825 10.7295 10.2529 10.6495 10.3649 10.6415L10.3681 10.6431ZM3.01772 10.9631C3.00652 10.9631 2.98572 10.9983 2.95372 11.0383C2.67532 11.4783 2.64972 12.1359 2.80332 12.3343C2.88332 12.4255 3.01772 12.4671 3.11692 12.4383C3.29292 12.3631 3.36812 12.0095 3.32492 11.8815C3.26892 11.7903 3.22252 11.7759 3.16492 11.8527C3.04172 12.1007 2.98892 11.9295 2.98092 11.7887C2.96172 11.5279 2.98732 11.2847 3.01612 11.0927C3.03212 10.9967 3.03212 10.9599 3.01612 10.9599L3.01772 10.9631ZM12.4529 11.5423C12.4321 11.5423 12.4113 11.5455 12.3889 11.5583C12.3841 11.5583 12.1905 11.6863 12.1281 11.7791C12.0897 11.8079 12.0961 11.8319 12.1057 11.8831C12.1345 11.9519 12.1857 11.9311 12.2465 11.8991C12.3265 11.8863 12.3633 11.9391 12.3585 12.0335C12.3217 12.1535 12.3745 12.1967 12.3745 12.2047C12.3745 12.2111 12.4497 12.2767 12.5393 12.2255C12.7265 12.1535 12.8433 12.0815 13.1073 12.0255C13.1761 12.0255 13.1713 11.8399 13.0625 11.8335C12.9185 11.8399 12.7905 11.8495 12.6465 11.9615C12.5585 11.9807 12.5441 11.9263 12.5233 11.8783C12.5009 11.7599 12.5745 11.6767 12.5585 11.5871C12.5617 11.5919 12.5137 11.5487 12.4513 11.5455L12.4529 11.5423ZM18.4945 11.7663L18.3665 11.7791C18.3089 11.7903 18.2897 11.8159 18.2785 11.8863C18.2833 11.9903 18.3473 11.9855 18.4145 12.0271C18.4529 12.0751 18.4785 12.1199 18.4113 12.2031C18.3473 12.2591 18.3041 12.2911 18.2401 12.3471C18.2129 12.3983 18.1921 12.4751 18.2849 12.5007C18.4529 12.5487 18.8417 12.2959 18.8417 12.2927C18.9057 12.2447 18.8833 12.1535 18.8785 12.1535C18.8401 12.1119 18.7569 12.1375 18.7025 12.1295C18.6753 12.1295 18.5905 12.1167 18.6289 12.0399C18.6641 11.9919 18.6769 11.9647 18.7009 11.9055C18.7249 11.8479 18.7009 11.8095 18.6081 11.7775C18.5601 11.7679 18.5281 11.7647 18.4913 11.7663H18.4945Z" fill="white"/>
</svg>
