<svg width="48" height="48" viewBox="0 0 48 48" fill="none" xmlns="http://www.w3.org/2000/svg">
<rect width="48" height="48" rx="24" fill="#F5F5F5"/>
<path d="M25.6698 33.9984H25.6098C25.3897 33.9851 25.1802 33.8994 25.0138 33.7548C24.8474 33.6101 24.7335 33.4145 24.6898 33.1984L22.9998 24.9984L14.7998 23.3084C14.5833 23.2653 14.3871 23.1519 14.2418 22.9857C14.0965 22.8195 14.0103 22.6099 13.9966 22.3896C13.9829 22.1692 14.0425 21.9506 14.166 21.7676C14.2896 21.5847 14.4703 21.4478 14.6798 21.3784L30.6798 16.0484C30.8594 15.9742 31.0567 15.954 31.2476 15.9901C31.4386 16.0263 31.6148 16.1173 31.7548 16.252C31.8948 16.3868 31.9926 16.5593 32.0361 16.7487C32.0796 16.9381 32.067 17.136 31.9998 17.3184L26.6698 33.3183C26.6002 33.5253 26.4648 33.7038 26.2843 33.8266C26.1037 33.9494 25.8879 34.0097 25.6698 33.9984ZM18.8698 22.0984L24.0598 23.1584C24.2538 23.1958 24.4324 23.2898 24.573 23.4287C24.7136 23.5675 24.8099 23.7448 24.8498 23.9384L25.8998 29.1284L29.4198 18.5784L18.8698 22.0984Z" fill="#1D1D1B"/>
</svg>
