<svg width="24" height="24" viewBox="0 0 24 24" fill="none" xmlns="http://www.w3.org/2000/svg">
<path d="M17.56 21.0002C17.4001 21.0008 17.2423 20.9631 17.1 20.8902L12 18.2202L6.9 20.8902C6.73439 20.9773 6.54768 21.0162 6.36108 21.0024C6.17448 20.9887 5.99548 20.9228 5.84443 20.8124C5.69338 20.702 5.57634 20.5514 5.50661 20.3778C5.43689 20.2041 5.41727 20.0144 5.45 19.8302L6.45 14.2002L2.33 10.2002C2.20146 10.0719 2.11027 9.91107 2.06623 9.7349C2.02218 9.55872 2.02694 9.37388 2.08 9.2002C2.13796 9.02248 2.24458 8.86456 2.38775 8.74436C2.53092 8.62417 2.70492 8.54651 2.89 8.5202L8.59 7.6902L11.1 2.5602C11.1819 2.39113 11.3097 2.24855 11.4689 2.14878C11.6281 2.04901 11.8121 1.99609 12 1.99609C12.1879 1.99609 12.3719 2.04901 12.5311 2.14878C12.6903 2.24855 12.8181 2.39113 12.9 2.5602L15.44 7.6802L21.14 8.5102C21.3251 8.53651 21.4991 8.61417 21.6423 8.73436C21.7854 8.85456 21.892 9.01248 21.95 9.1902C22.0031 9.36388 22.0078 9.54872 21.9638 9.7249C21.9197 9.90107 21.8285 10.0619 21.7 10.1902L17.58 14.1902L18.58 19.8202C18.6157 20.0077 18.597 20.2015 18.5261 20.3787C18.4552 20.5559 18.3351 20.7091 18.18 20.8202C17.9989 20.9471 17.7809 21.0104 17.56 21.0002ZM12 16.1002C12.1603 16.0962 12.3189 16.1341 12.46 16.2102L16.23 18.2102L15.51 14.0002C15.4821 13.8395 15.4939 13.6743 15.5444 13.5192C15.595 13.364 15.6827 13.2236 15.8 13.1102L18.8 10.1802L14.6 9.5602C14.446 9.5292 14.3014 9.46233 14.1781 9.36504C14.0547 9.26775 13.956 9.14276 13.89 9.0002L12 5.2502L10.11 9.0002C10.0376 9.14391 9.93169 9.26803 9.80112 9.36204C9.67055 9.45605 9.51923 9.51717 9.36 9.5402L5.16 10.1602L8.16 13.0902C8.27728 13.2036 8.36502 13.344 8.41556 13.4992C8.46611 13.6543 8.47793 13.8195 8.45 13.9802L7.73 18.1402L11.5 16.1402C11.6597 16.0808 11.8328 16.067 12 16.1002Z" fill="#1D1D1B"/>
</svg>
