<svg width="74" height="74" viewBox="0 0 74 74" fill="none" xmlns="http://www.w3.org/2000/svg">
<g clip-path="url(#clip0_5122_7457)">
<path d="M37.2223 72.6931C57.3249 72.6931 73.6213 56.5221 73.6213 36.5741C73.6213 16.6261 57.3249 0.455078 37.2223 0.455078C17.1196 0.455078 0.823242 16.6261 0.823242 36.5741C0.823242 56.5221 17.1196 72.6931 37.2223 72.6931Z" fill="#207538"/>
<path d="M33.4461 47.298C33.2042 47.2972 32.9649 47.2467 32.7433 47.1495C32.5217 47.0524 32.3224 46.9107 32.1578 46.7332L23.5809 37.6092C23.2603 37.2675 23.0885 36.8125 23.1034 36.3442C23.1183 35.8759 23.3186 35.4326 23.6603 35.112C24.002 34.7914 24.4571 34.6197 24.9254 34.6346C25.3937 34.6494 25.8369 34.8498 26.1575 35.1914L33.4285 42.9389L48.2705 26.7027C48.4211 26.5152 48.6085 26.3604 48.8211 26.2479C49.0337 26.1354 49.2671 26.0675 49.5069 26.0485C49.7467 26.0295 49.9878 26.0597 50.2155 26.1372C50.4432 26.2148 50.6527 26.3381 50.831 26.4995C51.0093 26.661 51.1528 26.8572 51.2525 27.0761C51.3522 27.295 51.4061 27.532 51.411 27.7725C51.4158 28.013 51.3714 28.2519 51.2805 28.4746C51.1896 28.6973 51.0541 28.8991 50.8824 29.0676L34.7521 46.7156C34.5891 46.8962 34.3905 47.0412 34.1688 47.1414C33.9471 47.2417 33.7071 47.295 33.4638 47.298H33.4461Z" fill="white"/>
</g>
<defs>
<clipPath id="clip0_5122_7457">
<rect width="72.798" height="72.798" fill="white" transform="translate(0.823242 0.308594)"/>
</clipPath>
</defs>
</svg>
