<svg width="185" height="184" viewBox="0 0 185 184" fill="none" xmlns="http://www.w3.org/2000/svg">
<g clip-path="url(#clip0_2768_24420)">
<path d="M59.104 25.6822C65.5485 23.9554 72.1726 27.7799 73.8994 34.2244C75.6262 40.6689 71.8018 47.293 65.3573 49.0198C58.9128 50.7466 52.2886 46.9222 50.5618 40.4777C48.835 34.0332 52.6595 27.409 59.104 25.6822Z" fill="#E0E0E0"/>
<path d="M25.2255 61.0578L53.8354 99.8448L66.5876 90.5519L49.395 58.6032L25.2255 61.0578ZM4.11762 30.0902L18.3108 50.9755L26.2871 27.3577L4.11762 30.0902ZM21.8418 53.5158L45.408 52.359L38.0583 24.9297L30.888 26.851L21.8418 53.5158ZM52.5991 57.5585L71.3203 86.8134L80.2317 80.1008L66.6356 56.6426L52.5991 57.5585ZM74.12 55.7416L86.089 77.1727L98.591 67.7799L96.047 52.8731L74.12 55.7416ZM104.259 75.525L119.477 74.983L119.896 65.2519L101.99 66.8208L104.259 75.525ZM123.071 74.6928L136.65 75.525L137.983 65.8794L123.071 65.2519L123.071 74.6928ZM101.572 63.9641L121.832 61.8484L140.493 63.1124L144.982 48.9671L100.2 52.4061L101.572 63.9641ZM80.0078 46.3807L96.5589 45.7146L93.1636 33.0434L79.2575 34.5954L80.0078 46.3807ZM79.5113 31.0149L92.1209 29.4931L92.5759 18.7377L76.1662 21.1438L79.5113 31.0149ZM102.234 44.2487L121.667 41.9863L118.931 13.819L100.032 16.9229L102.234 44.2487ZM124.985 41.3153L146.808 39.8147L150.152 20.6094L122.958 13.4174L124.985 41.3153ZM59.7435 27.7273C54.4707 29.1401 51.3416 34.5599 52.7544 39.8326C54.1673 45.1054 59.587 48.2345 64.8598 46.8217C70.1326 45.4088 73.2617 39.9891 71.8488 34.7163C70.436 29.4435 65.0162 26.3144 59.7435 27.7273ZM141.163 75.0737L157.72 70.3862C158.18 70.256 158.503 69.843 158.519 69.3651C158.538 68.7589 158.063 68.2515 157.457 68.2319L141.643 67.7189L141.163 75.0737Z" fill="#F5F5F5"/>
<path d="M81.6068 73.454C81.9279 74.0189 81.7302 74.7373 81.1652 75.0583C80.6002 75.3794 79.8819 75.1817 79.5608 74.6167L77.4678 70.9339C77.1467 70.3689 77.3445 69.6506 77.9095 69.3295C78.4744 69.0084 79.1928 69.2062 79.5138 69.7711L81.6068 73.454ZM77.4209 66.0883C77.742 66.6533 77.5442 67.3716 76.9792 67.6927C76.4143 68.0138 75.696 67.8161 75.3749 67.2511L73.2819 63.5683C72.9608 63.0033 73.1585 62.285 73.7235 61.9639C74.2885 61.6428 75.0068 61.8405 75.3279 62.4055L77.4209 66.0883ZM73.2203 58.7233C73.5446 59.2864 73.351 60.0058 72.7879 60.3302C72.2248 60.6545 71.5053 60.4609 71.181 59.8978L69.0669 56.227C68.7426 55.6639 68.9362 54.9444 69.4994 54.6201C70.0625 54.2958 70.7819 54.4894 71.1063 55.0525L73.2203 58.7233ZM68.3409 53.2692C67.6942 53.3336 67.1178 52.8616 67.0533 52.2149C66.9889 51.5683 67.4609 50.9919 68.1076 50.9274L72.3227 50.5075C72.9693 50.443 73.5458 50.915 73.6102 51.5617C73.6746 52.2083 73.2026 52.7848 72.556 52.8492L68.3409 53.2692ZM76.7711 52.4292C76.1245 52.4937 75.548 52.0217 75.4836 51.375C75.4192 50.7284 75.8912 50.1519 76.5378 50.0875L80.7529 49.6675C81.3996 49.6031 81.976 50.0751 82.0405 50.7217C82.1049 51.3684 81.6329 51.9448 80.9862 52.0093L76.7711 52.4292ZM85.2014 51.5893C84.5547 51.6537 83.9783 51.1817 83.9138 50.5351C83.8494 49.8884 84.3214 49.312 84.9681 49.2475L89.1832 48.8276C89.8298 48.7631 90.4063 49.2351 90.4707 49.8818C90.5351 50.5284 90.0632 51.1049 89.4165 51.1693L85.2014 51.5893ZM93.6316 50.7493C92.985 50.8138 92.4085 50.3418 92.3441 49.6951C92.2797 49.0485 92.7517 48.472 93.3983 48.4076L97.6134 47.9876C98.2601 47.9232 98.8365 48.3952 98.901 49.0418C98.9654 49.6885 98.4934 50.2649 97.8468 50.3294L93.6316 50.7493ZM102.062 49.9094C101.415 49.9738 100.839 49.5019 100.774 48.8552C100.71 48.2085 101.182 47.6321 101.829 47.5677L106.044 47.1477C106.69 47.0833 107.267 47.5553 107.331 48.2019C107.396 48.8486 106.924 49.425 106.277 49.4894L102.062 49.9094ZM110.492 49.0695C109.845 49.1339 109.269 48.6619 109.205 48.0153C109.14 47.3686 109.612 46.7922 110.259 46.7277L114.474 46.3078C115.121 46.2433 115.697 46.7153 115.761 47.362C115.826 48.0086 115.354 48.5851 114.707 48.6495L110.492 49.0695ZM118.922 48.2295C118.276 48.294 117.699 47.822 117.635 47.1753C117.57 46.5287 118.042 45.9522 118.689 45.8878L122.904 45.4678C123.551 45.4034 124.127 45.8754 124.192 46.522C124.256 47.1687 123.784 47.7451 123.138 47.8096L118.922 48.2295ZM127.33 47.4699C126.682 47.518 126.117 47.0316 126.069 46.3835C126.021 45.7354 126.508 45.1711 127.156 45.123L131.38 44.8097C132.028 44.7616 132.592 45.248 132.641 45.8961C132.689 46.5441 132.202 47.1085 131.554 47.1566L127.33 47.4699ZM135.779 46.8432C135.13 46.8913 134.566 46.4049 134.518 45.7568C134.47 45.1087 134.956 44.5444 135.604 44.4963L139.829 44.183C140.477 44.1349 141.041 44.6213 141.089 45.2694C141.137 45.9175 140.651 46.4818 140.003 46.5299L135.779 46.8432ZM144.227 46.2165C143.579 46.2646 143.015 45.7782 142.967 45.1301C142.919 44.482 143.405 43.9177 144.053 43.8696L145.351 43.7734L145.38 43.7716L148.31 43.6251C148.959 43.5926 149.512 44.0925 149.544 44.7415C149.577 45.3905 149.077 45.943 148.428 45.9755L145.497 46.122L145.525 46.1202L144.227 46.2165ZM150.716 41.332C150.599 41.9712 149.986 42.3947 149.346 42.2778C148.707 42.1608 148.284 41.5478 148.401 40.9086L149.163 36.7417C149.28 36.1025 149.893 35.679 150.532 35.7959C151.171 35.9128 151.595 36.5258 151.478 37.1651L150.716 41.332ZM152.24 32.9982C152.123 33.6375 151.51 34.0609 150.871 33.944C150.231 33.8271 149.808 33.2141 149.925 32.5748L150.687 28.408C150.804 27.7687 151.417 27.3453 152.056 27.4622C152.695 27.5791 153.119 28.1921 153.002 28.8313L152.24 32.9982ZM79.6204 83.6056C77.8008 83.6056 76.3258 82.1305 76.3258 80.3109C76.3258 78.4913 77.8008 77.0162 79.6204 77.0162C81.44 77.0162 82.9151 78.4913 82.9151 80.3109C82.9151 82.1305 81.44 83.6056 79.6204 83.6056ZM150.063 24.9292C148.244 24.9292 146.769 23.4541 146.769 21.6345C146.769 19.8149 148.244 18.3398 150.063 18.3398C151.883 18.3398 153.358 19.8149 153.358 21.6345C153.358 23.4541 151.883 24.9292 150.063 24.9292Z" fill="#E0E0E0"/>
<path d="M63.5191 38.6753C68.3961 30.494 70.8346 24.9732 70.8346 22.1127C70.8346 17.5168 67.0767 13.791 62.441 13.791C57.8054 13.791 54.0475 17.5168 54.0475 22.1127C54.0475 24.9732 56.486 30.494 61.3629 38.6753H61.3629C61.7179 39.2707 62.4883 39.4656 63.0837 39.1107C63.2627 39.004 63.4124 38.8543 63.5191 38.6753Z" fill="#F46B07"/>
<path d="M62.5195 27.9113C65.2055 27.9113 67.383 25.6987 67.383 22.9693C67.383 20.24 65.2055 18.0273 62.5195 18.0273C59.8334 18.0273 57.6559 20.24 57.6559 22.9693C57.6559 25.6987 59.8334 27.9113 62.5195 27.9113Z" fill="white"/>
<g clip-path="url(#clip1_2768_24420)">
<g clip-path="url(#clip2_2768_24420)">
<path d="M88.3277 178.836C88.7176 178.836 89.0337 179.152 89.0337 179.542C89.0337 179.932 88.7176 180.248 88.3277 180.248H62.7548C62.3649 180.248 62.0488 179.932 62.0488 179.542C62.0488 179.152 62.3649 178.836 62.7548 178.836H88.3277ZM139.395 180.248H123.314C122.937 180.248 122.608 179.976 122.608 179.651V179.433C122.608 179.107 122.922 178.836 123.314 178.836H139.395C139.771 178.836 140.101 179.107 140.101 179.433V179.651C140.101 179.976 139.787 180.248 139.395 180.248Z" fill="#F46B07"/>
<path d="M88.4903 178.856C88.4381 178.844 88.3836 178.837 88.3277 178.837H62.866C62.8491 178.751 62.8405 178.643 62.843 178.503C62.8606 178.393 62.8628 178.268 62.8963 178.143C63.0977 177.393 63.3418 176.895 64.0556 176.453C64.7694 176.01 65.4981 175.615 66.2574 175.267C69.0577 173.951 70.0146 173.968 71.8558 172.76C72.6178 172.256 73.3184 171.672 73.9728 171.04C74.4091 170.618 75.2997 169.934 76.6448 168.986L90.2888 169.209L88.4903 178.856ZM139.481 178.842C139.452 178.839 139.424 178.837 139.395 178.837H123.368L124.636 170.834L135.869 169.312L139.481 178.842Z" fill="#1D1D1B"/>
<path d="M106.714 118.228C103.049 129.557 100.266 138.174 96.4148 150.077L94.0551 159.691C93.8832 160.646 92.8987 161.288 91.883 161.116L79.9438 159.096C78.928 158.924 78.2404 158 78.4279 157.045C78.8811 154.774 79.2718 152.77 79.6 151.079C80.1626 148.23 80.4282 146.852 80.7408 145.099C80.9283 144.034 81.0846 143.141 81.1783 142.546C84.8038 123.054 88.1481 108.086 89.9608 99.9441C90.7265 96.4526 92.1955 89.8611 97.2431 83.1756C97.5713 82.7528 97.8369 82.4241 97.9932 82.2205C98.2267 81.9815 98.4736 81.7731 98.7283 81.5913C98.7225 81.5352 98.7167 81.4791 98.711 81.4229C99.9818 80.513 101.051 79.4313 106.135 79.1332C106.26 79.1332 106.401 79.1175 106.527 79.1175C111.453 78.9449 116.019 81.5336 118.246 85.6598L122.059 92.7041C122.608 93.7082 123 94.775 123.22 95.8732L136.286 157.944C136.457 158.755 135.967 159.56 135.167 159.78L122.875 163.163C121.871 163.43 120.819 162.88 120.537 161.955L119.58 158.88C116.662 150.643 113.806 142.03 111.061 133.087C109.521 128.056 108.074 123.1 106.714 118.228Z" fill="#F4B607"/>
<path d="M119.279 95.1824C119.279 95.1824 115.608 105.736 118.031 105.97C118.031 105.97 119.37 105.058 120.145 102.521L120.777 97.869L119.279 95.1824Z" fill="#482D1F"/>
<path opacity="0.2" d="M99.463 81.0957C99.4257 81.1229 99.3883 81.15 99.3507 81.1769C99.8526 86.0851 100.561 90.5708 101.079 95.479C101.087 95.5082 101.095 95.5375 101.104 95.5668C101.106 95.624 101.109 95.6763 101.114 95.7234C101.26 97.0595 103.139 104.6 106.752 118.346C102.532 131.389 100.602 137.001 96.3831 150.043L94.0234 159.656C93.8515 160.611 92.867 161.253 91.8512 161.081L79.912 159.061C78.8962 158.889 78.2086 157.965 78.3962 157.01C78.8494 154.74 79.24 152.736 79.5682 151.045C80.1308 148.195 80.3965 146.818 80.709 145.064C80.8965 143.999 81.0528 143.107 81.1466 142.512C84.7721 123.019 88.1163 108.051 89.929 99.9096C90.6948 96.4181 92.1637 89.8266 97.2113 83.1411C97.5395 82.7183 97.8051 82.3896 97.9614 82.186C98.4239 81.7128 98.9387 81.3591 99.463 81.0957V81.0957Z" fill="#F46B07"/>
<path d="M101.912 56.3839C102.468 56.2236 103.05 56.1018 103.655 56.0235L104.543 55.9145C105.643 55.7728 106.671 55.8279 107.619 56.039C107.731 56.0238 107.847 56.0096 107.967 55.9966C109.583 55.8244 111.811 55.887 113.897 56.9984C114.18 57.155 114.815 57.6778 115.391 58.1893C117.108 59.7145 116.737 59.4248 118.839 63.0095C119.357 63.8861 120.007 64.8639 120.493 65.9284C120.496 65.9001 120.501 65.9565 120.493 65.9284C120.57 66.1411 120.612 66.3706 120.612 66.6099C120.612 67.7165 119.716 68.7008 118.607 68.7008C117.663 68.7008 116.782 68.0864 116.568 67.2104C116.611 67.3748 116.627 67.4492 116.627 67.6274C116.627 68.495 116.164 69.285 115.391 69.5637L115.904 74.4231C115.91 74.596 115.913 74.7532 115.934 74.9241C116.014 75.7029 116.015 76.8699 115.448 77.7911C114.659 79.0866 113.483 80.9659 107.698 81.7393C101.477 82.5662 99.772 81.0407 98.6577 79.9474C97.887 79.2061 97.5936 78.2328 97.4788 77.4267C97.4579 77.2558 97.4232 77.1024 97.3866 76.9334L95.8377 69.8738C95.6593 70.7981 94.8443 71.4963 93.8658 71.4963C92.7567 71.4963 91.8576 70.5992 91.8576 69.4926C91.8576 69.0058 92.0316 68.5596 92.3209 68.2124C92.4489 67.4293 92.5769 66.7185 92.7048 66.0801C93.5991 61.791 94.6189 60.3978 94.6189 60.3978C95.1366 59.6777 95.6387 59.2081 95.874 58.9889C97.5998 57.3609 99.7334 56.7191 101.334 56.4687C101.535 56.4337 101.729 56.406 101.912 56.3839Z" fill="#F46B07"/>
<path d="M76.6449 168.988L80.0529 159.116L92.0024 161.146L90.1791 169.786L76.6449 168.988ZM123.942 162.871L133.872 160.117L135.869 169.313L124.636 170.835L123.942 162.871ZM101.417 53.7888C101.374 53.8026 101.331 53.8166 101.287 53.8307C99.9376 54.2691 100.016 54.2377 99.9219 54.2691C98.9178 54.4882 98.0706 54.4099 97.9137 54.3786C96.6115 54.2064 95.2152 51.7175 94.7446 48.2267C94.6975 47.9449 94.6975 47.6631 94.6818 47.3814L94.7289 44.5793C94.7289 43.9532 94.9014 43.3427 95.2152 42.8105C95.2466 42.7478 95.278 42.7009 95.3094 42.6539C95.4192 42.4974 95.529 42.3408 95.6388 42.2156C96.0624 41.7147 96.5645 41.3547 97.0822 41.1042C98.3059 40.6033 99.6866 40.5563 100.455 40.6659C100.565 40.6815 100.91 40.7285 101.397 40.7911C101.852 40.9007 102.291 40.9633 102.746 40.979C102.997 40.9946 103.185 41.2138 103.185 41.4642C103.091 43.8854 103.039 45.2212 103.028 45.4716C103.013 45.8473 103.97 45.0333 104.393 45.0177C105.146 45.002 106.088 46.223 106.323 47.0057C106.574 47.8197 106.276 48.6493 105.774 49.1659C105.413 49.5259 104.989 49.6825 104.707 49.7608C104.581 49.7608 104.44 49.886 104.393 50.0425C104.393 50.0425 104.393 50.0582 104.378 50.0738L105.35 51.9366C105.366 51.9836 105.382 51.9993 105.382 51.9993C105.382 51.9993 105.367 52.0071 105.341 52.0214L105.899 51.9053L106.354 55.8853C106.354 55.8853 105.316 56.1767 104.129 56.3001C103.338 56.3824 102.542 56.4288 101.742 56.4393L101.417 53.7888ZM91.86 69.5877C91.9089 70.6509 92.7883 71.4979 93.866 71.4979C94.8444 71.4979 95.6594 70.7997 95.8379 69.8754L97.3868 76.9349C97.4234 77.1039 97.458 77.2574 97.479 77.4283C97.5585 77.9868 97.7238 78.6256 98.0743 79.2119C95.7371 82.954 92.2792 86.3832 88.008 84.4528C82.6122 82.0141 76.6212 77.5697 70.0352 71.1197C69.7116 70.9435 69.3314 70.714 68.9432 70.4221C67.9414 69.6707 67.486 68.9349 65.9924 66.1329C64.5171 63.3465 63.7367 59.2041 63.9735 58.1709C64.0281 58.0144 64.559 57.3735 65.1783 57.9684C65.8523 58.6102 68.0142 62.1568 68.9796 63.8005C68.9919 63.8213 69.0051 63.8418 69.0192 63.8621C68.7758 62.8236 68.8682 61.8496 69.8618 61.5023C69.8618 61.5023 70.958 63.4663 72.1914 65.6534C72.4242 65.7915 72.6499 65.9423 72.8608 66.1101C75.2288 67.2746 87.4953 73.3094 89.096 74.1574L91.86 69.5877ZM110.118 70.5762C110.296 70.6282 110.486 70.6562 110.681 70.6562C111.79 70.6562 112.689 69.7591 112.689 68.6525C112.689 68.5013 112.673 68.3541 112.641 68.2125L112.646 68.2111C112.873 69.0689 113.656 69.7013 114.588 69.7013C115.697 69.7013 116.596 68.8042 116.596 67.6976C116.596 67.5194 116.573 67.3467 116.529 67.1822L116.622 67.1576C116.836 68.0336 117.628 68.6838 118.573 68.6838C118.899 68.6838 119.207 68.6062 119.479 68.4686C124.097 82.8179 126.708 92.1241 127.312 96.3873C127.346 96.5287 127.372 96.6811 127.389 96.8444C127.658 99.4649 127.064 103.546 125.607 109.087C125.594 109.12 120.985 111.792 117.489 110.051L119.701 97.4187L110.118 70.5762Z" fill="#DB9E75"/>
<path opacity="0.176986" d="M101.742 56.4375C97.9965 57.5851 95.4657 60.4904 94.9226 63.5948C94.7727 64.4333 94.8328 65.3091 95.0292 66.1367L95.8301 69.7868C95.7177 70.7871 94.8671 71.5647 93.8345 71.5647C92.7254 71.5647 91.8264 70.6676 91.8264 69.561C91.8264 69.0679 92.0049 68.6095 92.301 68.2529C92.4562 67.2296 92.4991 67.019 92.6736 66.1485C93.5678 61.8593 94.5876 60.4661 94.5876 60.4661C95.1053 59.7461 95.6285 59.2382 95.8638 59.0191C97.5896 57.3911 99.603 56.7497 101.203 56.4993C101.383 56.468 101.565 56.4489 101.742 56.4375Z" fill="#444444"/>
<path opacity="0.2" d="M91.86 69.5863C91.9089 70.6495 92.7883 71.4965 93.866 71.4965C94.8444 71.4965 95.6594 70.7983 95.8379 69.874L97.3868 76.9335C97.4234 77.1025 97.458 77.256 97.479 77.4269C97.5585 77.9854 97.7238 78.6242 98.0743 79.2105C95.7371 82.9526 92.2792 86.3818 88.008 84.4514C82.6122 82.0127 76.6212 77.5684 70.0352 71.1183C69.7116 70.9421 69.3314 70.7126 68.9432 70.4207C67.9414 69.6693 67.486 68.9335 65.9924 66.1315C64.5171 63.3451 63.7367 59.2027 63.9735 58.1695C64.0281 58.013 64.559 57.3721 65.1783 57.967C65.8523 58.6088 68.0142 62.1554 68.9796 63.7991C68.9919 63.8199 69.0051 63.8404 69.0192 63.8607C68.7758 62.8222 68.8682 61.8482 69.8618 61.5009C69.8618 61.5009 70.958 63.4649 72.1914 65.652C72.4242 65.7901 72.6499 65.9409 72.8608 66.1087C75.2288 67.2732 87.4953 73.308 89.096 74.156L91.86 69.5863Z" fill="#8C2A00"/>
<path d="M64.0272 54.7139C64.4665 54.4791 64.9372 54.4948 65.0784 54.7609L71.7932 66.7987C71.9344 67.0648 71.7148 67.4718 71.2755 67.7222C70.8362 67.9571 70.3655 67.9414 70.2243 67.6753L63.5095 55.6375C63.3526 55.3557 63.5879 54.9487 64.0272 54.7139Z" fill="#474961"/>
<path d="M104.188 49.6573L104.268 49.665C104.472 49.618 105.115 49.5241 105.617 49.0075C106.119 48.5066 106.417 47.6769 106.15 46.8629C105.915 46.0802 105.162 45.4384 104.409 45.4541C103.985 45.4697 103.64 45.6732 103.593 45.7046C103.044 46.0646 102.793 46.5655 102.793 46.5655L102.637 46.9169C102.582 46.8306 102.529 46.7497 102.479 46.6751C101.381 45.4541 100.283 44.2487 99.1687 43.0278C98.5412 43.1843 97.5057 43.3252 96.329 43.0434C95.9525 42.9495 95.623 42.7616 95.3406 42.6051C95.4505 42.4486 95.5603 42.292 95.6701 42.1668C96.0937 41.6659 96.5957 41.3058 97.1135 41.0554C98.3372 40.5544 99.7178 40.5075 100.487 40.6171C100.596 40.6327 100.942 40.6797 101.428 40.7423C101.569 40.7579 101.71 40.7736 101.883 40.7893C102.291 40.8206 102.605 40.8519 102.793 40.8675C105.178 41.0241 106.103 40.7579 107.296 41.4154C107.515 41.5406 108.017 41.8381 108.441 42.3859C109.1 43.2455 109.299 44.2185 109.328 45.0264L109.335 45.0158C109.335 45.0158 110.512 49.0858 108.943 51.1364C108.474 51.7487 108.163 52.2382 107.956 52.6237C108.314 52.8662 108.726 53.1605 109.163 53.5002C110.292 54.4081 109.382 56.2083 107.986 55.8326L106.288 55.3718L106.081 53.5279C104.224 52.4502 104.225 50.2302 104.246 49.7666C104.227 49.7303 104.207 49.6939 104.188 49.6573V49.6573Z" fill="#482D1F"/>
<path d="M101.583 55.2398L103.248 53.3242L101.41 53.7865L101.583 55.2398Z" fill="#482D1F"/>
<path d="M95.7643 47.975C95.7956 48.2411 95.8584 48.7107 95.7329 48.9142C95.5289 49.243 94.9798 48.4916 95.074 47.9593C95.121 47.7402 95.2308 47.6463 95.3564 47.6463C95.5603 47.6306 95.7329 47.7715 95.7643 47.975ZM99.1374 47.6776C99.1688 47.9437 99.2315 48.4133 99.106 48.6168C98.902 48.9455 98.3529 48.1941 98.4471 47.6619C98.4941 47.4428 98.604 47.3488 98.7295 47.3488C98.9334 47.3332 99.106 47.4741 99.1374 47.6776ZM96.5337 48.0079C96.5414 47.9216 96.6177 47.8579 96.704 47.8657C96.7903 47.8735 96.854 47.9498 96.8462 48.0361L96.7056 49.5873C96.7056 49.6072 96.7271 49.6339 96.7333 49.6344C96.8395 49.6426 96.9048 49.6426 97.1727 49.6375C97.2994 49.635 97.3867 49.6339 97.49 49.6339C97.5767 49.6339 97.6469 49.7042 97.6469 49.7908C97.6469 49.8775 97.5767 49.9477 97.49 49.9477C97.3891 49.9477 97.3035 49.9488 97.1787 49.9512C96.8992 49.9565 96.8296 49.9565 96.7213 49.9477C96.5366 49.9477 96.3918 49.7671 96.3925 49.5732L96.5337 48.0079ZM97.7254 50.8396C97.5685 50.9023 97.0664 51.0901 96.8782 50.9023C96.7997 50.824 96.6585 50.5579 96.6585 50.5579C96.6585 50.5579 97.0821 50.5579 97.5842 50.4796C97.8666 50.4326 98.0705 50.37 98.1333 50.4483C98.149 50.464 98.1333 50.5109 98.1333 50.5422C98.1019 50.6988 97.8352 50.8083 97.7254 50.8396Z" fill="#482D1F"/>
<path d="M101.443 46.8378L102.41 46.5852C102.529 46.554 102.649 46.6357 102.677 46.7675C102.705 46.8994 102.632 47.0315 102.512 47.0627L101.598 47.3014C101.631 47.4525 101.648 47.6094 101.648 47.7702C101.648 48.9983 100.65 49.9936 99.4199 49.9936C98.3442 49.9936 97.4464 49.2327 97.2378 48.2205L96.7352 48.2551C96.6861 49.4398 95.7082 50.385 94.5093 50.385C93.279 50.385 92.2815 49.3896 92.2815 48.1616C92.2815 46.9335 93.279 45.9382 94.5093 45.9382C95.6111 45.9382 96.5262 46.7365 96.7053 47.7854L97.1922 47.7519C97.202 46.5323 98.1958 45.5469 99.4199 45.5469C100.317 45.5469 101.09 46.0756 101.443 46.8378ZM96.2572 47.9812C96.1667 47.098 95.4188 46.4089 94.5093 46.4089C93.5387 46.4089 92.7521 47.1937 92.7521 48.1616C92.7521 49.1295 93.5387 49.9143 94.5093 49.9143C95.4799 49.9143 96.2664 49.1295 96.2664 48.1616C96.2664 48.1476 96.2663 48.1336 96.2659 48.1197C96.258 48.0987 96.2529 48.0761 96.2513 48.0525C96.2496 48.0279 96.2518 48.0039 96.2572 47.9812ZM99.4199 49.5229C100.39 49.5229 101.177 48.7381 101.177 47.7702C101.177 46.8024 100.39 46.0175 99.4199 46.0175C98.4493 46.0175 97.6627 46.8024 97.6627 47.7702C97.6627 48.7381 98.4493 49.5229 99.4199 49.5229Z" fill="#482D1F"/>
<path d="M120.642 104.857C120.658 104.728 120.775 104.636 120.904 104.652C121.033 104.668 121.125 104.786 121.109 104.915C121.009 105.723 120.911 106.349 120.678 107.74C120.445 109.125 120.348 109.746 120.249 110.546C120.233 110.675 120.116 110.766 119.987 110.75C119.858 110.734 119.766 110.617 119.782 110.488C119.882 109.679 119.98 109.053 120.213 107.662C120.446 106.278 120.543 105.656 120.642 104.857ZM123.768 103.947C123.792 103.82 123.915 103.736 124.043 103.759C124.17 103.783 124.255 103.906 124.231 104.034C124.067 104.907 123.955 105.587 123.719 107.103C123.482 108.624 123.37 109.307 123.205 110.186C123.181 110.314 123.058 110.398 122.93 110.374C122.803 110.35 122.718 110.227 122.742 110.099C122.906 109.226 123.018 108.546 123.254 107.03C123.491 105.51 123.603 104.827 123.768 103.947ZM108.425 68.752C108.422 68.7483 108.419 68.7446 108.415 68.7406C107.822 68.0153 107.271 67.1297 106.829 66.1188C106.777 65.9997 106.831 65.861 106.95 65.8089C107.069 65.7568 107.208 65.811 107.26 65.9301C107.685 66.9005 108.213 67.7497 108.78 68.4427C108.818 68.4898 108.836 68.5473 108.833 68.6036C108.872 68.6456 108.896 68.7019 108.896 68.7639C108.896 68.814 108.901 68.8653 108.912 68.9264C108.916 68.9533 108.922 68.982 108.93 69.0176C108.934 69.0377 108.95 69.1092 108.951 69.112C109.099 69.6759 109.531 70.1257 110.084 70.3094C110.207 70.3505 110.274 70.4837 110.233 70.607C110.192 70.7304 110.059 70.7971 109.935 70.7561C109.234 70.5226 108.685 69.9509 108.493 69.222C108.494 69.2254 108.475 69.1414 108.47 69.1178C108.461 69.0766 108.454 69.0421 108.448 69.0084C108.433 68.922 108.425 68.844 108.425 68.7639C108.425 68.7599 108.425 68.7559 108.425 68.752Z" fill="#482D1F"/>
</g>
</g>
</g>
<defs>
<clipPath id="clip0_2768_24420">
<rect width="184" height="184" fill="white" transform="translate(0.5)"/>
</clipPath>
<clipPath id="clip1_2768_24420">
<rect width="159.399" height="148.574" fill="white" transform="translate(21.4145 31.6758)"/>
</clipPath>
<clipPath id="clip2_2768_24420">
<rect width="78.1306" height="139.788" fill="white" transform="translate(62.0488 40.4609)"/>
</clipPath>
</defs>
</svg>
