<svg width="48" height="48" viewBox="0 0 48 48" fill="none" xmlns="http://www.w3.org/2000/svg">
<rect width="48" height="48" rx="24" fill="#F5F5F5"/>
<path d="M28 25C28 24.4477 28.4477 24 29 24C29.5523 24 30 24.4477 30 25V27C30 27.5523 29.5523 28 29 28C28.4477 28 28 27.5523 28 27V25Z" fill="#1D1D1B"/>
<path d="M32 19V17C32 15.897 31.103 15 30 15H17C15.346 15 14 16.346 14 18V30C14 32.201 15.794 33 17 33H32C33.103 33 34 32.103 34 31V21C34 19.897 33.103 19 32 19ZM17 17H30V19H17C16.7425 18.9885 16.4994 18.8781 16.3213 18.6918C16.1431 18.5055 16.0437 18.2577 16.0437 18C16.0437 17.7423 16.1431 17.4945 16.3213 17.3082C16.4994 17.1219 16.7425 17.0115 17 17ZM32 31H17.012C16.55 30.988 16 30.805 16 30V20.815C16.314 20.928 16.647 21 17 21H32V31Z" fill="#1D1D1B"/>
</svg>
