<svg width="18" height="18" viewBox="0 0 18 18" fill="none" xmlns="http://www.w3.org/2000/svg">
<path d="M8.99984 0.666016C7.35166 0.666016 5.7405 1.15476 4.37009 2.07044C2.99968 2.98611 1.93158 4.2876 1.30084 5.81032C0.670115 7.33304 0.505087 9.00859 0.82663 10.6251C1.14817 12.2416 1.94185 13.7265 3.10728 14.8919C4.27272 16.0573 5.75758 16.851 7.37409 17.1726C8.9906 17.4941 10.6662 17.3291 12.1889 16.6983C13.7116 16.0676 15.0131 14.9995 15.9288 13.6291C16.8444 12.2587 17.3332 10.6475 17.3332 8.99935C17.3332 7.905 17.1176 6.82137 16.6988 5.81032C16.28 4.79927 15.6662 3.88061 14.8924 3.10679C14.1186 2.33297 13.1999 1.71914 12.1889 1.30035C11.1778 0.881564 10.0942 0.666016 8.99984 0.666016ZM8.99984 15.666C7.6813 15.666 6.39237 15.275 5.29604 14.5425C4.19971 13.8099 3.34523 12.7687 2.84064 11.5506C2.33606 10.3324 2.20404 8.99195 2.46127 7.69875C2.71851 6.40554 3.35345 5.21765 4.2858 4.2853C5.21815 3.35295 6.40603 2.71802 7.69924 2.46078C8.99245 2.20355 10.3329 2.33557 11.5511 2.84015C12.7692 3.34474 13.8104 4.19922 14.543 5.29555C15.2755 6.39188 15.6665 7.68081 15.6665 8.99935C15.6665 10.7675 14.9641 12.4632 13.7139 13.7134C12.4636 14.9636 10.768 15.666 8.99984 15.666Z" fill="#757575"/>
<path d="M8.99984 6.49935C9.46008 6.49935 9.83317 6.12625 9.83317 5.66602C9.83317 5.20578 9.46008 4.83268 8.99984 4.83268C8.5396 4.83268 8.16651 5.20578 8.16651 5.66602C8.16651 6.12625 8.5396 6.49935 8.99984 6.49935Z" fill="#757575"/>
<path d="M8.99984 7.33268C8.77883 7.33268 8.56687 7.42048 8.41059 7.57676C8.25431 7.73304 8.16651 7.945 8.16651 8.16602V12.3327C8.16651 12.5537 8.25431 12.7657 8.41059 12.9219C8.56687 13.0782 8.77883 13.166 8.99984 13.166C9.22085 13.166 9.43282 13.0782 9.5891 12.9219C9.74538 12.7657 9.83317 12.5537 9.83317 12.3327V8.16602C9.83317 7.945 9.74538 7.73304 9.5891 7.57676C9.43282 7.42048 9.22085 7.33268 8.99984 7.33268Z" fill="#757575"/>
</svg>
