<svg width="24" height="24" viewBox="0 0 24 24" fill="none" xmlns="http://www.w3.org/2000/svg">
<path d="M22.5601 16.3007L14.8901 3.58067C14.58 3.09549 14.1527 2.69619 13.6476 2.41961C13.1425 2.14302 12.5759 1.99805 12.0001 1.99805C11.4243 1.99805 10.8577 2.14302 10.3526 2.41961C9.84755 2.69619 9.42024 3.09549 9.1101 3.58067L1.4401 16.3007C1.16915 16.7523 1.02189 17.2674 1.01311 17.794C1.00434 18.3206 1.13436 18.8402 1.3901 19.3007C1.68578 19.8189 2.11376 20.2494 2.6303 20.5481C3.14684 20.8468 3.73343 21.0029 4.3301 21.0007H19.6701C20.2629 21.007 20.8468 20.8569 21.363 20.5654C21.8792 20.2739 22.3093 19.8515 22.6101 19.3407C22.8734 18.8754 23.0075 18.3483 22.9987 17.8139C22.9899 17.2794 22.8385 16.757 22.5601 16.3007ZM20.8601 18.3507C20.7399 18.5573 20.5655 18.727 20.3557 18.8416C20.146 18.9562 19.9089 19.0112 19.6701 19.0007H4.3301C4.09132 19.0112 3.85422 18.9562 3.64446 18.8416C3.4347 18.727 3.26029 18.5573 3.1401 18.3507C3.05233 18.1987 3.00613 18.0262 3.00613 17.8507C3.00613 17.6751 3.05233 17.5027 3.1401 17.3507L10.8201 4.62067C10.9581 4.43838 11.1365 4.29053 11.3412 4.18874C11.5459 4.08695 11.7715 4.03398 12.0001 4.03398C12.2287 4.03398 12.4543 4.08695 12.659 4.18874C12.8637 4.29053 13.0421 4.43838 13.1801 4.62067L20.8501 17.3407C20.9413 17.493 20.9902 17.6668 20.992 17.8443C20.9937 18.0218 20.9482 18.1966 20.8601 18.3507Z" fill="#1D1D1B"/>
<path d="M12.0001 17.0007C12.5524 17.0007 13.0001 16.553 13.0001 16.0007C13.0001 15.4484 12.5524 15.0007 12.0001 15.0007C11.4478 15.0007 11.0001 15.4484 11.0001 16.0007C11.0001 16.553 11.4478 17.0007 12.0001 17.0007Z" fill="#1D1D1B"/>
<path d="M12.0001 8.00067C11.7349 8.00067 11.4805 8.10603 11.293 8.29356C11.1055 8.4811 11.0001 8.73545 11.0001 9.00067V13.0007C11.0001 13.2659 11.1055 13.5202 11.293 13.7078C11.4805 13.8953 11.7349 14.0007 12.0001 14.0007C12.2653 14.0007 12.5197 13.8953 12.7072 13.7078C12.8947 13.5202 13.0001 13.2659 13.0001 13.0007V9.00067C13.0001 8.73545 12.8947 8.4811 12.7072 8.29356C12.5197 8.10603 12.2653 8.00067 12.0001 8.00067Z" fill="#1D1D1B"/>
</svg>
