<svg width="24" height="24" viewBox="0 0 24 24" fill="none" xmlns="http://www.w3.org/2000/svg">
<rect y="4" width="24" height="16" rx="4" fill="#F4B607"/>
<path fill-rule="evenodd" clip-rule="evenodd" d="M11.738 7.07417C11.8987 6.97528 12.1013 6.97528 12.262 7.07417L17.137 10.0742C17.3276 10.1914 17.417 10.4209 17.3561 10.6362C17.2952 10.8514 17.0987 11 16.875 11H15.875V13.375H16.5C16.7761 13.375 17 13.5989 17 13.875C17 14.1511 16.7761 14.375 16.5 14.375H7.5C7.22386 14.375 7 14.1511 7 13.875C7 13.5989 7.22386 13.375 7.5 13.375H8.125V11H7.125C6.9013 11 6.70482 10.8514 6.6439 10.6362C6.58298 10.4209 6.67244 10.1914 6.86295 10.0742L11.738 7.07417ZM9.125 11V13.375H10.375V11H9.125ZM11.375 11V13.375H12.625V11H11.375ZM8.89152 10L12 8.08709L15.1085 10H8.89152ZM13.625 11V13.375H14.875V11H13.625ZM6.25 15.75C6.25 15.4739 6.47386 15.25 6.75 15.25H17.25C17.5261 15.25 17.75 15.4739 17.75 15.75C17.75 16.0261 17.5261 16.25 17.25 16.25H6.75C6.47386 16.25 6.25 16.0261 6.25 15.75Z" fill="#1D1D1B"/>
</svg>
