<svg width="48" height="48" viewBox="0 0 48 48" fill="none" xmlns="http://www.w3.org/2000/svg">
<rect width="48" height="48" rx="24" fill="#F5F5F5"/>
<path d="M16 23L32 23M32.25 32.25H30C29.8011 32.25 29.6103 32.171 29.4697 32.0303C29.329 31.8897 29.25 31.6989 29.25 31.5V29.25H18.75V31.5C18.75 31.6989 18.671 31.8897 18.5303 32.0303C18.3897 32.171 18.1989 32.25 18 32.25H15.75C15.5511 32.25 15.3603 32.171 15.2197 32.0303C15.079 31.8897 15 31.6989 15 31.5V23.25L17.802 16.9453C17.8609 16.8127 17.9571 16.7001 18.0787 16.6211C18.2004 16.542 18.3424 16.5 18.4875 16.5H29.5127C29.6577 16.5 29.7997 16.5421 29.9213 16.6211C30.043 16.7001 30.1391 16.8128 30.198 16.9453L33 23.25V31.5C33 31.6989 32.921 31.8897 32.7803 32.0303C32.6397 32.171 32.4489 32.25 32.25 32.25Z" stroke="#1D1D1B" stroke-width="2" stroke-linecap="round" stroke-linejoin="round"/>
</svg>
