<svg width="97" height="96" viewBox="0 0 97 96" fill="none" xmlns="http://www.w3.org/2000/svg">
<rect x="2.5" y="16" width="92.8172" height="64.2581" rx="6.19355" fill="#F4B607"/>
<rect x="75.6828" y="23.1387" width="12.4946" height="12.4946" rx="6.24731" fill="#1D1D1B"/>
<rect x="9.63959" y="46.3438" width="78.5376" height="7.13978" rx="2" fill="#F4A707"/>
<rect x="9.63965" y="57.0547" width="27.6667" height="7.13978" rx="2" fill="#F4A707"/>
<path fill-rule="evenodd" clip-rule="evenodd" d="M11.9622 23.1406H16.7789V29.3878L9.63959 29.3878V25.4632C9.63959 24.1805 10.6794 23.1406 11.9622 23.1406ZM9.63959 30.2803V34.2051C9.63959 35.4879 10.6794 36.5277 11.9622 36.5277H22.489C23.7718 36.5277 24.8116 35.4879 24.8116 34.2051V30.2803H17.6714V36.5275H16.7789V30.2803H9.63959ZM17.6714 29.3878L24.8116 29.3878V25.4632C24.8116 24.1805 23.7718 23.1406 22.4891 23.1406H17.6714V29.3878Z" fill="#F4A707"/>
</svg>
