<svg width="24" height="24" viewBox="0 0 24 24" fill="none" xmlns="http://www.w3.org/2000/svg">
<path d="M14.48 17.0002C14.6116 17.0009 14.7421 16.9757 14.8639 16.9259C14.9857 16.8762 15.0966 16.8029 15.19 16.7102C15.2837 16.6172 15.3581 16.5066 15.4089 16.3848C15.4597 16.2629 15.4858 16.1322 15.4858 16.0002C15.4858 15.8682 15.4597 15.7375 15.4089 15.6156C15.3581 15.4937 15.2837 15.3831 15.19 15.2902L11.88 12.0002L15.06 8.69017C15.2462 8.50281 15.3508 8.24936 15.3508 7.98517C15.3508 7.72099 15.2462 7.46754 15.06 7.28017C14.967 7.18644 14.8564 7.11205 14.7346 7.06128C14.6127 7.01051 14.482 6.98438 14.35 6.98438C14.218 6.98438 14.0873 7.01051 13.9654 7.06128C13.8436 7.11205 13.733 7.18644 13.64 7.28017L9.78 11.2802C9.59677 11.4671 9.49414 11.7184 9.49414 11.9802C9.49414 12.2419 9.59677 12.4932 9.78 12.6802L13.78 16.6802C13.8698 16.7771 13.9778 16.8553 14.098 16.9102C14.2181 16.9651 14.348 16.9957 14.48 17.0002Z" fill="#9E9E9E"/>
</svg>
