<svg width="20" height="19" viewBox="0 0 20 19" fill="none" xmlns="http://www.w3.org/2000/svg">
<path d="M2 8L18 8M18.25 17.25H16C15.8011 17.25 15.6103 17.171 15.4697 17.0303C15.329 16.8897 15.25 16.6989 15.25 16.5V14.25H4.75V16.5C4.75 16.6989 4.67098 16.8897 4.53033 17.0303C4.38968 17.171 4.19891 17.25 4 17.25H1.75C1.55109 17.25 1.36032 17.171 1.21967 17.0303C1.07902 16.8897 1 16.6989 1 16.5V8.25L3.802 1.94531C3.86094 1.81273 3.95708 1.7001 4.07875 1.62106C4.20042 1.54202 4.34241 1.49997 4.4875 1.5H15.5127C15.6577 1.5 15.7997 1.54207 15.9213 1.62111C16.043 1.70015 16.1391 1.81276 16.198 1.94531L19 8.25V16.5C19 16.6989 18.921 16.8897 18.7803 17.0303C18.6397 17.171 18.4489 17.25 18.25 17.25Z" stroke="#1D1D1B" stroke-width="2" stroke-linecap="round" stroke-linejoin="round"/>
</svg>
