<svg width="48" height="48" viewBox="0 0 48 48" fill="none" xmlns="http://www.w3.org/2000/svg">
<rect width="48" height="48" rx="24" fill="#F5F5F5"/>
<path d="M24 18.75V20.25M24 27.75V29.25M21.75 27.75H25.125C25.6223 27.75 26.0992 27.5525 26.4508 27.2008C26.8025 26.8492 27 26.3723 27 25.875C27 25.3777 26.8025 24.9008 26.4508 24.5492C26.0992 24.1975 25.6223 24 25.125 24H22.875C22.3777 24 21.9008 23.8025 21.5492 23.4508C21.1975 23.0992 21 22.6223 21 22.125C21 21.6277 21.1975 21.1508 21.5492 20.7992C21.9008 20.4475 22.3777 20.25 22.875 20.25H26.25M33 24C33 28.9706 28.9706 33 24 33C19.0294 33 15 28.9706 15 24C15 19.0294 19.0294 15 24 15C28.9706 15 33 19.0294 33 24Z" stroke="#1B1C1E" stroke-width="2" stroke-linecap="round" stroke-linejoin="round"/>
</svg>
