<svg width="12" height="12" viewBox="0 0 12 12" fill="none" xmlns="http://www.w3.org/2000/svg">
<path d="M10.9333 2.89324L9.10667 1.06657C8.86826 0.842636 8.55586 0.714144 8.22889 0.70554C7.90191 0.696935 7.58319 0.808818 7.33333 1.01991L1.33333 7.01991C1.11784 7.23722 0.983669 7.52204 0.953333 7.82657L0.666666 10.6066C0.657685 10.7042 0.670356 10.8026 0.703774 10.8948C0.737191 10.987 0.790534 11.0707 0.859999 11.1399C0.922293 11.2017 0.99617 11.2506 1.0774 11.2838C1.15862 11.3169 1.2456 11.3337 1.33333 11.3332H1.39333L4.17333 11.0799C4.47786 11.0496 4.76269 10.9154 4.98 10.6999L10.98 4.69991C11.2129 4.45388 11.3387 4.12558 11.33 3.78693C11.3212 3.44828 11.1786 3.12691 10.9333 2.89324ZM4.05333 9.74657L2.05333 9.93324L2.23333 7.93324L6 4.21324L7.8 6.01324L4.05333 9.74657ZM8.66667 5.11991L6.88 3.33324L8.18 1.99991L10 3.81991L8.66667 5.11991Z" fill="#1D1D1B"/>
</svg>
