<svg width="221" height="152" viewBox="0 0 221 152" fill="none" xmlns="http://www.w3.org/2000/svg">
<g clip-path="url(#clip0_4631_16642)">
<path d="M61.0472 97.2578H46.48V97.3674H61.0472V97.2578Z" fill="#EBEBEB"/>
<path d="M93.6957 101.273H75.7726V101.383H93.6957V101.273Z" fill="#EBEBEB"/>
<path d="M46.0402 99.9023H23.5737V100.012H46.0402V99.9023Z" fill="#EBEBEB"/>
<path d="M198.38 97.9922H157.414V98.1018H198.38V97.9922Z" fill="#EBEBEB"/>
<path d="M153.499 97.9922H150.715V98.1018H153.499V97.9922Z" fill="#EBEBEB"/>
<path d="M140.999 99.8477H122.425V99.9573H140.999V99.8477Z" fill="#EBEBEB"/>
<path d="M110.458 114.076C157.556 114.076 195.736 111.854 195.736 109.112C195.736 106.371 157.556 104.148 110.458 104.148C63.3595 104.148 25.1789 106.371 25.1789 109.112C25.1789 111.854 63.3595 114.076 110.458 114.076Z" fill="#F5F5F5"/>
<path d="M118.814 74.0859H105.267C99.4573 74.0859 94.7511 81.6854 94.7511 91.0608C94.7511 100.436 99.4573 108.036 105.267 108.036H118.814C124.624 108.036 129.335 100.436 129.335 91.0608C129.335 81.6854 124.616 74.0859 118.814 74.0859Z" fill="#757575"/>
<path opacity="0.2" d="M118.814 74.0859H105.267C99.4573 74.0859 94.7511 81.6854 94.7511 91.0608C94.7511 100.436 99.4573 108.036 105.267 108.036H118.814C124.624 108.036 129.335 100.436 129.335 91.0608C129.335 81.6854 124.616 74.0859 118.814 74.0859Z" fill="black"/>
<path d="M57.6514 74.0859H44.1047C38.2945 74.0859 33.5883 81.6854 33.5883 91.0608C33.5883 100.436 38.2945 108.036 44.1047 108.036H57.6514C63.4616 108.036 68.1722 100.436 68.1722 91.0608C68.1722 81.6854 63.4616 74.0859 57.6514 74.0859Z" fill="#757575"/>
<path opacity="0.2" d="M57.6514 74.0859H44.1047C38.2945 74.0859 33.5883 81.6854 33.5883 91.0608C33.5883 100.436 38.2945 108.036 44.1047 108.036H57.6514C63.4616 108.036 68.1722 100.436 68.1722 91.0608C68.1722 81.6854 63.4616 74.0859 57.6514 74.0859Z" fill="black"/>
<path d="M186.948 61.207L190.027 63.8381C190.744 64.4517 191.277 65.2501 191.569 66.1457C191.86 67.0414 191.899 67.9999 191.681 68.9161L190.977 71.8761L186.948 61.207Z" fill="#9E9E9E"/>
<path d="M192.547 78.4271C192.015 72.6362 190.495 66.9786 188.052 61.6978L186.988 59.4219H161.35L174.646 97.5726C179.324 96.4078 183.657 94.1535 187.291 90.9949L187.599 90.7318C189.342 89.2172 190.698 87.3122 191.559 85.1731C192.419 83.0341 192.758 80.7221 192.547 78.4271Z" fill="#407BFF"/>
<path d="M192.547 78.4271C192.015 72.6362 190.495 66.9786 188.052 61.6978L186.988 59.4219H161.35L174.646 97.5726C179.324 96.4078 183.657 94.1535 187.291 90.9949L187.599 90.7318C189.342 89.2172 190.698 87.3122 191.559 85.1731C192.419 83.0341 192.758 80.7221 192.547 78.4271Z" fill="#E0E0E0"/>
<path d="M158.504 108.036C152.694 108.036 147.984 100.436 147.984 91.0608C147.984 81.6854 152.694 74.0859 158.504 74.0859H172.003V108.036H158.504Z" fill="#757575"/>
<path d="M172.051 108.036C177.862 108.036 182.572 100.436 182.572 91.0608C182.572 81.6858 177.862 74.0859 172.051 74.0859C166.241 74.0859 161.53 81.6858 161.53 91.0608C161.53 100.436 166.241 108.036 172.051 108.036Z" fill="#757575"/>
<path opacity="0.2" d="M172.051 101.798C176.127 101.798 179.432 96.9916 179.432 91.0629C179.432 85.1343 176.127 80.3281 172.051 80.3281C167.975 80.3281 164.671 85.1343 164.671 91.0629C164.671 96.9916 167.975 101.798 172.051 101.798Z" fill="black"/>
<path d="M81.7101 97.5728L56.4111 57.0935C56.4111 57.0935 76.4277 36.9219 120.147 36.9219C157.999 36.9219 180.667 49.3845 187.001 59.4264L172.003 74.0903C157.488 74.0903 157.567 89.4383 155.575 95.9064C155.424 96.3934 155.119 96.8189 154.707 97.1198C154.294 97.4208 153.795 97.5811 153.284 97.5772H81.7101" fill="#407BFF"/>
<path d="M81.7101 97.5728L56.4111 57.0935C56.4111 57.0935 76.4277 36.9219 120.147 36.9219C157.999 36.9219 180.667 49.3845 187.001 59.4264L172.003 74.0903C157.488 74.0903 157.567 89.4383 155.575 95.9064C155.424 96.3934 155.119 96.8189 154.707 97.1198C154.294 97.4208 153.795 97.5811 153.284 97.5772H81.7101" fill="#E0E0E0"/>
<path d="M97.3504 108.036C91.5402 108.036 86.8297 100.436 86.8297 91.0608C86.8297 81.6854 91.5446 74.0859 97.3504 74.0859H110.849V108.036H97.3504Z" fill="#757575"/>
<path d="M110.897 108.036C116.708 108.036 121.418 100.436 121.418 91.0608C121.418 81.6858 116.708 74.0859 110.897 74.0859C105.087 74.0859 100.376 81.6858 100.376 91.0608C100.376 100.436 105.087 108.036 110.897 108.036Z" fill="#757575"/>
<path opacity="0.2" d="M110.898 101.798C114.974 101.798 118.278 96.9916 118.278 91.0629C118.278 85.1343 114.974 80.3281 110.898 80.3281C106.821 80.3281 103.517 85.1343 103.517 91.0629C103.517 96.9916 106.821 101.798 110.898 101.798Z" fill="black"/>
<path d="M92.376 94.2315C93.6647 86.6452 101.252 74.0862 110.849 74.0862L120.134 57.0938H56.4111C52.3471 57.0938 33.3465 63.939 26.4279 70.8368C21.5898 75.6604 21.084 80.5236 20.5122 92.8897C20.3979 95.4111 22.7246 97.6037 25.5219 97.6037C49.0352 97.6037 77.4922 97.6958 87.8502 97.7265C90.1373 97.7133 92.0329 96.2618 92.376 94.2315Z" fill="#407BFF"/>
<path d="M92.376 94.2315C93.6647 86.6452 101.252 74.0862 110.849 74.0862L120.134 57.0938H56.4111C52.3471 57.0938 33.3465 63.939 26.4279 70.8368C21.5898 75.6604 21.084 80.5236 20.5122 92.8897C20.3979 95.4111 22.7246 97.6037 25.5219 97.6037C49.0352 97.6037 77.4922 97.6958 87.8502 97.7265C90.1373 97.7133 92.0329 96.2618 92.376 94.2315Z" fill="#E0E0E0"/>
<path d="M120.134 36.918C76.6828 36.918 56.8553 56.7827 56.4067 57.0896H100.363C100.363 57.0896 119.276 40.7988 131.798 37.3302C128.095 37.0612 124.206 36.9238 120.134 36.918Z" fill="#F5F5F5"/>
<path d="M65.7794 74.433C71.8095 72.1527 90.0229 65.7548 94.9885 67.4168C99.9542 69.0787 87.9293 75.0162 84.8988 75.8055C81.8684 76.5949 79.8848 75.0118 75.3501 77.2C70.8155 79.3882 58.4739 77.1869 65.7794 74.433Z" fill="#9E9E9E"/>
<path d="M140.48 97.8025C140.433 97.8024 140.387 97.7886 140.348 97.763C140.298 97.7284 140.263 97.6754 140.252 97.6155C140.24 97.5556 140.253 97.4937 140.287 97.4429C140.379 97.3114 149.29 83.9323 149.29 57.0996C149.29 57.038 149.315 56.9788 149.358 56.9353C149.402 56.8917 149.461 56.8672 149.523 56.8672C149.554 56.8672 149.584 56.8732 149.612 56.8849C149.64 56.8967 149.665 56.9139 149.686 56.9355C149.708 56.9572 149.724 56.9828 149.736 57.011C149.747 57.0392 149.752 57.0693 149.752 57.0996C149.752 84.0945 140.762 97.5745 140.669 97.706C140.648 97.7364 140.62 97.7612 140.587 97.778C140.554 97.7948 140.517 97.8032 140.48 97.8025Z" fill="#9E9E9E"/>
<path d="M43.9288 77.0909H43.8804L31.7719 74.3107C31.7391 74.3079 31.7073 74.298 31.6787 74.2818C31.6501 74.2656 31.6253 74.2435 31.606 74.2169C31.5868 74.1902 31.5735 74.1598 31.5672 74.1276C31.5608 74.0954 31.5615 74.0622 31.5692 74.0303C31.5768 73.9984 31.5913 73.9685 31.6117 73.9427C31.632 73.9169 31.6577 73.8957 31.6869 73.8807C31.7162 73.8657 31.7484 73.8572 31.7813 73.8557C31.8141 73.8542 31.8469 73.8598 31.8775 73.8722L43.942 76.6348L63.8971 74.3633C63.9296 74.3507 63.9646 74.3456 63.9993 74.3486C64.0341 74.3515 64.0677 74.3623 64.0976 74.3802C64.1276 74.3981 64.153 74.4226 64.172 74.4518C64.1909 74.481 64.203 74.5141 64.2071 74.5486C64.2113 74.5832 64.2075 74.6182 64.1959 74.651C64.1844 74.6839 64.1656 74.7136 64.1407 74.7381C64.1159 74.7625 64.0858 74.781 64.0527 74.792C64.0196 74.8031 63.9844 74.8064 63.9498 74.8018L43.9552 77.0909H43.9288Z" fill="#9E9E9E"/>
<path d="M172.003 74.3189C171.972 74.3195 171.941 74.3135 171.912 74.3014C171.883 74.2894 171.857 74.2714 171.836 74.2488C171.814 74.2272 171.797 74.2015 171.785 74.1733C171.773 74.1451 171.767 74.1149 171.767 74.0843C171.767 74.0538 171.773 74.0235 171.785 73.9953C171.797 73.9671 171.814 73.9415 171.836 73.9199C176.062 69.7847 178.319 60.1286 178.319 54.748C178.318 54.7177 178.324 54.6876 178.335 54.6594C178.346 54.6313 178.363 54.6056 178.384 54.584C178.405 54.5623 178.431 54.5451 178.459 54.5334C178.487 54.5217 178.517 54.5156 178.547 54.5156C178.609 54.5156 178.669 54.5401 178.712 54.5837C178.756 54.6273 178.781 54.6864 178.781 54.748C178.781 60.2119 176.48 70.0303 172.161 74.2532C172.118 74.2936 172.062 74.317 172.003 74.3189Z" fill="#9E9E9E"/>
<path d="M137.929 61.7083H143.959C144.184 61.7071 144.399 61.6176 144.558 61.4591C144.717 61.3007 144.807 61.0861 144.808 60.862C144.807 60.6378 144.717 60.4232 144.558 60.2648C144.399 60.1063 144.184 60.0168 143.959 60.0156H137.929C137.704 60.0168 137.489 60.1063 137.33 60.2648C137.171 60.4232 137.081 60.6378 137.08 60.862C137.081 61.0861 137.171 61.3007 137.33 61.4591C137.489 61.6176 137.704 61.7071 137.929 61.7083Z" fill="#9E9E9E"/>
<path d="M164.385 61.7083H170.411C170.636 61.7083 170.853 61.6193 171.012 61.4607C171.172 61.3021 171.263 61.0868 171.264 60.862C171.263 60.6371 171.172 60.4218 171.012 60.2632C170.853 60.1046 170.636 60.0156 170.411 60.0156H164.385C164.16 60.0168 163.945 60.1063 163.786 60.2648C163.627 60.4232 163.537 60.6378 163.536 60.862C163.537 61.0861 163.627 61.3007 163.786 61.4591C163.945 61.6176 164.16 61.7071 164.385 61.7083Z" fill="#9E9E9E"/>
<path d="M31.3936 74.6548C30.1533 73.9006 28.1168 72.7078 25.8121 71.4844C24.5512 72.8134 23.541 74.3583 22.8301 76.0449C23.742 76.2549 24.5917 76.6755 25.3107 77.2728C28.2488 79.5267 36.1261 77.5315 31.3936 74.6548Z" fill="#9E9E9E"/>
<path d="M108.153 57.095H169.588C172.729 57.0957 175.816 56.2876 178.552 54.749C178.552 54.749 168.612 45.7419 148.595 41.8611C140.37 40.2649 132.572 39.6466 130.175 39.8C124.457 42.7907 115.7 49.1229 108.153 57.095Z" fill="#F5F5F5"/>
<path d="M71.3124 94.7636H27.6197C27.3845 94.7644 27.1541 94.6973 26.9563 94.5704C26.7585 94.4435 26.6018 94.2622 26.505 94.0484C26.4083 93.8347 26.3757 93.5976 26.4112 93.3658C26.4466 93.1339 26.5486 92.9173 26.7049 92.742L27.8352 91.4703C27.9504 91.342 28.0913 91.2393 28.249 91.1691C28.4066 91.0988 28.5774 91.0625 28.7501 91.0625H70.1732C70.3453 91.0625 70.5154 91.0989 70.6723 91.1692C70.8292 91.2395 70.9694 91.3421 71.0837 91.4703L72.2141 92.742C72.3696 92.9165 72.4714 93.1319 72.5073 93.3625C72.5432 93.5931 72.5117 93.8292 72.4166 94.0425C72.3215 94.2557 72.1668 94.4372 71.9709 94.565C71.7751 94.6929 71.5465 94.7618 71.3124 94.7636Z" fill="#9E9E9E"/>
</g>
<g clip-path="url(#clip1_4631_16642)">
<path d="M129.913 26.8653C129.965 27.9973 130.901 28.899 132.049 28.899C133.09 28.899 133.958 28.1557 134.148 27.1716L135.797 34.6876C135.836 34.8676 135.873 35.0309 135.895 35.2129C135.98 35.8075 136.156 36.4877 136.529 37.1119C134.041 41.0959 130.359 44.7468 125.812 42.6916C120.067 40.0953 113.689 35.3635 106.677 28.4964C106.332 28.3088 105.928 28.0645 105.514 27.7537C104.448 26.9537 103.963 26.1704 102.373 23.1872C100.802 20.2206 99.9712 15.8103 100.223 14.7104C100.281 14.5437 100.847 13.8614 101.506 14.4948C102.224 15.1781 104.525 18.954 105.553 20.704C105.566 20.7261 105.58 20.7479 105.595 20.7695C105.336 19.6639 105.435 18.627 106.492 18.2572C106.492 18.2572 107.659 20.3482 108.973 22.6767C109.22 22.8237 109.461 22.9842 109.685 23.1629C112.206 24.4027 125.266 30.8277 126.97 31.7306L129.913 26.8653Z" fill="#F2A98A"/>
<path d="M179.95 151.945H162.829C162.428 151.945 162.078 151.656 162.078 151.309V151.077C162.078 150.73 162.412 150.441 162.829 150.441H179.95C180.351 150.441 180.702 150.73 180.702 151.077V151.309C180.702 151.656 180.368 151.945 179.95 151.945ZM140.614 150.441C141.029 150.441 141.365 150.778 141.365 151.193C141.365 151.608 141.029 151.945 140.614 151.945H113.387C112.972 151.945 112.636 151.608 112.636 151.193C112.636 150.778 112.972 150.441 113.387 150.441H140.614Z" fill="#F46B07"/>
<path d="M180.041 150.446C180.011 150.442 179.981 150.441 179.95 150.441H162.887L164.237 141.92L176.196 140.3L180.041 150.446ZM140.713 150.447C140.681 150.443 140.647 150.441 140.614 150.441H113.506C113.488 150.349 113.479 150.234 113.481 150.085C113.5 149.968 113.502 149.835 113.538 149.702C113.752 148.903 114.012 148.373 114.772 147.902C115.532 147.431 116.308 147.01 117.116 146.64C120.098 145.239 121.116 145.256 123.077 143.971C123.888 143.434 124.634 142.812 125.331 142.139C125.795 141.691 126.743 140.962 128.175 139.953L141.053 140.242L140.713 150.447Z" fill="#1D1D1B"/>
<path d="M158.839 48.0868C160.11 50.5618 163.551 58.2419 166.623 73.8755C166.876 75.1724 167.118 76.4352 167.351 77.6612L167.375 77.633C171.585 93.4953 174.507 104.6 176.141 110.947C177.82 117.466 175.492 117.364 176.765 122.848C177.499 126.01 179.958 128.553 179.937 131.846C179.933 132.366 179.946 133.405 179.974 134.965C180.025 137.751 177.989 140.137 175.23 140.524L164.086 142.091C161.072 142.514 158.284 140.414 157.861 137.399C157.857 137.371 157.853 137.344 157.85 137.316C157.549 134.911 157.397 133.481 157.393 133.027C157.385 132.085 157.373 131.228 157.355 130.447C156.713 127.819 156.044 125.084 155.505 122.88C154.779 121.757 153.924 120.206 153.25 117.696C152.807 116.044 151.8 109.617 150.228 98.4127C150.198 98.2624 150.14 97.7991 150.056 97.023L147.856 88.9253C147.764 89.8712 147.67 90.828 147.576 91.7932C147.77 105.213 147.765 112.752 147.56 114.41C146.918 119.628 144.995 121.064 144.939 122.704C144.884 124.31 145.128 126.651 145.592 130.169C145.651 130.619 145.7 132.056 145.736 134.479C145.737 134.507 145.737 134.535 145.737 134.563C145.737 137.003 144.152 139.073 141.955 139.798C140.573 141.056 138.348 140.099 132.506 140.139C132.506 140.139 131.607 140.147 130.419 140.075L128.971 140.075C128.114 140.075 127.298 139.879 126.57 139.526C125.879 139.332 125.308 139.078 124.989 138.743C124.723 138.456 124.556 138.13 124.556 138.13C124.477 137.953 124.42 137.778 124.379 137.613C123.917 136.917 123.607 136.109 123.5 135.231C123.311 133.682 123.179 132.651 123.103 132.136C122.624 128.879 124.705 126.019 124.992 122.785C125.489 117.177 123.198 117.602 123.953 110.913C124.681 104.461 126.06 97.0126 128.088 88.5691C129.261 75.2708 130.805 60.3287 132.506 55.3077C132.534 55.218 133.595 51.659 135.129 49.1466C135.176 49.197 135.224 49.2455 135.274 49.2918C135.466 49.4722 135.657 49.6025 135.848 49.6995C136.23 49.9267 136.546 50.0047 136.546 50.0047C136.546 50.0047 136.561 50.0044 136.577 50.0208C136.577 50.0208 146.818 52.5818 156.979 49.6647L157.01 49.6475C157.01 49.6475 157.323 49.5585 157.697 49.3181C157.868 49.2149 158.07 49.061 158.256 48.8907C158.488 48.6631 158.68 48.389 158.839 48.0868Z" fill="#F4B607"/>
<path opacity="0.176986" d="M137.32 50.1842L142.666 69.8988L147.85 88.9784C147.76 89.9069 147.669 90.846 147.576 91.7932C147.77 105.213 147.765 112.752 147.56 114.41C146.918 119.628 144.995 121.064 144.939 122.704C144.884 124.31 145.128 126.651 145.592 130.169C145.651 130.619 145.7 132.056 145.736 134.479C145.737 134.507 145.737 134.535 145.737 134.563C145.737 137.003 144.152 139.073 141.955 139.798C140.573 141.056 138.348 140.099 132.506 140.139C132.506 140.139 131.607 140.147 130.419 140.076L128.971 140.076C128.114 140.076 127.298 139.879 126.57 139.526C125.879 139.332 125.308 139.078 124.989 138.743C124.723 138.456 124.556 138.13 124.556 138.13C124.477 137.953 124.42 137.778 124.379 137.613C123.917 136.918 123.607 136.109 123.5 135.231C123.311 133.682 123.179 132.651 123.103 132.136C122.624 128.879 124.705 126.019 124.992 122.785C125.489 117.177 123.198 117.602 123.953 110.913C124.681 104.461 126.06 97.0126 128.088 88.5691C129.261 75.2708 130.805 60.3287 132.506 55.3077C132.534 55.218 133.595 51.659 135.129 49.1466C135.176 49.197 135.224 49.2455 135.274 49.2918C135.466 49.4722 135.657 49.6025 135.848 49.6995C136.23 49.9267 136.546 50.0047 136.546 50.0047C136.546 50.0047 136.561 50.0044 136.577 50.0208C136.577 50.0208 136.839 50.0862 137.32 50.1842Z" fill="#444444"/>
<path d="M159.016 27.118C159.035 27.3099 159.054 27.5083 159.072 27.7128L159.073 27.7629L159.119 28.5807C159.388 37.6807 159.522 41.7713 159.598 43.3738C159.598 43.3738 159.585 43.541 159.605 43.7913C159.649 44.5256 159.718 47.5481 158.325 48.9089C158.139 49.0792 157.938 49.2331 157.766 49.3363C157.393 49.5767 157.08 49.6657 157.08 49.6657L157.049 49.6829C146.888 52.6001 136.647 50.0391 136.647 50.0391C136.647 50.0391 136.235 49.9475 135.853 49.7203C135.663 49.6234 135.461 49.4831 135.269 49.3027C133.845 47.9911 133.884 44.9753 133.903 44.2399C133.898 44.0061 133.895 43.8224 133.895 43.8224C133.913 42.2939 133.907 38.5819 133.865 30.5288C129.876 30.1588 128.261 29.0081 129.02 27.0767C130.745 22.6895 131.887 18.4798 138.725 17.9934C140.402 17.1569 142.234 16.8769 143.509 16.7916C144.248 16.7453 144.799 16.7524 145.019 16.7652C145.114 16.7636 145.24 16.7781 145.476 16.7907C145.712 16.8033 145.98 16.8153 146.279 16.8268C146.578 16.8049 146.845 16.7835 147.08 16.7627C147.316 16.7418 147.426 16.7232 147.536 16.7213C147.772 16.7005 148.306 16.6744 149.046 16.6949C149.222 16.7006 149.41 16.7094 149.606 16.7225C149.705 16.6998 149.805 16.6775 149.907 16.6555C156.934 15.1388 159.156 18.9787 162.01 22.8402C163.152 24.3858 162.154 25.8117 159.016 27.118Z" fill="#F46B07"/>
<path opacity="0.176986" d="M138.618 17.9922C137.642 18.4843 136.72 19.1663 135.992 20.1097C135.669 20.533 135.255 21.175 134.941 22.0993C134.896 22.2338 134.851 22.3515 134.806 22.4859C134.701 22.7718 134.476 23.3771 134.283 24.032C134.075 24.7707 133.911 26.1768 133.803 28.1333L133.804 28.1834L133.787 29.0023C133.79 29.5181 133.793 30.0177 133.795 30.5017C129.904 30.1183 128.334 28.9719 129.085 27.0624C130.795 22.7121 131.932 18.5362 138.618 17.9922Z" fill="#444444"/>
<path d="M157.64 68.1352C157.64 68.1352 157.723 68.087 157.862 67.9789L156.748 72.4794C160.332 74.5938 165.426 72.0928 165.441 72.0588C167.4 66.269 168.334 61.9693 168.242 59.1599C168.236 58.9848 168.22 58.8207 168.194 58.6676C167.852 53.8398 165.559 42.8888 161.316 25.8148C159.756 27.0338 156.533 28.1597 151.647 29.1927L159.517 57.3472C158.583 59.6459 155.448 67.7672 157.64 68.1352Z" fill="#F2A98A"/>
<path d="M136.449 2.03712C136.443 2.04669 136.436 2.05613 136.428 2.06545L136.411 2.08346C136.226 2.24873 136.07 2.45072 135.909 2.70254C135.514 3.26564 135.295 3.9144 135.242 4.58062L134.996 7.56111C134.981 7.86187 134.966 8.16263 135.001 8.46863C135.145 10.6167 135.641 12.4492 136.286 13.6591C136.762 14.5657 137.341 15.1304 137.933 15.243C138.096 15.2937 138.99 15.4212 140.064 15.2654C140.167 15.2427 140.079 15.2838 141.547 14.9006C141.713 14.8592 141.869 14.8196 142.015 14.7814L142.217 18.3166C142.222 18.4502 142.327 18.5802 142.461 18.6089C143.136 18.7859 144.329 18.9782 145.704 18.6127C146.466 18.4189 147.073 18.0969 147.498 17.8147C147.596 17.7611 147.642 17.6425 147.638 17.5256L147.266 12.1347C147.65 11.7939 148.046 11.4168 148.331 11.0789C148.714 10.6321 149.932 9.5845 150.43 7.72218C150.58 7.09966 151.119 5.00652 149.979 3.22403C149.575 2.59373 149.075 2.23884 148.855 2.09812C147.679 1.3027 146.667 1.4987 144.203 1.13888C144.005 1.10131 143.673 1.06639 143.261 0.98952C142.502 0.85937 141.977 0.737052 141.83 0.704727C140.614 0.44263 137.915 0.394094 136.449 2.03712Z" fill="#F2A98A"/>
<path d="M141.745 14.8391L144.205 14.0538L142.192 17.1299L141.745 14.8391Z" fill="#482D1F"/>
<path d="M147.745 8.09223C147.762 7.68749 147.679 7.27204 147.461 6.88972C147.008 6.08632 146.055 5.56627 145.23 5.74825C144.766 5.85062 144.43 6.16804 144.393 6.19777C143.885 6.71543 143.723 7.30298 143.723 7.30298L143.641 7.69298C137.655 5.40924 136.494 2.52696 136.182 2.34519C136.277 2.23763 136.371 2.14669 136.43 2.06887C137.912 0.427595 140.661 0.481369 141.893 0.745211C142.057 0.779283 142.582 0.901601 143.357 1.0335C143.786 1.11212 144.118 1.14704 144.316 1.1846C146.83 1.54966 147.858 1.3554 149.051 2.15257C149.271 2.29329 149.788 2.64992 150.192 3.28022C151.452 5.19297 150.878 7.29923 150.66 7.78012C150.507 8.11675 150.266 8.32662 150.266 8.32662C149.381 8.19399 148.557 8.13524 147.745 8.09223ZM134.571 6.72997C134.406 6.68787 134.367 6.4684 134.49 6.35776C134.647 6.23218 134.921 6.11272 135.255 6.13021C135.939 6.16605 136.649 6.65488 135.871 6.81484C135.415 6.908 134.884 6.8133 134.571 6.72997ZM138.001 7.02681C137.836 6.98471 137.797 6.76524 137.937 6.65547C138.094 6.5299 138.368 6.41044 138.718 6.4288C139.402 6.46464 140.112 6.97016 139.335 7.11343C138.844 7.22152 138.315 7.11014 138.001 7.02681Z" fill="#482D1F"/>
<path d="M135.811 7.96553C135.779 8.24822 135.705 8.71265 135.529 8.87072C135.233 9.10606 134.909 8.25281 135.153 7.74708C135.248 7.53461 135.367 7.50736 135.499 7.53104C135.698 7.57489 135.822 7.76537 135.811 7.96553ZM138.799 8.08865C138.8 8.37309 138.776 8.84014 138.599 9.03157C138.334 9.30202 137.908 8.47688 138.103 7.95185C138.181 7.7385 138.301 7.69458 138.434 7.70158C138.634 7.71207 138.792 7.88761 138.799 8.08865Z" fill="#482D1F"/>
<path d="M137.251 11.4358C137.37 11.4086 137.658 11.34 137.717 11.1592C137.719 11.1258 137.738 11.0766 137.723 11.0424C137.663 10.9222 137.459 10.9784 137.158 10.9793C136.623 10.9847 136.191 10.9119 136.191 10.9119C136.191 10.9119 136.291 11.2517 136.369 11.3561C136.523 11.6151 137.065 11.4762 137.251 11.4358Z" fill="#482D1F"/>
<path d="M136.293 8.02357L136.296 8.0005L136.293 8.01194L136.293 8.02357ZM135.952 9.77219C135.911 9.95866 136.047 10.151 136.235 10.1927C136.277 10.1987 136.277 10.1987 136.304 10.2022C136.584 10.2386 136.759 10.2559 137.062 10.2717C137.154 10.2765 137.232 10.2058 137.237 10.1137C137.242 10.0215 137.171 9.94294 137.079 9.93811C136.786 9.92278 136.619 9.90631 136.347 9.87094L136.293 9.86395C136.292 9.86319 136.278 9.84322 136.279 9.84005L136.624 8.06413L136.626 8.04106L136.678 7.05691C136.683 6.96479 136.612 6.8862 136.52 6.88137C136.428 6.87654 136.349 6.94731 136.344 7.03943L136.293 8.01194L135.952 9.77219Z" fill="#482D1F"/>
<path d="M147.733 7.83393C147.758 8.32867 147.615 8.84937 147.349 9.25227C147.024 9.76107 146.615 10.0142 146.103 10.1882C146.016 10.2179 145.969 10.3128 145.999 10.4001C146.029 10.4875 146.124 10.5342 146.211 10.5045C146.436 10.428 146.616 10.3503 146.83 10.2181C147.144 10.0235 147.417 9.76656 147.629 9.43415C147.933 8.97415 148.095 8.38317 148.067 7.81714C148.062 7.725 147.984 7.65407 147.892 7.65871C147.8 7.66335 147.729 7.74179 147.733 7.83393Z" fill="#482D1F"/>
<path d="M160.497 67.1452C160.523 67.0094 160.655 66.9207 160.79 66.9472C160.926 66.9737 161.015 67.1053 160.988 67.2411C160.822 68.0941 160.672 68.7529 160.321 70.2164C159.972 71.673 159.822 72.3269 159.658 73.1707C159.631 73.3065 159.5 73.3951 159.364 73.3687C159.228 73.3422 159.14 73.2106 159.166 73.0748C159.332 72.2218 159.483 71.563 159.834 70.0995C160.183 68.6429 160.332 67.989 160.497 67.1452ZM163.884 66.4102C163.919 66.2763 164.056 66.196 164.19 66.2308C164.324 66.2656 164.404 66.4024 164.369 66.5363C164.131 67.4537 163.962 68.1689 163.598 69.7649C163.234 71.3657 163.064 72.0844 162.824 73.0083C162.789 73.1422 162.652 73.2225 162.518 73.1877C162.384 73.1529 162.304 73.0161 162.339 72.8821C162.577 71.9648 162.746 71.2496 163.11 69.6536C163.474 68.0527 163.644 67.3341 163.884 66.4102Z" fill="#482D1F"/>
<path d="M100.28 11.0312C100.748 10.7813 101.249 10.7979 101.4 11.0812L108.549 23.8974C108.699 24.1807 108.465 24.614 107.997 24.8807C107.53 25.1307 107.029 25.114 106.878 24.8307L99.7292 12.0145C99.5622 11.7145 99.8127 11.2812 100.28 11.0312Z" fill="#1D1D1B"/>
</g>
<defs>
<clipPath id="clip0_4631_16642">
<rect width="219.915" height="77.617" fill="white" transform="translate(0.5 36.6523)"/>
</clipPath>
<clipPath id="clip1_4631_16642">
<rect width="81.178" height="152" fill="white" transform="translate(99.6774)"/>
</clipPath>
</defs>
</svg>
