<svg width="16" height="20" viewBox="0 0 16 20" fill="none" xmlns="http://www.w3.org/2000/svg">
<path d="M11 14.0002H5C4.73478 14.0002 4.48043 14.1055 4.29289 14.2931C4.10536 14.4806 4 14.735 4 15.0002C4 15.2654 4.10536 15.5198 4.29289 15.7073C4.48043 15.8948 4.73478 16.0002 5 16.0002H11C11.2652 16.0002 11.5196 15.8948 11.7071 15.7073C11.8946 15.5198 12 15.2654 12 15.0002C12 14.735 11.8946 14.4806 11.7071 14.2931C11.5196 14.1055 11.2652 14.0002 11 14.0002Z" fill="#1D1D1B"/>
<path d="M5 12.0002H8C8.26522 12.0002 8.51957 11.8948 8.70711 11.7073C8.89464 11.5198 9 11.2654 9 11.0002C9 10.735 8.89464 10.4806 8.70711 10.2931C8.51957 10.1055 8.26522 10.0002 8 10.0002H5C4.73478 10.0002 4.48043 10.1055 4.29289 10.2931C4.10536 10.4806 4 10.735 4 11.0002C4 11.2654 4.10536 11.5198 4.29289 11.7073C4.48043 11.8948 4.73478 12.0002 5 12.0002Z" fill="#1D1D1B"/>
<path d="M15.74 6.33018L10.3 0.33018C10.2065 0.226587 10.0924 0.143709 9.96492 0.0868754C9.83747 0.0300414 9.69954 0.000509805 9.56 0.000179976H2.56C2.22775 -0.00378312 1.89797 0.05774 1.5895 0.181236C1.28103 0.304732 0.999904 0.487783 0.762182 0.719934C0.524459 0.952085 0.334794 1.22879 0.204018 1.53425C0.0732421 1.8397 0.00391638 2.16793 0 2.50018V17.5002C0.00391638 17.8324 0.0732421 18.1607 0.204018 18.4661C0.334794 18.7716 0.524459 19.0483 0.762182 19.2804C0.999904 19.5126 1.28103 19.6956 1.5895 19.8191C1.89797 19.9426 2.22775 20.0041 2.56 20.0002H13.44C13.7723 20.0041 14.102 19.9426 14.4105 19.8191C14.719 19.6956 15.0001 19.5126 15.2378 19.2804C15.4755 19.0483 15.6652 18.7716 15.796 18.4661C15.9268 18.1607 15.9961 17.8324 16 17.5002V7.00018C15.9994 6.75234 15.9067 6.51358 15.74 6.33018ZM10 3.00018L12.74 6.00018H10.74C10.6353 5.99386 10.5329 5.96674 10.4387 5.92041C10.3446 5.87408 10.2607 5.80947 10.1918 5.73034C10.1229 5.65122 10.0704 5.55916 10.0375 5.45955C10.0046 5.35994 9.99184 5.25477 10 5.15018V3.00018ZM13.44 18.0002H2.56C2.49037 18.0042 2.42063 17.9945 2.35477 17.9715C2.28892 17.9486 2.22824 17.9129 2.17621 17.8664C2.12419 17.82 2.08184 17.7637 2.0516 17.7009C2.02137 17.638 2.00383 17.5698 2 17.5002V2.50018C2.00383 2.43054 2.02137 2.36234 2.0516 2.2995C2.08184 2.23665 2.12419 2.18039 2.17621 2.13394C2.22824 2.08749 2.28892 2.05176 2.35477 2.02881C2.42063 2.00586 2.49037 1.99613 2.56 2.00018H8V5.15018C7.98386 5.8868 8.25975 6.59991 8.76747 7.13385C9.27518 7.6678 9.9735 7.97923 10.71 8.00018H14V17.5002C13.9962 17.5698 13.9786 17.638 13.9484 17.7009C13.9182 17.7637 13.8758 17.82 13.8238 17.8664C13.7718 17.9129 13.7111 17.9486 13.6452 17.9715C13.5794 17.9945 13.5096 18.0042 13.44 18.0002Z" fill="#1D1D1B"/>
</svg>
