<svg width="48" height="48" viewBox="0 0 48 48" fill="none" xmlns="http://www.w3.org/2000/svg">
<rect width="48" height="48" rx="24" fill="#F5F5F5"/>
<path d="M34 24C34 22.6868 33.7413 21.3864 33.2388 20.1732C32.7362 18.9599 31.9997 17.8575 31.0711 16.9289C30.1425 16.0003 29.0401 15.2638 27.8268 14.7612C26.6136 14.2587 25.3132 14 24 14C21.3478 14 18.8043 15.0536 16.9289 16.9289C15.0536 18.8043 14 21.3478 14 24C14 26.6522 15.0536 29.1957 16.9289 31.0711C18.8043 32.9464 21.3478 34 24 34C26.6522 34 29.1957 32.9464 31.0711 31.0711C32.9464 29.1957 34 26.6522 34 24ZM31.93 23H29C28.8351 20.6481 28.0293 18.3864 26.67 16.46C28.0665 16.956 29.2977 17.8301 30.2265 18.9848C31.1553 20.1396 31.745 21.5297 31.93 23ZM21.08 25H27C26.7441 27.4706 25.6911 29.7908 24 31.61C22.3101 29.7984 21.2812 27.4693 21.08 25ZM21.08 23C21.3129 20.5418 22.3376 18.2257 24 16.4C25.7047 18.2061 26.7601 20.528 27 23H21.08ZM21.44 16.43C20.0735 18.367 19.2548 20.6367 19.07 23H16.07C16.2589 21.5115 16.8626 20.1061 17.8122 18.9444C18.7617 17.7826 20.0189 16.9113 21.44 16.43ZM16.07 25H19.07C19.2347 27.3613 20.0479 29.6313 21.42 31.56C20.004 31.0763 18.752 30.2052 17.8063 29.0456C16.8606 27.886 16.259 26.4844 16.07 25ZM26.62 31.55C27.9884 29.6207 28.8107 27.3577 29 25H31.95C31.7609 26.4802 31.1615 27.8781 30.2196 29.0356C29.2778 30.193 28.0309 31.064 26.62 31.55Z" fill="#1D1D1B"/>
</svg>
