<svg width="48" height="48" viewBox="0 0 48 48" fill="none" xmlns="http://www.w3.org/2000/svg">
<rect width="48" height="48" rx="24" fill="#F5F5F5"/>
<path d="M24 14C21.8921 13.9999 19.8693 14.8318 18.3712 16.3148C16.8732 17.7978 16.0211 19.8122 16 21.92C16 27.4 23.05 33.5 23.35 33.76C23.5311 33.9149 23.7616 34.0001 24 34.0001C24.2384 34.0001 24.4689 33.9149 24.65 33.76C25 33.5 32 27.4 32 21.92C31.9789 19.8122 31.1268 17.7978 29.6288 16.3148C28.1307 14.8318 26.1079 13.9999 24 14ZM24 31.65C22.33 30.06 18 25.65 18 21.92C18 20.3287 18.6321 18.8026 19.7574 17.6774C20.8826 16.5521 22.4087 15.92 24 15.92C25.5913 15.92 27.1174 16.5521 28.2426 17.6774C29.3679 18.8026 30 20.3287 30 21.92C30 25.62 25.67 30.06 24 31.65Z" fill="#1D1D1B"/>
<path d="M24 18C23.3078 18 22.6311 18.2053 22.0555 18.5899C21.4799 18.9744 21.0313 19.5211 20.7664 20.1606C20.5015 20.8001 20.4322 21.5039 20.5673 22.1828C20.7023 22.8617 21.0356 23.4854 21.5251 23.9749C22.0146 24.4644 22.6382 24.7977 23.3172 24.9327C23.9961 25.0678 24.6999 24.9985 25.3394 24.7336C25.9789 24.4687 26.5256 24.0201 26.9101 23.4445C27.2947 22.8689 27.5 22.1922 27.5 21.5C27.5 20.5717 27.1313 19.6815 26.4749 19.0251C25.8185 18.3687 24.9283 18 24 18ZM24 23C23.7033 23 23.4133 22.912 23.1666 22.7472C22.92 22.5824 22.7277 22.3481 22.6142 22.074C22.5006 21.7999 22.4709 21.4983 22.5288 21.2074C22.5867 20.9164 22.7296 20.6491 22.9393 20.4393C23.1491 20.2296 23.4164 20.0867 23.7074 20.0288C23.9983 19.9709 24.2999 20.0006 24.574 20.1142C24.8481 20.2277 25.0824 20.42 25.2472 20.6666C25.412 20.9133 25.5 21.2033 25.5 21.5C25.5 21.8978 25.342 22.2794 25.0607 22.5607C24.7794 22.842 24.3978 23 24 23Z" fill="#1D1D1B"/>
</svg>
