<svg width="24" height="24" viewBox="0 0 24 24" fill="none" xmlns="http://www.w3.org/2000/svg">
<rect y="4" width="24" height="16" rx="4" fill="#1D1D1B"/>
<path fill-rule="evenodd" clip-rule="evenodd" d="M12.2857 15.7049C11.4081 16.4412 10.2697 16.8857 9.02575 16.8857C6.2501 16.8857 4 14.6727 4 11.9429C4 9.213 6.2501 7 9.02575 7C10.2697 7 11.4081 7.44449 12.2857 8.1808C13.1633 7.4445 14.3017 7.00001 15.5456 7.00001C18.3213 7.00001 20.5714 9.21301 20.5714 11.9429C20.5714 14.6727 18.3213 16.8857 15.5456 16.8857C14.3017 16.8857 13.1633 16.4412 12.2857 15.7049Z" fill="#ED0006"/>
<path fill-rule="evenodd" clip-rule="evenodd" d="M12.2857 15.7049C13.3663 14.7983 14.0515 13.4493 14.0515 11.9429C14.0515 10.4364 13.3663 9.08739 12.2857 8.18078C13.1633 7.44449 14.3017 7 15.5456 7C18.3213 7 20.5714 9.213 20.5714 11.9429C20.5714 14.6727 18.3213 16.8857 15.5456 16.8857C14.3017 16.8857 13.1633 16.4412 12.2857 15.7049Z" fill="#F9A000"/>
<path fill-rule="evenodd" clip-rule="evenodd" d="M12.2857 15.7058C13.3663 14.7991 14.0515 13.4501 14.0515 11.9437C14.0515 10.4373 13.3663 9.08825 12.2857 8.18164C11.2051 9.08825 10.5199 10.4373 10.5199 11.9437C10.5199 13.4501 11.2051 14.7991 12.2857 15.7058Z" fill="#FF5E00"/>
</svg>
