<svg width="34" height="33" viewBox="0 0 34 33" fill="none" xmlns="http://www.w3.org/2000/svg">
<path d="M26.2666 31.9997C26.0001 32.0008 25.7372 31.9379 25.5 31.8164L17 27.3664L8.49997 31.8164C8.22396 31.9615 7.91277 32.0263 7.60177 32.0034C7.29076 31.9804 6.99243 31.8707 6.74068 31.6867C6.48894 31.5026 6.29387 31.2517 6.17766 30.9623C6.06145 30.6729 6.02876 30.3567 6.0833 30.0497L7.74997 20.6664L0.883304 13.9997C0.669067 13.7859 0.51709 13.5178 0.443683 13.2242C0.370277 12.9306 0.378212 12.6225 0.466637 12.333C0.563237 12.0368 0.740931 11.7736 0.979554 11.5733C1.21818 11.373 1.50817 11.2435 1.81664 11.1997L11.3166 9.81635L15.5 1.26636C15.6364 0.98457 15.8495 0.746926 16.1148 0.580645C16.3801 0.414364 16.6869 0.326172 17 0.326172C17.3131 0.326172 17.6198 0.414364 17.8851 0.580645C18.1504 0.746926 18.3635 0.98457 18.5 1.26636L22.7333 9.79969L32.2333 11.183C32.5418 11.2269 32.8318 11.3563 33.0704 11.5566C33.309 11.7569 33.4867 12.0201 33.5833 12.3164C33.6717 12.6058 33.6797 12.9139 33.6063 13.2075C33.5329 13.5011 33.3809 13.7692 33.1666 13.983L26.3 20.6497L27.9666 30.033C28.0261 30.3455 27.995 30.6684 27.8769 30.9638C27.7587 31.2591 27.5585 31.5145 27.3 31.6997C26.9982 31.9112 26.6348 32.0167 26.2666 31.9997Z" fill="#F4B607"/>
</svg>
