<svg width="10" height="12" viewBox="0 0 10 12" fill="none" xmlns="http://www.w3.org/2000/svg">
<path d="M5 5.33333C5.52741 5.33333 6.04298 5.17694 6.48152 4.88392C6.92005 4.5909 7.26184 4.17443 7.46367 3.68716C7.66551 3.19989 7.71832 2.66371 7.61542 2.14643C7.51253 1.62914 7.25855 1.15399 6.88561 0.78105C6.51267 0.40811 6.03752 0.154134 5.52024 0.0512405C5.00295 -0.0516535 4.46678 0.00115542 3.97951 0.202989C3.49224 0.404823 3.07576 0.746616 2.78274 1.18515C2.48973 1.62368 2.33333 2.13925 2.33333 2.66667C2.33333 3.37391 2.61428 4.05219 3.11438 4.55229C3.61447 5.05238 4.29275 5.33333 5 5.33333ZM5 1.33333C5.2637 1.33333 5.52149 1.41153 5.74076 1.55804C5.96002 1.70455 6.13092 1.91279 6.23183 2.15642C6.33275 2.40006 6.35916 2.66815 6.30771 2.92679C6.25626 3.18543 6.12927 3.42301 5.9428 3.60948C5.75633 3.79595 5.51876 3.92293 5.26012 3.97438C5.00147 4.02583 4.73339 3.99942 4.48975 3.89851C4.24612 3.79759 4.03788 3.62669 3.89137 3.40743C3.74486 3.18816 3.66666 2.93038 3.66666 2.66667C3.66666 2.31305 3.80714 1.97391 4.05719 1.72386C4.30723 1.47381 4.64637 1.33333 5 1.33333Z" fill="#1D1D1B"/>
<path d="M5 6.66667C3.76232 6.66667 2.57533 7.15833 1.70016 8.0335C0.824993 8.90867 0.333328 10.0957 0.333328 11.3333C0.333328 11.5101 0.403566 11.6797 0.528591 11.8047C0.653615 11.9298 0.823184 12 0.999995 12C1.17681 12 1.34638 11.9298 1.4714 11.8047C1.59642 11.6797 1.66666 11.5101 1.66666 11.3333C1.66666 10.4493 2.01785 9.60143 2.64297 8.97631C3.26809 8.35119 4.11594 8 5 8C5.88405 8 6.7319 8.35119 7.35702 8.97631C7.98214 9.60143 8.33333 10.4493 8.33333 11.3333C8.33333 11.5101 8.40357 11.6797 8.52859 11.8047C8.65361 11.9298 8.82318 12 9 12C9.17681 12 9.34638 11.9298 9.4714 11.8047C9.59642 11.6797 9.66666 11.5101 9.66666 11.3333C9.66666 10.0957 9.175 8.90867 8.29983 8.0335C7.42466 7.15833 6.23767 6.66667 5 6.66667Z" fill="#1D1D1B"/>
</svg>
