<svg width="72" height="72" viewBox="0 0 72 72" fill="none" xmlns="http://www.w3.org/2000/svg">
<g clip-path="url(#clip0_2656_42098)">
<rect width="72" height="72" rx="36" fill="#F5F5F5"/>
<path d="M63.8333 64.5877C63.8333 73.5594 51.2708 80.8325 35.7741 80.8325C20.2774 80.8325 7.71484 73.5594 7.71484 64.5877C7.71484 55.6159 20.2774 48.3429 35.7741 48.3429C51.2708 48.3429 63.8333 55.6159 63.8333 64.5877Z" fill="#9E9E9E"/>
<path d="M48.8577 30.8571C48.8577 37.9579 43.1014 43.7143 36.0006 43.7143C28.8998 43.7143 23.1434 37.9579 23.1434 30.8571C23.1434 23.7563 28.8998 18 36.0006 18C43.1014 18 48.8577 23.7563 48.8577 30.8571Z" fill="#9E9E9E"/>
</g>
<defs>
<clipPath id="clip0_2656_42098">
<rect width="72" height="72" rx="36" fill="white"/>
</clipPath>
</defs>
</svg>
