<svg width="20" height="20" viewBox="0 0 20 20" fill="none" xmlns="http://www.w3.org/2000/svg">
<path d="M10 0C8.02219 0 6.08879 0.58649 4.4443 1.6853C2.79981 2.78412 1.51809 4.3459 0.761209 6.17317C0.00433284 8.00043 -0.193701 10.0111 0.192152 11.9509C0.578004 13.8907 1.53041 15.6725 2.92894 17.0711C4.32746 18.4696 6.10929 19.422 8.0491 19.8079C9.98891 20.1937 11.9996 19.9957 13.8268 19.2388C15.6541 18.4819 17.2159 17.2002 18.3147 15.5557C19.4135 13.9112 20 11.9778 20 10C20 8.68678 19.7413 7.38642 19.2388 6.17317C18.7363 4.95991 17.9997 3.85752 17.0711 2.92893C16.1425 2.00035 15.0401 1.26375 13.8268 0.761205C12.6136 0.258658 11.3132 0 10 0ZM10 18C8.41775 18 6.87104 17.5308 5.55544 16.6518C4.23985 15.7727 3.21447 14.5233 2.60897 13.0615C2.00347 11.5997 1.84504 9.99113 2.15372 8.43928C2.4624 6.88743 3.22433 5.46197 4.34315 4.34315C5.46197 3.22433 6.88743 2.4624 8.43928 2.15372C9.99113 1.84504 11.5997 2.00346 13.0615 2.60896C14.5233 3.21447 15.7727 4.23984 16.6518 5.55544C17.5308 6.87103 18 8.41775 18 10C18 12.1217 17.1572 14.1566 15.6569 15.6569C14.1566 17.1571 12.1217 18 10 18Z" fill="#757575"/>
<path d="M10 4C9.07175 4 8.18151 4.36875 7.52513 5.02513C6.86875 5.6815 6.5 6.57174 6.5 7.5C6.5 7.76522 6.60536 8.01957 6.7929 8.20711C6.98043 8.39464 7.23479 8.5 7.5 8.5C7.76522 8.5 8.01958 8.39464 8.20711 8.20711C8.39465 8.01957 8.5 7.76522 8.5 7.5C8.5 7.20333 8.58798 6.91332 8.7528 6.66665C8.91762 6.41997 9.15189 6.22771 9.42598 6.11418C9.70007 6.00065 10.0017 5.97094 10.2926 6.02882C10.5836 6.0867 10.8509 6.22956 11.0607 6.43934C11.2704 6.64912 11.4133 6.91639 11.4712 7.20736C11.5291 7.49834 11.4994 7.79994 11.3858 8.07403C11.2723 8.34811 11.08 8.58238 10.8334 8.7472C10.5867 8.91203 10.2967 9 10 9C9.73479 9 9.48043 9.10536 9.2929 9.29289C9.10536 9.48043 9 9.73478 9 10V12C9 12.2652 9.10536 12.5196 9.2929 12.7071C9.48043 12.8946 9.73479 13 10 13C10.2652 13 10.5196 12.8946 10.7071 12.7071C10.8946 12.5196 11 12.2652 11 12V10.84C11.8081 10.604 12.5037 10.0839 12.9585 9.37544C13.4133 8.66702 13.5967 7.81807 13.475 6.98507C13.3532 6.15206 12.9344 5.39116 12.2958 4.84259C11.6572 4.29402 10.8418 3.99478 10 4Z" fill="#757575"/>
<path d="M10 16C10.5523 16 11 15.5523 11 15C11 14.4477 10.5523 14 10 14C9.44772 14 9 14.4477 9 15C9 15.5523 9.44772 16 10 16Z" fill="#757575"/>
</svg>
