<svg width="48" height="48" viewBox="0 0 48 48" fill="none" xmlns="http://www.w3.org/2000/svg">
<rect width="48" height="48" rx="24" fill="#F5F5F5"/>
<path d="M29.56 33.0002C29.4001 33.0008 29.2423 32.9631 29.1 32.8902L24 30.2202L18.9 32.8902C18.7344 32.9773 18.5477 33.0162 18.3611 33.0024C18.1745 32.9887 17.9955 32.9228 17.8444 32.8124C17.6934 32.702 17.5763 32.5514 17.5066 32.3778C17.4369 32.2041 17.4173 32.0144 17.45 31.8302L18.45 26.2002L14.33 22.2002C14.2015 22.0719 14.1103 21.9111 14.0662 21.7349C14.0222 21.5587 14.027 21.3739 14.08 21.2002C14.138 21.0225 14.2446 20.8646 14.3878 20.7444C14.5309 20.6242 14.7049 20.5465 14.89 20.5202L20.59 19.6902L23.1 14.5602C23.1819 14.3911 23.3097 14.2485 23.4689 14.1488C23.6281 14.049 23.8122 13.9961 24 13.9961C24.1879 13.9961 24.3719 14.049 24.5311 14.1488C24.6903 14.2485 24.8181 14.3911 24.9 14.5602L27.44 19.6802L33.14 20.5102C33.3251 20.5365 33.4991 20.6142 33.6423 20.7344C33.7854 20.8546 33.892 21.0125 33.95 21.1902C34.0031 21.3639 34.0078 21.5487 33.9638 21.7249C33.9197 21.9011 33.8286 22.0619 33.7 22.1902L29.58 26.1902L30.58 31.8202C30.6157 32.0077 30.597 32.2015 30.5261 32.3787C30.4553 32.5559 30.3352 32.7091 30.18 32.8202C29.9989 32.9471 29.7809 33.0104 29.56 33.0002ZM24 28.1002C24.1603 28.0962 24.3189 28.1341 24.46 28.2102L28.23 30.2102L27.51 26.0002C27.4821 25.8395 27.4939 25.6743 27.5444 25.5192C27.595 25.364 27.6827 25.2236 27.8 25.1102L30.8 22.1802L26.6 21.5602C26.446 21.5292 26.3014 21.4623 26.1781 21.365C26.0547 21.2677 25.956 21.1428 25.89 21.0002L24 17.2502L22.11 21.0002C22.0377 21.1439 21.9317 21.268 21.8011 21.362C21.6706 21.4561 21.5192 21.5172 21.36 21.5402L17.16 22.1602L20.16 25.0902C20.2773 25.2036 20.365 25.344 20.4156 25.4992C20.4661 25.6543 20.4779 25.8195 20.45 25.9802L19.73 30.1402L23.5 28.1402C23.6598 28.0808 23.8329 28.067 24 28.1002Z" fill="#1D1D1B"/>
</svg>
