<svg width="104" height="72" viewBox="0 0 104 72" fill="none" xmlns="http://www.w3.org/2000/svg">
<rect width="104" height="72" rx="8" fill="#F4B607"/>
<rect y="11" width="104" height="14" fill="#1D1D1B"/>
<rect x="8" y="42" width="58" height="8" rx="2" fill="#F4A707"/>
<path d="M72.452 44.028H72.428L71.132 44.916C71.044 44.972 71 44.948 71 44.844V43.356C71 43.292 71.028 43.236 71.084 43.188L72.452 42.204C72.508 42.156 72.58 42.132 72.668 42.132H74.012C74.092 42.132 74.132 42.172 74.132 42.252V50.172C74.132 50.252 74.092 50.292 74.012 50.292H72.572C72.492 50.292 72.452 50.252 72.452 50.172V44.028Z" fill="#1D1D1B"/>
<path d="M76.996 49.056C76.996 48.992 77.016 48.936 77.056 48.888L79.924 45.48C80.084 45.296 80.204 45.116 80.284 44.94C80.364 44.756 80.404 44.56 80.404 44.352C80.404 44.08 80.324 43.856 80.164 43.68C80.012 43.504 79.796 43.416 79.516 43.416C78.948 43.416 78.628 43.736 78.556 44.376C78.556 44.456 78.512 44.488 78.424 44.472L77.104 44.256C77.024 44.24 76.992 44.192 77.008 44.112C77.032 43.832 77.104 43.564 77.224 43.308C77.344 43.052 77.512 42.828 77.728 42.636C77.952 42.444 78.216 42.292 78.52 42.18C78.832 42.06 79.184 42 79.576 42C79.968 42 80.316 42.06 80.62 42.18C80.932 42.3 81.196 42.464 81.412 42.672C81.628 42.88 81.792 43.128 81.904 43.416C82.024 43.696 82.084 44 82.084 44.328C82.084 44.72 82.008 45.076 81.856 45.396C81.712 45.708 81.512 46.012 81.256 46.308L79.108 48.84V48.864H81.964C82.044 48.864 82.084 48.904 82.084 48.984V50.172C82.084 50.252 82.044 50.292 81.964 50.292H77.116C77.036 50.292 76.996 50.252 76.996 50.172V49.056Z" fill="#1D1D1B"/>
<path d="M83.5559 48.552C83.5399 48.472 83.5719 48.42 83.6519 48.396L84.9719 48.144C85.0439 48.136 85.0919 48.168 85.1159 48.24C85.1879 48.456 85.3119 48.64 85.4879 48.792C85.6639 48.936 85.8959 49.008 86.1839 49.008C86.4959 49.008 86.7399 48.908 86.9159 48.708C87.0999 48.508 87.1919 48.256 87.1919 47.952C87.1919 47.584 87.0879 47.3 86.8799 47.1C86.6799 46.9 86.4039 46.8 86.0519 46.8H85.7039C85.6239 46.8 85.5839 46.76 85.5839 46.68V45.516C85.5839 45.436 85.6239 45.396 85.7039 45.396H86.0279C86.3319 45.396 86.5759 45.304 86.7599 45.12C86.9439 44.936 87.0359 44.688 87.0359 44.376C87.0359 44.088 86.9519 43.856 86.7839 43.68C86.6239 43.504 86.3999 43.416 86.1119 43.416C85.8559 43.416 85.6519 43.484 85.4999 43.62C85.3559 43.756 85.2519 43.94 85.1879 44.172C85.1639 44.244 85.1159 44.272 85.0439 44.256L83.7359 44.004C83.6559 43.988 83.6239 43.944 83.6399 43.872C83.6879 43.6 83.7799 43.352 83.9159 43.128C84.0519 42.896 84.2279 42.696 84.4439 42.528C84.6679 42.36 84.9239 42.232 85.2119 42.144C85.5079 42.048 85.8359 42 86.1959 42C86.5959 42 86.9519 42.056 87.2639 42.168C87.5759 42.28 87.8399 42.436 88.0559 42.636C88.2719 42.836 88.4359 43.076 88.5479 43.356C88.6599 43.628 88.7159 43.928 88.7159 44.256C88.7159 44.608 88.6359 44.928 88.4759 45.216C88.3239 45.504 88.0999 45.744 87.8039 45.936V45.96C87.9239 46.024 88.0479 46.112 88.1759 46.224C88.3039 46.336 88.4199 46.476 88.5239 46.644C88.6279 46.804 88.7119 46.992 88.7759 47.208C88.8399 47.424 88.8719 47.668 88.8719 47.94C88.8719 48.316 88.8039 48.656 88.6679 48.96C88.5399 49.264 88.3559 49.524 88.1159 49.74C87.8759 49.956 87.5919 50.124 87.2639 50.244C86.9439 50.364 86.5919 50.424 86.2079 50.424C85.5119 50.424 84.9239 50.26 84.4439 49.932C83.9639 49.604 83.6679 49.144 83.5559 48.552Z" fill="#1D1D1B"/>
<path d="M98 45.5C98 55.6936 89.5174 64 79 64C68.4826 64 60 55.6936 60 45.5C60 35.3064 68.4826 27 79 27C89.5174 27 98 35.3064 98 45.5Z" stroke="#D03E3E" stroke-width="2"/>
</svg>
