<svg width="185" height="184" viewBox="0 0 185 184" fill="none" xmlns="http://www.w3.org/2000/svg">
<rect x="0.5" y="30" width="164" height="54" rx="8" fill="#F4B607"/>
<path d="M147.04 48H49.9599C49.1536 48 48.5 49.0074 48.5 50.25V63.75C48.5 64.9926 49.1536 66 49.9599 66H147.04C147.846 66 148.5 64.9926 148.5 63.75V50.25C148.5 49.0074 147.846 48 147.04 48Z" fill="#F4A707"/>
<path d="M28.5 46.8145C26.5222 46.8145 24.5888 47.3945 22.9443 48.4812C21.2998 49.568 20.0181 51.1126 19.2612 52.9198C18.5043 54.727 18.3063 56.7155 18.6922 58.634C19.078 60.5525 20.0304 62.3148 21.4289 63.6979C22.8275 65.0811 24.6093 66.023 26.5491 66.4046C28.4889 66.7863 30.4996 66.5904 32.3268 65.8418C34.1541 65.0933 35.7159 63.8256 36.8147 62.1992C37.9135 60.5728 38.5 58.6606 38.5 56.7046C38.5 55.4058 38.2413 54.1197 37.7388 52.9198C37.2363 51.7199 36.4997 50.6296 35.5711 49.7112C34.6425 48.7928 33.5401 48.0643 32.3268 47.5673C31.1136 47.0703 29.8132 46.8145 28.5 46.8145ZM28.5 64.6167C26.9178 64.6167 25.371 64.1526 24.0554 63.2832C22.7398 62.4138 21.7145 61.1781 21.109 59.7324C20.5035 58.2866 20.345 56.6958 20.6537 55.161C20.9624 53.6262 21.7243 52.2164 22.8432 51.1099C23.962 50.0033 25.3874 49.2498 26.9393 48.9445C28.4911 48.6392 30.0997 48.7959 31.5615 49.3947C33.0233 49.9936 34.2727 51.0077 35.1518 52.3088C36.0308 53.61 36.5 55.1397 36.5 56.7046C36.5 58.803 35.6572 60.8155 34.1569 62.2993C32.6566 63.7831 30.6217 64.6167 28.5 64.6167Z" fill="#1D1D1B"/>
<path d="M32.5 55.7156H29.5V52.7485C29.5 52.4862 29.3946 52.2347 29.2071 52.0492C29.0196 51.8637 28.7652 51.7595 28.5 51.7595C28.2348 51.7595 27.9804 51.8637 27.7929 52.0492C27.6054 52.2347 27.5 52.4862 27.5 52.7485V56.7046C27.5 56.9669 27.6054 57.2184 27.7929 57.4039C27.9804 57.5894 28.2348 57.6936 28.5 57.6936H32.5C32.7652 57.6936 33.0196 57.5894 33.2071 57.4039C33.3946 57.2184 33.5 56.9669 33.5 56.7046C33.5 56.4423 33.3946 56.1907 33.2071 56.0052C33.0196 55.8198 32.7652 55.7156 32.5 55.7156Z" fill="#1D1D1B"/>
<rect x="20.5" y="100" width="164" height="54" rx="8" fill="#F4B607"/>
<path d="M167.04 118H69.9599C69.1536 118 68.5 119.007 68.5 120.25V133.75C68.5 134.993 69.1536 136 69.9599 136H167.04C167.846 136 168.5 134.993 168.5 133.75V120.25C168.5 119.007 167.846 118 167.04 118Z" fill="#F4A707"/>
<path d="M48.5 116.814C46.5222 116.814 44.5888 117.394 42.9443 118.481C41.2998 119.568 40.0181 121.113 39.2612 122.92C38.5043 124.727 38.3063 126.716 38.6922 128.634C39.078 130.553 40.0304 132.315 41.4289 133.698C42.8275 135.081 44.6093 136.023 46.5491 136.405C48.4889 136.786 50.4996 136.59 52.3268 135.842C54.1541 135.093 55.7159 133.826 56.8147 132.199C57.9135 130.573 58.5 128.661 58.5 126.705C58.5 125.406 58.2413 124.12 57.7388 122.92C57.2363 121.72 56.4997 120.63 55.5711 119.711C54.6425 118.793 53.5401 118.064 52.3268 117.567C51.1136 117.07 49.8132 116.814 48.5 116.814ZM48.5 134.617C46.9178 134.617 45.371 134.153 44.0554 133.283C42.7398 132.414 41.7145 131.178 41.109 129.732C40.5035 128.287 40.345 126.696 40.6537 125.161C40.9624 123.626 41.7243 122.216 42.8432 121.11C43.962 120.003 45.3874 119.25 46.9393 118.945C48.4911 118.639 50.0997 118.796 51.5615 119.395C53.0233 119.994 54.2727 121.008 55.1518 122.309C56.0308 123.61 56.5 125.14 56.5 126.705C56.5 128.803 55.6572 130.815 54.1569 132.299C52.6566 133.783 50.6217 134.617 48.5 134.617Z" fill="#1D1D1B"/>
<path d="M52.5 125.716H49.5V122.749C49.5 122.486 49.3946 122.235 49.2071 122.049C49.0196 121.864 48.7652 121.76 48.5 121.76C48.2348 121.76 47.9804 121.864 47.7929 122.049C47.6054 122.235 47.5 122.486 47.5 122.749V126.705C47.5 126.967 47.6054 127.218 47.7929 127.404C47.9804 127.589 48.2348 127.694 48.5 127.694H52.5C52.7652 127.694 53.0196 127.589 53.2071 127.404C53.3946 127.218 53.5 126.967 53.5 126.705C53.5 126.442 53.3946 126.191 53.2071 126.005C53.0196 125.82 52.7652 125.716 52.5 125.716Z" fill="#1D1D1B"/>
</svg>
