<svg width="185" height="152" viewBox="0 0 185 152" fill="none" xmlns="http://www.w3.org/2000/svg">
<g clip-path="url(#clip0_2768_23398)">
<path d="M147.855 70.3934C152.657 70.3245 157.595 70.3076 162.668 70.3426C170.357 70.3956 169.22 71.0627 173.176 70.3956C175.584 69.9895 176.95 69.2013 177.65 69.3112C178.1 69.3818 178.275 69.8233 178.275 70.9753C178.275 72.9386 177.397 77.0316 175.643 83.2545L165.035 106.283L161.084 116.936C159.848 120.27 156.689 122.5 153.133 122.55L127.917 122.901L142.942 72.3406C143.294 71.1585 144.387 70.3534 145.62 70.3691L147.552 70.3937C147.653 70.395 147.754 70.3949 147.855 70.3934Z" fill="#A339FF"/>
<path d="M165.787 126.15C165.722 126.862 165.123 127.42 164.394 127.42H161.922L168.166 150.721C168.162 150.808 167.681 151.001 167.035 151.174C166.737 151.254 166.435 151.321 166.229 151.347C166.023 151.374 165.89 151.374 165.879 151.333L159.472 127.42H13.4222L7.0147 151.333C6.96832 151.407 6.4551 151.334 5.80889 151.161C5.51064 151.081 5.21597 150.988 5.02431 150.908C4.83265 150.828 4.71735 150.761 4.72811 150.721L10.9714 127.42H9.23139C8.45883 127.42 7.83256 126.794 7.83256 126.022C7.83256 125.249 8.45883 124.623 9.23139 124.623H163.354L181.361 72.3266C181.612 71.5961 182.408 71.2079 183.139 71.4594C183.869 71.7109 184.258 72.507 184.006 73.2374L165.787 126.15Z" fill="#E0E0E0"/>
</g>
<g clip-path="url(#clip1_2768_23398)">
<path d="M16.224 70.107L16.1145 70.1754C15.7061 70.456 15.5943 71.008 15.8566 71.4278L34.3268 100.336C34.6073 100.745 35.1593 100.857 35.5791 100.594L35.6886 100.526C36.097 100.245 36.2088 99.6933 35.9465 99.2735L17.4877 70.3831C17.214 69.9451 16.662 69.8333 16.224 70.107ZM63.6145 122.692L28.9665 122.692C28.4317 122.692 27.9981 123.126 27.9981 123.661C27.9981 124.195 28.4316 124.629 28.9665 124.629L63.6145 124.629C64.1493 124.629 64.5829 124.195 64.5829 123.661C64.5829 123.126 64.1493 122.692 63.6145 122.692Z" fill="#F46B07"/>
<path d="M17.3277 70.136C17.3939 70.1939 17.4531 70.263 17.5031 70.343L35.9619 99.2334C36.0519 99.3775 36.0979 99.5371 36.1029 99.696L46.7689 93.3213L38.9869 78.9994L34.5365 77.2379C33.3207 76.9572 32.1322 76.5579 30.9826 76.0582C28.2248 74.8124 27.5474 73.6878 23.9479 71.4199C22.9807 70.8062 21.9999 70.2518 20.946 69.743C20.3301 69.5696 19.1554 69.314 18.1425 69.6424C17.9737 69.6971 17.8277 69.7883 17.6885 69.8499C17.5522 69.9351 17.4326 70.0322 17.3277 70.136ZM28.8561 122.66C28.8973 122.655 28.9393 122.652 28.9819 122.652L63.6298 122.652C63.6775 122.652 63.7243 122.655 63.7701 122.662L63.7701 108.272L49.0478 108.272C46.268 110.18 44.584 111.428 43.9957 112.017C43.1134 112.899 42.145 113.695 41.112 114.405C38.5941 116.084 37.2813 116.062 33.4507 117.913C32.4177 118.408 31.4278 118.946 30.4378 119.57C29.4479 120.194 29.1251 120.861 28.8668 121.894C28.8238 122.067 28.8238 122.239 28.8023 122.389C28.8023 122.489 28.8216 122.579 28.8561 122.66Z" fill="#1D1D1B"/>
<path d="M41.0753 86.2748L37.9951 76.8242C37.4775 75.236 38.1744 73.5054 39.6481 72.7192L46.2301 69.2077C49.4923 64.1158 54.0001 60.7809 60.2901 63.3339C60.4842 63.4127 60.6847 63.497 60.8918 63.5867L60.7092 63.4816C71.2614 57.5743 77.7784 54.2812 80.2599 53.6023C82.7415 52.9235 85.2611 53.908 87.8187 56.5559L114.563 93.9306C130.841 94.9025 139.001 99.6951 139.044 108.308C139.086 116.922 134.472 122.176 125.203 124.072C116.061 124.836 108.548 124.573 102.666 123.281C96.0002 123.64 90.2933 122.76 85.5448 120.642C77.9135 117.239 70.778 109.754 64.1382 98.188L63.8067 108.463H41.3324C40.1439 108.463 39.1804 107.5 39.1804 106.311C39.1804 106.263 39.1819 106.216 39.1851 106.168C39.7172 98.1918 40.3473 91.5607 41.0753 86.2748Z" fill="#F4B607"/>
<path opacity="0.176986" d="M102.712 123.279C96.027 123.645 90.3044 122.766 85.5448 120.644C77.9135 117.24 70.778 109.755 64.1382 98.1891L63.8067 108.464H41.3324C40.1438 108.464 39.1803 107.501 39.1803 106.312C39.1803 106.265 39.1819 106.217 39.1851 106.169C40.3625 88.5183 42.0199 77.4548 44.1571 72.9786C47.4997 65.9778 52.5431 60.1907 60.29 63.3351C60.5642 63.4463 60.8512 63.5685 61.151 63.7016L75.5934 72.0136L77.2119 79.1865C81.0156 99.9592 85.8696 112.977 91.7739 118.24C94.3886 120.57 98.0347 122.25 102.712 123.279Z" fill="#444444"/>
<path d="M138.695 67.2293C140.586 67.3409 142.793 67.8809 144.786 69.4293C147.132 71.2416 148.078 73.3096 149.791 77.4794C151.212 80.9424 152.436 84.0074 151.032 85.8056C150.005 87.1218 148.206 87.1218 146.996 87.0397C145.205 86.6885 143.538 86.5571 141.915 86.5029L138.052 94.9075C137.66 96.0093 134.93 102.921 134.126 103.774C131.83 106.23 125.997 103.79 116.628 96.4557C114.264 94.3406 113.604 91.8093 114.65 88.8617C115.25 86.9774 115.811 85.2291 116.333 83.6168C115.135 83.4548 113.398 83.0197 112.674 81.7103C111.572 79.7131 113.401 76.8996 115.461 73.7751C117.921 70.0035 119.246 68.155 121.882 66.8062C123.503 65.9808 125.136 65.6901 126.624 65.6838C129.391 65.0926 133.689 64.9533 138.695 67.2293Z" fill="#F46B07"/>
<path opacity="0.176986" d="M116.258 83.6522C115.069 83.474 113.446 83.0219 112.754 81.7678C111.651 79.7705 113.547 76.997 115.54 73.8326C117.966 69.9802 119.325 68.0735 121.961 66.7246C123.484 65.9495 125.016 65.6643 126.43 65.6484C125.318 65.8977 124.466 66.217 123.932 66.4705C122.581 67.1044 122.204 67.644 121.215 69.4074C120.659 70.3985 119.007 75.1468 116.258 83.6522Z" fill="#8C2A00"/>
<path d="M102.857 72.5837L102.857 72.6089L117.848 72.8127C118.472 72.8193 118.992 72.3045 118.999 71.6804L119.03 69.9153C119.037 69.2912 118.522 68.7707 117.898 68.7642L102.937 68.5764L102.937 68.5615L101.332 69.617C100.631 70.0645 100.612 71.0536 101.297 71.5038L102.857 72.5837Z" fill="#1D1D1B"/>
<path d="M134.803 61.9766C135.161 63.1006 135.738 64.5671 136.533 66.3759C135.54 66.0395 134.468 65.7827 133.315 65.6055C131.587 65.3395 130.811 65.315 129.949 65.3129L129.789 63.988C128.462 64.4453 128.538 64.4039 128.42 64.4554C127.481 64.6863 126.53 64.7442 125.585 64.6732C123.743 64.4689 121.726 61.0014 120.948 56.1119C120.884 55.699 120.861 55.31 120.838 54.9209L120.807 50.9971C120.79 50.0911 121.007 49.2405 121.434 48.4871C121.6 48.1941 121.809 47.9034 122.019 47.6126C124.415 44.6565 128.549 45.1318 129.318 45.2583C129.404 45.2628 129.489 45.2888 129.596 45.2945C130.382 45.5081 131.154 45.5916 131.949 45.6333C132.314 45.6524 132.58 45.9249 132.561 46.2903L132.461 51.9096C132.463 52.276 134.237 51.9323 134.626 51.9096C135.662 51.8777 137.04 52.726 137.414 53.8015C137.7 54.9371 137.511 56.501 136.759 57.2805C136.486 57.5535 135.84 59.1159 134.821 61.9678C134.818 61.9698 134.812 61.9727 134.803 61.9766ZM115.388 72.7879L116.554 72.8037C117.077 73.7743 117.571 74.6876 117.994 75.4587C118.453 75.9111 118.776 76.2289 118.82 76.2777L134.149 92.643C134.149 92.643 134.633 87.7924 134.727 86.307C138.874 86.6506 142.551 86.1687 146.996 87.0401C147.645 87.0841 148.484 87.0862 149.276 86.8931C148.973 89.4691 148.495 92.9254 147.676 96.9695C145.214 109.113 143.026 110.376 142.06 110.747C141.236 111.063 138.705 111.774 134.149 108.568C132.322 106.906 130.478 105.12 128.64 103.217C123.458 97.8668 119.058 92.3939 115.314 87.006C114.649 88.7536 114.278 90.0182 114.2 90.7999C114.124 91.5594 114.32 92.5543 114.707 93.9292C114.717 93.9665 114.669 93.9665 114.563 93.9292L111.541 89.7527C111.87 89.2159 112.519 87.3997 113.486 84.304C112.039 82.1066 110.698 79.9294 109.457 77.7867L105.085 72.683C104.688 72.1998 104.723 71.4853 105.215 71.0683L105.652 70.7211C105.849 70.5544 106.082 70.4676 106.316 70.4533L106.02 70.1074C105.622 69.6242 105.658 68.9097 106.15 68.4927L106.587 68.1455C106.907 67.8747 107.316 67.803 107.679 67.9208C107.608 67.5349 107.733 67.1245 108.061 66.8464L108.498 66.4993C108.99 66.0822 109.706 66.1657 110.113 66.6292L110.568 67.1613C110.226 65.6782 110.348 64.2735 111.769 63.8094C111.769 63.8094 112.948 66.0467 114.375 68.7286L111.884 68.6974L115.388 72.7879Z" fill="#F2A98A"/>
<path d="M141.766 52.6965C141.845 53.1089 141.907 53.5017 141.989 53.8956C142.288 53.9544 142.607 54.0358 142.964 54.2053C143.217 54.3263 144.944 55.0849 145.663 56.5879C146.691 58.7538 145.585 62.1869 142.264 64.2756C142.087 64.374 141.933 64.4306 141.933 64.4306C141.362 64.6377 140.822 64.6526 140.261 64.6663C140.154 64.6606 140.024 64.6754 140.024 64.6754C138.85 64.5995 137.599 64.5179 136.272 64.4306C135.531 64.3114 135.058 63.6782 134.853 62.5312C134.798 62.2183 134.775 61.835 134.765 61.4033C134.709 60.6069 134.606 59.1523 134.535 57.9873C135.25 57.8954 135.914 57.5639 136.415 57.0515C137.21 56.2743 137.465 55.1024 137.112 54.0279C136.737 52.9524 135.662 52.0986 134.626 52.1305C134.236 52.1532 133.863 52.2845 133.508 52.4814C133.06 52.8027 132.674 53.1919 132.432 53.6964L131.375 56.1839L131.393 56.2C131.379 56.2019 131.365 56.2034 131.352 56.2043C129.423 56.4049 128.577 49.1198 124.462 47.8697C123.507 47.5826 122.472 47.6821 121.882 47.8236C123.654 44.4027 129.3 45.129 129.408 45.1346C130.691 45.3312 131.883 45.6511 132.571 45.6872C135.962 45.9511 137.296 45.59 138.97 46.5397C139.598 46.8959 140.177 47.3572 140.598 47.9611C141.728 49.5401 141.847 51.4159 141.766 52.6965ZM123.589 54.0795C123.377 54.0253 123.327 53.7425 123.485 53.6C123.709 53.4393 124.062 53.2854 124.491 53.3294C125.412 53.4208 126.326 54.0721 125.305 54.2341C124.696 54.353 124.013 54.2095 123.589 54.0795ZM119.94 53.8021C119.729 53.7263 119.7 53.4447 119.901 53.3259C120.145 53.1879 120.475 53.0543 120.945 53.1436C121.842 53.2983 122.708 54.0333 121.647 54.1286C120.998 54.1808 120.363 53.9536 119.94 53.8021Z" fill="#482D1F"/>
<path d="M121.692 54.9586C121.682 54.8401 121.77 54.7362 121.889 54.7264C122.007 54.7166 122.111 54.8047 122.121 54.9231L122.226 56.2001L122.227 56.2271L122.129 58.5057C122.136 58.5317 122.155 58.5497 122.183 58.5538C122.257 58.5503 122.333 58.5522 122.416 58.5586C122.481 58.5637 122.53 58.5692 122.644 58.5832C122.975 58.6239 123.119 58.6243 123.305 58.5646C123.419 58.5283 123.54 58.5907 123.576 58.7039C123.612 58.8171 123.55 58.9383 123.437 58.9745C123.173 59.0588 122.981 59.0583 122.591 59.0104C122.484 58.9972 122.439 58.9921 122.383 58.9878C122.312 58.9823 122.25 58.981 122.192 58.9844L122.169 58.9844C121.918 58.9713 121.726 58.7823 121.699 58.5427L121.698 58.5092L121.796 56.2221L121.692 54.9586Z" fill="#482D1F"/>
<path d="M123.806 60.5052C123.957 60.4863 124.346 60.407 124.436 60.1718C124.437 60.1288 124.481 60.065 124.46 60.0215C124.398 59.9128 123.731 59.9012 123.731 59.9012C122.848 59.9073 122.634 59.8605 122.567 59.967C122.545 60.0311 122.543 60.1172 122.69 60.3135C122.856 60.6823 123.569 60.5441 123.806 60.5052Z" fill="#482D1F"/>
<path d="M129.716 63.9832L131.495 63.3438L129.94 65.2431L129.716 63.9832Z" fill="#482D1F"/>
<path d="M121.367 56.5906C121.087 57.0069 120.408 55.98 120.596 55.2787C120.654 54.9801 120.852 54.9042 121.004 54.8906C121.24 54.903 121.489 55.0885 121.496 55.369C121.541 55.7377 121.574 56.3428 121.367 56.5906ZM124.861 56.6994C124.56 57.1146 123.902 56.0888 124.09 55.3875C124.149 55.0889 124.346 55.013 124.498 54.9994C124.734 55.0118 124.983 55.1973 124.99 55.4778C125.035 55.8465 125.09 56.4528 124.861 56.6994Z" fill="#482D1F"/>
<path d="M91.4311 59.9724C90.874 60.3772 90.7502 61.1587 91.155 61.7159L109.61 87.1177C110.015 87.6748 110.797 87.7986 111.354 87.3938C111.911 86.989 112.035 86.2075 111.63 85.6504L93.1746 60.2485C92.7698 59.6914 91.9882 59.5676 91.4311 59.9724Z" fill="#1D1D1B"/>
<path opacity="0.2" d="M113.512 84.3828C112.54 87.4954 111.888 89.321 111.557 89.8594L114.58 94.0359C114.686 94.0731 114.734 94.0731 114.724 94.0359C114.336 92.661 114.141 91.666 114.217 90.9066C114.295 90.1163 114.674 88.8322 115.353 87.0545L113.512 84.3828Z" fill="#8C2A00"/>
<path d="M134.434 81.1599C134.42 81.1799 134.393 81.2207 134.355 81.2801C134.291 81.3806 134.221 81.4953 134.148 81.6218C133.87 82.1081 133.632 82.6208 133.478 83.1193C133.068 84.4469 133.334 85.3036 134.538 85.6158C134.711 85.6606 134.814 85.8367 134.769 86.0093C134.725 86.1819 134.549 86.2855 134.376 86.2408C132.744 85.8177 132.356 84.5654 132.861 82.929C133.031 82.3789 133.288 81.8251 133.588 81.3007C133.666 81.165 133.741 81.0417 133.81 80.9329C133.853 80.8667 133.884 80.8194 133.902 80.7931C134.003 80.6464 134.205 80.6096 134.351 80.7109C134.498 80.8122 134.535 81.0132 134.434 81.1599Z" fill="#482D1F"/>
</g>
<path d="M114.953 0H17.7139C14.8343 0 12.5 2.43557 12.5 5.44V28.56C12.5 31.5644 14.8343 34 17.7139 34H114.953C117.832 34 120.167 31.5644 120.167 28.56V5.44C120.167 2.43557 117.832 0 114.953 0Z" fill="#F5F5F5"/>
<path d="M96.8545 11H45.7288C45.3723 11 45.0833 11.2634 45.0833 11.5883V14.6617C45.0833 14.9866 45.3723 15.25 45.7288 15.25H96.8545C97.211 15.25 97.5 14.9866 97.5 14.6617V11.5883C97.5 11.2634 97.211 11 96.8545 11Z" fill="#E0E0E0"/>
<path d="M108.048 18.0859H45.8684C45.4348 18.0859 45.0833 18.3493 45.0833 18.6742V21.7476C45.0833 22.0725 45.4348 22.3359 45.8684 22.3359H108.048C108.482 22.3359 108.833 22.0725 108.833 21.7476V18.6742C108.833 18.3493 108.482 18.0859 108.048 18.0859Z" fill="#E0E0E0"/>
<path d="M27.9842 21.2498C27.887 21.2495 27.791 21.2292 27.7021 21.1902C27.6131 21.1512 27.5331 21.0944 27.4671 21.0231L24.0246 17.3611C23.8959 17.2239 23.827 17.0413 23.8329 16.8533C23.8389 16.6654 23.9193 16.4875 24.0565 16.3588C24.1936 16.2301 24.3762 16.1612 24.5642 16.1671C24.7522 16.1731 24.9301 16.2535 25.0587 16.3906L27.9771 19.5002L33.9342 12.9836C33.9946 12.9083 34.0698 12.8462 34.1552 12.801C34.2405 12.7558 34.3342 12.7286 34.4304 12.721C34.5267 12.7133 34.6235 12.7254 34.7148 12.7566C34.8062 12.7877 34.8903 12.8372 34.9619 12.902C35.0334 12.9668 35.091 13.0455 35.131 13.1334C35.1711 13.2213 35.1927 13.3164 35.1947 13.4129C35.1966 13.5094 35.1788 13.6053 35.1423 13.6947C35.1058 13.7841 35.0514 13.8651 34.9825 13.9327L28.5083 21.0161C28.4429 21.0886 28.3632 21.1468 28.2742 21.187C28.1852 21.2272 28.0889 21.2486 27.9913 21.2498H27.9842Z" fill="#207538"/>
<defs>
<clipPath id="clip0_2768_23398">
<rect width="179.911" height="82.4234" fill="white" transform="translate(4.60449 69.1016)"/>
</clipPath>
<clipPath id="clip1_2768_23398">
<rect width="151.304" height="95.5615" fill="white" transform="translate(0.5 45)"/>
</clipPath>
</defs>
</svg>
