<svg width="172" height="180" viewBox="0 0 172 180" fill="none" xmlns="http://www.w3.org/2000/svg">
<g clip-path="url(#clip0_2844_23399)">
<path d="M156.207 124.528V124.573C156.207 125.143 155.707 125.619 155.136 125.619H137.18L143.507 137.225C148.025 145.502 152.52 153.754 157.015 162.031L164.459 175.682C164.721 176.158 164.507 176.776 164.007 177.062L163.912 177.109C163.413 177.395 162.771 177.228 162.533 176.776L134.683 125.619H116.132L88.2823 176.776C88.0445 177.228 87.4023 177.371 86.9029 177.109L86.8078 177.062C86.3083 176.776 86.0943 176.158 86.3559 175.682L93.8 162.031C98.3188 153.754 102.814 145.502 107.309 137.225L113.635 125.619H89.8282C89.2336 125.619 88.758 125.143 88.758 124.573V124.454C88.758 123.883 89.2574 123.407 89.8282 123.407H106.001C116.537 123.407 127.096 123.407 137.656 123.407H154.107L156.112 107.187C157.491 96.152 158.847 85.0929 160.226 74.0338L162.485 55.7684C162.557 55.1262 163.104 54.6506 163.698 54.7219L163.817 54.7457C164.388 54.8171 164.792 55.4116 164.721 56.0062L156.23 124.406C156.224 124.448 156.216 124.489 156.207 124.528Z" fill="#E0E0E0"/>
<path d="M156.207 124.532V124.577C156.207 125.147 155.708 125.623 155.137 125.623H137.18L143.507 137.229C148.026 145.506 152.521 153.758 157.016 162.035L164.46 175.686C164.721 176.162 164.507 176.78 164.008 177.066L163.913 177.113C163.413 177.399 162.771 177.232 162.533 176.78L134.684 125.623H116.133L88.2828 176.78C88.045 177.232 87.4028 177.375 86.9034 177.113L86.8083 177.066C86.3088 176.78 86.0948 176.162 86.3564 175.686L93.8005 162.035C98.3192 153.758 102.814 145.506 107.309 137.229L113.636 125.623H89.8287C89.2341 125.623 88.7585 125.147 88.7585 124.577V124.458C88.7585 123.887 89.2579 123.411 89.8287 123.411H106.001C116.537 123.411 127.097 123.411 137.656 123.411H154.107L156.112 107.191C157.491 96.1559 158.847 85.0968 160.226 74.0377L162.486 55.7723C162.557 55.1302 163.104 54.6545 163.699 54.7258L163.818 54.7496C164.389 54.821 164.793 55.4155 164.721 56.0101L156.231 124.41C156.225 124.452 156.217 124.492 156.207 124.532Z" fill="#E0E0E0"/>
</g>
<g clip-path="url(#clip1_2844_23399)">
<path d="M72.6816 177.66H111.448C112.039 177.66 112.518 178.139 112.518 178.73C112.518 179.321 112.039 179.801 111.448 179.801H72.6816C72.0905 179.801 71.6113 179.321 71.6113 178.73C71.6113 178.139 72.0905 177.66 72.6816 177.66ZM116.205 177.66H140.701C141.292 177.66 141.771 178.139 141.771 178.73C141.771 179.321 141.292 179.801 140.701 179.801H116.205C115.613 179.801 115.134 179.321 115.134 178.73C115.134 178.139 115.613 177.66 116.205 177.66Z" fill="#F46B07"/>
<path d="M140.445 177.662H116.237L118.178 164.671H135.43L140.445 177.662ZM112.118 177.898C111.935 177.75 111.702 177.662 111.448 177.662H72.6817C72.6371 177.662 72.5933 177.665 72.5502 177.67C72.5364 177.56 72.5301 177.43 72.5329 177.274C72.5595 177.108 72.5629 176.917 72.6137 176.728C72.919 175.591 73.289 174.837 74.3711 174.166C75.4532 173.495 76.5579 172.896 77.7088 172.369C81.9539 170.373 83.4044 170.399 86.1956 168.568C87.3507 167.804 88.4128 166.918 89.4048 165.96C90.0661 165.322 91.4955 164.284 93.6931 162.848L110.724 162.9L112.118 177.898Z" fill="#1D1D1B"/>
<path d="M140.246 121.756C140.207 133.393 139.814 148.852 139.678 154.169C139.654 154.91 139.75 156.914 138.323 158.178C137.918 158.548 137.514 158.7 136.753 159.027C136.158 159.289 133.495 160.073 128.167 160.509C127.834 160.53 127.478 160.552 127.121 160.53C121.627 160.334 120.271 159.986 118.155 159.376C116.751 158.984 115.729 157.764 115.586 156.326C114.92 149.987 113.089 132.712 112.946 131.187C112.756 129.248 112.589 127.048 112.447 124.543L112.371 123.37L105.789 120.731C108.538 131.436 111.204 142.525 113.588 153.549C113.707 154.089 113.921 155.304 113.303 156.452C112.161 158.636 109.188 158.523 102.077 159.378C93.7056 160.391 90.2095 161.449 88.3069 159.288C87.6647 158.591 87.4507 157.87 87.3793 157.533C85.6432 148.777 77.0337 123.364 73.6803 105.132C73.6803 105.087 73.6565 105.064 73.6565 105.019C72.5863 99.1446 76.6056 93.6074 82.5752 92.8646C84.5491 92.617 86.3329 92.3784 88.3069 92.1308C88.9049 92.0598 89.5016 92.0392 90.0919 92.0661L119.56 91.5462C137.037 91.3915 134.63 89.3275 140.095 91.8857C143.739 93.5912 146.219 98.4465 147.537 106.452C148.009 112.538 145.579 117.64 140.246 121.756Z" fill="#F4B607"/>
<path opacity="0.176986" d="M140.276 121.733C140.278 121.125 140.279 120.527 140.279 119.942C140.279 115.411 140.303 111.512 140.35 109.007C140.398 107.024 140.755 96.1321 136.141 93.8665C135.736 93.6704 135.332 93.518 134.523 93.2348C133.881 93.0169 130.552 91.8841 126.271 92.0584C123.488 92.1673 119.302 92.3416 115.854 95.0646C111.097 98.8333 111.216 104.78 111.264 105.739L112.402 123.382L105.824 120.744C103.991 113.606 102.122 106.639 100.276 99.9734C99.0145 95.4372 94.7988 92.2973 90.1743 92.0647L119.56 91.5462C137.037 91.3915 134.63 89.3275 140.095 91.8857C143.739 93.5912 146.219 98.4465 147.537 106.452C148.008 112.527 145.588 117.621 140.276 121.733Z" fill="#444444"/>
<path d="M115.212 47.1926C115.498 47.067 115.79 46.9551 116.089 46.8577L121.165 45.1336C121.459 45.079 121.752 45.0313 122.043 44.9903C122.443 44.5234 123.258 44.1275 124.671 43.6862C129.688 42.0914 136.092 44.7435 138.373 50.6863C140.36 55.8653 143.001 61.7152 142.755 61.7921C142.702 61.8085 141.55 62.6474 139.971 63.1668C142.255 71.9344 143.485 77.8037 143.662 80.7746C144.015 86.6918 142.059 90.6577 135.43 91.1603C128.801 91.6629 119.575 92.3709 118.491 90.4088C117.794 89.1473 114.517 81.358 108.662 67.0411C106.473 67.762 105.33 68.1311 105.232 68.1483C104.927 68.2023 103.888 64.7203 103.212 59.2144C102.435 52.8964 106.202 47.6273 112.443 46.5494C113.475 46.3668 114.398 46.5812 115.212 47.1926Z" fill="#F46B07"/>
<path opacity="0.176986" d="M115.227 47.2019C109.019 49.8216 105.936 58.7936 108.004 65.4282C108.232 65.9721 108.457 66.5072 108.679 67.0336C106.479 67.7581 105.33 68.1289 105.232 68.1462C104.927 68.2002 103.888 64.7182 103.212 59.2123C102.435 52.8943 106.202 47.6252 112.443 46.5474C113.481 46.3636 114.409 46.5818 115.227 47.2019Z" fill="#444444"/>
<path d="M104.979 47.9413C104.979 47.9413 104.527 49.7488 106.929 49.2494C109.331 48.75 110.021 48.5121 110.021 48.5121L109.403 46.8711L104.979 47.9413Z" fill="#482D1F"/>
<path d="M118.559 46.6717L122.983 67.6831L124.034 61.9791C129.577 63.084 134.088 63.6364 137.567 63.6362C137.585 63.6362 137.604 63.6361 137.623 63.6359C136.839 66.6864 134.982 79.9232 132.092 85.0447C128.438 91.519 126.306 92.23 120.912 91.7009C120.359 91.6467 119.838 91.5474 119.347 91.4029C119.583 91.481 119.826 91.5468 120.076 91.6L92.167 92.0364L92.1647 92.0441L92.08 92.0378L91.9638 92.0396C91.9122 92.0404 91.8618 92.0328 91.8141 92.0179L80.3256 91.1588C78.5451 91.0257 76.909 90.1294 75.8383 88.7005L74.3361 86.6958C74.0498 86.3138 73.864 85.8661 73.7955 85.3937C73.5694 83.8338 74.6507 82.386 76.2106 82.1599L79.8913 81.6265C82.1829 81.2944 84.5108 81.2987 86.8012 81.6393L93.9156 82.6974C99.2637 80.9873 106.4 78.7413 108.182 78.3542L105.97 67.9082L108.585 66.8636C109.406 68.7707 110.179 70.562 110.903 72.2376C110.083 64.2766 110.175 55.4849 109.188 47.675L106.715 47.7291C105.241 48.3237 102.149 49.3226 101.816 47.2059C101.816 47.2059 105.907 45.5173 108.784 44.2806L108.998 44.0903C109.189 43.9238 109.355 43.8287 109.593 43.7573C109.64 43.7336 109.688 43.7336 109.736 43.7336L109.894 43.7105C109.465 43.7431 109.165 43.7353 109.06 43.7238C107.071 43.6352 104.633 40.0526 103.46 34.8313C103.351 34.4111 103.314 33.9846 103.253 33.5602L102.953 29.313C102.87 28.3653 103.05 27.4185 103.453 26.5715C103.492 26.4726 103.534 26.3974 103.575 26.3222C103.72 26.0707 103.865 25.8193 104.014 25.6152C104.588 24.8011 105.298 24.1898 106.047 23.7424C107.828 22.8225 109.909 22.5927 111.083 22.6333C111.25 22.6425 111.778 22.668 112.521 22.6985C113.222 22.8042 113.894 22.8409 114.583 22.8045C114.964 22.7951 115.278 23.1019 115.311 23.481L115.605 29.567C115.607 29.612 115.618 29.6755 115.639 29.7575C118.034 28.7665 119.749 29.3319 120.783 31.4536C122.334 34.636 120.93 33.9475 120.24 34.7957C119.743 35.3883 119.124 35.6812 118.708 35.8369C118.63 35.8536 118.551 35.8991 118.481 35.9624L120.344 35.9803L120.673 37.2884L120.794 38.949L122.018 45.0252C122.018 45.0252 120.292 45.9882 118.559 46.6717ZM114.4 43.056L114.26 42.3733C114.201 42.3982 114.142 42.4234 114.082 42.4489C112.102 43.2905 112.216 43.2328 112.078 43.2926C111.782 43.3852 111.493 43.4591 111.219 43.5178L113.351 43.2103L114.4 43.056ZM133.851 164.741H118.222L118.558 159.487C120.479 160.031 121.986 160.35 127.151 160.534C127.508 160.556 127.864 160.534 128.197 160.512C130.739 160.305 132.675 160.017 134.069 159.745L135.43 164.672L133.851 164.741ZM110.043 158.4L110.724 162.901H93.6035L94.7327 160.35C96.6483 160.127 99.0535 159.752 102.107 159.382C105.72 158.948 108.264 158.763 110.043 158.4Z" fill="#DB9E75"/>
<path d="M115.853 42.8722L114.955 42.9981L114.452 43.072C114.435 43.0673 114.418 43.0624 114.401 43.0573L114.26 42.37L116.812 41.2695C116.469 42.0612 116.149 42.5955 115.853 42.8722Z" fill="#482D1F"/>
<path d="M104.966 34.3163C105.051 34.7387 105.206 35.4175 105.043 35.742C104.779 36.2665 103.85 35.2018 103.922 34.3839C103.964 34.0459 104.117 33.8893 104.307 33.8727C104.613 33.8221 104.892 34.0125 104.966 34.3163ZM110.021 33.4205C110.106 33.8429 110.261 34.5216 110.098 34.8462C109.833 35.3707 108.905 34.306 108.976 33.488C109.018 33.1501 109.172 32.9935 109.361 32.9769C109.667 32.9262 109.947 33.1167 110.021 33.4205Z" fill="#482D1F"/>
<path d="M106.133 34.2635L106.127 36.6514C106.152 36.9444 106.394 37.1985 106.673 37.1741C106.838 37.1731 106.943 37.1639 107.364 37.1189C107.553 37.0988 107.682 37.0859 107.834 37.0725C107.965 37.0611 108.062 36.9457 108.05 36.8149C108.039 36.684 107.923 36.5872 107.793 36.5987C107.637 36.6123 107.505 36.6255 107.314 36.6459C106.91 36.689 106.811 36.6976 106.65 36.6993C106.641 36.6995 106.604 36.6616 106.602 36.6312L106.609 34.2646C106.609 34.1333 106.503 34.0265 106.371 34.0262C106.24 34.0259 106.133 34.1321 106.133 34.2635Z" fill="#482D1F"/>
<path d="M108.31 38.4177C108.472 38.3558 108.86 38.1547 108.887 37.9137C108.882 37.8663 108.9 37.7931 108.874 37.7715C108.769 37.6613 108.469 37.7831 108.049 37.8914C107.301 38.0762 106.662 38.1322 106.662 38.1322C106.662 38.1322 106.91 38.5163 107.039 38.6244C107.324 38.8859 108.058 38.5353 108.31 38.4177Z" fill="#482D1F"/>
<path d="M114.055 31.6617L114.844 31.3937C115.294 31.2405 115.524 31.916 115.073 32.0692L114.285 32.3372L113.691 32.5393C113.758 32.7605 113.803 32.992 113.824 33.2315C113.987 35.0896 112.613 36.7276 110.754 36.8902C109.138 37.0316 107.688 36.0095 107.231 34.5178L106.815 34.5833L106.471 34.6375C106.541 36.4266 105.193 37.9735 103.39 38.1313C101.532 38.2938 99.8944 36.9194 99.7318 35.0613C99.5692 33.2032 100.944 31.5652 102.802 31.4026C104.468 31.2568 105.967 32.3498 106.369 33.9312L106.704 33.8785L106.815 34.5833C106.406 34.2808 106.405 34.2706 106.404 34.2603L106.03 33.9845L106.369 33.9312C106.386 33.9973 106.4 34.0642 106.413 34.1319C106.444 34.01 106.537 33.9047 106.704 33.8785L107.095 33.8169C106.935 31.9602 108.309 30.324 110.166 30.1615C111.534 30.0418 112.782 30.7551 113.411 31.881L114.055 31.6617ZM106.141 34.6893C105.945 34.7203 105.761 34.5844 105.733 34.3874C105.705 34.1943 105.838 34.0148 106.03 33.9845L106.704 33.8785L107.095 33.8169C107.096 33.818 107.096 33.8191 107.096 33.8202C107.117 34.0617 107.163 34.295 107.231 34.5178L106.815 34.5833L106.141 34.6893ZM106.815 34.5833C106.644 34.6101 106.521 34.5346 106.456 34.4239L106.815 34.5833ZM110.692 36.1794C112.158 36.0512 113.242 34.7592 113.114 33.2937C112.985 31.8282 111.693 30.7441 110.228 30.8723C108.762 31.0005 107.678 32.2925 107.807 33.758C107.935 35.2235 109.227 36.3076 110.692 36.1794ZM102.864 32.1134C101.398 32.2416 100.314 33.5336 100.443 34.9991C100.571 36.4646 101.863 37.5487 103.328 37.4205C104.794 37.2923 105.878 36.0003 105.75 34.5348C105.745 34.4853 105.74 34.4362 105.733 34.3874C105.533 32.9921 104.275 31.99 102.864 32.1134Z" fill="#482D1F"/>
<path opacity="0.2" d="M120.062 91.5997L92.1534 92.036L92.1511 92.0437L92.0663 92.0374L91.9501 92.0392C91.8985 92.04 91.8481 92.0325 91.8004 92.0175L80.312 91.1585C78.5314 91.0253 76.8954 90.129 75.8246 88.7002L74.3224 86.6954C74.0362 86.3134 73.8503 85.8658 73.7818 85.3934C73.5558 83.8335 74.637 82.3856 76.1969 82.1596L79.8776 81.6261C82.1693 81.294 84.4971 81.2983 86.7875 81.639L93.9019 82.697C99.25 80.987 106.387 78.7409 108.169 78.3538L105.956 67.9078L108.572 66.8633C109.441 68.8817 110.255 70.7705 111.016 72.5297C111.148 73.5764 111.302 74.6182 111.482 75.6538C113.238 84.9976 115.273 90.5819 120.062 91.5997Z" fill="#8C2A00"/>
<path d="M122.736 67.8088C122.68 67.6199 122.788 67.4214 122.977 67.3654C123.166 67.3094 123.364 67.4171 123.42 67.606L125.775 75.5496C125.831 75.7385 125.723 75.937 125.534 75.993C125.345 76.049 125.147 75.9412 125.091 75.7523L122.736 67.8088ZM137.637 63.928C137.44 63.9265 137.282 63.7656 137.283 63.5686C137.285 63.3715 137.445 63.213 137.642 63.2145C138.635 63.2219 139.567 63.0772 140.439 62.7808C140.626 62.7174 140.828 62.8172 140.892 63.0038C140.955 63.1903 140.855 63.3929 140.669 63.4563C139.72 63.7789 138.709 63.936 137.637 63.928Z" fill="#482D1F"/>
<path d="M117.896 35.751C118.258 35.6457 119.328 35.4108 119.984 34.6033C120.676 33.7788 121.016 32.4837 120.506 31.2869C120.047 30.1334 118.825 29.2615 117.69 29.3847C117.052 29.4643 116.558 29.818 116.491 29.8716C115.709 30.489 115.396 31.2804 115.396 31.2804L115.208 31.8328C115.113 31.7094 115.023 31.594 114.937 31.4877C113.117 29.7847 112.066 28.6032 110.222 26.9024C109.295 27.2222 103.344 29.3406 102.896 29.141C102.897 26.7245 103.78 25.9467 103.929 25.7426C104.503 24.9285 105.341 24.1384 106.09 23.6909C107.872 22.7711 109.953 22.5413 111.126 22.5819C111.294 22.5911 111.821 22.6166 112.564 22.6471C112.779 22.6521 112.995 22.6571 113.257 22.658C113.877 22.6515 114.355 22.6575 114.642 22.6563C118.264 22.5781 119.629 22.0768 121.514 22.8906C121.624 22.9413 121.779 23.0144 121.962 23.1149C122.087 22.7859 122.233 22.4798 122.379 22.1963C126.366 14.4703 131.209 16.2192 131.209 16.2478C131.209 16.2765 134.879 16.2765 135.818 20.0191C135.911 20.3909 136.569 23.0178 135.517 25.1837C134.106 28.0177 129.898 29.7624 125.109 28.5715C125.168 29.4002 125.111 30.079 125.087 30.4326C124.825 33.177 123.329 34.9075 122.892 35.6381C122.309 36.6122 121.588 37.5925 120.73 38.579C119.661 37.9362 118.842 37.1861 118.273 36.3287C118.15 36.14 118.024 35.9468 117.896 35.751Z" fill="#482D1F"/>
</g>
<g clip-path="url(#clip2_2844_23399)">
<path d="M3.82962 92.7554V177.78C3.82962 178.699 3.08426 179.445 2.16481 179.445C1.24536 179.445 0.5 178.699 0.5 177.78L0.5 91.2095C0.5 90.4084 1.06588 89.7394 1.81973 89.5805C2.033 89.4812 2.2708 89.4258 2.52156 89.4258H144.031C144.95 89.4258 145.695 90.1711 145.695 91.0906C145.695 92.01 144.95 92.7554 144.031 92.7554H3.82962Z" fill="#E0E0E0"/>
</g>
<path d="M31.7212 86.5705L34.0083 77.3422H16.8394C15.0557 77.3422 13.5808 75.9865 13.5808 74.3455V48.2079C13.5574 46.5431 15.0081 45.1875 16.8156 45.1875H69.067C70.8507 45.1875 72.3252 46.5431 72.3252 48.1842V74.3455C72.3252 75.9865 70.8507 77.3422 69.067 77.3422H48.1437L47.1996 86.5705H53.3942C54.3455 86.5705 55.0828 87.3315 55.0828 88.2591C55.0828 89.2104 54.3218 89.9477 53.3942 89.9477H26.8761C25.9248 89.9477 25.1875 89.1866 25.1875 88.2591C25.14 87.3315 25.9248 86.5705 26.8761 86.5705H31.7212Z" fill="#1D1D1B"/>
<path fill-rule="evenodd" clip-rule="evenodd" d="M48.8524 70.6172L48.9229 86.5955H47.2178L48.8524 70.6172Z" fill="white"/>
<g clip-path="url(#clip3_2844_23399)">
<path d="M76.3028 86.2707C78.8898 83.7433 84.1706 81.7621 92.8965 86.7549C94.2273 87.4915 93.7419 89.8067 92.2665 89.8028L77.0635 89.7003C75.921 89.708 75.4402 87.121 76.3028 86.2707Z" fill="#1D1D1B"/>
</g>
<defs>
<clipPath id="clip0_2844_23399">
<rect width="78.7218" height="122.483" fill="white" transform="translate(86.1187 54.6992)"/>
</clipPath>
<clipPath id="clip1_2844_23399">
<rect width="124.147" height="179.8" fill="white" transform="translate(47.3525)"/>
</clipPath>
<clipPath id="clip2_2844_23399">
<rect width="145.314" height="90.1377" fill="white" transform="translate(0.5 89.4258)"/>
</clipPath>
<clipPath id="clip3_2844_23399">
<rect width="24.4965" height="19.7399" fill="white" transform="translate(72.5625 69.9258)"/>
</clipPath>
</defs>
</svg>
