<svg width="24" height="24" viewBox="0 0 24 24" fill="none" xmlns="http://www.w3.org/2000/svg">
<rect y="4" width="24" height="16" rx="4" fill="#172B85"/>
<path fill-rule="evenodd" clip-rule="evenodd" d="M7.33055 14.8382H5.87661L4.78634 10.7943C4.73459 10.6082 4.62471 10.4438 4.46309 10.3663C4.05973 10.1715 3.61525 10.0165 3.13037 9.9383V9.78261H5.47255C5.7958 9.78261 6.03824 10.0165 6.07865 10.2881L6.64434 13.2051L8.09757 9.78261H9.5111L7.33055 14.8382ZM10.3192 14.8382H8.94611L10.0768 9.78261H11.4499L10.3192 14.8382ZM13.2264 11.1832C13.2668 10.9109 13.5092 10.7552 13.7921 10.7552C14.2366 10.7161 14.7207 10.7943 15.1248 10.9884L15.3672 9.89989C14.9632 9.7442 14.5187 9.66602 14.1153 9.66602C12.7826 9.66602 11.8129 10.3663 11.8129 11.3382C11.8129 12.0775 12.4998 12.4658 12.9847 12.6996C13.5092 12.9328 13.7113 13.0885 13.6709 13.3217C13.6709 13.6715 13.2668 13.8272 12.8634 13.8272C12.3786 13.8272 11.8937 13.7106 11.4499 13.5158L11.2075 14.605C11.6924 14.7991 12.2169 14.8773 12.7018 14.8773C14.1962 14.9157 15.1248 14.2161 15.1248 13.166C15.1248 11.8437 13.2264 11.7662 13.2264 11.1832ZM19.9304 14.8382L18.8401 9.78261H17.669C17.4266 9.78261 17.1841 9.9383 17.1033 10.1715L15.0844 14.8382H16.4979L16.7801 14.0995H18.5169L18.6785 14.8382H19.9304ZM17.871 11.1441L18.2744 13.0494H17.1437L17.871 11.1441Z" fill="white"/>
</svg>
