<svg width="146" height="113" viewBox="0 0 146 113" fill="none" xmlns="http://www.w3.org/2000/svg">
<g opacity="0.5">
<mask id="mask0_2040_7919" style="mask-type:luminance" maskUnits="userSpaceOnUse" x="81" y="88" width="24" height="25">
<path d="M104.549 88.8861H81.3826V112.052H104.549V88.8861Z" fill="white"/>
</mask>
<g mask="url(#mask0_2040_7919)">
<path d="M104.549 100.497C104.549 106.904 99.3459 112.107 92.9382 112.107C86.5306 112.107 81.3278 106.904 81.3278 100.497C81.3278 94.0889 86.5306 88.8861 92.9382 88.8861C99.3459 88.8861 104.549 94.0889 104.549 100.497Z" fill="#F7D9C8"/>
</g>
<path d="M102.303 98.2511C102.303 104.659 97.1004 109.862 90.6927 109.862C84.2851 109.862 79.0823 104.659 79.0823 98.2511C79.0823 91.8434 84.2851 86.6406 90.6927 86.6406C97.1552 86.6954 102.303 91.8434 102.303 98.2511Z" fill="#F6E2B3"/>
<path d="M90.7475 98.2512L80.1776 102.961C81.9849 107.014 86.0376 109.862 90.7475 109.862C97.1552 109.862 102.358 104.659 102.358 98.2512C102.358 93.3222 99.2911 89.1052 94.9098 87.4075L90.7475 98.2512Z" fill="#E8D098"/>
<mask id="mask1_2040_7919" style="mask-type:luminance" maskUnits="userSpaceOnUse" x="106" y="1" width="20" height="20">
<path d="M125.141 1.80737H106.301V20.6471H125.141V1.80737Z" fill="white"/>
</mask>
<g mask="url(#mask1_2040_7919)">
<path d="M125.141 11.2272C125.141 16.43 120.924 20.6471 115.721 20.6471C110.518 20.6471 106.301 16.43 106.301 11.2272C106.301 6.0244 110.518 1.80737 115.721 1.80737C120.924 1.80737 125.141 6.0244 125.141 11.2272Z" fill="#F7D9C8"/>
</g>
<path d="M123.334 9.41983C123.334 14.6227 119.117 18.8397 113.914 18.8397C108.711 18.8397 104.494 14.6227 104.494 9.41983C104.494 4.21701 108.711 0 113.914 0C119.117 0 123.334 4.21701 123.334 9.41983Z" fill="#F6E2B3"/>
<path d="M113.914 9.41987L105.315 13.2535C106.794 16.5395 110.08 18.8397 113.914 18.8397C119.117 18.8397 123.334 14.6227 123.334 9.41987C123.334 5.42191 120.814 1.97162 117.309 0.657227L113.914 9.41987Z" fill="#E8D098"/>
<mask id="mask2_2040_7919" style="mask-type:luminance" maskUnits="userSpaceOnUse" x="118" y="45" width="28" height="28">
<path d="M145.186 45.6754H118.131V72.7848H145.186V45.6754Z" fill="white"/>
</mask>
<g mask="url(#mask2_2040_7919)">
<path d="M145.24 59.2028C145.24 66.7058 139.161 72.7301 131.713 72.7301C124.21 72.7301 118.186 66.651 118.186 59.2028C118.186 51.7545 124.265 45.6754 131.713 45.6754C139.161 45.6754 145.24 51.6997 145.24 59.2028Z" fill="#F7D9C8"/>
</g>
<path d="M142.611 56.6286C142.611 64.1316 136.532 70.156 129.084 70.156C121.581 70.156 115.557 64.0769 115.557 56.6286C115.557 49.1804 121.636 43.1013 129.084 43.1013C136.587 43.0466 142.611 49.1256 142.611 56.6286Z" fill="#F6E2B3"/>
<path d="M129.084 56.6286L116.707 62.1052C118.788 66.8699 123.553 70.1559 129.084 70.1559C136.587 70.1559 142.611 64.0768 142.611 56.6286C142.611 50.8781 138.997 45.9491 133.904 43.9775L129.084 56.6286Z" fill="#E8D098"/>
<mask id="mask3_2040_7919" style="mask-type:luminance" maskUnits="userSpaceOnUse" x="119" y="91" width="22" height="21">
<path d="M140.147 91.4054H119.993V111.505H140.147V91.4054Z" fill="white"/>
</mask>
<g mask="url(#mask3_2040_7919)">
<path d="M140.092 101.428C140.092 106.959 135.601 111.505 130.015 111.505C124.429 111.505 119.938 107.014 119.938 101.428C119.938 95.8415 124.429 91.3506 130.015 91.3506C135.601 91.3506 140.092 95.8962 140.092 101.428Z" fill="#F7D9C8"/>
</g>
<path d="M138.175 99.5108C138.175 105.042 133.684 109.588 128.098 109.588C122.512 109.588 118.021 105.097 118.021 99.5108C118.021 93.9794 122.512 89.4337 128.098 89.4337C133.684 89.4337 138.175 93.9794 138.175 99.5108Z" fill="#F6E2B3"/>
<path d="M128.153 99.5109L118.952 103.564C120.541 107.069 124.046 109.533 128.153 109.533C133.685 109.533 138.23 105.042 138.23 99.4561C138.23 95.1843 135.547 91.515 131.768 90.0363L128.153 99.5109Z" fill="#E8D098"/>
<mask id="mask4_2040_7919" style="mask-type:luminance" maskUnits="userSpaceOnUse" x="-39" y="13" width="78" height="86">
<path d="M38.5003 13.0892H-38.2823V98.9631H38.5003V13.0892Z" fill="white"/>
</mask>
<g mask="url(#mask4_2040_7919)">
<path d="M38.5003 13.0892H-38.2823V98.9631H38.5003V13.0892Z" fill="#F7D9C8"/>
</g>
<mask id="mask5_2040_7919" style="mask-type:luminance" maskUnits="userSpaceOnUse" x="-14" y="98" width="30" height="15">
<path d="M15.4436 98.9631H-13.1445V112.6H15.4436V98.9631Z" fill="white"/>
</mask>
<g mask="url(#mask5_2040_7919)">
<path d="M15.4436 98.9631H-13.1445V112.6H15.4436V98.9631Z" fill="#F7D9C8"/>
</g>
<mask id="mask6_2040_7919" style="mask-type:luminance" maskUnits="userSpaceOnUse" x="38" y="30" width="60" height="47">
<path d="M97.3195 30.3407H38.5002V76.947H97.3195V30.3407Z" fill="white"/>
</mask>
<g mask="url(#mask6_2040_7919)">
<path d="M97.3195 30.3407H38.5002V76.947H97.3195V30.3407Z" fill="#F7D9C8"/>
</g>
<path d="M31.1068 5.6958H-45.6758V91.5697H31.1068V5.6958Z" fill="#F6E2B3"/>
<path d="M8.05013 91.5696H-20.538V105.206H8.05013V91.5696Z" fill="#F6E2B3"/>
<path d="M89.9261 22.9473H31.1068V69.5536H89.9261V22.9473Z" fill="#F6E2B3"/>
<path d="M-7.28455 74.9754V22.3448L31.1068 5.6958V91.5697L-7.28455 74.9754Z" fill="#E8D098"/>
<path d="M-7.28447 74.9755L-45.6758 91.5697H31.1068L-7.28447 74.9755Z" fill="#F4D99B"/>
<path d="M79.4109 46.2778L89.926 69.5536V22.9473L79.4109 46.2778Z" fill="#E8D098"/>
<path d="M79.4109 46.2777H31.1068V69.5535H89.9261L79.4109 46.2777Z" fill="#F4D99B"/>
<path d="M-20.538 105.207L-6.24392 102.085L8.05013 105.207H-20.538Z" fill="#F4D99B"/>
<path d="M-6.2439 102.085V91.5696H8.05015V105.206L-6.2439 102.085Z" fill="#E8D098"/>
<path d="M32.9141 46.2777L37.8431 69.5535H31.1068V46.2777H32.9141Z" fill="#E8D098"/>
</g>
</svg>
